<svg width="407" height="314" viewBox="0 0 407 314" fill="none" xmlns="http://www.w3.org/2000/svg">
<path d="M71.8851 225.135C48.2352 219.035 34.0078 194.919 40.1074 171.269C46.2069 147.619 70.3237 133.391 93.9736 139.491C117.623 145.59 131.851 169.707 125.751 193.357C119.652 217.007 95.535 231.234 71.8851 225.135Z" fill="#EBEBEB"/>
<path opacity="0.5" d="M88.1076 226.238C95.0008 225.427 101.606 223.005 107.39 219.168C113.173 215.331 117.973 210.186 121.399 204.151C124.826 198.115 126.784 191.357 127.115 184.424C127.445 177.492 126.14 170.578 123.303 164.244C120.466 157.909 116.179 152.331 110.787 147.961C105.395 143.591 99.0495 140.551 92.2649 139.088C85.4802 137.625 78.4464 137.779 71.7324 139.538C65.0184 141.298 58.8127 144.612 53.6174 149.215C60.7553 143.383 69.7557 140.318 78.9695 140.582C88.1832 140.846 96.9932 144.422 103.785 150.653C110.577 156.885 114.896 165.355 115.951 174.512C117.006 183.669 114.726 192.899 109.528 200.512C104.331 208.125 96.5649 213.609 87.6525 215.962C78.7401 218.314 69.2786 217.376 61.0017 213.319C52.7247 209.263 46.1866 202.36 42.5853 193.875C38.984 185.39 38.5607 175.892 41.393 167.12C38.802 174.215 38.0709 181.856 39.2692 189.314C40.4675 196.772 43.5553 203.8 48.2386 209.726C52.9219 215.653 59.0446 220.282 66.0236 223.172C73.0026 226.063 80.6053 227.118 88.1076 226.238Z" fill="#DBDBDB"/>
<path d="M96.6891 171.89C96.8339 173.112 97.3378 174.264 98.137 175.2C98.9363 176.136 99.9951 176.814 101.18 177.148C102.364 177.482 103.621 177.458 104.792 177.078C105.962 176.698 106.994 175.979 107.756 175.013C108.518 174.047 108.977 172.876 109.074 171.649C109.171 170.423 108.903 169.194 108.302 168.12C107.701 167.046 106.796 166.174 105.7 165.614C104.604 165.055 103.366 164.833 102.144 164.976C101.332 165.072 100.546 165.326 99.8322 165.725C99.1183 166.125 98.4901 166.661 97.9835 167.303C97.4769 167.945 97.1018 168.68 96.8797 169.468C96.6576 170.255 96.5928 171.078 96.6891 171.89Z" fill="#C7C7C7"/>
<path d="M54.7454 176.839C54.8902 178.061 55.3941 179.213 56.1933 180.148C56.9926 181.084 58.0514 181.762 59.2359 182.096C60.4203 182.431 61.6773 182.406 62.8478 182.026C64.0184 181.646 65.05 180.928 65.8123 179.961C66.5746 178.995 67.0333 177.825 67.1305 176.598C67.2278 175.371 66.959 174.143 66.3584 173.069C65.7578 171.995 64.8522 171.122 63.756 170.563C62.6599 170.003 61.4225 169.781 60.2002 169.925C58.5619 170.123 57.0685 170.961 56.0464 172.256C55.0242 173.552 54.5565 175.199 54.7454 176.839Z" fill="#C7C7C7"/>
<path d="M72.3621 172.86C72.6537 175.333 73.9156 177.589 75.8704 179.131C77.8251 180.674 80.3126 181.376 82.7854 181.085C85.2583 180.793 87.5142 179.531 89.0566 177.576C90.5991 175.622 91.3018 173.134 91.0103 170.661L72.3621 172.86Z" fill="#C7C7C7"/>
<path d="M75.1084 178.459C76.1108 179.44 77.3203 180.184 78.6479 180.636C79.9756 181.089 81.3877 181.238 82.7806 181.073C84.1735 180.908 85.5118 180.434 86.6972 179.684C87.8826 178.934 88.885 177.928 89.6308 176.741C87.4034 175.247 84.7152 174.599 82.0519 174.914C79.3885 175.229 76.9257 176.487 75.1084 178.459Z" fill="#DBDBDB"/>
<path d="M330.663 162.184C320.473 147.849 323.833 127.967 338.168 117.777C352.503 107.586 372.385 110.946 382.575 125.281C392.766 139.616 389.406 159.498 375.071 169.689C360.736 179.879 340.854 176.519 330.663 162.184Z" fill="#EBEBEB"/>
<path opacity="0.5" d="M376.734 168.42C380.61 165.266 383.689 161.244 385.723 156.679C387.757 152.114 388.687 147.134 388.44 142.143C388.192 137.151 386.774 132.288 384.298 127.947C381.823 123.605 378.361 119.907 374.192 117.152C370.023 114.396 365.263 112.661 360.299 112.085C355.335 111.51 350.305 112.111 345.616 113.84C340.927 115.569 336.711 118.377 333.308 122.037C329.906 125.698 327.412 130.107 326.03 134.91C328.117 128.596 332.41 123.246 338.121 119.84C343.833 116.434 350.58 115.201 357.127 116.366C363.674 117.531 369.582 121.017 373.768 126.184C377.953 131.352 380.136 137.855 379.917 144.501C379.697 151.147 377.09 157.492 372.572 162.371C368.055 167.251 361.93 170.339 355.32 171.07C348.711 171.801 342.059 170.125 336.585 166.35C331.111 162.574 327.18 156.953 325.514 150.515C326.677 155.832 329.182 160.762 332.791 164.836C336.4 168.91 340.993 171.991 346.131 173.785C351.269 175.58 356.781 176.029 362.141 175.088C367.502 174.147 372.532 171.849 376.752 168.412L376.734 168.42Z" fill="#DBDBDB"/>
<path d="M337.373 151.271C337.933 151.957 338.684 152.461 339.53 152.72C340.377 152.979 341.281 152.981 342.129 152.727C342.977 152.472 343.73 151.972 344.294 151.289C344.858 150.606 345.206 149.772 345.296 148.891C345.386 148.01 345.213 147.123 344.798 146.34C344.384 145.558 343.747 144.916 342.968 144.496C342.189 144.075 341.302 143.895 340.421 143.978C339.54 144.061 338.703 144.403 338.016 144.962C337.557 145.332 337.177 145.79 336.896 146.309C336.616 146.827 336.44 147.396 336.381 147.983C336.321 148.569 336.378 149.162 336.548 149.726C336.718 150.291 336.998 150.816 337.373 151.271Z" fill="#C7C7C7"/>
<path d="M360.962 132.065C361.523 132.75 362.273 133.254 363.12 133.513C363.967 133.772 364.871 133.775 365.719 133.52C366.567 133.265 367.32 132.765 367.884 132.082C368.447 131.4 368.796 130.565 368.886 129.685C368.976 128.804 368.802 127.916 368.388 127.134C367.974 126.352 367.337 125.71 366.557 125.289C365.778 124.869 364.892 124.689 364.011 124.771C363.129 124.854 362.292 125.197 361.605 125.755C361.147 126.126 360.766 126.584 360.486 127.102C360.205 127.621 360.03 128.19 359.97 128.776C359.911 129.363 359.967 129.955 360.138 130.52C360.308 131.084 360.588 131.609 360.962 132.065Z" fill="#C7C7C7"/>
<path d="M357.702 132.207C358.508 133.964 358.792 135.916 358.52 137.83C358.136 139.629 357.127 141.235 355.672 142.361C354.306 143.59 352.54 144.279 350.703 144.3C348.769 144.219 346.89 143.633 345.253 142.601C346.636 144.181 348.55 145.199 350.633 145.462C351.702 145.587 352.785 145.473 353.805 145.128C354.822 144.757 355.767 144.212 356.596 143.515C357.417 142.819 358.12 141.994 358.676 141.072C359.223 140.126 359.549 139.069 359.63 137.979C359.765 135.877 359.073 133.806 357.702 132.207Z" fill="#C7C7C7"/>
</svg>
