<svg width="726" height="408" viewBox="0 0 726 408" fill="none" xmlns="http://www.w3.org/2000/svg">
<path d="M93.7131 375.512L153.821 375.252L213.928 375.154L334.156 374.97L454.371 375.154L514.491 375.252L574.599 375.512L514.491 375.783L454.371 375.869L334.156 376.053L213.928 375.869L153.821 375.772L93.7131 375.512Z" fill="#263238"/>
<path d="M519.78 245.702C518.643 239.823 522.486 234.135 528.365 232.998C534.244 231.86 539.932 235.704 541.069 241.583C542.206 247.462 538.363 253.149 532.484 254.287C526.605 255.424 520.917 251.58 519.78 245.702Z" fill="#EBEBEB"/>
<path opacity="0.5" d="M533.178 254.128C534.824 253.697 536.345 252.885 537.619 251.756C538.893 250.628 539.883 249.216 540.51 247.635C541.137 246.053 541.383 244.346 541.228 242.652C541.072 240.957 540.521 239.323 539.617 237.882C538.714 236.44 537.483 235.232 536.026 234.354C534.569 233.476 532.925 232.953 531.228 232.828C529.532 232.703 527.829 232.978 526.259 233.633C524.688 234.288 523.294 235.303 522.189 236.596C523.726 234.934 525.81 233.881 528.06 233.631C530.31 233.38 532.575 233.949 534.44 235.233C536.304 236.517 537.644 238.43 538.212 240.621C538.781 242.813 538.541 245.135 537.536 247.164C536.532 249.193 534.829 250.791 532.741 251.667C530.654 252.542 528.32 252.636 526.169 251.931C524.018 251.226 522.193 249.769 521.028 247.827C519.864 245.886 519.438 243.59 519.83 241.36C519.44 243.171 519.522 245.052 520.066 246.823C520.61 248.595 521.599 250.197 522.938 251.477C524.278 252.757 525.923 253.673 527.716 254.138C529.51 254.602 531.393 254.598 533.185 254.128H533.178Z" fill="#DBDBDB"/>
<path d="M523.398 243.266C523.475 243.557 523.636 243.819 523.862 244.019C524.088 244.218 524.368 244.346 524.667 244.387C524.965 244.428 525.269 244.379 525.54 244.247C525.811 244.115 526.037 243.905 526.189 243.645C526.341 243.385 526.412 243.085 526.394 242.784C526.376 242.483 526.269 242.195 526.087 241.955C525.905 241.714 525.655 241.534 525.37 241.435C525.086 241.337 524.778 241.325 524.486 241.401C524.292 241.451 524.11 241.539 523.95 241.661C523.79 241.782 523.655 241.933 523.554 242.107C523.453 242.28 523.387 242.472 523.36 242.671C523.333 242.869 523.346 243.072 523.398 243.266Z" fill="#C7C7C7"/>
<path d="M533.415 240.639C533.492 240.93 533.654 241.192 533.88 241.392C534.105 241.591 534.385 241.719 534.684 241.76C534.983 241.801 535.287 241.752 535.558 241.62C535.828 241.488 536.054 241.278 536.206 241.018C536.358 240.758 536.429 240.458 536.411 240.157C536.393 239.856 536.286 239.568 536.104 239.328C535.922 239.087 535.673 238.907 535.388 238.808C535.103 238.71 534.795 238.698 534.504 238.774C534.309 238.824 534.127 238.912 533.967 239.034C533.807 239.155 533.672 239.306 533.571 239.48C533.47 239.653 533.404 239.845 533.377 240.044C533.351 240.243 533.363 240.445 533.415 240.639Z" fill="#C7C7C7"/>
<path d="M532.385 240.223C532.387 240.881 532.2 241.526 531.846 242.081C531.473 242.585 530.934 242.94 530.324 243.084C529.728 243.272 529.083 243.236 528.511 242.984C527.923 242.686 527.424 242.24 527.062 241.69C527.267 242.374 527.717 242.959 528.326 243.335C528.639 243.524 528.991 243.641 529.356 243.678C529.723 243.707 530.093 243.671 530.448 243.572C530.801 243.472 531.135 243.315 531.437 243.108C531.74 242.892 531.99 242.61 532.169 242.284C532.507 241.651 532.584 240.912 532.385 240.223Z" fill="#C7C7C7"/>
<path d="M197.202 290.507C183.491 303.928 181.165 324.696 184.072 342.889C184.152 343.3 184.794 343.189 184.794 342.798C184.794 338.659 184.663 334.559 184.673 330.47C184.753 330.279 184.814 330.099 184.894 329.918C188.472 327.312 191.79 324.386 193.794 320.376C196.09 315.866 196.992 310.794 198.736 306.083C198.906 305.632 198.425 305.762 198.104 306.003C189.765 312.147 187.079 318.773 184.713 327.613C184.761 322.987 185.247 318.375 186.167 313.841C187.971 305.452 191.529 297.122 197.563 290.898C197.615 290.85 197.646 290.784 197.649 290.713C197.651 290.643 197.626 290.574 197.578 290.522C197.53 290.47 197.464 290.44 197.393 290.437C197.323 290.434 197.254 290.459 197.202 290.507Z" fill="#A6A6A6"/>
<path d="M199.808 292.071C202.164 292.151 203.647 295.92 205.482 297.022C205.675 297.179 205.899 297.293 206.139 297.358C206.379 297.423 206.63 297.436 206.876 297.397C207.122 297.359 207.357 297.269 207.566 297.133C207.774 296.998 207.952 296.82 208.088 296.611C209.912 294.065 207.406 290.928 205.081 289.174C206.765 289.866 208.158 291.078 209.972 291.429C210.204 291.503 210.449 291.527 210.69 291.498C210.932 291.47 211.165 291.391 211.373 291.266C211.582 291.14 211.761 290.972 211.9 290.772C212.039 290.573 212.133 290.345 212.177 290.106C212.969 286.638 208.629 285.095 205.642 285.024C207.085 284.022 211.235 281.286 209.03 279.943C206.825 278.6 201.933 282.499 200.35 283.782C198.014 285.676 195.238 288.502 195.128 291.459C194.947 294.917 197.964 292.792 199.808 292.071Z" fill="#DBDBDB"/>
<path d="M199.097 292.652C202.104 291.279 207.907 293.253 208.398 292.111C209.401 289.785 204.77 288.192 202.264 287.881C204.569 287.259 208.98 286.267 208.849 284.052C208.679 281.336 202.084 283.671 198.736 286.227C194.536 289.455 194.556 292.572 195.258 293.193C196.21 294.045 198.595 292.873 199.097 292.652Z" fill="#EBEBEB"/>
<path d="M165.97 289.174C180.183 302.064 183.28 322.732 181.075 341.024C181.075 341.435 180.373 341.355 180.363 340.964C180.203 336.825 180.173 332.715 180.003 328.636L179.772 328.084C176.104 325.629 172.696 322.812 170.511 318.863C168.045 314.453 166.952 309.411 165.028 304.77C164.847 304.329 165.329 304.44 165.649 304.66C174.219 310.494 177.136 317.009 179.862 325.759C179.626 321.136 178.954 316.545 177.858 312.047C175.733 303.728 171.844 295.549 165.589 289.555C165.389 289.304 165.729 288.944 165.97 289.174Z" fill="#A6A6A6"/>
<path d="M163.454 290.838C161.098 291.008 159.765 294.847 157.971 296C157.785 296.165 157.566 296.289 157.329 296.363C157.091 296.437 156.841 296.46 156.594 296.431C156.346 296.402 156.108 296.32 155.895 296.193C155.682 296.065 155.498 295.893 155.355 295.689C153.441 293.213 155.816 289.986 158.102 288.142C156.448 288.903 155.095 290.146 153.3 290.577C153.069 290.662 152.822 290.695 152.577 290.674C152.332 290.654 152.094 290.581 151.88 290.46C151.665 290.339 151.48 290.173 151.336 289.974C151.192 289.774 151.093 289.546 151.045 289.304C150.113 285.866 154.403 284.162 157.38 283.972C155.896 283.03 151.647 280.454 153.802 279.031C155.957 277.607 160.988 281.316 162.622 282.539C165.028 284.343 167.914 287.059 168.125 290.016C168.395 293.504 165.298 291.489 163.454 290.838Z" fill="#DBDBDB"/>
<path d="M164.156 291.389C161.099 290.136 155.375 292.331 154.844 291.209C153.762 288.923 158.322 287.199 160.858 286.748C158.533 286.217 154.092 285.385 154.143 283.17C154.203 280.454 160.888 282.529 164.326 284.964C168.646 288.031 168.736 291.139 168.065 291.79C167.103 292.682 164.667 291.6 164.156 291.389Z" fill="#EBEBEB"/>
<path d="M180.504 323.223C181.468 330.119 182.945 336.934 184.924 343.61C184.953 343.741 185.032 343.855 185.144 343.928C185.256 344.001 185.392 344.028 185.523 344.001C185.655 343.975 185.77 343.899 185.846 343.788C185.921 343.677 185.95 343.542 185.926 343.41C184.994 337.135 183.29 330.961 182.358 324.686C181.334 318.329 180.967 311.884 181.265 305.452C181.857 294.867 184.733 283.601 191.639 275.322C191.8 275.121 191.469 274.851 191.319 275.031C177.487 291.159 179.692 310.924 179.702 312.699C177.697 306.023 175.692 298.365 168.315 291.57C167.995 291.279 167.744 291.419 167.804 291.92C169.117 304.339 172.555 310.764 179.762 317.369C179.942 319.374 180.193 321.299 180.504 323.223Z" fill="#A6A6A6"/>
<path d="M191.79 277.176C194.276 276.073 197.714 279.241 200.169 279.451C200.449 279.524 200.74 279.535 201.024 279.484C201.308 279.433 201.578 279.321 201.815 279.157C202.052 278.992 202.251 278.778 202.397 278.53C202.544 278.281 202.635 278.004 202.665 277.717C203.277 274.159 199.107 272.164 195.779 271.533C197.874 271.403 199.929 271.954 201.984 271.403C202.26 271.359 202.524 271.257 202.758 271.105C202.993 270.953 203.193 270.753 203.346 270.519C203.499 270.285 203.601 270.022 203.646 269.746C203.691 269.47 203.678 269.187 203.607 268.917C202.695 264.908 197.403 265.509 194.276 266.912C195.278 265.138 198.195 260.217 195.278 259.896C192.361 259.575 189.204 266.12 188.212 268.255C186.738 271.393 185.275 275.733 186.658 278.85C188.181 282.569 190.236 278.84 191.79 277.176Z" fill="#DBDBDB"/>
<path d="M191.339 278.119C193.784 275.182 200.791 274.31 200.721 272.876C200.59 269.97 194.987 270.641 192.241 271.583C194.306 269.779 198.385 266.522 197.132 264.286C195.589 261.56 189.915 267.293 187.74 271.644C185.004 277.106 186.598 280.324 187.63 280.614C189.053 281.025 190.938 278.61 191.339 278.119Z" fill="#EBEBEB"/>
<path d="M171.402 326.952L165.308 373.56H202.394C201.633 369.43 194.727 326.902 194.727 326.902L171.402 326.952Z" fill="#DBDBDB"/>
<path d="M533.382 190.706H559.924V179.49H533.382V190.706Z" fill="#EBEBEB"/>
<path d="M548.186 176.563H574.728V165.347H548.186V176.563Z" fill="#EBEBEB"/>
<path d="M518.568 176.563H545.11V165.347H518.568V176.563Z" fill="#EBEBEB"/>
<path d="M136.381 335.361H162.923V324.145H136.381V335.361Z" fill="#EBEBEB"/>
<path d="M121.577 321.218H148.119V310.002H121.577V321.218Z" fill="#EBEBEB"/>
<path d="M14.8041 215.578H41.3457V204.362H14.8041V215.578Z" fill="#EBEBEB"/>
<path d="M-6.86646e-05 201.435H26.5415V190.219H-6.86646e-05V201.435Z" fill="#EBEBEB"/>
<path d="M710.631 58.5166H684.09V47.3006H710.631V58.5166Z" fill="#EBEBEB"/>
<path d="M725.435 44.3738H698.894V33.1578H725.435V44.3738Z" fill="#EBEBEB"/>
<path d="M618.356 335.351H644.898V324.135H618.356V335.351Z" fill="#EBEBEB"/>
<path d="M236.804 86.093H210.263V97.309H236.804V86.093Z" fill="#EBEBEB"/>
<path d="M221.99 100.236H195.448V111.452H221.99V100.236Z" fill="#EBEBEB"/>
<path d="M271.744 154.888C271.468 154.57 271.171 154.269 270.856 153.989C270.573 153.676 270.272 153.38 269.957 153.1C269.677 152.785 269.381 152.484 269.068 152.201C268.788 151.886 268.487 151.589 268.169 151.313C267.887 150.999 267.584 150.695 267.281 150.413C267.007 150.096 266.71 149.799 266.392 149.525C266.109 149.209 265.809 148.909 265.493 148.626C265.219 148.309 264.922 148.012 264.605 147.738C264.321 147.425 264.021 147.129 263.706 146.849C262.788 145.838 261.717 144.979 260.531 144.303V54.7722C260.531 54.2955 260.304 54.0571 260.304 53.5804C260.362 53.0943 260.28 52.6015 260.065 52.1612C260.065 51.9228 259.838 51.4462 259.838 51.2078C259.707 50.7208 259.545 50.243 259.35 49.7777C259.1 49.516 258.937 49.1828 258.884 48.8244C258.612 48.3964 258.292 48.0003 257.931 47.6435C257.682 47.4051 257.454 46.9393 257.216 46.6901L256.263 45.7367C256.263 45.5959 256.078 45.4442 255.873 45.3575L255.407 44.8808H255.353C255.353 44.7292 255.179 44.5883 254.973 44.4908L254.497 44.025C254.497 43.8841 254.313 43.7325 254.107 43.6349L253.641 43.1691C253.641 43.0174 253.457 42.8766 253.251 42.7791L252.785 42.3024C252.785 42.1615 252.601 42.0099 252.395 41.9124L251.918 41.4465V41.3923C251.918 41.2515 251.734 41.1107 251.528 41.0132L251.062 40.5365H251.008C251.008 40.3956 250.835 40.2439 250.629 40.1464L250.152 39.6806V39.6264C250.152 39.4856 249.968 39.3447 249.762 39.2472L249.296 38.7705H249.242C249.242 38.6189 249.069 38.478 248.863 38.3805L248.386 37.9147C248.386 37.7738 248.202 37.6221 247.996 37.5355L247.476 37.0155C247.476 36.7771 247.011 36.5388 246.761 36.5388C246.763 36.508 246.758 36.4772 246.747 36.4484C246.736 36.4195 246.72 36.3931 246.699 36.3708C246.677 36.3486 246.652 36.3308 246.623 36.3187C246.595 36.3066 246.565 36.3004 246.534 36.3004C246.057 36.0729 245.808 35.8237 245.342 35.5854C244.932 35.2882 244.538 34.97 244.161 34.632C243.923 34.632 243.446 34.4045 243.208 34.4045C242.731 34.1661 242.016 34.1662 241.778 33.917C241.367 33.9504 240.955 33.8718 240.586 33.6895H236.556C236.273 33.8711 235.937 33.9513 235.602 33.917C234.887 34.1662 234.422 34.1661 234.172 34.4045C233.707 34.4045 233.468 34.632 233.219 35.1195C232.71 35.1314 232.217 35.2935 231.8 35.5854C231.572 35.8237 231.085 36.0729 230.846 36.3004C230.53 36.6476 230.12 36.8959 229.666 37.0155C229.488 37.3746 229.246 37.6978 228.95 37.9688C228.712 38.2072 228.712 38.4347 228.485 38.4347L140.221 147.434C138.134 149.94 137.092 153.154 137.312 156.408C137.532 159.662 138.997 162.707 141.402 164.909C141.681 165.236 141.985 165.541 142.312 165.819C142.584 166.145 142.885 166.446 143.211 166.718C143.49 167.046 143.794 167.35 144.121 167.629C144.396 167.956 144.697 168.26 145.021 168.539C145.299 168.862 145.603 169.163 145.931 169.438C146.205 169.765 146.506 170.069 146.83 170.348C147.108 170.672 147.413 170.972 147.74 171.247C148.015 171.574 148.315 171.878 148.639 172.157C148.918 172.481 149.222 172.782 149.549 173.056C150.109 173.693 150.734 174.27 151.413 174.779C153.644 176.719 156.529 177.737 159.484 177.628H225.267V186.631C225.248 188.464 225.616 190.28 226.348 191.96C227.08 193.641 228.159 195.148 229.514 196.382C229.796 196.685 230.088 196.977 230.381 197.248C230.657 197.557 230.95 197.85 231.258 198.126C231.54 198.429 231.832 198.722 232.136 198.993C232.412 199.301 232.705 199.594 233.013 199.87C233.295 200.173 233.587 200.466 233.891 200.748C234.164 201.059 234.457 201.352 234.768 201.625C235.039 201.929 235.332 202.221 235.635 202.503C235.911 202.811 236.204 203.104 236.513 203.38C236.783 203.673 237.076 203.965 237.379 204.247C239.169 206.182 241.499 207.532 244.068 208.124C246.636 208.715 249.322 208.519 251.778 207.561C254.233 206.604 256.343 204.929 257.833 202.755C259.322 200.581 260.123 198.009 260.13 195.374V177.585H262.514C264.248 177.614 265.971 177.297 267.582 176.653C269.193 176.01 270.66 175.052 271.897 173.836C273.134 172.62 274.117 171.17 274.788 169.571C275.459 167.971 275.806 166.254 275.807 164.519C275.833 162.72 275.486 160.935 274.786 159.277C274.087 157.619 273.051 156.125 271.744 154.888ZM225.245 103.969V142.364H194.304L225.245 103.969Z" fill="#D8D8D8"/>
<path d="M267.042 155.462C267.041 157.198 266.694 158.916 266.022 160.516C265.35 162.116 264.367 163.567 263.128 164.783C261.89 165.999 260.422 166.956 258.81 167.599C257.198 168.242 255.474 168.558 253.738 168.528H251.366V186.588C251.366 190.053 249.989 193.376 247.539 195.827C245.088 198.277 241.765 199.653 238.3 199.653C234.835 199.653 231.511 198.277 229.061 195.827C226.611 193.376 225.234 190.053 225.234 186.588V168.528H150.405C147.468 168.627 144.603 167.609 142.388 165.678C141.015 164.647 139.866 163.347 139.01 161.859C138.153 160.371 137.607 158.725 137.405 157.019C137.202 155.314 137.347 153.586 137.831 151.939C138.316 150.291 139.128 148.759 140.221 147.434L228.084 38.1097C228.322 38.1097 228.322 37.8822 228.56 37.6439C228.855 37.3729 229.098 37.0496 229.275 36.6905C229.731 36.5673 230.144 36.3197 230.467 35.9755C230.695 35.7371 231.171 35.4988 231.41 35.2604C231.828 34.9614 232.326 34.7953 232.84 34.7837C233.078 34.3179 233.316 34.0795 233.793 34.0795C234.021 33.8412 234.497 33.8412 235.212 33.6028C235.548 33.6385 235.886 33.5541 236.166 33.3645H240.207C240.568 33.5581 240.979 33.641 241.388 33.6028C241.626 33.8412 242.341 33.8412 242.818 34.0795C243.056 34.0795 243.533 34.3179 243.771 34.3179C244.237 34.7837 244.714 35.0221 244.952 35.2604C245.429 35.4988 245.667 35.7371 246.144 35.9755C246.207 35.9755 246.267 36.0006 246.312 36.0453C246.357 36.09 246.382 36.1506 246.382 36.2138C246.62 36.2138 247.097 36.4522 247.097 36.6905L248.04 37.6439C248.278 37.8822 248.516 38.3481 248.755 38.5864C249.118 38.9449 249.438 39.3449 249.708 39.7782C249.768 40.1366 249.934 40.4688 250.185 40.7315C250.38 41.1903 250.536 41.6652 250.651 42.1508C250.651 42.3891 250.889 42.8658 250.889 43.1041C251.103 43.5482 251.186 44.0445 251.127 44.5342C251.127 45.0001 251.366 45.2384 251.366 45.7151V142.396H253.738C257.231 142.379 260.589 143.742 263.081 146.19C265.573 148.637 266.996 151.97 267.042 155.462ZM225.234 83.7203L177.966 142.396H225.234V83.7203Z" fill="#1D3C58"/>
<path d="M406.008 68.7803C403.326 64.6992 400.21 60.9214 396.713 57.5131C396.584 57.3713 396.446 57.2374 396.301 57.1122L396.182 56.993C396.073 56.8739 395.965 56.7547 395.846 56.6463C395.543 56.3213 395.218 56.018 394.903 55.7038L394.817 55.628L394.492 55.303C394.455 55.2606 394.415 55.2207 394.373 55.1838C394.264 55.0646 394.156 54.9454 394.037 54.8371C393.733 54.5121 393.408 54.2087 393.094 53.8946L393.007 53.8187L392.682 53.4937L392.563 53.3745C392.455 53.2553 392.347 53.1362 392.227 53.0278C391.924 52.7028 391.599 52.3995 391.285 52.0853L391.198 52.0095L390.873 51.6844C390.873 51.6844 390.797 51.5978 390.754 51.5653C390.647 51.4417 390.531 51.3259 390.407 51.2186C390.115 50.8827 389.79 50.5902 389.476 50.276L389.389 50.2002C389.289 50.0839 389.18 49.9752 389.064 49.8752C389.064 49.8752 388.988 49.7885 388.945 49.756C379.4 39.9189 366.963 33.4077 353.009 33.4077C334.234 33.4077 318.806 44.5774 308.817 59.7665C298.363 74.9339 292.913 94.7057 292.675 116.547C292.913 138.215 298.363 158.116 308.817 173.327C311.495 177.347 314.577 181.083 318.015 184.475L318.492 184.941V184.995L319.337 185.84C319.478 186.003 319.63 186.143 319.771 186.284L320.247 186.75L320.301 186.804L321.146 187.649L321.58 188.104L322.056 188.559C322.08 188.572 322.098 188.591 322.111 188.614L322.956 189.459L323.389 189.914L323.866 190.369C323.879 190.375 323.89 190.385 323.899 190.396C323.909 190.407 323.916 190.42 323.92 190.434L324.765 191.279L325.209 191.723L325.675 192.178L325.74 192.243L326.585 193.088C335.967 202.459 348.079 208.754 362.001 208.754C380.288 208.754 395.965 197.346 405.954 182.373C416.159 167.206 421.869 147.217 421.869 125.604C421.901 103.709 416.214 83.991 406.008 68.7803ZM375.099 158.56C368.209 168.766 360.365 173.284 353.009 173.284C348.482 173.174 344.102 171.66 340.474 168.95C340.138 168.517 339.813 168.062 339.488 167.585C332.836 157.607 328.08 142.407 328.08 125.539C328.08 108.432 332.836 93.4706 339.488 83.2868C346.628 73.3088 354.656 68.5636 362.055 68.7911C366.344 68.7715 370.525 70.1397 373.972 72.6913C374.352 73.2005 374.72 73.6988 375.056 74.2297C381.708 84.446 386.453 99.4076 386.453 116.482C386.496 133.35 381.751 148.572 375.099 158.56Z" fill="#D8D8D8"/>
<path d="M292.664 116.504C292.903 94.6517 298.374 74.934 308.818 59.7341C318.796 44.5667 334.234 33.3645 353.009 33.3645C371.296 33.3645 386.973 44.5342 396.951 59.7341C407.167 74.9015 412.866 94.6517 412.866 116.504C412.866 138.171 407.167 158.084 396.951 173.284C386.973 188.245 371.296 199.653 353.009 199.653C334.234 199.653 318.796 188.245 308.818 173.284C298.395 158.084 292.903 138.128 292.664 116.504ZM386.496 116.504C386.496 99.4077 381.751 84.4353 375.099 74.2515C368.209 64.2735 360.376 59.5283 353.009 59.7666C345.642 59.5283 337.56 64.2735 330.442 74.2515C323.79 84.4678 319.034 99.4402 319.034 116.504C319.034 133.372 323.79 148.583 330.442 158.55C337.56 168.766 345.609 173.284 353.009 173.284C360.408 173.284 368.176 168.766 375.099 158.55C381.751 148.583 386.496 133.35 386.496 116.504Z" fill="#1D3C58"/>
<path d="M567.844 154.888C567.563 154.574 567.259 154.27 566.956 153.989C566.663 153.674 566.36 153.382 566.057 153.1C565.764 152.786 565.472 152.483 565.168 152.201C564.876 151.887 564.573 151.584 564.269 151.313C563.977 150.999 563.684 150.695 563.381 150.413C563.088 150.099 562.785 149.796 562.482 149.525C562.189 149.211 561.886 148.908 561.593 148.626C561.314 148.314 561.017 148.017 560.705 147.738C560.412 147.423 560.109 147.131 559.806 146.849C558.888 145.835 557.812 144.975 556.62 144.303V54.7722C556.62 54.2955 556.393 54.0571 556.393 53.5804C556.452 53.0943 556.369 52.6015 556.155 52.1612C556.155 51.9228 555.927 51.4461 555.927 51.2078C555.797 50.7208 555.634 50.243 555.44 49.7777C555.194 49.5129 555.031 49.1812 554.974 48.8244C554.705 48.3938 554.384 47.9974 554.02 47.6435C553.771 47.4051 553.544 46.9393 553.305 46.6901L552.352 45.7367C552.352 45.5959 552.168 45.4442 551.962 45.3575L551.496 44.8808H551.442C551.442 44.7292 551.269 44.5883 551.063 44.4908L550.586 44.025C550.586 43.8841 550.402 43.7325 550.196 43.6349L549.73 43.1691C549.73 43.0174 549.546 42.8766 549.34 42.7791L548.874 42.3024C548.874 42.1615 548.69 42.0099 548.484 41.9124L548.008 41.4465V41.3923C548.008 41.2515 547.823 41.1107 547.618 41.0132L547.152 40.5365H547.098C547.098 40.3956 546.924 40.2439 546.718 40.1464L546.242 39.6806V39.6264C546.242 39.4856 546.057 39.3447 545.852 39.2472L545.386 38.7705H545.332C545.332 38.6189 545.158 38.478 544.952 38.3805L544.476 37.9147C544.476 37.7738 544.292 37.6221 544.086 37.5355L543.566 37.0155C543.566 36.7771 543.1 36.5388 542.851 36.5388C542.851 36.5075 542.844 36.4765 542.833 36.4476C542.821 36.4186 542.803 36.3924 542.781 36.3702C542.759 36.3481 542.732 36.3305 542.703 36.3186C542.675 36.3066 542.644 36.3004 542.612 36.3004C542.146 36.0729 541.897 35.8237 541.431 35.5854C541.022 35.2882 540.627 34.97 540.251 34.632C540.012 34.632 539.535 34.4045 539.297 34.4045C538.82 34.1661 538.116 34.1662 537.867 33.917C537.457 33.9515 537.044 33.8728 536.675 33.6895H532.645C532.362 33.8711 532.026 33.9513 531.692 33.917C530.977 34.1662 530.511 34.1661 530.262 34.4045C529.796 34.4045 529.558 34.632 529.308 35.1195C528.8 35.1327 528.306 35.2946 527.889 35.5854C527.662 35.8237 527.174 36.0729 526.947 36.3004C526.623 36.6447 526.211 36.8922 525.755 37.0155C525.574 37.3724 525.332 37.695 525.04 37.9688C524.801 38.2072 524.801 38.4347 524.574 38.4347L436.289 147.434C434.202 149.94 433.16 153.154 433.38 156.408C433.6 159.662 435.064 162.707 437.47 164.909C437.748 165.236 438.052 165.541 438.38 165.819C438.652 166.145 438.953 166.446 439.279 166.718C439.557 167.046 439.862 167.35 440.189 167.628C441.097 168.53 442 169.436 442.897 170.348C443.508 170.944 444.111 171.547 444.707 172.157C444.985 172.481 445.29 172.782 445.617 173.056C446.177 173.693 446.801 174.27 447.48 174.779C449.711 176.719 452.597 177.737 455.551 177.628H521.335V186.631C521.315 188.464 521.683 190.28 522.415 191.96C523.147 193.641 524.226 195.148 525.581 196.382C525.863 196.696 526.167 196.988 526.459 197.259C526.73 197.562 527.022 197.844 527.326 198.126C527.605 198.435 527.902 198.727 528.214 199.003C528.496 199.307 528.777 199.588 529.081 199.87C529.362 200.184 529.666 200.477 529.969 200.758C530.251 201.062 530.533 201.354 530.836 201.625C531.118 201.939 531.421 202.232 531.724 202.514C532.006 202.817 532.288 203.109 532.591 203.38C532.867 203.692 533.16 203.989 533.469 204.269C535.259 206.204 537.59 207.555 540.159 208.146C542.729 208.737 545.416 208.54 547.872 207.581C550.328 206.622 552.437 204.946 553.926 202.77C555.415 200.595 556.215 198.021 556.22 195.385V177.585H558.603C560.339 177.615 562.063 177.299 563.676 176.657C565.289 176.014 566.758 175.057 567.997 173.841C569.236 172.625 570.221 171.174 570.894 169.574C571.567 167.974 571.915 166.255 571.918 164.519C571.943 162.719 571.593 160.934 570.892 159.276C570.191 157.618 569.153 156.124 567.844 154.888ZM521.335 103.969V142.364H490.393L521.335 103.969Z" fill="#D8D8D8"/>
<path d="M563.132 155.462C563.13 157.198 562.784 158.916 562.112 160.516C561.44 162.116 560.456 163.567 559.218 164.783C557.979 165.999 556.511 166.956 554.899 167.599C553.287 168.242 551.563 168.558 549.828 168.528H547.455V186.588C547.455 190.053 546.078 193.376 543.628 195.827C541.178 198.277 537.855 199.653 534.389 199.653C530.924 199.653 527.601 198.277 525.151 195.827C522.7 193.376 521.324 190.053 521.324 186.588V168.528H446.494C443.539 168.641 440.652 167.622 438.423 165.678C437.044 164.646 435.889 163.345 435.029 161.853C434.168 160.361 433.62 158.71 433.418 156.999C433.215 155.289 433.362 153.555 433.85 151.904C434.338 150.252 435.157 148.717 436.256 147.391L524.173 38.1097C524.411 38.1097 524.411 37.8822 524.65 37.6439C524.945 37.3729 525.187 37.0496 525.365 36.6905C525.821 36.5673 526.233 36.3197 526.557 35.9755C526.795 35.7371 527.272 35.4988 527.51 35.2604C527.923 34.9598 528.418 34.7934 528.929 34.7837C529.167 34.3179 529.406 34.0795 529.872 34.0795C530.11 33.8412 530.587 33.8412 531.302 33.6028C531.638 33.6385 531.975 33.5541 532.255 33.3645H536.296C536.658 33.5581 537.069 33.641 537.477 33.6028C537.715 33.8412 538.43 33.8412 538.907 34.0795C539.145 34.0795 539.622 34.3179 539.861 34.3179C540.337 34.7837 540.803 35.0221 541.041 35.2604C541.518 35.4988 541.756 35.7371 542.233 35.9755C542.296 35.9755 542.357 36.0006 542.402 36.0453C542.446 36.09 542.471 36.1506 542.471 36.2138C542.71 36.2138 543.176 36.4522 543.176 36.6905L544.129 37.6439C544.367 37.8822 544.606 38.3481 544.844 38.5864C545.208 38.9449 545.528 39.3449 545.797 39.7782C545.857 40.1366 546.023 40.4688 546.274 40.7315C546.469 41.1917 546.629 41.6662 546.751 42.1508C546.751 42.3891 546.978 42.8658 546.978 43.1041C547.193 43.5482 547.276 44.0445 547.217 44.5342C547.217 45.0001 547.455 45.2384 547.455 45.7151V142.396H549.828C553.32 142.379 556.678 143.742 559.17 146.19C561.662 148.637 563.086 151.97 563.132 155.462ZM521.324 83.7203L474.056 142.396H521.324V83.7203Z" fill="#1D3C58"/>
<path d="M530.922 36.8309C530.286 42.9256 527.969 48.7235 524.229 53.5778C520.49 58.432 515.475 62.1516 509.744 64.3214C504.013 66.4912 497.793 67.0259 491.776 65.8657C485.759 64.7055 480.183 61.8961 475.67 57.7511L459.115 60.1888L467.403 45.8772C465.503 41.2191 464.689 36.189 465.025 31.1693C465.361 26.1496 466.837 21.2726 469.341 16.9092C471.845 12.5458 475.311 8.81082 479.476 5.9884C483.641 3.16598 488.394 1.33042 493.375 0.621325C498.355 -0.0877729 503.432 0.348268 508.219 1.89627C513.006 3.44428 517.376 6.06349 520.999 9.55471C524.621 13.0459 527.4 17.3172 529.123 22.0437C530.846 26.7703 531.469 31.8275 530.944 36.8309H530.922Z" fill="white"/>
<path d="M530.923 36.8311C530.289 42.9302 527.979 48.7348 524.249 53.6019C522.417 56.0517 520.226 58.2104 517.749 60.0047C512.826 63.6994 506.984 65.9705 500.859 66.57C499.332 66.7127 497.796 66.7417 496.265 66.6567C494.731 66.623 493.202 66.4636 491.693 66.18C485.593 65.0626 479.924 62.2677 475.323 58.1088L475.713 58.2279L459.192 60.7631L457.989 60.9472L458.596 59.8639L466.829 45.5307V46.094C464.424 40.174 463.762 33.6893 464.923 27.4055C466.083 21.1217 469.018 15.3011 473.379 10.6309C477.741 5.96074 483.347 2.63593 489.537 1.04904C495.727 -0.537857 502.242 -0.320593 508.312 1.67518C513.093 3.29945 517.449 5.97199 521.064 9.49723C524.671 13.0085 527.433 17.2936 529.141 22.0289C530.849 26.7642 531.458 31.8257 530.923 36.8311ZM530.923 36.8311C531.445 31.8533 530.818 26.8222 529.09 22.1248C527.362 17.4273 524.58 13.1889 520.957 9.73559C517.334 6.28227 512.968 3.70614 508.193 2.20544C503.418 0.704747 498.363 0.319497 493.416 1.07932C488.505 1.81887 483.828 3.67175 479.743 6.49625C475.698 9.34518 472.322 13.0424 469.852 17.3301C467.412 21.6187 465.975 26.4041 465.649 31.3275C465.348 36.2437 466.144 41.1653 467.978 45.7365L468.097 46.0399L467.945 46.3107L459.614 60.5897L459.018 59.7122L475.583 57.3937H475.811L475.973 57.5454C480.398 61.6812 485.886 64.5056 491.823 65.7033C493.301 66.0065 494.801 66.1913 496.308 66.2558C497.816 66.3588 499.329 66.3588 500.837 66.2558C503.857 66.0204 506.829 65.364 509.667 64.3057C512.528 63.2646 515.219 61.8041 517.651 59.9722C518.875 59.0757 520.04 58.1023 521.14 57.0579C522.212 55.9824 523.218 54.8427 524.151 53.6452C527.923 48.7761 530.267 42.9549 530.923 36.8311Z" fill="#263238"/>
<path d="M481.845 48.8456C481.825 48.4062 481.893 47.9672 482.048 47.5552C482.202 47.1432 482.438 46.7668 482.742 46.4487C483.046 46.1307 483.411 45.8776 483.815 45.7049C484.22 45.5321 484.655 45.4433 485.095 45.4438C485.997 45.4438 486.863 45.8022 487.501 46.4402C488.139 47.0781 488.497 47.9434 488.497 48.8456C488.497 49.7479 488.139 50.6131 487.501 51.2511C486.863 51.8891 485.997 52.2475 485.095 52.2475C484.655 52.2479 484.22 52.1591 483.815 51.9864C483.411 51.8137 483.046 51.5606 482.742 51.2425C482.438 50.9245 482.202 50.548 482.048 50.136C481.893 49.724 481.825 49.285 481.845 48.8456ZM483.221 41.0019L482.452 14.6648H487.717L486.905 40.9694L483.221 41.0019Z" fill="#FF6E41"/>
<path d="M494.488 48.8456C494.468 48.4062 494.537 47.9672 494.691 47.5552C494.845 47.1432 495.081 46.7668 495.385 46.4487C495.689 46.1307 496.054 45.8776 496.458 45.7049C496.863 45.5321 497.298 45.4433 497.738 45.4438C498.641 45.4438 499.506 45.8022 500.144 46.4402C500.782 47.0781 501.14 47.9434 501.14 48.8456C501.14 49.7479 500.782 50.6131 500.144 51.2511C499.506 51.8891 498.641 52.2475 497.738 52.2475C497.298 52.2479 496.863 52.1591 496.458 51.9864C496.054 51.8137 495.689 51.5606 495.385 51.2425C495.081 50.9245 494.845 50.548 494.691 50.136C494.537 49.724 494.468 49.285 494.488 48.8456ZM495.864 41.0019L495.095 14.6648H500.36L499.591 41.0019H495.864Z" fill="#FF6E41"/>
<path d="M507.088 48.8456C507.067 48.4062 507.136 47.9672 507.29 47.5552C507.445 47.1432 507.681 46.7668 507.985 46.4487C508.289 46.1307 508.654 45.8776 509.058 45.7049C509.463 45.5321 509.898 45.4433 510.338 45.4438C511.24 45.4438 512.106 45.8022 512.744 46.4402C513.382 47.0781 513.74 47.9434 513.74 48.8456C513.74 49.7479 513.382 50.6131 512.744 51.2511C512.106 51.8891 511.24 52.2475 510.338 52.2475C509.898 52.2479 509.463 52.1591 509.058 51.9864C508.654 51.8137 508.289 51.5606 507.985 51.2425C507.681 50.9245 507.445 50.548 507.29 50.136C507.136 49.724 507.067 49.285 507.088 48.8456ZM508.464 41.0019L507.695 14.6648H512.96L512.191 41.0019H508.464Z" fill="#FF6E41"/>
<path d="M362.865 245.417C362.83 245.646 362.876 245.88 362.995 246.079C363.113 246.278 363.297 246.429 363.515 246.508C364.565 246.668 365.846 246.838 367.266 247.038C371.498 237.855 375.819 230.622 374.599 233.483C372.735 237.978 371.512 242.713 370.968 247.548C372.618 247.768 376.47 248.238 378.39 248.468C382.812 232.083 387.684 220.038 387.113 223.82C384.793 239.075 385.203 244.057 385.733 249.389C403.669 251.57 427.228 254.151 444.304 255.621C447.095 246.618 449.706 236.774 449.946 237.495C451.816 242.846 451.776 250.409 451.306 256.211C456.748 256.641 461.11 256.871 463.781 256.871C463.781 256.871 465.781 249.249 466.141 246.728C467.213 240.278 467.152 233.69 465.961 227.261C464.731 220.699 462.11 214.797 459.659 208.764C459.652 208.727 459.642 208.69 459.629 208.654C458.004 204.702 456.836 200.577 456.148 196.36C456.141 196.327 456.141 196.293 456.148 196.26C455.691 193.184 455.493 190.075 455.558 186.967C455.778 175.583 450.676 165.349 440.982 161.648C424.427 144.732 401.689 152.494 395.266 166.799C392.755 173.212 390.264 181.585 388.094 188.037C388.1 188.048 388.103 188.06 388.103 188.072C388.103 188.084 388.1 188.096 388.094 188.107C387.275 190.638 386.302 193.117 385.183 195.53C379.231 207.054 367.766 212.996 362.865 245.417Z" fill="#263238"/>
<path d="M444.974 165.009C451.186 169.12 454.728 174.732 454.978 183.075C455.138 187.937 454.978 192.669 456.348 197.34C457.719 202.162 460.2 206.224 462.77 210.275C466.842 216.717 469.523 223.04 469.513 231.203C469.503 239.365 468.272 249.209 464.981 256.702C464.981 256.752 464.901 256.702 464.921 256.702C467.722 249.049 468.743 238.265 468.172 230.002C467.542 220.919 463.301 214.937 459.039 207.764C455.605 202.071 453.706 195.584 453.527 188.937C453.407 184.816 453.847 180.565 452.647 176.603C451.226 171.881 447.825 168.69 444.424 165.839C443.974 165.429 444.504 164.699 444.974 165.009Z" fill="#263238"/>
<path d="M372.958 207.464C378.14 201.372 383.432 196.24 386.853 188.457C389.965 181.365 392.055 173.792 395.206 166.719C395.206 166.599 395.416 166.659 395.366 166.789C390.365 179.394 388.444 192.339 379.701 202.612C374.939 208.194 370.228 213.346 366.806 220.198C363.308 227.425 361.12 235.215 360.344 243.207C360.344 243.487 359.974 243.447 359.974 243.207C359.969 230.137 364.566 217.483 372.958 207.464Z" fill="#263238"/>
<path d="M322.58 362.71C322.58 362.71 370.868 375.714 378.85 374.314C386.833 372.913 413.783 336.64 419.765 323.486C425.747 310.331 435.681 244.888 433.77 237.685C431.859 230.483 421.866 230.382 413.433 248.949C405 267.516 385.063 308.33 381.511 311.691C377.96 315.053 318.689 359.228 322.58 362.71Z" fill="#CF8170"/>
<path d="M374.659 370.012C367.256 366.14 358.243 356.747 352.101 355.767C350.598 355.473 349.041 355.67 347.659 356.329C346.278 356.989 345.145 358.075 344.428 359.428C344.428 359.428 341.607 353.156 335.885 353.186C332.954 353.186 330.393 357.908 330.393 357.908C330.393 357.908 327.902 352.976 322.831 353.316C318.779 353.586 316.828 358.268 316.828 358.268C316.828 358.268 312.247 354.646 308.205 356.267C300.022 359.498 298.662 394.281 311.266 400.163C317.139 402.904 317.008 394.391 317.008 394.391C317.008 394.391 320.15 406.595 327.312 407.055C334.475 407.515 333.644 396.471 333.644 396.471C333.644 396.471 336.795 408.265 344.268 407.995C352.051 407.725 349.33 396.811 349.33 396.811C349.33 396.811 354.272 404.754 359.944 403.234C369.317 400.733 359.243 381.906 361.364 374.333H373.138L374.659 370.012Z" fill="#CF8170"/>
<path d="M363.975 362.609C371.308 365.67 379.671 354.096 387.213 356.787C396.997 360.278 387.954 372.353 373.128 374.313H361.354L363.975 362.609Z" fill="#CF8170"/>
<path d="M316.398 358.958C316.398 358.934 316.389 358.911 316.372 358.894C316.355 358.877 316.332 358.868 316.308 358.868C316.284 358.868 316.261 358.877 316.244 358.894C316.228 358.911 316.218 358.934 316.218 358.958C312.987 370.292 312.897 383.737 316.948 394.88C317.078 395.241 317.739 395.191 317.669 394.76C315.688 382.436 314.908 371.372 316.398 358.958Z" fill="#263238"/>
<path d="M330.323 357.707C330.323 357.567 330.113 357.537 330.073 357.707C326.802 369.412 327.072 384.547 333.304 396.851C333.514 397.271 334.134 397.432 333.924 396.931C330.433 388.448 328.923 368.901 330.323 357.707Z" fill="#263238"/>
<path d="M350.05 397.541C344.578 385.537 343.508 372.963 344.268 359.898C344.268 359.728 344.038 359.728 343.988 359.898C341.877 366.19 342.267 374.563 343.118 381.056C343.783 387.081 346.014 392.827 349.59 397.722C349.77 397.932 350.17 397.802 350.05 397.541Z" fill="#263238"/>
<path d="M387.794 355.867C382.992 354.266 378.06 358.107 374.019 360.258C372.725 361.028 371.362 361.674 369.947 362.189C366.746 363.189 364.375 362.549 362.945 361.659C360.704 360.228 353.712 353.246 348.66 355.567C346.917 356.382 345.425 357.65 344.338 359.238C342.798 356.437 340.827 353.386 337.416 352.826C336.664 352.698 335.894 352.731 335.156 352.923C334.418 353.114 333.729 353.459 333.134 353.936C332.498 354.427 331.933 355.002 331.454 355.647C330.979 356.226 330.588 356.869 330.293 357.557C330.292 357.534 330.292 357.511 330.293 357.487L330.183 357.277L329.973 356.847C329.688 356.271 329.282 355.762 328.783 355.357C328.688 355.26 328.574 355.183 328.448 355.131C328.323 355.08 328.188 355.054 328.052 355.056C328.031 355.056 328.011 355.065 327.996 355.08C327.981 355.095 327.972 355.115 327.972 355.136C327.972 355.158 327.981 355.178 327.996 355.193C328.011 355.208 328.031 355.216 328.052 355.216C328.287 355.328 328.477 355.515 328.593 355.747C328.753 355.987 328.903 356.237 329.073 356.467C329.243 356.697 329.403 356.937 329.573 357.167L329.823 357.537L329.933 357.727C329.981 357.789 330.035 357.846 330.093 357.897C330.107 357.916 330.125 357.931 330.146 357.942C330.167 357.952 330.19 357.957 330.213 357.957C330.237 357.957 330.259 357.952 330.28 357.942C330.301 357.931 330.319 357.916 330.333 357.897C330.848 357.44 331.314 356.93 331.724 356.377C332.228 355.791 332.787 355.255 333.394 354.776C333.971 354.33 334.635 354.011 335.344 353.838C336.052 353.666 336.789 353.645 337.506 353.776C340.567 354.376 342.508 357.097 344.138 359.528C344.138 359.528 344.138 359.528 344.188 359.528C344.138 359.608 344.248 359.678 344.308 359.618C345.989 358.148 347.589 356.497 349.91 356.157C352.411 355.787 354.782 356.987 356.853 358.248C357.89 358.858 358.892 359.525 359.854 360.248C360.704 360.908 361.514 361.649 362.425 362.249C366.316 364.7 370.578 362.799 371.638 362.349C373.729 361.407 375.757 360.331 377.71 359.128C379.673 357.812 381.887 356.916 384.212 356.497C385.28 356.34 386.37 356.455 387.382 356.833C388.393 357.211 389.292 357.839 389.994 358.658C390.725 359.598 391.655 361.359 389.744 365.37C389.744 365.37 389.744 365.45 389.804 365.42C390.805 364.38 393.986 357.937 387.794 355.867Z" fill="#263238"/>
<path d="M429.979 298.466L384.412 291.184C384.412 291.184 406.18 248.078 419.255 235.574C432.159 223.229 438.442 235.874 436.541 254.941C434.44 276.078 429.979 298.466 429.979 298.466Z" fill="#FDB839"/>
<path d="M428.498 289.983C427.218 289.683 425.907 289.493 424.627 289.203C423.346 288.913 422.116 288.733 420.855 288.543C418.284 288.143 415.704 287.783 413.133 287.432C408.051 286.732 402.969 285.962 397.867 285.432C394.966 285.112 392.085 284.671 389.174 284.431C389.084 284.431 389.074 284.571 389.174 284.591C394.226 285.772 399.368 286.592 404.49 287.482C409.611 288.373 414.653 289.093 419.755 289.643C421.186 289.803 422.626 289.983 424.057 290.053C425.487 290.123 427.008 290.263 428.478 290.283C428.518 290.286 428.557 290.273 428.587 290.247C428.617 290.22 428.635 290.183 428.638 290.143C428.641 290.104 428.628 290.064 428.601 290.034C428.575 290.004 428.538 289.986 428.498 289.983Z" fill="#263238"/>
<path d="M404.61 374.713H525.283C525.283 374.713 475.125 250.229 449.626 232.043C441.973 226.581 429.779 225.97 421.556 236.934C414.813 245.937 396.097 281.7 395.246 294.565C394.396 307.429 404.49 320.144 404.49 320.144L404.61 374.713Z" fill="#FF6E41"/>
<path d="M444.564 290.364C444.874 290.283 445.174 290.243 445.474 290.183C445.739 290.123 446.014 290.124 446.278 290.184C446.543 290.245 446.79 290.364 447.002 290.533C447.215 290.702 447.386 290.917 447.504 291.161C447.623 291.405 447.684 291.673 447.685 291.944C447.678 292.185 447.732 292.425 447.845 292.638C447.957 292.852 448.122 293.034 448.325 293.165C448.552 293.307 448.809 293.396 449.076 293.425C449.382 293.469 449.686 293.529 449.986 293.605C449.686 293.685 449.386 293.725 449.076 293.785C448.74 293.851 448.393 293.82 448.075 293.695C447.737 293.55 447.449 293.309 447.248 293.001C447.046 292.693 446.941 292.332 446.945 291.964C446.939 291.724 446.873 291.488 446.752 291.28C446.632 291.072 446.46 290.898 446.255 290.774C446.017 290.644 445.754 290.566 445.484 290.544C445.174 290.484 444.874 290.444 444.564 290.364Z" fill="white"/>
<path d="M398.407 290.364C398.707 290.283 399.007 290.243 399.308 290.183C399.572 290.123 399.847 290.124 400.111 290.184C400.376 290.245 400.623 290.364 400.836 290.533C401.048 290.702 401.219 290.917 401.338 291.161C401.456 291.405 401.518 291.673 401.518 291.944C401.513 292.186 401.57 292.426 401.684 292.639C401.798 292.853 401.965 293.034 402.169 293.165C402.394 293.31 402.651 293.399 402.919 293.425C403.219 293.485 403.519 293.515 403.819 293.605C403.519 293.685 403.219 293.725 402.919 293.785C402.584 293.85 402.237 293.818 401.918 293.695C401.582 293.547 401.297 293.305 401.096 292.998C400.895 292.69 400.788 292.331 400.788 291.964C400.782 291.724 400.716 291.488 400.596 291.28C400.475 291.072 400.304 290.898 400.098 290.774C399.861 290.643 399.598 290.564 399.328 290.544C399.007 290.484 398.707 290.444 398.407 290.364Z" fill="white"/>
<path d="M461.33 350.325C461.63 350.245 461.94 350.205 462.24 350.145C462.505 350.088 462.779 350.091 463.042 350.154C463.305 350.217 463.551 350.337 463.762 350.507C463.972 350.676 464.143 350.891 464.26 351.134C464.378 351.378 464.439 351.645 464.441 351.915C464.438 352.157 464.496 352.395 464.61 352.609C464.724 352.822 464.889 353.003 465.091 353.136C465.319 353.275 465.576 353.361 465.841 353.386C466.142 353.446 466.452 353.486 466.752 353.566C466.452 353.656 466.142 353.696 465.841 353.756C465.505 353.819 465.158 353.784 464.841 353.656C464.502 353.511 464.214 353.269 464.011 352.962C463.808 352.654 463.7 352.294 463.701 351.925C463.699 351.685 463.634 351.45 463.513 351.243C463.392 351.036 463.219 350.864 463.01 350.745C462.779 350.609 462.518 350.53 462.25 350.515C461.94 350.455 461.63 350.415 461.33 350.325Z" fill="white"/>
<path d="M482.197 293.605C482.497 293.515 482.807 293.485 483.108 293.425C483.372 293.364 483.646 293.365 483.91 293.425C484.174 293.486 484.421 293.605 484.633 293.774C484.844 293.943 485.015 294.158 485.132 294.403C485.249 294.647 485.309 294.914 485.308 295.185C485.305 295.427 485.363 295.666 485.476 295.879C485.59 296.093 485.756 296.274 485.959 296.406C486.184 296.551 486.442 296.637 486.709 296.656C487.009 296.726 487.319 296.756 487.619 296.846C487.319 296.926 487.009 296.966 486.709 297.026C486.374 297.093 486.026 297.062 485.709 296.936C485.37 296.791 485.081 296.55 484.878 296.242C484.676 295.934 484.568 295.574 484.568 295.205C484.566 294.964 484.502 294.727 484.381 294.519C484.26 294.31 484.086 294.136 483.878 294.015C483.644 293.884 483.385 293.805 483.118 293.785C482.807 293.685 482.497 293.685 482.197 293.605Z" fill="white"/>
<path d="M428.848 263.104C429.158 263.024 429.458 262.984 429.758 262.924C430.092 262.851 430.439 262.875 430.759 262.994C431.106 263.123 431.406 263.355 431.618 263.659C431.831 263.962 431.946 264.323 431.949 264.694C431.948 264.935 432.007 265.173 432.121 265.386C432.234 265.599 432.399 265.781 432.599 265.915C432.829 266.05 433.085 266.135 433.35 266.165C433.66 266.225 433.96 266.265 434.26 266.345C433.96 266.435 433.66 266.465 433.35 266.535C433.013 266.593 432.668 266.558 432.349 266.435C432.006 266.288 431.715 266.042 431.513 265.728C431.312 265.414 431.209 265.047 431.219 264.674C431.214 264.435 431.149 264.201 431.028 263.994C430.907 263.787 430.735 263.615 430.529 263.494C430.294 263.356 430.03 263.274 429.758 263.254C429.458 263.224 429.158 263.194 428.848 263.104Z" fill="white"/>
<path d="M461.69 262.413C461.99 262.333 462.29 262.293 462.6 262.233C462.934 262.163 463.28 262.187 463.601 262.303C463.947 262.435 464.247 262.667 464.461 262.97C464.675 263.273 464.793 263.633 464.801 264.004C464.797 264.246 464.854 264.485 464.968 264.698C465.081 264.912 465.248 265.093 465.451 265.224C465.678 265.365 465.935 265.451 466.202 265.474C466.502 265.534 466.802 265.574 467.112 265.654C466.802 265.744 466.502 265.784 466.202 265.844C465.865 265.908 465.518 265.873 465.201 265.744C464.862 265.599 464.574 265.358 464.371 265.05C464.168 264.743 464.06 264.382 464.061 264.014C464.057 263.774 463.992 263.54 463.871 263.333C463.75 263.126 463.578 262.954 463.371 262.833C463.139 262.698 462.878 262.619 462.61 262.603C462.3 262.556 461.993 262.492 461.69 262.413Z" fill="white"/>
<path d="M440.432 230.892C440.732 230.812 441.043 230.772 441.343 230.712C441.607 230.652 441.881 230.652 442.145 230.713C442.409 230.773 442.656 230.892 442.868 231.062C443.079 231.231 443.25 231.446 443.367 231.69C443.484 231.934 443.544 232.202 443.543 232.473C443.538 232.715 443.595 232.954 443.709 233.168C443.823 233.382 443.99 233.563 444.194 233.693C444.42 233.837 444.677 233.927 444.944 233.953C445.244 234.013 445.554 234.043 445.854 234.133C445.554 234.213 445.244 234.253 444.944 234.313C444.609 234.38 444.261 234.349 443.944 234.223C443.605 234.078 443.316 233.837 443.114 233.529C442.911 233.222 442.803 232.861 442.803 232.493C442.801 232.251 442.737 232.015 442.616 231.806C442.495 231.597 442.321 231.424 442.113 231.302C441.879 231.171 441.62 231.093 441.353 231.072C441.043 231.012 440.732 230.972 440.432 230.892Z" fill="white"/>
<path d="M420.795 315.452C421.096 315.372 421.396 315.332 421.696 315.272C422.029 315.199 422.376 315.223 422.696 315.342C423.044 315.469 423.344 315.699 423.559 316.001C423.773 316.303 423.891 316.663 423.897 317.033C423.891 317.275 423.948 317.514 424.062 317.728C424.176 317.942 424.343 318.123 424.547 318.253C424.772 318.399 425.03 318.488 425.297 318.513C425.597 318.573 425.897 318.613 426.197 318.693C425.897 318.783 425.597 318.813 425.297 318.873C424.962 318.938 424.615 318.907 424.297 318.783C423.961 318.636 423.675 318.393 423.474 318.086C423.273 317.779 423.166 317.42 423.166 317.053C423.161 316.812 423.094 316.577 422.974 316.369C422.853 316.161 422.682 315.987 422.476 315.862C422.238 315.733 421.976 315.654 421.706 315.632C421.396 315.572 421.096 315.542 420.795 315.452Z" fill="white"/>
<path d="M456.628 370.402C456.928 370.312 457.238 370.272 457.538 370.212C457.803 370.155 458.077 370.158 458.34 370.221C458.603 370.284 458.849 370.404 459.06 370.574C459.27 370.743 459.441 370.958 459.558 371.201C459.676 371.445 459.738 371.712 459.739 371.982C459.736 372.224 459.794 372.462 459.908 372.676C460.022 372.889 460.187 373.07 460.389 373.203C460.615 373.346 460.873 373.432 461.14 373.453C461.44 373.513 461.75 373.553 462.05 373.633C461.75 373.723 461.44 373.763 461.14 373.823C460.803 373.886 460.456 373.851 460.139 373.723C459.8 373.579 459.51 373.338 459.307 373.03C459.105 372.722 458.997 372.361 458.999 371.992C458.997 371.752 458.933 371.517 458.811 371.31C458.69 371.103 458.517 370.931 458.309 370.812C458.077 370.676 457.816 370.597 457.548 370.582C457.208 370.522 456.898 370.482 456.628 370.402Z" fill="white"/>
<path d="M438.972 340.871C439.272 340.791 439.572 340.751 439.872 340.691C440.206 340.623 440.552 340.647 440.872 340.761C441.221 340.89 441.522 341.122 441.736 341.426C441.95 341.729 442.068 342.09 442.073 342.462C442.068 342.704 442.126 342.943 442.239 343.157C442.353 343.37 442.52 343.551 442.723 343.682C442.949 343.825 443.207 343.911 443.473 343.932C443.773 343.992 444.073 344.032 444.384 344.112C444.073 344.203 443.773 344.233 443.473 344.303C443.137 344.359 442.791 344.325 442.473 344.203C442.137 344.055 441.851 343.813 441.65 343.505C441.45 343.198 441.343 342.839 441.343 342.472C441.336 342.233 441.269 342 441.149 341.793C441.028 341.587 440.857 341.414 440.652 341.291C440.419 341.15 440.154 341.071 439.882 341.061C439.622 340.991 439.272 340.961 438.972 340.871Z" fill="white"/>
<path d="M406.35 346.243C406.66 346.153 406.96 346.113 407.26 346.053C407.525 345.997 407.799 346 408.062 346.062C408.325 346.125 408.571 346.245 408.782 346.415C408.993 346.585 409.163 346.799 409.28 347.043C409.398 347.286 409.46 347.553 409.461 347.824C409.459 348.065 409.517 348.304 409.63 348.517C409.744 348.73 409.909 348.912 410.111 349.044C410.337 349.188 410.595 349.274 410.862 349.294C411.172 349.354 411.472 349.394 411.772 349.474C411.472 349.553 411.168 349.616 410.862 349.664C410.526 349.727 410.178 349.692 409.861 349.564C409.522 349.42 409.232 349.179 409.03 348.871C408.827 348.563 408.719 348.202 408.721 347.834C408.719 347.595 408.656 347.361 408.537 347.154C408.417 346.947 408.246 346.774 408.041 346.653C407.805 346.519 407.541 346.441 407.27 346.423C406.96 346.363 406.66 346.323 406.35 346.243Z" fill="white"/>
<path d="M453.987 316.173C454.287 316.093 454.588 316.053 454.888 315.993C455.153 315.936 455.427 315.94 455.691 316.002C455.954 316.065 456.201 316.185 456.412 316.354C456.624 316.524 456.795 316.738 456.914 316.982C457.032 317.225 457.095 317.492 457.098 317.763C457.094 318.005 457.151 318.244 457.265 318.458C457.379 318.671 457.545 318.852 457.749 318.984C457.975 319.126 458.232 319.212 458.499 319.234C458.799 319.294 459.099 319.334 459.399 319.414C459.099 319.504 458.799 319.534 458.499 319.604C458.163 319.665 457.816 319.63 457.499 319.504C457.162 319.356 456.877 319.114 456.676 318.807C456.475 318.499 456.368 318.14 456.368 317.773C456.362 317.534 456.295 317.301 456.174 317.094C456.054 316.888 455.883 316.716 455.678 316.593C455.444 316.454 455.179 316.375 454.908 316.363C454.628 316.293 454.287 316.263 453.987 316.173Z" fill="white"/>
<path d="M495.692 356.597C495.992 356.517 496.302 356.477 496.602 356.417C496.936 356.344 497.283 356.368 497.603 356.487C497.95 356.616 498.25 356.848 498.462 357.152C498.675 357.456 498.79 357.817 498.793 358.187C498.792 358.429 498.851 358.666 498.965 358.879C499.078 359.092 499.243 359.274 499.443 359.408C499.673 359.543 499.929 359.628 500.194 359.658C500.504 359.718 500.804 359.758 501.104 359.838C500.804 359.928 500.504 359.958 500.194 360.028C499.928 360.077 499.654 360.066 499.393 359.996C499.132 359.927 498.889 359.799 498.683 359.624C498.477 359.449 498.313 359.23 498.202 358.983C498.091 358.736 498.037 358.468 498.043 358.197C498.041 357.957 497.977 357.722 497.856 357.515C497.734 357.308 497.561 357.136 497.353 357.017C497.122 356.878 496.861 356.795 496.592 356.777C496.302 356.707 495.992 356.707 495.692 356.597Z" fill="white"/>
<path d="M479.136 331.918C479.436 331.838 479.746 331.798 480.046 331.738C480.311 331.681 480.585 331.685 480.848 331.747C481.111 331.81 481.357 331.93 481.568 332.1C481.779 332.269 481.949 332.484 482.066 332.728C482.184 332.971 482.246 333.238 482.247 333.509C482.243 333.75 482.3 333.99 482.414 334.203C482.527 334.417 482.694 334.598 482.897 334.729C483.122 334.874 483.38 334.96 483.648 334.979C483.948 335.039 484.258 335.079 484.558 335.159C484.258 335.249 483.948 335.289 483.648 335.349C483.311 335.413 482.964 335.378 482.647 335.249C482.308 335.105 482.018 334.864 481.815 334.556C481.613 334.248 481.505 333.887 481.507 333.519C481.505 333.279 481.441 333.043 481.319 332.836C481.198 332.629 481.025 332.457 480.817 332.338C480.585 332.202 480.324 332.124 480.056 332.108C479.746 332.048 479.436 332.008 479.136 331.918Z" fill="white"/>
<path d="M514.329 367.881C514.639 367.801 514.939 367.761 515.239 367.701C515.504 367.644 515.777 367.647 516.04 367.71C516.304 367.773 516.55 367.893 516.76 368.063C516.971 368.232 517.141 368.447 517.259 368.69C517.377 368.934 517.438 369.201 517.44 369.471C517.437 369.713 517.495 369.951 517.609 370.165C517.722 370.378 517.888 370.559 518.09 370.692C518.316 370.836 518.573 370.921 518.84 370.942C519.15 371.002 519.45 371.042 519.751 371.122C519.451 371.201 519.147 371.264 518.84 371.312C518.504 371.375 518.157 371.34 517.84 371.212C517.501 371.069 517.212 370.828 517.011 370.519C516.809 370.211 516.704 369.85 516.709 369.481C516.703 369.242 516.636 369.009 516.516 368.803C516.395 368.596 516.224 368.424 516.019 368.301C515.783 368.167 515.52 368.088 515.249 368.071C514.939 368.011 514.649 367.971 514.329 367.881Z" fill="white"/>
<path d="M431.619 280.14C431.469 280.41 431.279 280.65 431.109 280.91C430.964 281.139 430.769 281.333 430.538 281.477C430.308 281.621 430.048 281.711 429.778 281.741C429.508 281.77 429.235 281.739 428.979 281.649C428.723 281.559 428.49 281.412 428.298 281.22C428.131 281.045 427.922 280.916 427.691 280.846C427.459 280.776 427.213 280.767 426.978 280.82C426.716 280.878 426.473 280.998 426.267 281.17C426.02 281.354 425.763 281.524 425.497 281.68C425.657 281.41 425.837 281.17 426.007 280.91C426.204 280.622 426.478 280.397 426.798 280.26C427.136 280.127 427.505 280.096 427.861 280.17C428.216 280.245 428.542 280.422 428.798 280.68C428.972 280.847 429.185 280.967 429.418 281.028C429.651 281.089 429.896 281.09 430.129 281.03C430.388 280.959 430.628 280.829 430.829 280.65C431.149 280.48 431.389 280.29 431.619 280.14Z" fill="white"/>
<path d="M419.545 259.882C419.395 260.152 419.205 260.392 419.035 260.653C418.889 260.882 418.694 261.076 418.464 261.22C418.233 261.363 417.974 261.453 417.704 261.483C417.434 261.513 417.161 261.482 416.904 261.392C416.648 261.301 416.415 261.155 416.224 260.963C416.057 260.787 415.848 260.657 415.617 260.587C415.385 260.517 415.139 260.509 414.903 260.563C414.642 260.621 414.398 260.741 414.193 260.913C413.945 261.096 413.688 261.267 413.423 261.423C413.583 261.153 413.763 260.913 413.933 260.653C414.129 260.365 414.403 260.14 414.723 260.002C415.061 259.869 415.431 259.838 415.786 259.913C416.142 259.988 416.468 260.165 416.724 260.422C416.897 260.59 417.11 260.711 417.343 260.772C417.576 260.834 417.821 260.834 418.054 260.773C418.314 260.702 418.554 260.572 418.755 260.392C419.035 260.222 419.275 260.032 419.545 259.882Z" fill="white"/>
<path d="M480.637 315.402C480.477 315.682 480.296 315.922 480.126 316.172C479.936 316.463 479.67 316.695 479.356 316.843C479.024 316.987 478.657 317.03 478.301 316.966C477.945 316.902 477.616 316.734 477.355 316.483C477.187 316.31 476.977 316.183 476.747 316.113C476.516 316.043 476.271 316.032 476.035 316.082C475.774 316.141 475.53 316.261 475.325 316.433C475.065 316.603 474.825 316.793 474.554 316.943C474.704 316.673 474.895 316.433 475.065 316.172C475.257 315.885 475.528 315.66 475.845 315.522C476.184 315.393 476.552 315.364 476.907 315.439C477.262 315.513 477.587 315.688 477.846 315.942C478.016 316.11 478.228 316.231 478.459 316.292C478.691 316.354 478.935 316.354 479.166 316.292C479.428 316.224 479.67 316.098 479.876 315.922C480.156 315.752 480.397 315.562 480.637 315.402Z" fill="white"/>
<path d="M450.086 249.749C449.935 250.019 449.745 250.259 449.575 250.519C449.388 250.806 449.125 251.034 448.815 251.179C448.477 251.332 448.102 251.38 447.736 251.318C447.371 251.255 447.032 251.085 446.764 250.829C446.597 250.655 446.388 250.526 446.157 250.454C445.926 250.382 445.681 250.37 445.444 250.419C445.183 250.48 444.94 250.6 444.734 250.769C444.474 250.939 444.233 251.129 443.963 251.29C444.113 251.009 444.304 250.769 444.474 250.509C444.667 250.222 444.943 249.999 445.264 249.869C445.602 249.736 445.972 249.705 446.327 249.78C446.683 249.854 447.009 250.031 447.265 250.289C447.44 250.464 447.657 250.591 447.895 250.657C448.133 250.724 448.385 250.728 448.625 250.669C448.883 250.594 449.122 250.465 449.325 250.289C449.625 250.089 449.815 249.899 450.086 249.749Z" fill="white"/>
<path d="M428.898 234.783C428.748 235.053 428.558 235.294 428.388 235.554C428.199 235.841 427.937 236.073 427.628 236.224C427.289 236.375 426.913 236.422 426.547 236.358C426.182 236.293 425.844 236.121 425.577 235.864C425.41 235.689 425.201 235.56 424.97 235.49C424.738 235.42 424.493 235.411 424.257 235.464C423.995 235.52 423.751 235.64 423.546 235.814C423.286 235.984 423.046 236.174 422.776 236.324C422.926 236.054 423.116 235.814 423.286 235.554C423.48 235.264 423.755 235.038 424.077 234.903C424.415 234.771 424.784 234.739 425.14 234.814C425.495 234.889 425.821 235.066 426.077 235.324C426.25 235.492 426.463 235.613 426.696 235.675C426.929 235.736 427.175 235.736 427.408 235.674C427.667 235.603 427.907 235.473 428.108 235.294C428.388 235.124 428.618 234.933 428.898 234.783Z" fill="white"/>
<path d="M448.895 268.796C448.985 269.096 449.015 269.406 449.085 269.706C449.147 270.04 449.123 270.384 449.015 270.706C448.884 271.052 448.651 271.35 448.348 271.562C448.045 271.775 447.685 271.891 447.315 271.897C447.073 271.893 446.834 271.951 446.621 272.065C446.407 272.178 446.226 272.344 446.094 272.547C445.949 272.772 445.863 273.03 445.844 273.297C445.774 273.597 445.744 273.907 445.654 274.208C445.574 273.907 445.534 273.597 445.474 273.297C445.406 272.961 445.441 272.613 445.574 272.297C445.717 271.957 445.958 271.667 446.266 271.463C446.574 271.26 446.936 271.154 447.305 271.157C447.545 271.154 447.78 271.089 447.987 270.968C448.194 270.847 448.365 270.674 448.485 270.466C448.616 270.233 448.695 269.973 448.715 269.706C448.775 269.406 448.815 269.096 448.895 268.796Z" fill="white"/>
<path d="M441.683 322.085C441.763 322.385 441.803 322.695 441.863 322.995C441.919 323.26 441.916 323.534 441.853 323.797C441.791 324.06 441.67 324.306 441.501 324.517C441.331 324.727 441.117 324.898 440.873 325.015C440.629 325.133 440.363 325.195 440.092 325.196C439.85 325.191 439.611 325.249 439.397 325.363C439.184 325.476 439.003 325.643 438.872 325.846C438.731 326.073 438.645 326.33 438.621 326.597C438.561 326.897 438.521 327.207 438.441 327.507C438.351 327.207 438.311 326.897 438.251 326.597C438.188 326.26 438.223 325.913 438.351 325.596C438.496 325.257 438.738 324.969 439.045 324.766C439.353 324.563 439.714 324.455 440.082 324.456C440.322 324.454 440.557 324.39 440.764 324.268C440.972 324.147 441.143 323.974 441.262 323.766C441.398 323.534 441.477 323.273 441.492 323.005C441.553 322.695 441.623 322.385 441.683 322.085Z" fill="white"/>
<path d="M511.648 346.773C511.738 347.074 511.778 347.374 511.838 347.674C511.894 347.939 511.891 348.213 511.828 348.477C511.766 348.74 511.645 348.987 511.476 349.198C511.307 349.41 511.092 349.581 510.849 349.7C510.605 349.818 510.338 349.882 510.067 349.885C509.825 349.88 509.586 349.937 509.372 350.051C509.159 350.165 508.978 350.331 508.847 350.535C508.7 350.759 508.614 351.018 508.597 351.285C508.537 351.585 508.497 351.885 508.417 352.185C508.326 351.885 508.286 351.585 508.226 351.285C508.165 350.949 508.2 350.602 508.326 350.285C508.473 349.948 508.715 349.661 509.023 349.46C509.33 349.26 509.69 349.153 510.057 349.154C510.296 349.148 510.53 349.081 510.736 348.961C510.942 348.84 511.115 348.669 511.238 348.464C511.372 348.228 511.45 347.965 511.468 347.694C511.538 347.374 511.578 347.074 511.648 346.773Z" fill="white"/>
<path d="M479.236 276.179C479.316 276.479 479.356 276.779 479.416 277.089C479.486 277.423 479.462 277.769 479.346 278.089C479.215 278.436 478.982 278.736 478.679 278.95C478.376 279.164 478.016 279.282 477.646 279.29C477.404 279.285 477.164 279.343 476.951 279.456C476.737 279.57 476.556 279.737 476.425 279.94C476.284 280.167 476.199 280.424 476.175 280.69C476.115 280.99 476.075 281.291 475.995 281.601C475.905 281.291 475.875 280.99 475.805 280.69C475.756 280.424 475.767 280.151 475.836 279.889C475.906 279.628 476.034 279.386 476.209 279.18C476.384 278.974 476.603 278.809 476.85 278.699C477.097 278.588 477.365 278.534 477.636 278.54C477.875 278.536 478.11 278.47 478.316 278.35C478.523 278.229 478.695 278.056 478.816 277.849C478.956 277.619 479.035 277.358 479.046 277.089C479.116 276.779 479.146 276.479 479.236 276.179Z" fill="white"/>
<path d="M479.236 361.709C479.316 362.009 479.356 362.309 479.416 362.609C479.473 362.874 479.469 363.149 479.407 363.412C479.344 363.676 479.224 363.922 479.054 364.134C478.885 364.345 478.671 364.517 478.427 364.635C478.184 364.754 477.917 364.817 477.646 364.82C477.404 364.816 477.165 364.873 476.951 364.987C476.737 365.1 476.556 365.267 476.425 365.47C476.283 365.697 476.197 365.954 476.175 366.221C476.115 366.521 476.075 366.821 475.995 367.121C475.905 366.821 475.875 366.521 475.805 366.221C475.748 365.884 475.783 365.539 475.905 365.22C476.053 364.884 476.295 364.598 476.602 364.398C476.909 364.197 477.269 364.09 477.636 364.09C477.875 364.083 478.108 364.017 478.314 363.896C478.521 363.775 478.693 363.605 478.816 363.4C478.957 363.167 479.037 362.902 479.046 362.629C479.116 362.339 479.146 362.039 479.236 361.709Z" fill="white"/>
<path d="M495.692 312.741C495.782 313.041 495.812 313.351 495.872 313.652C495.933 313.916 495.932 314.19 495.872 314.454C495.811 314.718 495.692 314.965 495.523 315.177C495.354 315.388 495.139 315.559 494.895 315.676C494.65 315.793 494.383 315.853 494.112 315.852C493.87 315.849 493.631 315.906 493.418 316.02C493.204 316.134 493.023 316.3 492.891 316.503C492.746 316.728 492.66 316.986 492.641 317.253C492.571 317.553 492.541 317.863 492.451 318.163C492.371 317.863 492.331 317.553 492.271 317.253C492.203 316.917 492.238 316.568 492.371 316.252C492.513 315.914 492.753 315.625 493.059 315.422C493.365 315.219 493.724 315.111 494.092 315.112C494.333 315.11 494.57 315.046 494.778 314.925C494.987 314.803 495.161 314.63 495.282 314.422C495.413 314.188 495.492 313.929 495.512 313.662C495.572 313.351 495.642 313.041 495.692 312.741Z" fill="white"/>
<path d="M412.302 323.996C412.392 324.296 412.422 324.596 412.482 324.896C412.542 325.161 412.542 325.435 412.482 325.7C412.421 325.964 412.302 326.212 412.133 326.424C411.964 326.636 411.749 326.808 411.505 326.926C411.261 327.044 410.993 327.106 410.722 327.107C410.48 327.101 410.24 327.158 410.026 327.272C409.813 327.386 409.632 327.553 409.501 327.757C409.354 327.981 409.268 328.24 409.251 328.507C409.181 328.807 409.151 329.107 409.061 329.408C408.981 329.107 408.941 328.807 408.881 328.507C408.815 328.171 408.85 327.823 408.981 327.507C409.125 327.17 409.365 326.883 409.671 326.682C409.977 326.481 410.335 326.375 410.702 326.376C410.942 326.371 411.177 326.305 411.385 326.184C411.593 326.063 411.768 325.892 411.892 325.686C412.025 325.45 412.103 325.187 412.122 324.916C412.182 324.596 412.222 324.296 412.302 323.996Z" fill="white"/>
<path d="M413.923 276.179C413.998 276.479 414.058 276.783 414.103 277.089C414.177 277.422 414.156 277.768 414.043 278.089C413.912 278.436 413.679 278.736 413.376 278.95C413.073 279.164 412.713 279.282 412.342 279.29C412.1 279.284 411.861 279.341 411.647 279.455C411.433 279.569 411.253 279.736 411.122 279.94C410.977 280.165 410.891 280.423 410.872 280.69C410.802 280.99 410.772 281.291 410.682 281.601C410.602 281.291 410.562 280.99 410.502 280.69C410.435 280.355 410.466 280.008 410.592 279.69C410.737 279.351 410.978 279.063 411.286 278.86C411.594 278.657 411.954 278.549 412.322 278.55C412.563 278.546 412.799 278.48 413.008 278.359C413.216 278.239 413.39 278.066 413.513 277.859C413.644 277.626 413.723 277.366 413.743 277.099C413.803 276.779 413.843 276.479 413.923 276.179Z" fill="white"/>
<path d="M431.369 245.097C431.449 245.397 431.489 245.697 431.549 246.007C431.619 246.341 431.595 246.687 431.479 247.008C431.348 247.355 431.115 247.654 430.812 247.868C430.509 248.082 430.149 248.2 429.779 248.208C429.537 248.204 429.297 248.261 429.084 248.375C428.87 248.489 428.689 248.655 428.558 248.859C428.417 249.086 428.332 249.343 428.308 249.609C428.248 249.909 428.208 250.209 428.128 250.519C428.038 250.209 428.008 249.909 427.938 249.609C427.877 249.273 427.911 248.926 428.038 248.608C428.186 248.272 428.428 247.987 428.735 247.786C429.042 247.585 429.401 247.478 429.769 247.478C430.008 247.474 430.243 247.409 430.449 247.288C430.656 247.167 430.828 246.995 430.949 246.788C431.089 246.558 431.168 246.296 431.179 246.028C431.249 245.667 431.279 245.397 431.369 245.097Z" fill="white"/>
<path d="M426.687 293.144C426.767 293.454 426.807 293.755 426.868 294.055C426.924 294.32 426.921 294.594 426.858 294.858C426.795 295.121 426.675 295.368 426.506 295.579C426.336 295.791 426.122 295.962 425.878 296.081C425.635 296.199 425.368 296.262 425.097 296.265C424.855 296.261 424.616 296.318 424.402 296.432C424.189 296.546 424.008 296.712 423.876 296.916C423.734 297.142 423.648 297.399 423.626 297.666C423.566 297.966 423.526 298.266 423.446 298.566C423.356 298.266 423.316 297.966 423.256 297.666C423.195 297.33 423.23 296.983 423.356 296.666C423.504 296.329 423.746 296.044 424.053 295.843C424.361 295.642 424.72 295.535 425.087 295.535C425.326 295.529 425.559 295.462 425.766 295.341C425.972 295.221 426.145 295.05 426.267 294.845C426.401 294.609 426.48 294.346 426.497 294.075C426.557 293.755 426.617 293.454 426.687 293.144Z" fill="white"/>
<path d="M468.732 299.607C468.812 299.907 468.852 300.217 468.912 300.517C468.969 300.782 468.966 301.055 468.903 301.319C468.84 301.582 468.72 301.828 468.55 302.038C468.381 302.249 468.166 302.42 467.923 302.537C467.679 302.655 467.412 302.716 467.142 302.718C466.9 302.715 466.662 302.773 466.448 302.887C466.235 303.001 466.054 303.166 465.921 303.368C465.782 303.596 465.696 303.852 465.671 304.118C465.611 304.418 465.571 304.728 465.491 305.029C465.401 304.728 465.371 304.418 465.301 304.118C465.238 303.782 465.273 303.435 465.401 303.118C465.546 302.779 465.787 302.491 466.095 302.288C466.403 302.085 466.763 301.977 467.132 301.978C467.372 301.976 467.607 301.911 467.814 301.79C468.021 301.669 468.193 301.496 468.312 301.287C468.452 301.057 468.531 300.796 468.542 300.527C468.632 300.217 468.632 299.907 468.732 299.607Z" fill="white"/>
<path d="M429.868 353.566C429.948 353.876 429.988 354.176 430.049 354.476C430.108 354.741 430.108 355.016 430.048 355.28C429.987 355.545 429.868 355.792 429.699 356.004C429.53 356.217 429.315 356.388 429.071 356.506C428.827 356.624 428.559 356.686 428.288 356.687C428.045 356.68 427.805 356.736 427.591 356.85C427.377 356.964 427.197 357.132 427.067 357.337C426.923 357.56 426.834 357.814 426.807 358.078C426.763 358.384 426.703 358.688 426.627 358.988C426.547 358.688 426.507 358.388 426.447 358.078C426.381 357.742 426.412 357.395 426.537 357.077C426.682 356.739 426.923 356.451 427.231 356.25C427.539 356.048 427.9 355.943 428.268 355.947C428.508 355.941 428.743 355.875 428.952 355.754C429.16 355.634 429.334 355.462 429.458 355.257C429.588 355.019 429.666 354.756 429.688 354.486C429.748 354.176 429.788 353.876 429.868 353.566Z" fill="white"/>
<path d="M461.52 284.351C461.68 284.081 461.87 283.841 462.04 283.581C462.224 283.292 462.488 283.063 462.8 282.921C463.132 282.776 463.498 282.733 463.853 282.795C464.209 282.857 464.539 283.023 464.801 283.271C464.971 283.445 465.181 283.574 465.414 283.646C465.646 283.718 465.893 283.73 466.132 283.681C466.389 283.62 466.629 283.5 466.832 283.331C467.092 283.151 467.332 282.971 467.612 282.811C467.452 283.091 467.262 283.331 467.092 283.591C466.899 283.875 466.628 284.098 466.312 284.231C465.973 284.362 465.604 284.391 465.249 284.317C464.894 284.242 464.568 284.067 464.311 283.811C464.138 283.646 463.926 283.528 463.696 283.467C463.465 283.406 463.222 283.404 462.991 283.461C462.733 283.536 462.494 283.666 462.29 283.841C462.04 284.011 461.8 284.201 461.52 284.351Z" fill="white"/>
<path d="M437.001 306.569C437.151 306.299 437.341 306.059 437.511 305.799C437.657 305.569 437.852 305.375 438.082 305.232C438.313 305.088 438.572 304.998 438.842 304.968C439.112 304.938 439.385 304.97 439.642 305.06C439.898 305.15 440.131 305.296 440.322 305.489C440.489 305.664 440.698 305.794 440.929 305.864C441.161 305.934 441.407 305.943 441.643 305.889C441.904 305.83 442.148 305.71 442.353 305.539C442.601 305.355 442.858 305.184 443.123 305.028C442.963 305.298 442.783 305.539 442.613 305.799C442.46 306.023 442.259 306.21 442.025 306.346C441.79 306.482 441.528 306.565 441.258 306.587C440.987 306.609 440.715 306.57 440.462 306.474C440.208 306.377 439.979 306.225 439.792 306.029C439.621 305.862 439.409 305.742 439.178 305.68C438.947 305.619 438.703 305.618 438.472 305.679C438.214 305.754 437.975 305.883 437.771 306.059C437.511 306.229 437.271 306.419 437.001 306.569Z" fill="white"/>
<path d="M420.375 339.301C420.535 339.021 420.725 338.781 420.895 338.531C421.041 338.301 421.236 338.107 421.466 337.964C421.697 337.82 421.956 337.73 422.226 337.7C422.496 337.67 422.77 337.701 423.026 337.792C423.282 337.882 423.515 338.028 423.706 338.22C423.874 338.394 424.084 338.522 424.315 338.592C424.546 338.662 424.791 338.672 425.027 338.621C425.288 338.562 425.532 338.442 425.737 338.27C425.985 338.087 426.242 337.916 426.507 337.76C426.347 338.03 426.167 338.27 425.997 338.531C425.845 338.754 425.645 338.941 425.411 339.078C425.178 339.214 424.916 339.296 424.647 339.318C424.377 339.34 424.106 339.302 423.853 339.205C423.6 339.109 423.373 338.957 423.186 338.761C423.013 338.593 422.8 338.472 422.567 338.411C422.334 338.35 422.089 338.349 421.856 338.411C421.597 338.477 421.357 338.604 421.156 338.781C420.895 338.961 420.615 339.141 420.375 339.301Z" fill="white"/>
<path d="M427.558 373.303C427.718 373.033 427.908 372.793 428.078 372.533C428.262 372.244 428.526 372.014 428.838 371.873C429.17 371.731 429.535 371.688 429.89 371.751C430.246 371.813 430.575 371.977 430.839 372.223C431.006 372.398 431.215 372.527 431.446 372.599C431.677 372.671 431.922 372.683 432.159 372.633C432.421 372.57 432.664 372.447 432.87 372.273C433.12 372.103 433.36 371.923 433.64 371.762C433.48 372.043 433.3 372.283 433.13 372.533C432.934 372.821 432.659 373.046 432.339 373.183C432.001 373.313 431.632 373.343 431.277 373.269C430.922 373.194 430.596 373.018 430.339 372.763C430.166 372.598 429.954 372.48 429.723 372.419C429.492 372.357 429.25 372.355 429.018 372.413C428.76 372.488 428.521 372.617 428.318 372.793C428.078 372.963 427.838 373.153 427.558 373.303Z" fill="white"/>
<path d="M459.719 335.93C459.869 335.66 460.059 335.419 460.229 335.159C460.416 334.873 460.68 334.644 460.989 334.499C461.327 334.347 461.703 334.298 462.068 334.361C462.434 334.423 462.772 334.593 463.04 334.849C463.207 335.024 463.416 335.154 463.647 335.226C463.878 335.298 464.124 335.309 464.361 335.259C464.62 335.196 464.863 335.077 465.071 334.909C465.321 334.739 465.561 334.549 465.841 334.389C465.681 334.669 465.501 334.909 465.331 335.169C465.137 335.457 464.862 335.68 464.541 335.81C464.203 335.942 463.833 335.974 463.477 335.899C463.122 335.824 462.796 335.647 462.54 335.389C462.365 335.225 462.152 335.106 461.919 335.045C461.687 334.984 461.443 334.982 461.21 335.039C460.952 335.114 460.713 335.244 460.509 335.419C460.229 335.589 459.989 335.78 459.719 335.93Z" fill="white"/>
<path d="M481.847 349.474C481.997 349.204 482.187 348.964 482.357 348.704C482.547 348.419 482.809 348.191 483.118 348.044C483.449 347.902 483.815 347.859 484.17 347.922C484.525 347.984 484.855 348.148 485.118 348.394C485.286 348.568 485.495 348.697 485.726 348.769C485.957 348.841 486.202 348.853 486.439 348.804C486.699 348.743 486.942 348.624 487.149 348.454C487.409 348.284 487.649 348.094 487.919 347.934C487.769 348.214 487.579 348.454 487.409 348.714C487.218 349.003 486.942 349.227 486.619 349.354C486.281 349.487 485.911 349.518 485.556 349.443C485.2 349.369 484.874 349.192 484.618 348.934C484.443 348.769 484.23 348.651 483.997 348.59C483.765 348.529 483.521 348.527 483.288 348.584C483.03 348.659 482.791 348.788 482.587 348.964C482.357 349.134 482.117 349.324 481.847 349.474Z" fill="white"/>
<path d="M444.624 359.758C444.774 359.488 444.964 359.248 445.134 358.988C445.318 358.699 445.582 358.469 445.894 358.327C446.232 358.175 446.608 358.127 446.973 358.189C447.339 358.252 447.677 358.422 447.945 358.678C448.112 358.853 448.321 358.982 448.552 359.054C448.783 359.126 449.029 359.138 449.266 359.088C449.527 359.025 449.771 358.902 449.976 358.728C450.226 358.558 450.466 358.377 450.746 358.217C450.586 358.498 450.406 358.738 450.236 358.988C450.043 359.278 449.768 359.504 449.446 359.638C449.108 359.771 448.738 359.802 448.383 359.727C448.027 359.653 447.701 359.475 447.445 359.218C447.27 359.053 447.057 358.935 446.824 358.874C446.592 358.812 446.348 358.81 446.115 358.868C445.857 358.943 445.618 359.072 445.414 359.248C445.134 359.418 444.894 359.608 444.624 359.758Z" fill="white"/>
<path d="M492.641 373.303C492.801 373.033 492.981 372.793 493.151 372.533C493.338 372.246 493.601 372.017 493.912 371.872C494.249 371.72 494.625 371.672 494.99 371.734C495.356 371.796 495.694 371.967 495.962 372.223C496.13 372.397 496.339 372.526 496.57 372.598C496.801 372.669 497.046 372.681 497.283 372.633C497.543 372.572 497.786 372.452 497.993 372.283C498.253 372.102 498.493 371.922 498.763 371.762C498.613 372.042 498.423 372.283 498.253 372.543C498.06 372.827 497.789 373.049 497.473 373.183C497.135 373.314 496.765 373.345 496.41 373.27C496.055 373.196 495.729 373.019 495.472 372.763C495.299 372.599 495.087 372.481 494.856 372.42C494.626 372.359 494.383 372.356 494.152 372.413C493.89 372.485 493.647 372.615 493.441 372.793C493.141 372.963 492.901 373.153 492.641 373.303Z" fill="white"/>
<path d="M498.053 336.7C498.203 336.42 498.393 336.18 498.563 335.92C498.752 335.635 499.015 335.407 499.323 335.26C499.661 335.107 500.037 335.059 500.402 335.121C500.767 335.184 501.106 335.354 501.374 335.61C501.541 335.784 501.75 335.913 501.981 335.985C502.212 336.057 502.458 336.069 502.694 336.02C502.955 335.959 503.198 335.839 503.405 335.67C503.665 335.5 503.905 335.31 504.175 335.15C504.025 335.43 503.835 335.67 503.665 335.93C503.473 336.219 503.197 336.443 502.874 336.57C502.536 336.703 502.167 336.734 501.811 336.659C501.456 336.585 501.13 336.408 500.874 336.15C500.7 335.986 500.489 335.868 500.258 335.807C500.027 335.746 499.785 335.743 499.553 335.8C499.291 335.872 499.049 336.002 498.843 336.18C498.563 336.36 498.323 336.55 498.053 336.7Z" fill="white"/>
<path d="M410.362 364.45C410.522 364.17 410.702 363.929 410.872 363.669C411.061 363.385 411.324 363.157 411.632 363.009C411.97 362.857 412.346 362.808 412.711 362.871C413.077 362.933 413.415 363.103 413.683 363.359C413.851 363.534 414.059 363.663 414.29 363.734C414.521 363.806 414.767 363.818 415.003 363.769C415.264 363.709 415.507 363.589 415.714 363.419C415.974 363.249 416.214 363.059 416.484 362.899C416.334 363.179 416.144 363.419 415.974 363.679C415.784 363.966 415.512 364.189 415.194 364.32C414.855 364.451 414.486 364.482 414.131 364.407C413.775 364.332 413.45 364.156 413.193 363.899C413.02 363.735 412.808 363.617 412.577 363.558C412.346 363.498 412.103 363.499 411.872 363.559C411.609 363.624 411.366 363.751 411.162 363.929C410.872 364.1 410.612 364.29 410.362 364.45Z" fill="white"/>
<path d="M407.611 307.339C407.761 307.069 407.951 306.829 408.121 306.569C408.31 306.282 408.572 306.05 408.881 305.899C409.22 305.748 409.596 305.701 409.961 305.765C410.327 305.83 410.665 306.001 410.932 306.259C411.099 306.434 411.308 306.563 411.539 306.633C411.771 306.703 412.016 306.712 412.252 306.659C412.516 306.607 412.761 306.487 412.963 306.309C413.223 306.139 413.463 305.949 413.733 305.799C413.577 306.065 413.406 306.322 413.223 306.569C413.03 306.856 412.759 307.082 412.442 307.219C412.104 307.351 411.735 307.381 411.379 307.307C411.024 307.232 410.698 307.056 410.442 306.799C410.27 306.633 410.058 306.514 409.827 306.452C409.596 306.391 409.353 306.39 409.121 306.449C408.859 306.522 408.616 306.651 408.411 306.829C408.131 306.999 407.891 307.189 407.611 307.339Z" fill="white"/>
<path d="M440.252 231.142C439.882 233.013 431.439 245.327 422.956 245.217C420.195 245.167 419.755 230.082 419.755 230.082L419.465 228.981L415.464 213.496L433.4 201.122L436.001 199.481C436.001 199.481 436.811 203.792 437.782 209.164C437.782 209.414 437.872 209.665 437.912 209.935C437.952 210.205 438.042 210.515 438.082 210.805C438.242 211.605 438.392 212.426 438.532 213.246C438.642 213.866 438.742 214.466 438.832 215.127C438.922 215.787 439.022 216.427 439.132 217.127C439.824 221.768 440.199 226.45 440.252 231.142Z" fill="#CF8170"/>
<path d="M437.782 209.164C436.349 213.598 433.968 217.668 430.805 221.09C427.642 224.512 423.773 227.205 419.465 228.981L415.464 213.496L433.4 201.122L436.001 199.481C436.001 199.481 436.811 203.792 437.782 209.164Z" fill="#263238"/>
<path d="M393.476 190.498C392.735 218.568 409.481 222.179 415.484 222.329C420.975 222.469 439.702 222.249 443.343 194.409C446.985 166.569 434.16 157.396 421.616 156.396C409.071 155.395 394.216 162.428 393.476 190.498Z" fill="#CF8170"/>
<path d="M397.737 182.005C398.397 181.895 398.978 181.695 399.618 181.525C400.302 181.441 400.94 181.139 401.439 180.664C401.566 180.484 401.63 180.266 401.621 180.046C401.612 179.825 401.53 179.613 401.389 179.444C401.055 179.153 400.651 178.957 400.217 178.874C399.783 178.791 399.334 178.826 398.918 178.974C398.031 179.141 397.239 179.633 396.697 180.354C396.583 180.526 396.522 180.727 396.519 180.933C396.517 181.139 396.574 181.341 396.684 181.515C396.794 181.69 396.952 181.828 397.139 181.915C397.325 182.002 397.533 182.033 397.737 182.005Z" fill="#263238"/>
<path d="M416.504 186.106C415.858 186.035 415.217 185.929 414.583 185.786C413.898 185.768 413.237 185.525 412.702 185.096C412.559 184.928 412.475 184.717 412.464 184.496C412.453 184.275 412.516 184.057 412.642 183.876C412.948 183.556 413.334 183.323 413.759 183.202C414.185 183.081 414.635 183.075 415.063 183.185C415.961 183.278 416.793 183.702 417.394 184.376C417.525 184.536 417.607 184.731 417.629 184.936C417.651 185.142 417.612 185.35 417.517 185.533C417.423 185.717 417.276 185.87 417.096 185.971C416.916 186.073 416.71 186.12 416.504 186.106Z" fill="#263238"/>
<path d="M401.879 191.138C401.879 191.068 401.739 191.238 401.739 191.318C401.929 193.219 401.829 195.43 400.148 196.18C400.088 196.18 400.148 196.3 400.148 196.29C402.249 195.85 402.359 192.909 401.879 191.138Z" fill="#263238"/>
<path d="M400.038 189.257C396.957 189.257 397.127 195.4 399.988 195.43C402.849 195.46 402.609 189.287 400.038 189.257Z" fill="#263238"/>
<path d="M398.768 189.707C398.287 190.047 397.827 190.648 397.237 190.708C396.647 190.768 396.047 190.117 395.596 189.487C395.596 189.427 395.506 189.487 395.506 189.557C395.506 190.738 395.936 191.958 397.067 192.148C398.197 192.338 398.838 191.298 399.068 190.148C399.138 189.897 398.958 189.567 398.768 189.707Z" fill="#263238"/>
<path d="M414.433 207.474C413.963 207.904 413.483 208.474 412.783 208.544C412.084 208.498 411.403 208.307 410.782 207.984C410.768 207.977 410.753 207.975 410.738 207.978C410.723 207.981 410.709 207.989 410.699 208C410.689 208.012 410.683 208.026 410.681 208.041C410.68 208.056 410.684 208.071 410.692 208.084C410.953 208.471 411.314 208.78 411.737 208.977C412.16 209.175 412.628 209.253 413.093 209.205C413.488 209.121 413.849 208.919 414.127 208.626C414.406 208.333 414.589 207.963 414.653 207.564C414.613 207.454 414.503 207.414 414.433 207.474Z" fill="#263238"/>
<path d="M404.87 199.801C404.87 199.801 404.65 202.662 404.72 204.003C407.34 203.859 409.967 204.088 412.522 204.683C413.123 204.843 413.083 204.353 412.402 203.993C410.376 202.937 408.08 202.512 405.81 202.772C405.69 202.402 406.24 198.371 406.03 198.371C404.996 198.522 403.987 198.812 403.029 199.231C403.329 193.229 404.59 187.387 404.8 181.435C404.803 181.391 404.789 181.348 404.763 181.313C404.736 181.278 404.698 181.254 404.655 181.246C404.612 181.237 404.568 181.245 404.53 181.266C404.492 181.288 404.464 181.323 404.45 181.364C402.689 187.437 402.189 194.299 401.719 200.461C401.658 201.222 404.349 200.061 404.87 199.801Z" fill="#263238"/>
<path d="M418.224 191.238C417.101 190.798 415.872 190.7 414.693 190.958C414.061 191.102 413.463 191.367 412.932 191.738C412.385 192.147 411.937 192.673 411.622 193.279L411.032 194.369L412.242 194.239C413.093 194.149 413.952 194.149 414.803 194.239C415.691 194.317 416.545 194.62 417.284 195.12C416.8 194.236 415.988 193.578 415.023 193.289C414.083 192.978 413.088 192.866 412.102 192.959L412.722 193.959C413.24 193.091 414.037 192.424 414.983 192.068C416.025 191.658 417.114 191.379 418.224 191.238Z" fill="#263238"/>
<path d="M414.753 196.21C413.847 195.997 412.976 195.661 412.162 195.21C411.972 195.09 411.242 194.539 411.282 194.379C411.385 193.914 411.546 193.464 411.762 193.039C411.426 193.416 411.17 193.859 411.012 194.339C411.068 194.604 411.181 194.853 411.343 195.069C411.506 195.285 411.714 195.463 411.952 195.59C412.812 196.047 413.78 196.261 414.753 196.21Z" fill="#263238"/>
<path d="M408.111 203.803C408.111 203.803 409.851 206.303 411.852 206.604C414.153 206.964 414.423 204.893 411.852 203.713C410.552 203.102 408.111 203.803 408.111 203.803Z" fill="#263238"/>
<path d="M411.842 206.654C410.97 206.473 410.168 206.046 409.531 205.423C410.011 204.713 411.112 203.923 413.583 205.253C413.943 206.094 413.303 206.834 411.842 206.654Z" fill="#FF99BA"/>
<path d="M443.173 195.08C438.552 195.66 437.011 185.986 437.011 185.986C437.011 185.986 427.588 186.467 423.816 173.062C424.284 177.112 425.925 180.936 428.538 184.066C428.538 184.066 411.822 183.065 404.149 169.531C404.149 169.531 407.29 176.483 410.031 178.874C410.031 178.874 402.959 177.273 399.288 171.771C399.288 171.771 396.767 179.944 394.636 182.275C394.636 182.275 393.906 153.155 421.005 154.935C421.005 154.935 437.931 155.235 444.644 168.3C451.356 181.365 443.173 195.08 443.173 195.08Z" fill="#263238"/>
<path d="M438.852 196.44C438.852 196.44 444.444 187.327 448.545 189.267C452.647 191.208 448.805 204.173 444.254 206.184C443.688 206.483 443.067 206.665 442.429 206.718C441.791 206.771 441.148 206.694 440.541 206.492C439.933 206.29 439.373 205.967 438.893 205.543C438.414 205.118 438.025 204.601 437.751 204.023L438.852 196.44Z" fill="#CF8170"/>
<path d="M447.355 192.959C447.425 192.959 447.445 193.049 447.355 193.079C444.164 194.6 442.633 197.731 441.613 200.952C442.513 199.681 443.794 198.951 445.484 199.951C445.574 200.001 445.484 200.142 445.404 200.132C444.82 199.982 444.203 200.018 443.64 200.235C443.077 200.452 442.596 200.839 442.263 201.342C441.703 202.181 441.24 203.08 440.883 204.023C440.743 204.323 440.212 204.203 440.302 203.863C440.297 203.836 440.297 203.809 440.302 203.783C440.022 199.651 442.903 193.649 447.355 192.959Z" fill="#263238"/>
<path d="M441.623 204.723C441.637 204.982 441.728 205.231 441.884 205.438C442.04 205.645 442.254 205.802 442.499 205.887C442.744 205.973 443.008 205.984 443.259 205.919C443.511 205.854 443.737 205.716 443.909 205.522C444.082 205.329 444.193 205.088 444.229 204.831C444.265 204.574 444.224 204.312 444.11 204.079C443.997 203.845 443.818 203.651 443.594 203.52C443.37 203.388 443.112 203.327 442.853 203.342C442.681 203.351 442.513 203.394 442.358 203.468C442.203 203.543 442.064 203.647 441.95 203.776C441.835 203.904 441.747 204.054 441.691 204.216C441.635 204.379 441.612 204.551 441.623 204.723Z" fill="white"/>
<path d="M444.764 202.552C444.772 202.718 444.83 202.879 444.929 203.012C445.028 203.146 445.165 203.247 445.322 203.303C445.479 203.358 445.649 203.366 445.81 203.325C445.972 203.284 446.117 203.196 446.229 203.072C446.34 202.948 446.412 202.794 446.435 202.629C446.459 202.464 446.433 202.296 446.36 202.146C446.288 201.996 446.173 201.871 446.029 201.786C445.886 201.702 445.721 201.662 445.554 201.672C445.444 201.677 445.336 201.704 445.237 201.751C445.138 201.798 445.048 201.865 444.975 201.947C444.901 202.028 444.845 202.124 444.809 202.228C444.772 202.332 444.757 202.442 444.764 202.552Z" fill="white"/>
<path d="M353.733 257.147L339.204 260.522L349.655 305.501L364.183 302.125L353.733 257.147Z" fill="#EBEBEB"/>
<path d="M318.319 137.759C306.181 140.583 295.153 146.942 286.628 156.033C278.103 165.124 272.465 176.538 270.427 188.832C268.388 201.126 270.04 213.749 275.174 225.105C280.308 236.46 288.693 246.039 299.27 252.63C309.847 259.221 322.14 262.528 334.596 262.133C347.052 261.738 359.112 257.659 369.25 250.412C379.388 243.165 387.15 233.074 391.555 221.416C395.96 209.759 396.809 197.056 393.996 184.916C392.127 176.849 388.686 169.229 383.87 162.492C379.054 155.755 372.958 150.034 365.93 145.654C358.902 141.275 351.08 138.323 342.91 136.969C334.741 135.614 326.384 135.883 318.319 137.759ZM343.848 247.668C334.258 249.899 324.221 249.235 315.008 245.761C305.795 242.287 297.819 236.159 292.089 228.151C286.359 220.143 283.133 210.616 282.819 200.775C282.504 190.934 285.115 181.22 290.322 172.863C295.528 164.506 303.097 157.88 312.069 153.825C321.042 149.77 331.015 148.466 340.728 150.08C350.442 151.694 359.458 156.152 366.638 162.89C373.817 169.629 378.836 178.345 381.061 187.937C384.043 200.792 381.798 214.306 374.82 225.506C367.842 236.707 356.702 244.678 343.848 247.668Z" fill="#A6A6A6"/>
<path d="M358.691 289.397L348.947 291.661C345.572 292.445 343.473 295.816 344.257 299.19L356.72 352.831C357.503 356.205 360.874 358.305 364.248 357.521L373.992 355.257C377.367 354.473 379.466 351.102 378.683 347.728L366.22 294.087C365.436 290.713 362.065 288.613 358.691 289.397Z" fill="#263238"/>
<g opacity="0.3">
<path opacity="0.3" d="M381.061 187.917C383.285 197.505 382.616 207.537 379.138 216.745C375.661 225.952 369.531 233.922 361.525 239.646C353.518 245.371 343.994 248.592 334.156 248.904C324.319 249.215 314.61 246.603 306.257 241.397C297.904 236.191 291.282 228.626 287.229 219.657C283.176 210.688 281.873 200.718 283.485 191.009C285.097 181.299 289.552 172.286 296.287 165.108C303.021 157.931 311.733 152.911 321.32 150.684C327.688 149.204 334.285 148.992 340.734 150.063C347.183 151.133 353.358 153.463 358.906 156.921C364.454 160.379 369.266 164.896 373.068 170.215C376.869 175.533 379.586 181.549 381.061 187.917Z" fill="white"/>
<path opacity="0.3" d="M382.282 201.942C381.547 215.044 375.671 227.326 365.93 236.119C356.189 244.912 343.372 249.504 330.263 248.899L382.282 201.942Z" fill="#EBEBEB"/>
<path opacity="0.3" d="M359.384 157.236L288.129 221.549C286.356 218.017 285.012 214.286 284.127 210.435C283.09 206.023 282.673 201.488 282.887 196.96L335.495 149.473C343.991 149.973 352.217 152.646 359.384 157.236Z" fill="#EBEBEB"/>
<path opacity="0.3" d="M379.691 183.145L311.817 244.397C308.851 243.034 306.026 241.382 303.384 239.465L375.66 174.242C377.302 177.065 378.653 180.049 379.691 183.145Z" fill="#EBEBEB"/>
<path opacity="0.3" d="M364.856 161.298L291.57 227.421C291.23 226.921 290.889 226.421 290.569 225.911L363.435 160.157C363.935 160.517 364.406 160.887 364.856 161.298Z" fill="#EBEBEB"/>
<path opacity="0.3" d="M318.899 151.314L286.388 180.645C286.938 179.254 287.558 177.894 288.238 176.573L314.678 152.705C316.048 152.195 317.459 151.724 318.899 151.314Z" fill="#EBEBEB"/>
</g>
<path d="M297.251 207.784C297.247 207.718 297.247 207.651 297.251 207.584C297.071 206.584 297.381 208.534 297.251 207.884C297.121 207.234 297.051 206.344 296.991 205.573C296.761 202.857 296.761 200.127 296.991 197.41C296.991 197.02 297.061 196.64 297.091 196.26C297.091 196.14 296.981 197.16 297.091 196.35L297.181 195.65C297.301 194.749 297.451 193.849 297.631 192.959C298.011 190.996 298.522 189.061 299.162 187.167C299.312 186.717 299.482 186.266 299.642 185.816C299.852 185.206 299.362 186.487 299.692 185.686L300.022 184.896C300.452 183.896 300.923 182.895 301.423 181.895C301.923 180.895 302.573 179.824 303.203 178.834C303.504 178.374 303.804 177.923 304.114 177.473C304.644 176.703 303.864 177.783 304.274 177.243L304.864 176.463C306.686 174.173 308.722 172.063 310.946 170.161C310.946 170.161 311.406 169.791 311.066 170.071C310.726 170.351 311.246 169.921 311.306 169.871L312.307 169.08C312.977 168.58 313.657 168.08 314.357 167.64C315.824 166.659 317.34 165.755 318.899 164.929C319.317 164.666 319.679 164.324 319.964 163.921C320.25 163.518 320.453 163.064 320.562 162.582C320.672 162.101 320.686 161.603 320.603 161.117C320.52 160.63 320.342 160.165 320.079 159.747C319.817 159.329 319.474 158.967 319.072 158.682C318.669 158.397 318.214 158.193 317.733 158.084C317.252 157.974 316.754 157.96 316.267 158.043C315.781 158.126 315.315 158.304 314.898 158.567C305.014 163.838 296.891 172.161 292.81 182.655C290.047 189.712 288.868 197.29 289.359 204.853C289.458 206.533 289.672 208.204 289.999 209.855C290.284 210.807 290.934 211.608 291.808 212.082C292.681 212.556 293.707 212.665 294.66 212.386C295.599 212.077 296.383 211.421 296.854 210.553C297.324 209.684 297.445 208.669 297.191 207.714L297.251 207.784Z" fill="#EBEBEB"/>
<path d="M300.573 218.428C300.78 219.126 300.775 219.869 300.56 220.565C300.344 221.26 299.928 221.875 299.362 222.334C298.797 222.792 298.108 223.073 297.384 223.14C296.659 223.208 295.931 223.059 295.29 222.712C294.65 222.365 294.128 221.837 293.788 221.193C293.448 220.55 293.307 219.82 293.382 219.096C293.457 218.372 293.745 217.686 294.209 217.126C294.673 216.565 295.294 216.155 295.991 215.947C296.455 215.807 296.942 215.761 297.423 215.81C297.905 215.859 298.372 216.003 298.798 216.234C299.224 216.465 299.6 216.777 299.905 217.154C300.209 217.53 300.436 217.963 300.573 218.428Z" fill="#EBEBEB"/>
<path d="M459.759 249.969C468.762 282.521 473.084 315.202 468.102 332.058C464.921 342.802 457.248 350.065 452.367 352.466C440.952 358.108 403.089 350.105 378.42 345.143C372.358 343.922 386.653 295.075 392.745 297.666C401.749 301.477 429.308 306.619 430.069 306.869C431.699 307.429 435.07 272.107 437.451 251.4C440.742 222.549 454.567 231.172 459.759 249.969Z" fill="#CF8170"/>
<path d="M331.014 288.363C328.333 292.734 331.814 296.736 331.814 296.736C329.529 297.879 327.716 299.787 326.692 302.128C325.081 306.329 330.964 310.701 330.964 310.701C328.841 312.379 327.275 314.659 326.472 317.243C325.332 321.425 330.643 326.676 330.643 326.676C329.547 329.295 329.429 332.221 330.313 334.919C332.964 342.032 344.318 344.363 351.521 345.923C358.723 347.484 380.611 345.123 384.833 345.103L395.186 298.957C395.186 298.957 364.866 282.801 356.173 282.181C348.78 281.68 334.025 283.461 331.014 288.363Z" fill="#CF8170"/>
<path d="M332.294 296.065C340.297 294.755 348.16 295.855 356.112 296.505C356.149 296.505 356.185 296.52 356.211 296.546C356.238 296.573 356.252 296.608 356.252 296.645C356.252 296.683 356.238 296.718 356.211 296.744C356.185 296.771 356.149 296.785 356.112 296.785C348.2 296.045 340.247 296.875 332.334 296.455C332.288 296.451 332.245 296.431 332.212 296.398C332.18 296.365 332.159 296.323 332.154 296.277C332.15 296.231 332.161 296.185 332.186 296.146C332.212 296.107 332.25 296.079 332.294 296.065Z" fill="#263238"/>
<path d="M331.254 310.131C333.088 310.003 334.932 310.12 336.736 310.481C338.663 310.734 340.587 311.021 342.508 311.341C346.356 312.008 350.184 312.745 353.992 313.552C354.162 313.552 354.152 313.852 353.992 313.822C350.15 313.192 346.309 312.621 342.458 312.151C340.527 311.911 338.596 311.701 336.656 311.491C334.82 311.417 332.998 311.138 331.224 310.661C331.169 310.639 331.123 310.601 331.091 310.551C331.06 310.502 331.045 310.443 331.048 310.385C331.051 310.326 331.073 310.27 331.11 310.225C331.147 310.179 331.197 310.146 331.254 310.131Z" fill="#263238"/>
<path d="M330.803 326.696C332.364 326.426 334.185 326.986 335.725 327.277C337.476 327.607 339.216 327.917 340.967 328.227C344.468 328.847 347.97 329.457 351.491 329.958C351.661 329.958 351.641 330.258 351.491 330.228C347.91 329.747 344.328 329.307 340.757 328.797C339.006 328.547 337.246 328.277 335.495 328.007C334.005 327.777 332.124 327.657 330.793 326.876C330.777 326.867 330.763 326.854 330.754 326.837C330.745 326.821 330.741 326.802 330.742 326.783C330.743 326.764 330.749 326.746 330.76 326.731C330.771 326.716 330.786 326.704 330.803 326.696Z" fill="#263238"/>
<path d="M340.897 283.581C337.266 284.051 333.104 284.851 330.753 287.943C329.666 289.254 329.132 290.936 329.263 292.634C329.47 294.22 330.27 295.668 331.504 296.686C330.052 297.153 328.762 298.021 327.782 299.189C326.801 300.357 326.171 301.778 325.962 303.288C325.901 304.044 325.996 304.805 326.242 305.523C326.488 306.24 326.88 306.9 327.392 307.459C327.892 308.05 328.462 308.57 329.013 309.11C329.563 309.65 330.173 310.11 330.743 310.581C330.127 311.062 329.548 311.591 329.013 312.161C328.412 312.738 327.873 313.375 327.402 314.062C326.428 315.423 325.879 317.041 325.822 318.713C325.905 320.375 326.483 321.974 327.482 323.305C328.294 324.681 329.44 325.83 330.813 326.646C330.83 326.655 330.85 326.657 330.869 326.652C330.887 326.647 330.903 326.636 330.914 326.62C330.925 326.604 330.93 326.585 330.928 326.566C330.926 326.547 330.917 326.529 330.903 326.516C329.824 325.531 328.909 324.379 328.192 323.105C327.327 321.746 326.853 320.174 326.822 318.563C326.954 317.036 327.471 315.567 328.322 314.292C328.746 313.601 329.207 312.933 329.703 312.291C330.197 311.767 330.658 311.212 331.083 310.631C331.083 310.631 329.893 309.37 329.473 308.83C329.053 308.29 328.643 307.71 328.262 307.119C327.457 305.999 327.1 304.618 327.262 303.248C327.498 301.969 328.079 300.779 328.943 299.807C329.783 298.806 330.873 298.016 331.754 297.036C331.785 296.984 331.806 296.926 331.814 296.866C331.823 296.806 331.819 296.744 331.804 296.686C329.803 293.565 330.053 290.603 332.194 288.293C333.284 287.172 334.56 286.248 335.965 285.562C337.582 284.827 339.254 284.221 340.967 283.751C341.037 283.741 341.007 283.571 340.897 283.581Z" fill="#263238"/>
<path d="M407.221 350.795C405.09 350.134 402.839 349.794 400.658 349.314C398.477 348.834 396.277 348.384 394.076 347.944C391.875 347.504 389.584 347.063 387.343 346.643C385.103 346.223 383.012 345.753 380.831 345.493C378.726 345.289 376.603 345.336 374.509 345.633C372.395 345.873 370.274 346.043 368.147 346.143C363.861 346.35 359.565 346.256 355.292 345.863C350.458 345.414 345.669 344.561 340.977 343.312C340.877 343.312 340.847 343.432 340.977 343.462C349.112 346.178 357.64 347.53 366.216 347.464C368.337 347.464 370.468 347.333 372.578 347.123C374.687 346.824 376.811 346.644 378.941 346.583C381.192 346.732 383.427 347.066 385.623 347.584C387.834 347.994 390.034 348.414 392.245 348.804C394.746 349.244 397.247 349.694 399.758 350.084C402.269 350.475 404.76 351.035 407.221 351.215C407.401 351.175 407.411 350.845 407.221 350.795Z" fill="#263238"/>
<path d="M438.291 308.89C435.09 307.8 431.709 307.119 428.418 306.329C425.127 305.539 421.796 304.779 418.484 304.028C412.162 302.598 405.76 301.387 399.478 299.637C397.827 299.177 396.197 298.636 394.586 298.096C393.776 297.806 392.985 297.486 392.195 297.096C391.405 296.706 390.494 296.466 389.714 296.095C389.624 296.035 389.554 296.175 389.644 296.235C390.274 296.626 390.855 297.096 391.505 297.476C392.155 297.856 392.945 298.236 393.686 298.576C395.039 299.195 396.425 299.739 397.837 300.207C400.778 301.207 403.839 301.898 406.84 302.598C413.443 304.108 420.055 305.599 426.677 307.029C428.538 307.429 430.409 307.83 432.279 308.2C434.15 308.57 436.191 309.03 438.171 309.25C438.218 309.263 438.268 309.258 438.311 309.235C438.354 309.212 438.387 309.173 438.402 309.127C438.418 309.081 438.415 309.03 438.394 308.986C438.374 308.942 438.337 308.908 438.291 308.89Z" fill="#263238"/>
<path d="M427.878 296.785L473.634 303.008C473.634 303.008 465.271 255.441 456.378 239.685C447.605 224.14 437.921 234.413 434.23 253.22C430.089 274.067 427.878 296.785 427.878 296.785Z" fill="#FDB839"/>
<path d="M470.203 296.115C468.922 295.815 467.612 295.625 466.331 295.345C465.051 295.065 463.821 294.875 462.56 294.675C459.989 294.275 457.408 293.915 454.827 293.565C449.746 292.864 444.674 292.094 439.572 291.564C436.671 291.244 433.78 290.814 430.879 290.563C430.858 290.563 430.837 290.572 430.822 290.587C430.807 290.602 430.799 290.622 430.799 290.643C430.799 290.665 430.807 290.685 430.822 290.7C430.837 290.715 430.858 290.724 430.879 290.724C435.931 291.904 441.082 292.784 446.204 293.615C451.326 294.445 456.368 295.225 461.47 295.785C462.9 295.935 464.331 296.125 465.771 296.195C467.212 296.266 468.722 296.396 470.193 296.426C470.234 296.427 470.274 296.412 470.304 296.384C470.334 296.356 470.352 296.317 470.353 296.276C470.354 296.234 470.339 296.194 470.311 296.164C470.283 296.134 470.244 296.117 470.203 296.115Z" fill="#263238"/>
</svg>
