<svg width="28" height="59" viewBox="0 0 28 59" fill="none" xmlns="http://www.w3.org/2000/svg">
<path d="M16.3816 30.4023C16.0375 31.7397 15.8105 33.1081 15.7034 34.49C15.7375 34.5581 15.7332 34.8079 15.7034 34.7398C15.7034 34.9669 15.3749 34.926 15.3706 34.7035C15.3706 34.5581 15.3706 34.4128 15.3706 34.2493C14.6199 33.2592 13.5278 32.6324 12.6491 31.7694C11.9388 31.0916 11.4214 30.2151 11.1561 29.2396C10.4266 26.5598 11.1092 23.7166 10.2304 21.0641C9.47537 18.7569 8.09753 16.7539 6.96284 14.6646C5.75136 12.4527 4.85555 10.1227 4.76597 7.5429C4.69345 5.56263 4.91527 2.92378 6.33577 1.43858C7.83732 -0.13746 9.69719 1.04344 10.8489 2.44688C14.1848 6.5346 15.729 11.676 16.3518 16.9401C16.6973 19.856 17.0556 22.7901 16.9703 25.7287C16.9206 27.3035 16.7234 28.8692 16.3816 30.4023Z" fill="#FFC727"/>
<path d="M15.7161 35.5617C15.9053 32.8118 15.881 30.0501 15.6436 27.3045C15.6436 27.3045 15.6436 27.3045 15.6436 27.2772C15.6862 25.0426 15.8526 22.8216 15.7716 20.587C15.6686 18.17 15.3588 15.7679 14.8459 13.4108C14.8459 13.3836 14.799 13.4108 14.8075 13.4108C15.2144 15.7273 15.4582 18.0729 15.5369 20.4281C15.5796 21.6907 15.5696 22.9518 15.5071 24.2115C15.5071 24.6202 15.4516 25.0335 15.426 25.4469C14.5538 19.1798 12.4269 13.1854 9.1895 7.86972C9.14258 7.79705 9.02314 7.86972 9.0658 7.95147C11.3799 11.9897 13.0923 16.3855 14.142 20.9822C12.5381 17.8028 10.1152 15.214 8.31929 12.1754C8.31929 12.1754 8.28517 12.1754 8.28943 12.1754C9.90615 15.5591 12.5552 18.2298 14.2615 21.5635C14.5558 22.9261 14.799 24.2887 14.9781 25.674C15.2183 27.5681 15.348 29.4764 15.3663 31.3877C14.3894 29.4437 13.3742 27.5816 12.5722 25.5241C12.5722 25.4696 12.4784 25.5241 12.4955 25.5604C13.1492 27.7917 14.1187 29.9037 15.3706 31.8237C15.3706 33.1863 15.3407 34.5261 15.2639 35.875C15.0634 39.4813 14.4876 43.0376 14.2188 46.6303C14.2188 46.652 14.2269 46.6727 14.2413 46.6881C14.2557 46.7034 14.2752 46.712 14.2956 46.712C14.316 46.712 14.3355 46.7034 14.3499 46.6881C14.3643 46.6727 14.3724 46.652 14.3724 46.6303C15.055 42.9774 15.504 39.2793 15.7161 35.5617Z" fill="#263238"/>
<path d="M12.1243 7.76074H12.0859C12.648 9.58422 13.1235 11.4366 13.5107 13.311C13.5121 13.3199 13.5152 13.3285 13.5197 13.3362C13.5242 13.3439 13.5301 13.3506 13.537 13.3559C13.544 13.3611 13.5518 13.3649 13.5601 13.3669C13.5684 13.369 13.577 13.3693 13.5854 13.3678C13.5938 13.3663 13.6018 13.363 13.6091 13.3582C13.6163 13.3534 13.6226 13.3472 13.6275 13.3398C13.6325 13.3324 13.636 13.3241 13.6379 13.3152C13.6399 13.3064 13.6401 13.2972 13.6387 13.2883C13.3898 11.377 12.8796 9.51477 12.1243 7.76074Z" fill="#263238"/>
<path d="M27.8269 15.4138C27.4148 16.4814 26.9403 17.5205 26.4064 18.525C25.2931 20.6779 24.1285 22.6536 23.9195 25.1608C23.8841 26.2815 23.7339 27.3948 23.4716 28.4809C23.1802 29.4095 22.7604 30.2867 22.226 31.0834C21.0188 32.9547 19.5129 34.567 18.3868 36.511C17.2215 38.5373 16.3581 40.7435 15.8273 43.0513C15.8017 43.1785 15.614 43.1422 15.6439 43.0195C15.646 43.009 15.646 42.9982 15.6439 42.9877C15.6424 42.9842 15.6416 42.9803 15.6416 42.9764C15.6416 42.9725 15.6424 42.9686 15.6439 42.965C15.4647 37.5874 15.87 32.1689 17.4099 27.0184C18.0893 24.7541 18.9057 22.5391 19.8542 20.3872C20.6315 18.4859 21.7535 16.7665 23.1559 15.3275C24.0986 14.4192 26.142 12.7205 27.4729 13.6243C28.1298 14.0513 28.0786 14.7189 27.8269 15.4138Z" fill="#FFC727"/>
<path d="M22.9675 25.2799C21.8568 26.7909 20.8948 28.4194 20.0967 30.1398C20.0967 30.1625 20.0967 30.1852 20.1308 30.1625C21.0949 28.5501 22.0461 26.9241 23.0102 25.3117C23.0273 25.2845 22.9846 25.2572 22.9675 25.2799Z" fill="#263238"/>
<path d="M1.47258 20.4869C2.12951 21.6905 2.87602 23.1303 2.59448 24.5746C2.41531 25.483 1.78824 26.2279 1.67733 27.159C1.42139 29.2119 3.34525 30.57 4.73589 31.5374C8.1997 33.9628 12.956 36.1202 13.5874 41.0754C13.613 41.2525 13.8945 41.2071 13.8732 41.0345C13.8752 41.0241 13.8752 41.0132 13.8732 41.0027C13.8732 41.0027 13.8732 41.0027 13.8732 40.9755C14.3277 38.4771 14.3059 35.907 13.8092 33.4177C13.2429 30.9067 12.3025 28.5084 11.0236 26.3142C8.93768 22.5262 6.72801 18.6429 3.57134 15.7406C2.71818 14.9367 0.909496 13.4923 0.214175 15.3091C-0.481145 17.1259 0.670612 19.0471 1.47258 20.4869Z" fill="#FFC727"/>
<path d="M4.64633 28.5265C6.94558 31.1744 10.6184 32.6596 12.5807 35.6255C11.4755 31.1079 9.38566 26.9315 6.48061 23.435C6.46364 23.4169 6.45411 23.3924 6.45411 23.3669C6.45411 23.3413 6.46364 23.3168 6.48061 23.2987C6.49758 23.2806 6.5206 23.2705 6.5446 23.2705C6.5686 23.2705 6.59162 23.2806 6.60859 23.2987C8.7246 25.4895 10.4173 28.1003 11.591 30.9836C11.0508 28.9708 10.3368 27.0155 9.45813 25.1427C9.424 25.0701 9.52212 25.0065 9.56051 25.0791C10.652 27.1231 11.4323 29.3382 11.8726 31.6422C14.479 38.3642 14.7221 46.2444 14.1761 53.3298C14.1761 53.4297 14.0225 53.4343 14.0268 53.3298C14.1761 47.7478 14.0908 42.0659 12.8324 36.6156C12.8068 36.502 12.7769 36.3885 12.7513 36.2749C10.6184 33.0956 6.95838 31.6013 4.62073 28.5537C4.58234 28.5355 4.62073 28.4947 4.64633 28.5265Z" fill="#263238"/>
<path d="M4.12624 26.2513C5.33345 27.4276 6.51933 28.6358 7.73081 29.8122C7.73081 29.8122 7.73081 29.8485 7.73081 29.8349C6.35021 28.8539 5.10779 27.6687 4.04093 26.3149C4.00253 26.274 4.06652 26.2013 4.12624 26.2513Z" fill="#263238"/>
<path d="M3.92143 21.1409C4.99064 23.0046 6.20042 24.7727 7.5388 26.4277C7.5388 26.4504 7.5388 26.4822 7.50894 26.4595C6.00903 24.9443 4.77407 23.1573 3.86171 21.1818C3.83612 21.1364 3.89584 21.0955 3.92143 21.1409Z" fill="#263238"/>
<path d="M9.35547 58.3263H19.926L18.5013 43.1836H10.985L9.35547 58.3263Z" fill="#455A64"/>
<path d="M10.7168 45.6453H18.7365L18.5018 43.1836H10.9855L10.7168 45.6453Z" fill="#263238"/>
<path d="M9.68435 43.9238H19.5938V41.5075H9.68435V43.9238Z" fill="#455A64"/>
</svg>
