<svg width="387" height="376" viewBox="0 0 387 376" fill="none" xmlns="http://www.w3.org/2000/svg">
<path d="M193.539 375.051C242.413 375.051 282.034 370.895 282.034 365.769C282.034 360.643 242.413 356.488 193.539 356.488C144.664 356.488 105.044 360.643 105.044 365.769C105.044 370.895 144.664 375.051 193.539 375.051Z" fill="#EBEBEB"/>
<path d="M35.9448 251.124C35.9448 251.124 43.7526 223.105 49.9861 213.595C56.2195 204.084 67.8443 193.631 67.8443 193.631C67.8443 193.631 67.5697 236.817 35.9448 251.124Z" fill="#FDB839"/>
<path d="M36.5033 250.638C39.1367 246.251 41.5144 241.716 43.6247 237.055C44.518 232.05 45.8128 227.124 47.4965 222.327C47.4983 222.317 47.5023 222.307 47.5083 222.298C47.5142 222.289 47.522 222.282 47.5311 222.277C47.5401 222.271 47.5502 222.268 47.5607 222.267C47.5712 222.265 47.5819 222.266 47.5919 222.27C47.6019 222.273 47.6111 222.279 47.6188 222.286C47.6265 222.293 47.6326 222.302 47.6366 222.312C47.6405 222.321 47.6424 222.332 47.6419 222.343C47.6414 222.353 47.6387 222.363 47.6338 222.373C46.5995 226.803 45.4004 231.188 44.302 235.599C47.4508 228.78 50.4439 221.869 54.1968 215.462C55.0762 212.347 56.3045 209.341 57.8582 206.501C57.8582 206.418 58.0321 206.501 57.9955 206.547C57.0317 208.729 56.2063 210.97 55.5241 213.256C57.2892 210.363 59.2721 207.61 61.4554 205.018C61.5927 204.853 61.8582 205.018 61.73 205.21C56.714 211.618 53.2449 218.895 49.9496 226.263C53.4928 222.415 56.7653 218.325 59.7438 214.025C59.7438 213.979 59.8353 214.025 59.8078 214.071C56.7046 218.892 53.1953 223.439 49.3181 227.663C46.9199 233.073 44.5583 238.501 41.6933 243.636C47.4142 238.803 51.8169 232.542 56.1739 226.501C56.1934 226.472 56.2236 226.452 56.2579 226.445C56.2922 226.438 56.3279 226.445 56.357 226.464C56.3861 226.484 56.4064 226.514 56.4132 226.548C56.4201 226.583 56.413 226.618 56.3936 226.647C52.0366 233.274 47.524 239.517 41.2448 244.423C39.9725 246.683 38.576 248.871 37.0617 250.977C37.0078 251.028 36.9387 251.06 36.8649 251.068C36.7912 251.075 36.7169 251.059 36.6535 251.02C36.5901 250.982 36.5411 250.924 36.514 250.855C36.4868 250.786 36.4831 250.71 36.5033 250.638V250.638Z" fill="#263238"/>
<path d="M33.5286 253.641C33.5286 253.641 47.5607 227.81 43.4783 202.757C39.3959 177.704 35.0389 168.798 35.0389 168.798C35.0389 168.798 12.9884 207.764 33.5286 253.641Z" fill="#FDB839"/>
<path d="M28.7779 209.036C29.2426 211.285 29.5485 213.564 29.6932 215.856C29.688 215.87 29.6787 215.882 29.6664 215.89C29.6541 215.899 29.6395 215.903 29.6246 215.903C29.6096 215.903 29.595 215.899 29.5828 215.89C29.5705 215.882 29.5611 215.87 29.5559 215.856C29.011 213.619 28.6256 211.346 28.4026 209.055C28.4026 208.89 28.6955 208.862 28.7779 209.036Z" fill="#263238"/>
<path d="M36.9335 190.153C36.9335 190.071 37.0616 190.098 37.0708 190.153C37.0468 191.746 36.8098 193.328 36.366 194.858C36.366 194.986 36.1463 194.922 36.1738 194.803C36.4758 193.265 36.668 191.709 36.9335 190.153Z" fill="#263238"/>
<path d="M28.4117 255.618C28.4117 255.618 28.9792 228.652 21.2446 215.251C13.51 201.851 0.677002 195.013 0.677002 195.013C0.677002 195.013 5.89442 242.547 28.4117 255.618Z" fill="#FDB839"/>
<path d="M14.3156 232.56C17.4242 237.267 20.924 241.704 24.7779 245.824C23.2401 240.332 21.4552 234.913 19.4231 229.567C15.0936 225.759 10.7915 221.823 8.12789 216.615C8.11818 216.598 8.11561 216.578 8.12076 216.559C8.12591 216.54 8.13836 216.524 8.15535 216.514C8.17234 216.505 8.1925 216.502 8.21138 216.507C8.23026 216.513 8.24633 216.525 8.25604 216.542C11.1119 221.119 14.938 224.835 18.9655 228.386C15.8657 220.354 12.2707 212.522 8.20112 204.935C8.18806 204.898 8.18845 204.856 8.20223 204.819C8.216 204.781 8.24231 204.75 8.27673 204.729C8.31114 204.709 8.35155 204.701 8.39113 204.707C8.43072 204.713 8.46706 204.732 8.49402 204.762C10.9685 208.739 13.2236 212.849 15.2492 217.073C14.5169 214.19 13.9403 211.242 13.1989 208.377C13.2036 208.365 13.2118 208.355 13.2224 208.348C13.233 208.341 13.2455 208.337 13.2584 208.337C13.2712 208.337 13.2837 208.341 13.2943 208.348C13.3049 208.355 13.3131 208.365 13.3179 208.377C14.8379 212.048 15.9045 215.89 16.4941 219.819C19.1974 225.787 21.4672 231.941 23.2859 238.235C23.0937 234.19 22.8374 230.171 22.4163 226.135C22.4163 226.061 22.5444 226.043 22.5536 226.135C23.4187 230.609 23.8114 235.162 23.7252 239.718C24.8419 243.737 25.7756 247.81 26.5353 251.901C26.5353 252.011 26.3889 252.066 26.3614 251.947C25.9403 250.232 25.4949 248.527 25.025 246.83C24.9951 246.839 24.9634 246.839 24.9335 246.83C20.787 242.675 16.8419 237.933 14.2515 232.634L14.3156 232.56Z" fill="#263238"/>
<path d="M51.3959 252.332L50.4165 265.101L47.4782 303.719H21.8488L18.9014 265.101L17.9312 252.332H51.3959Z" fill="#1D3C58"/>
<path d="M51.396 252.332L50.4166 265.101H18.9107L17.9404 252.332H51.396Z" fill="#1D3C58"/>
<path d="M15.6702 255.856H53.675V246.062H15.6702V255.856Z" fill="#1D3C58"/>
<path d="M0.256104 303.719L48.5767 303.49L96.8974 303.417L193.539 303.261L290.18 303.417L338.501 303.49L386.821 303.719L338.501 303.938L290.18 304.021L193.539 304.176L96.8974 304.021L48.5767 303.938L0.256104 303.719Z" fill="#263238"/>
<path d="M244.168 45.4511C243.867 48.3741 242.79 51.1549 241.054 53.4875C240.621 54.0652 240.155 54.6161 239.659 55.1371C239.146 55.6443 238.603 56.1181 238.034 56.5557C235.749 58.329 233.033 59.4174 230.186 59.7009C229.474 59.7672 228.758 59.7822 228.044 59.7458C227.331 59.7264 226.621 59.6491 225.92 59.5147C223.086 58.9835 220.45 57.6501 218.309 55.6634L218.49 55.7212L210.817 56.9087L210.256 56.9921L210.543 56.4851L214.367 49.6169V49.8865C213.467 47.6147 213.084 45.1605 213.248 42.7124C213.412 40.2643 214.119 37.8876 215.314 35.765C216.513 33.6519 218.161 31.8459 220.134 30.4823C222.104 29.1225 224.349 28.2444 226.698 27.9148C229.031 27.5818 231.406 27.8063 233.64 28.571C235.875 29.3356 237.909 30.62 239.584 32.3245C241.263 34.0122 242.547 36.0706 243.341 38.3444C244.135 40.6182 244.418 43.0482 244.168 45.4511V45.4511Z" fill="#455A64"/>
<path d="M222.548 80.65C221.566 81.0049 220.501 81.092 219.471 80.9017C219.215 80.8543 218.962 80.7915 218.714 80.7136C218.468 80.6288 218.227 80.53 217.993 80.4177C217.524 80.1947 217.09 79.9088 216.704 79.5687C216.314 79.2309 215.974 78.8428 215.695 78.4155C215.557 78.2006 215.435 77.976 215.333 77.7434C215.216 77.5156 215.12 77.2788 215.045 77.0355C214.749 76.0553 214.744 75.0148 215.031 74.0321V74.0984L213.374 71.8528L213.256 71.6897H213.463L216.287 71.8445L216.198 71.8805C216.776 71.2457 217.497 70.747 218.307 70.4228C219.117 70.0987 219.993 69.9578 220.868 70.011C221.752 70.0652 222.61 70.313 223.379 70.7355C224.133 71.1522 224.778 71.7278 225.267 72.419C225.757 73.1102 226.076 73.899 226.203 74.7262C226.32 75.5505 226.244 76.3895 225.981 77.182C225.719 77.9724 225.274 78.6952 224.679 79.2959C224.085 79.8967 223.356 80.3597 222.548 80.65V80.65Z" fill="#FDB839"/>
<path d="M160.256 31C163.57 31 166.256 28.3137 166.256 25C166.256 21.6863 163.57 19 160.256 19C156.943 19 154.256 21.6863 154.256 25C154.256 28.3137 156.943 31 160.256 31Z" fill="#1D3C58"/>
<path d="M163.604 25.7645C162.604 27.7629 160.256 28.9469 160.256 28.9469C160.256 28.9469 157.898 27.7629 156.909 25.7645C156.085 24.0959 156.609 22.2974 157.908 21.9027C159.772 21.3382 160.251 24.5905 160.251 24.5905C160.251 24.5905 160.751 21.3382 162.599 21.9027C163.903 22.2974 164.428 24.0959 163.604 25.7645Z" fill="white"/>
<path d="M270.549 17.5543C271.533 11.6298 267.528 6.02941 261.603 5.04542C255.679 4.06144 250.078 8.0665 249.094 13.991C248.11 19.9155 252.115 25.5159 258.04 26.4999C263.964 27.4839 269.565 23.4788 270.549 17.5543Z" fill="#455A64"/>
<path fill-rule="evenodd" clip-rule="evenodd" d="M258.17 20.6048C257.85 20.3943 257.566 20.1014 257.136 20.1472C256.962 20.1472 256.999 20.0282 256.999 19.9366C256.999 18.2982 256.999 16.6689 256.999 15.0396C256.999 14.9206 256.999 14.8199 257.136 14.7558C258.381 14.1243 258.912 12.9252 259.672 11.8268C260.059 11.3076 260.34 10.7165 260.497 10.088C260.654 9.45943 260.685 8.8059 260.587 8.16541C260.532 7.79927 260.706 7.63451 261.035 7.56129C261.199 7.50859 261.374 7.50756 261.538 7.55835C261.702 7.60914 261.846 7.70926 261.951 7.84504C262.311 8.51247 262.552 9.23713 262.665 9.98693C262.664 10.6037 262.59 11.2182 262.445 11.8176C262.39 12.2661 262.289 12.7329 262.207 13.1632C262.317 13.2455 262.436 13.1632 262.555 13.1632H266.692C267.278 13.1632 267.608 13.3279 267.608 13.7124C267.653 13.9498 267.619 14.1955 267.512 14.4119C267.404 14.6284 267.229 14.8039 267.013 14.9114C266.903 14.9664 266.72 14.9114 266.711 15.0762C266.701 15.241 266.884 15.2227 266.985 15.2867C267.479 15.6346 267.388 16.3394 266.82 16.7513C266.674 16.8428 266.408 16.8062 266.399 17.0076C266.39 17.2089 266.656 17.1632 266.765 17.2822C266.858 17.3952 266.921 17.5285 266.951 17.6711C266.981 17.8137 266.977 17.9615 266.939 18.102C266.9 18.2426 266.829 18.3719 266.73 18.4793C266.631 18.5866 266.509 18.6689 266.372 18.7192C266.299 18.7192 266.198 18.7192 266.134 18.8199C266.07 18.9206 265.997 18.9115 266.134 19.0122C266.269 19.0785 266.383 19.1814 266.463 19.3093C266.542 19.4371 266.585 19.5847 266.585 19.7353C266.585 19.8859 266.542 20.0335 266.463 20.1613C266.383 20.2891 266.269 20.392 266.134 20.4584L265.951 20.5957C265.733 20.7243 265.479 20.7789 265.228 20.7513H258.747C258.543 20.7779 258.337 20.7255 258.17 20.6048Z" fill="white"/>
<path fill-rule="evenodd" clip-rule="evenodd" d="M252.02 17.7398C252.02 16.7054 252.02 15.6711 252.02 14.6368C252.02 14.4262 252.02 14.3164 252.303 14.3164C253.566 14.3164 254.83 14.3164 256.093 14.3164C256.34 14.3164 256.377 14.3988 256.377 14.6185C256.377 16.7054 256.377 18.7924 256.377 20.8794C256.377 21.1448 256.303 21.218 256.038 21.218C254.811 21.218 253.585 21.218 252.376 21.218C252.074 21.218 252.029 21.1174 252.029 20.8519C252.038 19.8176 252.02 18.7832 252.02 17.7398Z" fill="white"/>
<path d="M181.786 100.669C181.786 101.758 181.462 102.821 180.857 103.725C180.251 104.629 179.391 105.333 178.385 105.748C177.379 106.162 176.272 106.268 175.205 106.052C174.139 105.837 173.16 105.309 172.394 104.536C171.628 103.764 171.108 102.781 170.902 101.713C170.695 100.644 170.81 99.5385 171.233 98.5358C171.656 97.5331 172.367 96.6786 173.276 96.0807C174.185 95.4827 175.251 95.1684 176.34 95.1774C177.788 95.1895 179.173 95.7735 180.193 96.8021C181.214 97.8307 181.786 99.2208 181.786 100.669Z" fill="#FDB839"/>
<path d="M176.248 96.9074C176.746 96.8793 177.238 97.0178 177.649 97.301C177.99 97.5518 178.243 97.9042 178.372 98.3078C178.41 98.4547 178.435 98.6049 178.445 98.7564C178.445 98.976 178.445 99.1957 178.445 99.4154C178.445 99.6076 178.445 99.7907 178.445 99.9738C178.445 100.157 178.445 100.056 178.518 100.093C178.622 100.129 178.735 100.129 178.839 100.093L179.003 100.029C179.072 99.9985 179.149 99.9902 179.222 100.005C179.296 100.02 179.363 100.057 179.415 100.111C179.449 100.145 179.468 100.191 179.468 100.239C179.468 100.287 179.449 100.333 179.415 100.367C179.323 100.453 179.214 100.518 179.095 100.56C179.003 100.56 178.912 100.614 178.82 100.66C178.761 100.683 178.706 100.714 178.655 100.752C178.591 100.796 178.543 100.861 178.52 100.935C178.497 101.01 178.499 101.091 178.527 101.164C178.587 101.351 178.677 101.527 178.793 101.685C178.988 101.998 179.251 102.264 179.562 102.463C179.763 102.591 179.986 102.678 180.221 102.72C180.294 102.72 180.321 102.784 180.294 102.857C180.262 102.923 180.206 102.975 180.138 103.004C179.978 103.09 179.805 103.149 179.626 103.177L179.333 103.241C179.309 103.243 179.285 103.252 179.266 103.267C179.247 103.281 179.232 103.301 179.223 103.324C179.223 103.434 179.223 103.544 179.141 103.644C179.058 103.745 179.086 103.782 178.967 103.763C178.848 103.745 178.692 103.763 178.546 103.708C178.376 103.687 178.203 103.699 178.038 103.744C177.873 103.79 177.719 103.868 177.585 103.974C177.441 104.083 177.291 104.184 177.136 104.276C176.874 104.424 176.575 104.493 176.275 104.475C175.974 104.457 175.685 104.353 175.443 104.175C175.287 104.065 175.15 103.955 174.994 103.864C174.84 103.775 174.668 103.722 174.491 103.708C174.263 103.697 174.035 103.719 173.813 103.772V103.772C173.658 103.772 173.639 103.772 173.603 103.635C173.566 103.498 173.603 103.452 173.539 103.36C173.533 103.327 173.516 103.297 173.492 103.273C173.467 103.25 173.435 103.236 173.401 103.232C173.146 103.203 172.896 103.135 172.66 103.031C172.612 103.012 172.569 102.984 172.532 102.949C172.495 102.921 172.466 102.882 172.45 102.839C172.443 102.826 172.44 102.812 172.441 102.798C172.442 102.784 172.446 102.771 172.453 102.759C172.46 102.747 172.471 102.737 172.483 102.73C172.495 102.724 172.509 102.72 172.523 102.72C173.045 102.622 173.509 102.323 173.813 101.887C173.969 101.695 174.099 101.482 174.198 101.255C174.221 101.203 174.237 101.147 174.244 101.09C174.254 101.02 174.244 100.949 174.213 100.885C174.181 100.821 174.132 100.768 174.07 100.733C173.981 100.671 173.882 100.624 173.777 100.596C173.647 100.557 173.523 100.498 173.411 100.422C173.384 100.4 173.359 100.376 173.337 100.349C173.318 100.333 173.303 100.312 173.292 100.289C173.281 100.267 173.276 100.242 173.276 100.216C173.276 100.191 173.281 100.166 173.292 100.143C173.303 100.12 173.318 100.1 173.337 100.084C173.388 100.038 173.451 100.01 173.518 100.002C173.585 99.9933 173.653 100.006 173.713 100.038C173.82 100.094 173.939 100.122 174.06 100.12C174.128 100.119 174.195 100.1 174.253 100.065C174.258 100.057 174.26 100.047 174.26 100.038C174.26 100.028 174.258 100.019 174.253 100.01C174.253 99.7541 174.253 99.5069 174.253 99.2506C174.239 99.0617 174.239 98.872 174.253 98.6831C174.257 98.5363 174.285 98.391 174.335 98.2529C174.434 97.9717 174.594 97.7162 174.805 97.5055C175.016 97.2947 175.271 97.1341 175.553 97.0355C175.776 96.9574 176.011 96.9142 176.248 96.9074Z" fill="white"/>
<path d="M254.848 72.5229C257.856 72.5229 260.294 70.0845 260.294 67.0766C260.294 64.0687 257.856 61.6304 254.848 61.6304C251.84 61.6304 249.402 64.0687 249.402 67.0766C249.402 70.0845 251.84 72.5229 254.848 72.5229Z" fill="#263238"/>
<path d="M256.697 65.0172C256.697 65.3793 256.59 65.7332 256.388 66.0343C256.187 66.3353 255.901 66.57 255.567 66.7085C255.232 66.8471 254.864 66.8833 254.509 66.8127C254.154 66.7421 253.828 66.5677 253.572 66.3117C253.316 66.0556 253.141 65.7295 253.071 65.3743C253 65.0192 253.036 64.6511 253.175 64.3166C253.314 63.9821 253.548 63.6962 253.849 63.495C254.15 63.2939 254.504 63.1865 254.866 63.1865C255.352 63.1865 255.817 63.3794 256.161 63.7227C256.504 64.066 256.697 64.5317 256.697 65.0172Z" fill="white"/>
<path d="M257.988 70.0148V70.6831H251.708V70.0148C251.708 69.1822 252.039 68.3836 252.628 67.7948C253.217 67.206 254.015 66.8752 254.848 66.8752C255.681 66.8752 256.479 67.206 257.068 67.7948C257.657 68.3836 257.988 69.1822 257.988 70.0148Z" fill="white"/>
<path d="M169.781 44.4178C170.608 43.6154 171.687 43.1217 172.836 43.0197C173.985 42.9177 175.134 43.2136 176.09 43.8577C177.046 44.5017 177.751 45.4547 178.086 46.5563C178.421 47.6579 178.366 48.8411 177.929 49.9068V49.8232L179.164 51.9811L179.256 52.1402L179.075 52.1105L176.592 51.7302L176.651 51.7113C175.96 52.3357 175.108 52.756 174.192 52.9251C173.736 52.9996 173.273 53.0186 172.813 52.9818C172.35 52.9398 171.895 52.8326 171.462 52.6635C171.032 52.499 170.629 52.2747 170.262 51.9973C170.078 51.861 169.903 51.7133 169.738 51.5549C169.577 51.3912 169.427 51.2182 169.286 51.037C168.542 50.0669 168.18 48.8578 168.27 47.6391C168.359 46.4205 168.894 45.277 169.773 44.4259L169.781 44.4178Z" fill="#FDB839"/>
<path d="M193.324 23.0676C197.571 18.821 197.571 11.9358 193.324 7.68919C189.077 3.44254 182.192 3.44255 177.946 7.68919C173.699 11.9358 173.699 18.821 177.946 23.0676C182.192 27.3143 189.077 27.3143 193.324 23.0676Z" fill="#FDB839"/>
<g opacity="0.5">
<path opacity="0.5" d="M190.667 12.3715C190.667 12.8078 190.538 13.2343 190.295 13.5971C190.053 13.9598 189.708 14.2426 189.305 14.4095C188.902 14.5765 188.459 14.6202 188.031 14.5351C187.603 14.4499 187.21 14.2399 186.901 13.9313C186.593 13.6228 186.383 13.2298 186.298 12.8019C186.212 12.3739 186.256 11.9304 186.423 11.5273C186.59 11.1242 186.873 10.7797 187.236 10.5373C187.598 10.2949 188.025 10.1655 188.461 10.1655C188.751 10.1655 189.038 10.2226 189.305 10.3334C189.573 10.4443 189.816 10.6068 190.021 10.8116C190.226 11.0165 190.388 11.2597 190.499 11.5273C190.61 11.7949 190.667 12.0818 190.667 12.3715V12.3715Z" fill="black"/>
<path opacity="0.5" d="M192.269 18.4585V19.264H184.644V18.4585C184.692 17.4797 185.115 16.5568 185.824 15.8811C186.534 15.2053 187.476 14.8284 188.456 14.8284C189.436 14.8284 190.379 15.2053 191.089 15.8811C191.798 16.5568 192.221 17.4797 192.269 18.4585V18.4585Z" fill="black"/>
</g>
<path d="M199.342 11.6986C199.342 12.1349 199.213 12.5614 198.97 12.9242C198.728 13.287 198.383 13.5697 197.98 13.7367C197.577 13.9036 197.134 13.9473 196.706 13.8622C196.278 13.7771 195.885 13.567 195.576 13.2585C195.268 12.95 195.058 12.5569 194.973 12.129C194.887 11.7011 194.931 11.2575 195.098 10.8545C195.265 10.4514 195.548 10.1068 195.911 9.86445C196.273 9.62205 196.7 9.49268 197.136 9.49268C197.721 9.49268 198.282 9.72509 198.696 10.1388C199.11 10.5525 199.342 11.1136 199.342 11.6986V11.6986Z" fill="white"/>
<path d="M186.621 19.7766V20.5912H178.997V19.7766C179.045 18.7978 179.467 17.8749 180.177 17.1992C180.887 16.5234 181.829 16.1465 182.809 16.1465C183.789 16.1465 184.731 16.5234 185.441 17.1992C186.151 17.8749 186.573 18.7978 186.621 19.7766V19.7766Z" fill="white"/>
<path d="M162.353 73.5116C162.353 74.5978 162.031 75.6596 161.428 76.5628C160.824 77.4659 159.966 78.1698 158.963 78.5855C157.959 79.0012 156.855 79.11 155.79 78.898C154.724 78.6861 153.746 78.1631 152.978 77.395C152.21 76.6269 151.687 75.6483 151.475 74.583C151.263 73.5177 151.372 72.4134 151.787 71.4099C152.203 70.4063 152.907 69.5486 153.81 68.9451C154.713 68.3416 155.775 68.0195 156.861 68.0195C158.318 68.0195 159.715 68.5981 160.745 69.6281C161.775 70.6581 162.353 72.055 162.353 73.5116V73.5116Z" fill="#455A64"/>
<path d="M154.802 75.3329H154.353C154.22 75.3329 154.091 75.2799 153.997 75.1855C153.903 75.0911 153.85 74.963 153.85 74.8295C153.85 74.696 153.903 74.5679 153.997 74.4735C154.091 74.3791 154.22 74.3261 154.353 74.3261H154.975L155.259 72.651H154.701C154.569 72.6486 154.443 72.5945 154.351 72.5003C154.258 72.4062 154.207 72.2795 154.207 72.1475C154.209 72.0163 154.261 71.8909 154.353 71.7973C154.445 71.7036 154.57 71.6488 154.701 71.6441H155.433L155.625 70.4999C155.645 70.382 155.707 70.2753 155.8 70.1995C155.892 70.1238 156.009 70.0842 156.129 70.088C156.202 70.0886 156.274 70.1048 156.341 70.1356C156.407 70.1664 156.466 70.211 156.514 70.2665C156.561 70.322 156.597 70.3871 156.617 70.4574C156.638 70.5276 156.643 70.6014 156.632 70.6739L156.458 71.6441H157.969L158.161 70.4999C158.181 70.3804 158.244 70.2723 158.339 70.1964C158.433 70.1205 158.552 70.0819 158.673 70.088C158.746 70.0884 158.818 70.1045 158.884 70.1354C158.95 70.1663 159.009 70.2111 159.056 70.2668C159.103 70.3225 159.137 70.3878 159.157 70.4581C159.176 70.5283 159.18 70.602 159.168 70.6739L159.003 71.6441H159.451C159.583 71.6465 159.709 71.7006 159.802 71.7948C159.894 71.8889 159.946 72.0156 159.946 72.1475C159.946 72.2795 159.894 72.4062 159.802 72.5003C159.709 72.5945 159.583 72.6486 159.451 72.651H158.829L158.545 74.3261H159.094C159.16 74.326 159.225 74.3391 159.286 74.3645C159.346 74.3899 159.401 74.4272 159.447 74.4741C159.493 74.5209 159.53 74.5765 159.554 74.6375C159.578 74.6985 159.59 74.7638 159.589 74.8295C159.589 74.9614 159.537 75.0881 159.445 75.1823C159.352 75.2764 159.226 75.3305 159.094 75.3329H158.371L158.161 76.5137C158.143 76.6317 158.083 76.7394 157.993 76.8168C157.902 76.8942 157.786 76.9361 157.667 76.9348C157.592 76.9344 157.519 76.918 157.452 76.8867C157.385 76.8553 157.326 76.8098 157.278 76.7533C157.23 76.6967 157.195 76.6305 157.175 76.5591C157.155 76.4877 157.151 76.4129 157.163 76.3398L157.346 75.3329H155.827L155.625 76.5137C155.614 76.5792 155.59 76.6418 155.554 76.698C155.519 76.7541 155.472 76.8027 155.418 76.841C155.363 76.8792 155.302 76.9064 155.237 76.9209C155.172 76.9354 155.105 76.937 155.04 76.9256C154.974 76.9142 154.911 76.89 154.855 76.8544C154.799 76.8187 154.751 76.7724 154.712 76.718C154.674 76.6636 154.647 76.6022 154.632 76.5373C154.618 76.4724 154.616 76.4053 154.628 76.3398L154.802 75.3329ZM157.548 74.3261L157.84 72.651H156.33L156.037 74.3261H157.548Z" fill="white"/>
<path d="M205.451 42.3961C206.805 39.7106 205.727 36.4353 203.041 35.0805C200.356 33.7257 197.08 34.8045 195.726 37.49C194.371 40.1755 195.449 43.4508 198.135 44.8056C200.82 46.1604 204.096 45.0816 205.451 42.3961Z" fill="#1D3C58"/>
<path d="M200.156 36.3486C199.687 36.4045 199.233 36.5523 198.821 36.7836C198.409 37.0149 198.046 37.3251 197.754 37.6965C197.461 38.068 197.245 38.4934 197.117 38.9484C196.989 39.4035 196.952 39.8793 197.008 40.3487C197.064 40.8181 197.211 41.2719 197.443 41.6841C197.674 42.0964 197.984 42.4591 198.356 42.7515C198.727 43.0439 199.152 43.2602 199.607 43.3882C200.062 43.5162 200.538 43.5533 201.008 43.4974C201.3 43.4697 201.587 43.3987 201.859 43.2869C201.9 43.276 201.938 43.2563 201.971 43.2292C202.004 43.2021 202.03 43.1683 202.048 43.13C202.066 43.0917 202.076 43.0498 202.077 43.0074C202.077 42.9649 202.069 42.9229 202.051 42.8842C202.043 42.8492 202.027 42.8165 202.005 42.7881C201.983 42.7597 201.955 42.7363 201.923 42.7194C201.88 42.699 201.833 42.6885 201.786 42.6885C201.738 42.6885 201.691 42.699 201.648 42.7194C201.418 42.8028 201.178 42.8552 200.934 42.875C200.549 42.9207 200.158 42.8899 199.784 42.7844C199.41 42.679 199.06 42.5009 198.755 42.2604C198.45 42.0198 198.195 41.7215 198.005 41.3825C197.815 41.0435 197.694 40.6704 197.648 40.2846C197.603 39.8987 197.634 39.5077 197.739 39.1337C197.844 38.7597 198.023 38.4102 198.263 38.1051C198.504 37.7999 198.802 37.5452 199.141 37.3553C199.48 37.1654 199.853 37.0442 200.239 36.9985C200.624 36.9526 201.014 36.9829 201.386 37.0877C201.759 37.1926 202.108 37.37 202.412 37.6097C202.717 37.8495 202.971 38.1469 203.16 38.4849C203.35 38.823 203.47 39.195 203.516 39.5798C203.584 40.047 203.527 40.5239 203.351 40.9619C203.27 41.1947 203.103 41.3878 202.884 41.502H202.82C202.778 41.5147 202.734 41.5147 202.692 41.502C202.655 41.4423 202.627 41.3775 202.61 41.3098C202.527 40.9619 202.436 39.8635 202.436 39.8544V39.7079C202.379 39.2224 202.131 38.7794 201.747 38.4765C201.364 38.1735 200.875 38.0353 200.39 38.0924C199.904 38.1494 199.461 38.397 199.158 38.7807C198.855 39.1643 198.717 39.6526 198.774 40.1381C198.823 40.6451 199.069 41.1126 199.46 41.4397C199.85 41.7668 200.354 41.9272 200.861 41.8864C201.317 41.8312 201.734 41.6015 202.024 41.2457V41.4105C202.048 41.5946 202.128 41.767 202.253 41.9047C202.337 41.9941 202.442 42.0617 202.558 42.1015C202.675 42.1414 202.799 42.1524 202.921 42.1336C202.991 42.1412 203.061 42.1412 203.131 42.1336C203.517 41.9456 203.818 41.6186 203.973 41.2182V41.2182C204.169 40.6828 204.231 40.1081 204.156 39.5432C204.106 39.0696 203.963 38.6107 203.734 38.193C203.505 37.7754 203.196 37.4073 202.824 37.1101C202.452 36.813 202.024 36.5926 201.567 36.4619C201.109 36.3312 200.629 36.2927 200.156 36.3486V36.3486ZM200.733 41.2182C200.393 41.2492 200.054 41.146 199.789 40.9307C199.524 40.7153 199.354 40.405 199.314 40.0658C199.275 39.7266 199.37 39.3854 199.578 39.115C199.787 38.8447 200.093 38.6666 200.431 38.6187C200.762 38.6007 201.087 38.7118 201.338 38.9286C201.589 39.1453 201.746 39.451 201.777 39.7812C201.827 40.1098 201.745 40.445 201.55 40.714C201.355 40.9831 201.061 41.1642 200.733 41.2182V41.2182Z" fill="white"/>
<path d="M318.256 182.765H71.2559C60.2102 182.765 51.2559 191.719 51.2559 202.765V301.765C51.2559 312.811 60.2102 321.765 71.2559 321.765H318.256C329.302 321.765 338.256 312.811 338.256 301.765V202.765C338.256 191.719 329.302 182.765 318.256 182.765Z" fill="#1D3C58"/>
<path d="M158.225 321.595H228.852L193.539 359.756L158.225 321.595Z" fill="#1D3C58"/>
<path d="M230.628 264.515C213.731 286.904 193.538 296.726 193.538 296.726C193.538 296.726 173.401 286.904 156.467 264.515C143.415 247.242 144.064 220.194 162.737 214.345C183.387 207.874 193.538 238.959 193.538 238.959C193.538 238.959 203.836 207.672 224.358 214.345C242.967 220.423 243.681 247.27 230.628 264.515Z" fill="#FF6E41"/>
<path d="M331.361 186.601C329.365 187.37 271.415 188.432 269.118 187.132C268.871 186.986 268.935 184.386 268.084 177.805C268.084 177.494 266.72 176.267 264.66 174.537C256.907 168.038 238.692 154.345 238.692 154.345L267.681 129.219L295.708 156.761L303.031 163.928C303.031 163.928 326.711 176.743 329.054 178.4C331.397 180.057 333.356 185.796 331.361 186.601Z" fill="#CF8170"/>
<path d="M331.361 186.601C329.366 187.37 271.406 188.432 269.118 187.132C268.871 186.986 268.944 184.432 268.084 177.805C268.084 177.494 266.72 176.267 264.651 174.528C261.96 172.276 260.679 171.242 256.669 168.121L293.439 154.601L295.644 156.771L302.967 163.928C302.967 163.928 326.647 176.743 328.99 178.4C331.333 180.057 333.356 185.796 331.361 186.601Z" fill="#EBEBEB"/>
<path d="M335.361 187.407C333.347 188.102 271.599 188.78 269.374 187.407C268.853 187.086 268.368 183.507 267.983 178.592C267.937 177.97 261.686 172.972 260.825 172.047L298.665 159.306L303.443 163.8C303.443 163.8 331.288 176.761 333.567 178.519C335.846 180.276 337.366 186.711 335.361 187.407Z" fill="#263238"/>
<path d="M334.5 185.1C324.798 184.972 281.768 185.384 272.166 186.015C272.093 186.015 272.093 186.08 272.166 186.08C281.777 186.409 324.807 185.686 334.5 185.274C334.702 185.247 334.702 185.1 334.5 185.1Z" fill="#FDB839"/>
<path d="M306.528 164.212C302.711 163.544 298.043 164.212 295.159 166.958C295.05 167.068 295.205 167.224 295.324 167.187C298.957 165.967 302.71 165.138 306.519 164.716C306.586 164.717 306.65 164.691 306.698 164.645C306.746 164.599 306.774 164.535 306.775 164.468C306.776 164.402 306.751 164.337 306.705 164.289C306.658 164.241 306.595 164.213 306.528 164.212V164.212Z" fill="#FDB839"/>
<path d="M309.301 165.832C305.484 165.164 300.816 165.832 297.933 168.578C297.823 168.688 297.979 168.844 298.098 168.807C301.729 167.582 305.483 166.754 309.292 166.336C309.359 166.337 309.424 166.312 309.472 166.265C309.52 166.219 309.547 166.155 309.549 166.089C309.55 166.022 309.524 165.957 309.478 165.909C309.432 165.861 309.368 165.834 309.301 165.832V165.832Z" fill="#FDB839"/>
<path d="M312.084 167.489C308.258 166.821 303.599 167.489 300.706 170.235C300.596 170.345 300.752 170.5 300.871 170.464C304.506 169.238 308.262 168.409 312.075 167.992C312.142 167.994 312.206 167.968 312.254 167.922C312.302 167.876 312.33 167.812 312.331 167.745C312.332 167.678 312.307 167.614 312.261 167.566C312.214 167.518 312.151 167.49 312.084 167.489V167.489Z" fill="#FDB839"/>
<path d="M314.857 169.091C311.031 168.423 306.372 169.091 303.48 171.837C303.37 171.947 303.526 172.102 303.645 172.057C307.281 170.838 311.036 170.013 314.848 169.594C314.915 169.596 314.98 169.57 315.028 169.524C315.076 169.477 315.103 169.414 315.105 169.347C315.106 169.28 315.08 169.216 315.034 169.168C314.988 169.12 314.924 169.092 314.857 169.091V169.091Z" fill="#FDB839"/>
<path d="M313.448 155.297C311.928 153.255 309.146 154.217 307.571 155.571C304.901 157.948 302.908 160.989 301.795 164.386C301.795 164.459 301.795 164.505 301.887 164.523C301.886 164.597 301.902 164.671 301.934 164.738C301.966 164.805 302.013 164.863 302.072 164.908C302.13 164.954 302.199 164.985 302.272 164.999C302.345 165.013 302.42 165.01 302.491 164.99C305.622 163.782 309.127 162.885 311.8 160.752C313.393 159.507 314.921 157.237 313.448 155.297ZM306.866 162.189C305.338 162.821 303.791 163.37 302.29 164.02C303.364 162.27 304.528 160.578 305.777 158.949C306.386 158.165 307.053 157.427 307.773 156.743C308.889 155.69 313.365 153.439 312.743 157.658C312.422 159.983 308.725 161.439 306.894 162.189H306.866Z" fill="#FDB839"/>
<path d="M292.111 163.498C295.269 164.807 298.885 164.697 302.235 164.981C302.309 164.98 302.383 164.962 302.449 164.928C302.516 164.894 302.573 164.844 302.617 164.783C302.66 164.723 302.689 164.653 302.701 164.579C302.712 164.505 302.706 164.43 302.683 164.359C302.698 164.353 302.711 164.345 302.722 164.333C302.733 164.321 302.741 164.308 302.745 164.292C302.75 164.277 302.751 164.261 302.748 164.246C302.745 164.23 302.739 164.216 302.729 164.203C300.714 161.253 297.958 158.886 294.738 157.338C292.843 156.478 289.905 156.322 289.008 158.72C288.111 161.118 290.262 162.739 292.111 163.498ZM290.354 160.798C288.587 156.944 293.502 157.86 294.875 158.555C295.753 159.023 296.6 159.545 297.411 160.121C299.104 161.301 300.605 162.693 302.171 164.029C300.532 163.782 298.885 163.69 297.246 163.507C295.287 163.297 291.324 162.912 290.354 160.798Z" fill="#FDB839"/>
<path d="M296.056 155.223L260.358 173.75C260.358 173.75 223.113 140.038 219.699 139.791C216.285 139.544 166.179 173.539 140.98 173.658C114.847 173.768 113.52 146.399 113.52 146.399L151.634 137.649C179.095 124.102 207.717 99.7905 226.436 102.061C246.72 104.505 296.056 155.223 296.056 155.223Z" fill="#FF6E41"/>
<path d="M287.333 150.51C281.301 153.494 282.994 152.56 276.99 155.599C274.052 157.091 259.269 164.551 256.761 166.4C256.706 166.4 256.761 166.537 256.825 166.519C259.772 165.53 274.39 157.75 277.301 156.203C283.251 153.054 281.512 153.896 287.425 150.711C287.438 150.705 287.45 150.696 287.46 150.686C287.47 150.675 287.477 150.663 287.482 150.649C287.487 150.635 287.49 150.621 287.489 150.606C287.489 150.592 287.486 150.578 287.48 150.564C287.474 150.551 287.465 150.539 287.454 150.529C287.444 150.52 287.431 150.512 287.418 150.507C287.404 150.502 287.39 150.499 287.375 150.5C287.361 150.5 287.346 150.504 287.333 150.51Z" fill="#263238"/>
<path d="M253.951 165.21C246.967 159.05 224.065 138.985 223.131 138.244C222.412 137.543 221.613 136.929 220.751 136.413C220.394 136.273 220.01 136.217 219.627 136.248C219.245 136.28 218.875 136.399 218.546 136.596C217.484 137.091 216.449 137.631 215.397 138.143L209.2 141.164C201.191 145.082 193.227 149.091 185.154 152.871C177.392 156.532 171.854 159.928 163.744 162.72C155.689 165.565 147.356 167.553 138.884 168.652C137.831 168.78 136.788 168.89 135.744 168.99C135.734 168.986 135.724 168.985 135.713 168.986C135.703 168.987 135.693 168.991 135.684 168.997C135.676 169.002 135.669 169.01 135.664 169.02C135.659 169.029 135.656 169.039 135.656 169.05C135.656 169.06 135.659 169.07 135.664 169.08C135.669 169.089 135.676 169.097 135.684 169.103C135.693 169.109 135.703 169.112 135.713 169.113C135.724 169.115 135.734 169.113 135.744 169.109C144.061 168.605 152.283 167.067 160.22 164.533C168.248 162.07 173.694 158.857 181.328 155.379C189.227 151.718 197.017 147.846 204.815 143.974C208.925 141.933 213.053 139.873 217.154 137.85C218.07 137.393 219.424 136.395 220.495 136.889C220.942 137.14 221.354 137.448 221.722 137.805L223.095 138.949C224.87 140.423 252.935 164.578 253.859 165.292C253.951 165.365 254.061 165.274 253.951 165.21Z" fill="#263238"/>
<path d="M113.401 146.381C113.401 146.381 109.126 171.096 121.483 180.807C133.84 190.519 224.385 189.347 238.125 184.88C251.864 180.414 252.294 158.272 237.273 153.137C222.994 148.249 162.216 145.869 160.724 145.274C160.348 145.127 166.106 141.667 166.088 141.457L152.257 137.283L113.401 146.381Z" fill="#FF6E41"/>
<path d="M132.156 145.759C132.156 145.649 131.982 145.686 131.982 145.759C131.98 148.632 130.966 151.413 129.117 153.612C127.021 156.038 123.918 157.402 121.108 158.821C120.833 158.958 121.035 159.379 121.319 159.297C123.046 158.768 124.71 158.049 126.28 157.155C127.725 156.388 128.996 155.332 130.014 154.052C130.927 152.894 131.589 151.558 131.958 150.131C132.326 148.703 132.394 147.214 132.156 145.759Z" fill="#263238"/>
<path d="M159.726 142.693C159.095 141.896 158.417 141.127 157.758 140.349C156.211 138.519 154.655 136.688 153.035 134.857C152.879 134.692 152.577 134.93 152.724 135.114C153.813 136.541 154.966 137.924 156.111 139.315C156.687 140.029 157.273 140.743 157.868 141.448C158.48 142.086 159.029 142.782 159.506 143.525C159.596 143.685 159.643 143.865 159.641 144.048C159.639 144.23 159.59 144.41 159.497 144.567C159.404 144.725 159.272 144.855 159.113 144.945C158.954 145.036 158.774 145.083 158.591 145.082C157.863 145.105 157.155 144.846 156.614 144.358C155.386 143.271 154.265 142.07 153.264 140.77C152.605 140.038 151.955 139.306 151.296 138.583C150.637 137.86 149.841 137.082 149.136 136.313C149.136 136.267 149.008 136.313 149.044 136.386C149.657 137.228 150.225 138.107 150.875 138.949C151.525 139.791 152.111 140.624 152.751 141.457C153.392 142.29 153.969 143.004 154.582 143.754C155.113 144.419 155.75 144.991 156.468 145.448C157.639 146.134 159.68 146.29 160.312 144.77C160.403 144.403 160.397 144.018 160.295 143.654C160.192 143.289 159.996 142.958 159.726 142.693Z" fill="#263238"/>
<path d="M236.248 184.99C231.516 185.082 226.793 185.357 222.06 185.457C217.328 185.558 212.669 185.576 207.982 185.54C198.554 185.448 189.136 185.082 179.726 184.441C170.225 183.782 159.973 182.83 150.536 181.53C146.023 180.899 141.437 180.377 136.98 179.416C132.961 178.645 129.248 176.739 126.279 173.924C120.165 167.993 117.794 159.279 116.815 150.94C116.687 149.823 116.577 148.706 116.485 147.581C116.485 147.566 116.48 147.552 116.469 147.542C116.459 147.531 116.445 147.526 116.43 147.526C116.416 147.526 116.402 147.531 116.392 147.542C116.381 147.552 116.375 147.566 116.375 147.581C116.925 156.121 118.252 165.027 123.625 171.892C125.895 174.885 128.913 177.227 132.376 178.684C136.604 180.377 141.291 180.771 145.758 181.384C155.232 182.665 165.52 183.654 175.049 184.395C184.577 185.137 194.271 185.604 203.873 185.75C213.474 185.897 223.095 185.75 232.724 185.283C233.896 185.219 235.067 185.155 236.239 185.054C236.312 185.091 236.312 184.99 236.248 184.99Z" fill="#263238"/>
<path d="M206.427 148.661C203.443 148.221 200.477 147.745 197.484 147.48C194.491 147.214 191.433 146.894 188.404 146.638C182.408 146.134 176.403 145.677 170.399 145.393C166.985 145.237 163.58 145.219 160.165 145.265C160.056 145.265 160.065 145.42 160.165 145.429C166.17 145.97 172.184 146.345 178.198 146.748C184.211 147.15 190.188 147.663 196.184 148.249C199.58 148.569 202.976 148.825 206.372 149.1C206.628 149.118 206.674 148.697 206.427 148.661Z" fill="#263238"/>
<path d="M166.792 141.182C164.396 142.208 162.091 143.432 159.9 144.844C157.662 146.18 155.52 147.672 153.493 149.311C153.438 149.356 153.493 149.43 153.566 149.402C155.9 148.322 158.142 146.967 160.376 145.667C162.638 144.405 164.821 143.005 166.911 141.475C167.076 141.393 166.994 141.1 166.792 141.182Z" fill="#263238"/>
<path d="M192.751 63.5067L184.101 87.8546C184.015 87.9876 183.965 88.1407 183.956 88.2988C183.947 88.457 183.979 88.6148 184.049 88.7569C184.119 88.8989 184.225 89.0204 184.356 89.1093C184.487 89.1982 184.639 89.2516 184.797 89.2642L197.676 90.4816C198.072 90.4874 198.461 90.3814 198.8 90.1757C199.138 89.9701 199.412 89.6732 199.589 89.3192L208.239 64.9712C208.578 64.2572 208.239 63.6256 207.543 63.5616L194.664 62.3442C194.268 62.3362 193.878 62.4413 193.539 62.6472C193.2 62.8531 192.927 63.1512 192.751 63.5067V63.5067Z" fill="#1D3C58"/>
<path d="M194.28 63.6442L185.63 88.0104C185.546 88.1433 185.498 88.2954 185.49 88.4523C185.482 88.6092 185.514 88.7655 185.584 88.9061C185.654 89.0468 185.759 89.1671 185.889 89.2555C186.019 89.3439 186.169 89.3974 186.326 89.4109L199.204 90.6008C199.6 90.6085 199.989 90.5043 200.327 90.3002C200.666 90.0962 200.94 89.8006 201.118 89.4475L209.767 65.0812C210.106 64.3673 209.767 63.7449 209.072 63.6716L196.193 62.4542C195.794 62.4499 195.402 62.5595 195.063 62.7703C194.724 62.9811 194.452 63.2843 194.28 63.6442Z" fill="#455A64"/>
<path d="M197.703 65.1177C197.66 65.3991 197.509 65.6525 197.281 65.8235C197.054 65.9946 196.768 66.0698 196.486 66.0331C196.337 66.0237 196.191 65.9841 196.058 65.9167C195.925 65.8492 195.807 65.7553 195.711 65.6407C195.616 65.5261 195.544 65.3932 195.502 65.2501C195.459 65.107 195.446 64.9567 195.464 64.8084C195.481 64.6602 195.529 64.517 195.603 64.3877C195.678 64.2584 195.778 64.1457 195.898 64.0564C196.017 63.9671 196.154 63.9032 196.299 63.8685C196.444 63.8338 196.595 63.829 196.742 63.8545C196.89 63.87 197.033 63.9156 197.163 63.9885C197.293 64.0613 197.406 64.16 197.496 64.2783C197.586 64.3967 197.651 64.5322 197.686 64.6766C197.722 64.8209 197.728 64.9711 197.703 65.1177V65.1177Z" fill="#263238"/>
<path d="M146.6 102.207C154.179 117.677 170.948 137.649 177.721 137.631C180.962 137.631 186.747 138.29 190.93 134.5C200.083 126.262 208.156 111.214 210.152 102.885C210.893 99.7634 194.033 91.9006 191.845 94.5368C186.591 100.67 180.614 112.569 179.671 112.569C176.147 112.313 162.417 101.21 152.751 93.3468C141.053 83.8823 143.57 96.0929 146.6 102.207Z" fill="#CF8170"/>
<path d="M211.745 88.1111C210.784 81.5664 209.53 80.0287 211.662 74.079C213.054 70.1705 211.159 67.5984 208.001 70.5275C202.811 75.3055 202.271 84.0104 202.948 87.0859L211.745 88.1111Z" fill="#CF8170"/>
<path d="M208.651 106.976C208.651 106.976 212.422 98.3812 212.092 91.2965C211.864 86.4086 210.179 75.809 197.246 68.9714C194.179 67.3513 188.66 67.214 192.669 71.7174C195.543 74.8936 198.326 76.0378 199.662 78.1889C199.662 78.1889 192.623 78.8479 191.113 81.9875C189.8 84.728 188.68 87.5572 187.763 90.4544C188.258 90.7437 188.772 91.0005 189.3 91.2232C189.3 91.2232 187.982 94.2072 189.813 98.8205L208.651 106.976Z" fill="#CF8170"/>
<path d="M211.122 86.6649C209.346 84.8342 205.52 80.944 201.282 78.8662C196.577 76.5687 186.893 73.3742 185.227 76.8891C184.01 79.452 187.598 80.9806 187.598 80.9806C187.598 80.9806 183.323 80.5138 182.728 83.0676C182.179 85.3926 185.026 86.4177 185.026 86.4177C185.026 86.4177 182.39 86.5825 182.28 88.9258C182.17 91.7358 187.726 90.9303 190.079 93.8869C190.628 94.5459 211.122 86.6649 211.122 86.6649Z" fill="#CF8170"/>
<path d="M199.681 84.2481C196.115 81.9439 191.932 80.7816 187.69 80.9163C187.58 80.9163 187.534 81.0078 187.626 81.0261C191.752 81.6233 195.791 82.7207 199.653 84.2939C199.653 84.2939 199.699 84.2573 199.681 84.2481Z" fill="#263238"/>
<path d="M197.2 88.9256C193.452 86.9811 189.25 86.083 185.035 86.326C184.925 86.326 184.879 86.4267 184.98 86.4359C189.137 86.814 193.236 87.6646 197.2 88.9714C197.2 88.9714 197.2 88.9439 197.2 88.9256Z" fill="#263238"/>
<path d="M151.506 113.988L170.728 106.326C170.728 106.326 153.438 91.4613 147.122 88.523C140.01 85.2187 139.872 89.5757 142.371 96.6055C144.87 103.635 151.506 113.988 151.506 113.988Z" fill="#FDB839"/>
<path d="M151.506 113.988L170.728 106.326C170.728 106.326 153.438 91.4613 147.122 88.523C140.01 85.2187 139.872 89.5757 142.371 96.6055C144.87 103.635 151.506 113.988 151.506 113.988Z" fill="#FDB839"/>
<path d="M166.71 103.983C165.996 104.148 159.955 106.436 158.655 106.967C157.355 107.498 152.001 109.594 150.701 110.244C150.691 110.248 150.683 110.255 150.677 110.264C150.671 110.273 150.668 110.283 150.668 110.294C150.668 110.305 150.671 110.315 150.677 110.324C150.683 110.333 150.691 110.34 150.701 110.345C152.092 109.942 157.493 107.846 158.829 107.333C160.166 106.82 166.097 104.422 166.71 104.074C166.722 104.074 166.734 104.07 166.743 104.061C166.751 104.052 166.756 104.041 166.756 104.029C166.756 104.017 166.751 104.005 166.743 103.996C166.734 103.988 166.722 103.983 166.71 103.983Z" fill="#263238"/>
<path d="M158.939 111.031L151.506 113.978C151.506 113.978 144.916 103.626 142.417 96.587C140.586 91.4519 140.174 87.7357 142.856 87.4336L158.939 111.031Z" fill="#263238"/>
<path d="M164.806 140.743L112.275 151.013C112.192 149.924 115.79 117.338 120.174 104.962C125.794 89.1087 129.437 87.4702 131.598 86.4084C134.344 85.0446 139.561 84.9713 140.852 85.4107C142.307 85.905 147.579 93.0904 149.794 98.5549C154.243 109.521 165.438 139.974 164.806 140.743Z" fill="#FDB839"/>
<path opacity="0.1" d="M142.38 86.7287L127.634 89.5937C127.985 89.1597 128.358 88.7442 128.751 88.3488L141.566 85.8774C141.853 86.146 142.125 86.4301 142.38 86.7287V86.7287ZM143.827 88.4587L125.996 91.9095C125.776 92.2573 125.547 92.6418 125.319 93.0537L144.486 89.3466C144.257 89.0354 144.046 88.7699 143.827 88.4587V88.4587ZM145.721 91.104L124.138 95.278L123.607 96.4038L146.298 92.0102C146.115 91.699 145.941 91.4061 145.721 91.104V91.104ZM147.397 93.8043L122.637 98.6006C122.481 98.9576 122.325 99.3329 122.179 99.7173L147.918 94.7287C147.772 94.4267 147.58 94.1063 147.397 93.8043V93.8043ZM148.889 96.5503L121.309 101.887C121.172 102.244 121.044 102.601 120.898 102.976L149.328 97.4839C149.191 97.1727 149.044 96.8523 148.889 96.5503V96.5503ZM150.115 99.2963L120.119 105.109C119.991 105.457 119.872 105.813 119.753 106.198L150.518 100.267C150.353 99.9462 150.225 99.6258 150.115 99.3237V99.2963ZM151.223 102.106L119.122 108.322C119.03 108.678 118.92 109.035 118.829 109.402L151.589 103.058C151.433 102.765 151.342 102.445 151.223 102.134V102.106ZM152.312 104.916L118.316 111.507C118.225 111.846 118.142 112.203 118.06 112.569L152.669 105.859C152.541 105.575 152.431 105.246 152.349 104.944L152.312 104.916ZM153.383 107.736L117.566 114.692L117.346 115.754L153.722 108.715C153.621 108.386 153.511 108.074 153.383 107.763V107.736ZM154.454 110.555L116.925 117.814L116.724 118.875L154.783 111.553C154.692 111.223 154.564 110.894 154.454 110.582V110.555ZM155.506 113.374L116.367 120.953C116.303 121.292 116.248 121.649 116.193 122.006L155.863 114.317C155.735 114.033 155.625 113.713 155.506 113.402V113.374ZM156.55 116.184L115.827 124.084C115.762 124.431 115.708 124.779 115.643 125.127L156.925 117.145C156.788 116.852 156.669 116.541 156.55 116.23V116.184ZM157.593 119.013L115.314 127.251C115.259 127.608 115.195 127.955 115.14 128.303L157.941 120.01C157.841 119.663 157.703 119.351 157.593 119.04V119.013ZM158.628 121.832L114.82 130.345C114.765 130.683 114.71 131.04 114.664 131.388L158.948 122.811C158.857 122.5 158.756 122.171 158.628 121.859V121.832ZM159.635 124.66L114.371 133.429C114.371 133.786 114.27 134.125 114.225 134.473L159.992 125.612C159.863 125.328 159.754 125.008 159.671 124.688L159.635 124.66ZM160.651 127.489L113.968 136.541C113.968 136.889 113.868 137.237 113.822 137.576L161.008 128.422C160.879 128.129 160.76 127.837 160.651 127.516V127.489ZM161.639 130.317L113.529 139.663C113.48 140.023 113.434 140.371 113.392 140.706L161.969 131.296C161.868 130.976 161.749 130.665 161.639 130.345V130.317ZM162.619 133.155L113.135 142.775C113.135 143.123 113.053 143.48 113.016 143.809L162.948 134.143C162.838 133.832 162.738 133.502 162.619 133.182V133.155ZM163.534 135.992L112.751 145.832C112.751 146.198 112.659 146.537 112.632 146.866L163.891 136.944L163.534 135.992ZM164.449 138.848L112.449 148.917C112.449 149.319 112.385 149.676 112.357 149.96L164.706 139.818C164.632 139.571 164.55 139.242 164.44 138.875L164.449 138.848Z" fill="#030402"/>
<path d="M127.286 90.0424C109.327 108.743 83.1396 156.093 79.8993 162.912C77.7025 167.489 101.794 179.663 102.783 176.313C104.092 172.02 125.08 119.031 130.664 99.0401C133.767 87.9829 131.003 86.1797 127.286 90.0424Z" fill="#CF8170"/>
<path d="M103.955 173.118C103.112 175.416 100.293 185.164 98.252 186.382C96.2108 187.599 85.7485 187.297 80.4578 187.297C75.1672 187.297 74.1237 185.823 74.2152 184.002C74.3068 182.18 85.4007 181.832 85.4007 181.832C85.4007 181.832 70.5722 186.079 66.8376 186.775C63.103 187.471 54.5172 189.64 53.2723 186.546C52.714 185.155 55.103 183.736 55.103 183.736C55.103 183.736 51.4966 184.798 50.9199 183.004C50.27 180.963 53.135 179.837 53.135 179.837C53.135 179.837 50.8833 180.285 50.8284 178.629C50.7094 174.912 64.8147 173.082 64.8147 173.082C64.8147 173.082 54.0137 178.345 53.6659 175.306C53.1533 171.15 75.2862 166.574 77.5928 164.743C79.0893 163.46 80.3313 161.908 81.2542 160.166L103.955 173.118Z" fill="#CF8170"/>
<path d="M74.2885 184.963C74.2514 184.703 74.2778 184.439 74.3655 184.191C74.4532 183.944 74.5995 183.722 74.792 183.544C75.1722 183.196 75.6085 182.914 76.0826 182.711C77.0593 182.287 78.0737 181.956 79.1124 181.723C81.1993 181.192 83.3412 180.807 85.4648 180.267C83.2636 180.235 81.0674 180.484 78.9293 181.009C77.8401 181.254 76.792 181.654 75.8172 182.199C75.3094 182.478 74.864 182.858 74.5082 183.315C74.3362 183.549 74.2259 183.823 74.1875 184.111C74.1491 184.399 74.1839 184.692 74.2885 184.963V184.963Z" fill="#263238"/>
<path d="M55.0664 183.773C56.5859 183.407 58.0962 182.977 59.6431 182.537C61.19 182.098 62.6362 181.622 64.1282 181.192L68.5951 179.791C70.084 179.327 71.5791 178.87 73.0802 178.418C71.5195 178.587 69.972 178.863 68.4486 179.242C66.92 179.59 65.4097 180.029 63.8719 180.487C62.3342 180.945 60.888 181.402 59.4234 181.997C57.9589 182.592 56.4852 183.114 55.0664 183.773Z" fill="#263238"/>
<path d="M69.4555 174.711C68.0149 174.804 66.5831 175.003 65.1717 175.306C63.7596 175.59 62.3633 175.947 60.9886 176.377C59.6091 176.806 58.2552 177.313 56.9337 177.897C55.61 178.464 54.3283 179.125 53.0984 179.874C54.4622 179.398 55.7895 178.876 57.1442 178.427C58.4989 177.979 59.8902 177.512 61.2083 177.091C62.5264 176.67 63.9543 176.258 65.309 175.855C66.6637 175.453 68.0642 175.086 69.4555 174.711Z" fill="#263238"/>
<path d="M67.2678 171.151C64.9448 171.331 62.6554 171.814 60.4577 172.588C58.2458 173.32 56.1405 174.342 54.1968 175.627C56.3844 174.848 58.5172 174.016 60.6957 173.292C62.8742 172.569 65.0618 171.883 67.2678 171.151Z" fill="#263238"/>
<path d="M109.264 109.42L129.474 110.134C130.923 105.061 132.108 99.9157 133.026 94.7198C134.042 87.2781 131.516 85.1546 124.568 91.1958C119.909 95.2416 109.264 109.42 109.264 109.42Z" fill="#FDB839"/>
<path d="M127.012 110.051C127.826 110.01 128.642 110.01 129.456 110.051C129.749 108.889 130.033 107.726 130.371 106.573C130.524 106 130.689 105.423 130.866 104.843C131.058 104.221 131.241 103.488 131.415 102.93C131.415 102.848 131.552 102.866 131.534 102.93C131.387 103.681 131.25 104.23 131.122 104.88C130.994 105.53 130.875 106.033 130.728 106.601C130.426 107.809 130.152 109.109 129.813 110.262C128.894 110.25 127.976 110.176 127.067 110.042C127.067 110.042 126.975 110.051 127.012 110.051Z" fill="#263238"/>
<path d="M111.378 107.571C114.325 107.47 117.273 107.415 120.22 107.489C121.694 107.489 123.168 107.589 124.632 107.672C126.097 107.754 127.561 107.983 129.035 108.038C129.052 108.038 129.068 108.045 129.08 108.057C129.092 108.069 129.099 108.085 129.099 108.102C129.099 108.119 129.092 108.135 129.08 108.147C129.068 108.159 129.052 108.166 129.035 108.166C127.58 108.029 126.088 108.093 124.623 108.038C123.158 107.983 121.676 107.928 120.211 107.882C117.273 107.8 114.325 107.718 111.387 107.699C111.287 107.699 111.305 107.58 111.378 107.571Z" fill="#263238"/>
<path d="M141.685 96.2392C138.618 97.0081 133.346 92.4314 131.222 88.77C131.272 86.6552 131.428 84.5442 131.689 82.445C131.836 80.4221 131.964 78.1613 131.927 76.0926C131.927 75.6624 144.962 79.0125 144.962 79.0125C144.267 81.6115 143.895 84.2861 143.854 86.976C143.863 87.2621 143.897 87.5469 143.955 87.8272C143.96 87.8728 143.96 87.9189 143.955 87.9645C144.266 89.5297 144.614 95.4886 141.685 96.2392Z" fill="#CF8170"/>
<path d="M132.724 76.0835C133.383 79.5709 135.717 87.9829 142.646 87.9829C143.09 87.9872 143.534 87.9566 143.973 87.8913C143.979 87.8427 143.979 87.7936 143.973 87.7449C143.916 87.4672 143.879 87.1858 143.863 86.9028C143.91 84.2067 144.285 81.5264 144.98 78.921C144.98 78.921 135.552 76.5503 132.724 76.0835Z" fill="#263238"/>
<path d="M130.243 71.4885C130.243 71.4885 124.888 65.6853 126.719 59.699C127.763 56.1933 132.916 55.0125 132.769 54.7104C132.769 54.7104 141.209 47.1955 145.758 51.0491C150.06 54.7104 150.701 65.9874 150.701 65.9874L130.243 71.4885Z" fill="#263238"/>
<path d="M134.042 53.6943C134.042 53.6943 140.952 47.9002 144.293 48.1199C147.634 48.3395 142.838 51.3052 142.838 51.3052L134.042 53.6943Z" fill="#263238"/>
<path d="M138.783 52.66C138.783 52.66 144.907 48.8065 147.534 50.3259C150.161 51.8454 141.712 52.6692 138.783 52.66Z" fill="#263238"/>
<path d="M132.348 55.2871C132.348 55.2871 135.222 50.4175 137.373 49.3466C139.524 48.2757 138.618 51.9553 132.348 55.2871Z" fill="#263238"/>
<path d="M132.778 54.9026C129.419 56.1017 125.721 58.1246 125.456 62.0971C125.19 65.6944 127.579 68.8706 130.335 70.9118C130.354 70.9217 130.377 70.9246 130.399 70.9203C130.421 70.916 130.44 70.9046 130.455 70.8879C130.469 70.8712 130.478 70.8501 130.48 70.8279C130.481 70.8058 130.475 70.7838 130.463 70.7654C128.019 68.5228 125.639 65.9599 125.758 62.3992C125.886 58.2344 129.602 56.596 132.861 55.0765C132.925 55.0216 132.879 54.9026 132.778 54.9026Z" fill="#263238"/>
<path d="M145.081 47.5799C141.969 47.287 139.03 49.1543 137.154 51.5158C137.148 51.5318 137.147 51.5494 137.151 51.566C137.155 51.5827 137.164 51.5976 137.177 51.6087C137.19 51.6198 137.207 51.6265 137.224 51.6279C137.241 51.6293 137.258 51.6253 137.273 51.6165C139.543 49.3282 141.767 47.8728 145.072 47.6623L145.081 47.5799Z" fill="#263238"/>
<path d="M143.406 50.7013C144.756 49.9042 146.349 49.6215 147.891 49.905C147.891 49.905 147.891 49.905 147.891 49.905C147.129 49.7133 146.336 49.6851 145.563 49.8224C144.79 49.9596 144.054 50.2592 143.406 50.7013V50.7013Z" fill="#263238"/>
<path d="M129.465 61.438C128.248 66.0971 131.204 79.2871 134.591 82.1155C139.506 86.2254 147.287 86.3261 150.71 80.4771C154.033 74.8111 149.868 57.6852 146.133 55.1405C140.596 51.3876 131.296 54.5639 129.465 61.438Z" fill="#CF8170"/>
<path d="M143.14 77.6304C143.406 77.786 143.68 78.0331 144.001 77.9873C144.332 77.9086 144.644 77.7621 144.916 77.5571C144.916 77.5571 144.971 77.5571 144.962 77.5571C144.873 77.7605 144.731 77.936 144.55 78.0649C144.37 78.1939 144.158 78.2715 143.936 78.2894C143.745 78.2796 143.56 78.2137 143.405 78.0997C143.251 77.9858 143.133 77.829 143.067 77.6487C143.067 77.6487 143.104 77.6029 143.14 77.6304Z" fill="#263238"/>
<path d="M143.497 74.7562C143.799 75.0605 144.161 75.2989 144.559 75.4564C144.958 75.6139 145.385 75.6872 145.813 75.6716C146.186 75.6575 146.556 75.5928 146.911 75.4793C146.98 75.4649 147.048 75.4434 147.113 75.4153L147.305 75.342C147.35 75.3226 147.388 75.2889 147.413 75.246C147.438 75.203 147.448 75.1533 147.442 75.1041V75.0125V74.9393C147.314 74.2528 147.021 73.2185 147.021 73.2185C147.296 73.2917 148.696 73.5937 148.605 73.2185C147.851 70.1466 146.787 67.1594 145.428 64.3031C145.42 64.2824 145.404 64.266 145.383 64.2574C145.362 64.2489 145.339 64.2488 145.319 64.2573C145.298 64.2658 145.282 64.2822 145.273 64.3028C145.264 64.3234 145.264 64.3465 145.273 64.3672C145.95 67.2047 147.103 69.8592 147.854 72.7516C147.353 72.6378 146.838 72.5977 146.325 72.6326C146.234 72.6326 146.93 74.6006 146.966 74.921C146.418 75.1026 145.838 75.1711 145.262 75.1223C144.686 75.0736 144.126 74.9085 143.616 74.6372C143.488 74.6281 143.433 74.7013 143.497 74.7562Z" fill="#263238"/>
<path d="M146.435 75.223C146.165 75.7945 145.752 76.2865 145.236 76.651C144.949 76.84 144.61 76.9359 144.266 76.9256C143.515 76.9256 143.351 76.2482 143.351 75.6624C143.355 75.3532 143.398 75.0457 143.479 74.7471C144.389 75.216 145.424 75.3827 146.435 75.223V75.223Z" fill="#263238"/>
<path d="M145.236 76.6509C144.949 76.8399 144.61 76.9358 144.266 76.9255C143.515 76.9255 143.351 76.2482 143.351 75.6623C143.73 75.5883 144.124 75.6458 144.467 75.8255C144.81 76.0052 145.081 76.2963 145.236 76.6509V76.6509Z" fill="#FF98B9"/>
<path d="M142.408 68.8892C142.408 68.8892 142.344 68.9441 142.353 68.9807C142.563 69.896 142.655 70.9121 141.904 71.3697C141.904 71.3697 141.904 71.4338 141.904 71.3697C142.875 71.086 142.746 69.6947 142.408 68.8892Z" fill="#263238"/>
<path d="M141.419 68.1109C139.964 68.2939 140.431 71.1956 141.785 71.0216C143.14 70.8477 142.646 67.9644 141.419 68.1109Z" fill="#263238"/>
<path d="M147.689 67.8452C147.689 67.8452 147.763 67.8452 147.772 67.9093C147.891 68.8246 148.175 69.8223 149.035 69.9963C148.019 70.0603 147.653 68.7148 147.689 67.8452Z" fill="#263238"/>
<path d="M148.339 66.8021C149.767 66.4634 150.344 69.3376 149.026 69.6579C147.707 69.9783 147.14 67.0584 148.339 66.8021Z" fill="#263238"/>
<path d="M139.872 67.2871C140.249 67.1443 140.619 66.9824 140.98 66.802C141.391 66.6829 141.751 66.432 142.005 66.088C142.064 65.9645 142.081 65.825 142.053 65.6909C142.025 65.5569 141.953 65.4359 141.849 65.3466C141.614 65.2073 141.345 65.1338 141.071 65.1338C140.798 65.1338 140.529 65.2073 140.293 65.3466C139.766 65.5396 139.329 65.9212 139.067 66.4176C139.022 66.5328 139.01 66.6583 139.034 66.7797C139.057 66.9011 139.114 67.0136 139.198 67.1043C139.282 67.195 139.389 67.2602 139.509 67.2926C139.628 67.3249 139.754 67.323 139.872 67.2871Z" fill="#263238"/>
<path d="M148.934 65.3924C148.571 65.353 148.211 65.2949 147.854 65.2184C147.465 65.2073 147.09 65.0726 146.783 64.834C146.707 64.7359 146.665 64.6151 146.665 64.4907C146.665 64.3664 146.707 64.2456 146.783 64.1475C146.953 63.9663 147.168 63.8341 147.406 63.7648C147.645 63.6956 147.897 63.6918 148.138 63.7539C148.645 63.7973 149.117 64.0331 149.456 64.4129C149.534 64.5038 149.583 64.6163 149.597 64.7356C149.61 64.8549 149.587 64.9755 149.53 65.0814C149.474 65.1874 149.387 65.2738 149.28 65.3292C149.174 65.3847 149.053 65.4067 148.934 65.3924V65.3924Z" fill="#263238"/>
<path d="M131.808 72.0012C132.376 72.0012 133.566 68.0745 133.868 66.3902C134.17 64.706 132.952 62.6007 134.6 59.9829C135.845 58.0149 142.261 58.9302 143.753 58.8204C146.115 58.6465 147.854 57.2277 149.767 61.2369C149.767 61.2369 147.689 48.8066 134.362 54.4725C124.193 58.8021 128.669 72.1111 131.808 72.0012Z" fill="#263238"/>
<path d="M132.76 72.1566C132.76 72.1566 129.502 68.0376 127.625 69.2275C125.749 70.4175 128.367 76.5045 130.71 77.2184C131.003 77.331 131.316 77.3829 131.63 77.371C131.944 77.3592 132.253 77.2838 132.537 77.1495C132.821 77.0152 133.074 76.8247 133.283 76.5896C133.491 76.3544 133.65 76.0795 133.749 75.7813L132.76 72.1566Z" fill="#CF8170"/>
<path d="M128.421 70.9575C128.421 70.9575 128.376 71.0033 128.421 71.0125C129.177 71.3378 129.857 71.8167 130.418 72.4186C130.979 73.0205 131.409 73.7323 131.68 74.509C131.577 74.3542 131.442 74.2236 131.283 74.1263C131.125 74.029 130.947 73.9673 130.763 73.9455C130.578 73.9238 130.391 73.9424 130.214 74.0002C130.038 74.058 129.876 74.1535 129.74 74.2802C129.74 74.2802 129.74 74.3717 129.785 74.3626C130.061 74.2541 130.364 74.2346 130.651 74.3068C130.938 74.3791 131.196 74.5394 131.387 74.7653C131.703 75.132 131.979 75.5308 132.211 75.9553C132.293 76.0926 132.55 76.001 132.486 75.8454C132.385 73.7951 130.627 71.0307 128.421 70.9575Z" fill="#263238"/>
</svg>
