<svg width="519" height="401" viewBox="0 0 519 401" fill="none" xmlns="http://www.w3.org/2000/svg">
<path d="M273.279 298.513L257.831 298.842L249.99 298.972C247.364 299.031 244.727 298.972 242.101 299.043H241.583V298.513L241.512 285.302V284.713H242.101L257.69 284.784C262.894 284.784 268.087 284.914 273.279 284.972H273.609V285.302C273.609 287.539 273.515 289.765 273.456 291.966L273.279 298.513ZM273.279 298.513L273.114 291.86C273.055 289.67 272.985 287.504 272.961 285.337L273.279 285.667C268.087 285.726 262.894 285.855 257.69 285.855L242.101 285.926L242.69 285.337V298.513L242.16 297.995C244.727 297.995 247.293 297.995 249.872 298.054L257.537 298.254L273.279 298.513Z" fill="#EBEBEB"/>
<path d="M255.889 315.126L240.441 315.456L232.588 315.586C229.974 315.586 227.337 315.586 224.711 315.656H224.193V315.126V301.951V301.362H224.782L240.371 301.445C245.563 301.445 250.767 301.574 255.96 301.633H256.29V301.951C256.29 304.188 256.195 306.413 256.136 308.615L255.889 315.126ZM255.889 315.126L255.724 308.474C255.665 306.284 255.595 304.117 255.571 301.951L255.889 302.281C250.697 302.34 245.492 302.469 240.3 302.469L224.711 302.54L225.3 301.951V315.126L224.77 314.608C227.337 314.608 229.903 314.608 232.482 314.667L240.218 314.808L255.889 315.126Z" fill="#EBEBEB"/>
<path d="M290.67 315.126L275.222 315.456L267.381 315.586C264.755 315.586 262.118 315.586 259.492 315.656H258.974V315.126L258.903 301.951V301.362H259.492L275.081 301.445C280.285 301.445 285.478 301.574 290.67 301.633H291V301.951C291 304.188 290.894 306.413 290.847 308.615L290.67 315.126ZM290.67 315.126L290.505 308.474C290.505 306.284 290.376 304.117 290.352 301.951L290.67 302.281C285.478 302.34 280.285 302.469 275.081 302.469L259.492 302.54L260.081 301.951V315.126L259.551 314.608C262.13 314.608 264.685 314.608 267.263 314.667L275.011 314.808L290.67 315.126Z" fill="#EBEBEB"/>
<path d="M91.3548 141.727L75.907 142.056L68.0654 142.186C65.4397 142.245 62.8023 142.186 60.1766 142.245H59.6585V141.715L59.5879 128.539V127.951H60.1766L75.7657 128.021C80.9699 128.021 86.1624 128.163 91.3548 128.221H91.6845V128.539C91.6845 130.777 91.5903 133.002 91.5315 135.192L91.3548 141.727ZM91.3548 141.727L91.19 135.074C91.1311 132.872 91.0605 130.706 91.037 128.551L91.3548 128.869C86.1624 128.928 80.9699 129.057 75.7657 129.069L60.1766 129.14L60.7653 128.551L60.7064 141.727L60.1766 141.197C62.7434 141.197 65.3102 141.197 67.8887 141.267L75.6362 141.397L91.3548 141.727Z" fill="#EBEBEB"/>
<path d="M271.479 13.7641L256.031 14.0938L248.177 14.2233C245.563 14.2233 242.926 14.2233 240.3 14.2939H239.782V13.7641V0.588713V0H240.371L255.96 0.0706472C261.152 0.0706472 266.357 0.211936 271.549 0.270807H271.879V0.588713C271.879 2.82582 271.785 5.05116 271.726 7.24117L271.479 13.7641ZM271.479 13.7641L271.314 7.11165C271.255 4.90987 271.184 2.7434 271.161 0.588713L271.479 0.906618C266.286 0.906618 261.082 1.09501 255.889 1.10678L240.3 1.17743L240.889 0.588713L240.83 13.7641L240.3 13.2343C242.867 13.2343 245.434 13.2343 248.012 13.3049L255.748 13.4344L271.479 13.7641Z" fill="#EBEBEB"/>
<path d="M288.868 30.3779L273.421 30.7076L265.579 30.8371C262.953 30.896 260.316 30.8371 257.69 30.896H257.172V30.3662L257.102 17.1908V16.6021H257.69L273.279 16.6727C278.484 16.6727 283.676 16.814 288.868 16.8729H289.198V17.1908C289.198 19.4279 289.092 21.6532 289.033 23.8432L288.868 30.3779ZM288.868 30.3779L288.704 23.7255C288.704 21.5237 288.574 19.3572 288.551 17.2025L288.868 17.5204C283.676 17.5793 278.484 17.7088 273.279 17.7206L257.69 17.7913L258.279 17.2025V30.3779L257.749 29.8481C260.316 29.8481 262.883 29.8481 265.461 29.9187L273.209 30.0482L288.868 30.3779Z" fill="#EBEBEB"/>
<path d="M357 106.682H382.491V80.1313L357 106.682Z" fill="#DBDBDB"/>
<path d="M518.755 30.4316H382.491V106.67H518.755V30.4316Z" fill="#DBDBDB"/>
<path d="M489.743 70.2402H398.575V71.8886H489.743V70.2402Z" fill="white"/>
<path d="M470.998 79.1182H398.575V80.7666H470.998V79.1182Z" fill="white"/>
<path d="M476.461 52.4971H398.575V54.1455H476.461V52.4971Z" fill="white"/>
<path d="M500.269 43.6309H398.575V45.2793H500.269V43.6309Z" fill="white"/>
<path d="M478.51 87.9844H398.575V89.6328H478.51V87.9844Z" fill="white"/>
<path d="M0 395.367L50.0031 395.085L100 394.979L200 394.791L300 394.979L349.997 395.085L400 395.367L349.997 395.662L300 395.768L200 395.956L100 395.768L50.0031 395.662L0 395.367Z" fill="#263238"/>
<path d="M229.244 90.3375C229.951 97.1106 232.526 103.554 236.681 108.949C240.837 114.344 246.41 118.478 252.778 120.889C259.147 123.301 266.06 123.896 272.747 122.607C279.433 121.319 285.631 118.197 290.647 113.592L309.038 116.288L299.831 100.393C301.915 95.2225 302.795 89.6459 302.405 84.0851C302.015 78.5243 300.365 73.1251 297.58 68.2962C294.795 63.4673 290.948 59.3353 286.33 56.213C281.712 53.0907 276.445 51.0599 270.926 50.2744C265.407 49.4889 259.782 49.9692 254.476 51.6791C249.17 53.3889 244.323 56.2834 240.301 60.1435C236.28 64.0036 233.189 68.728 231.263 73.9592C229.337 79.1904 228.626 84.7912 229.185 90.3375H229.244Z" fill="white"/>
<path d="M229.244 90.3372C229.956 97.1139 232.522 103.563 236.662 108.976C238.695 111.679 241.124 114.061 243.868 116.04C246.576 118.093 249.561 119.754 252.734 120.974C255.909 122.216 259.241 123.008 262.636 123.329C264.331 123.484 266.034 123.515 267.734 123.423C269.441 123.382 271.142 123.205 272.82 122.893C279.602 121.672 285.91 118.586 291.035 113.98L290.6 114.109L308.967 116.935L310.298 117.135L309.627 115.958L300.455 100.027V100.663C302.611 95.3942 303.528 89.7001 303.134 84.0205C302.74 78.3409 301.046 72.8279 298.182 67.9072C295.323 63.0049 291.39 58.8143 286.679 55.6502C281.971 52.5329 276.619 50.5216 271.024 49.7671C265.429 49.0127 259.735 49.5346 254.37 51.2937C249.071 53.1045 244.243 56.0774 240.241 59.9949C236.233 63.892 233.162 68.6472 231.257 73.9027C229.352 79.1582 228.664 84.7773 229.244 90.3372ZM229.244 90.3372C228.657 84.8021 229.348 79.206 231.265 73.9803C233.181 68.7545 236.272 64.0386 240.299 60.1959C244.326 56.3533 249.181 53.4865 254.491 51.8165C259.801 50.1465 265.423 49.7179 270.925 50.5637C276.375 51.3825 281.567 53.4364 286.102 56.5686C290.593 59.7193 294.346 63.8092 297.099 68.5548C299.808 73.3175 301.402 78.6325 301.761 84.1001C302.12 89.5677 301.235 95.0456 299.171 100.122L299.042 100.451L299.218 100.746L308.473 116.617L309.132 115.64L290.729 113.061H290.47L290.293 113.238C285.362 117.841 279.247 120.98 272.632 122.304C270.99 122.634 269.325 122.835 267.652 122.905C265.978 123.022 264.298 123.022 262.624 122.905C259.267 122.643 255.962 121.918 252.804 120.75C249.628 119.606 246.64 117.995 243.938 115.97C241.177 114.004 238.738 111.62 236.709 108.905C232.557 103.522 229.974 97.0961 229.244 90.3372Z" fill="#263238"/>
<path d="M249.754 92.0796C247.296 92.0796 245.304 90.0869 245.304 87.6289C245.304 85.1709 247.296 83.1782 249.754 83.1782C252.212 83.1782 254.205 85.1709 254.205 87.6289C254.205 90.0869 252.212 92.0796 249.754 92.0796Z" fill="#263238"/>
<path d="M265.709 92.0796C263.251 92.0796 261.258 90.0869 261.258 87.6289C261.258 85.1709 263.251 83.1782 265.709 83.1782C268.167 83.1782 270.16 85.1709 270.16 87.6289C270.16 90.0869 268.167 92.0796 265.709 92.0796Z" fill="#263238"/>
<path d="M281.651 92.0796C279.193 92.0796 277.2 90.0869 277.2 87.6289C277.2 85.1709 279.193 83.1782 281.651 83.1782C284.109 83.1782 286.102 85.1709 286.102 87.6289C286.102 90.0869 284.109 92.0796 281.651 92.0796Z" fill="#263238"/>
<path d="M212.317 384.085H218.588V388.181H212.317V384.085Z" fill="#455A64"/>
<path d="M204.18 383.812H210.451V387.909H204.18V383.812Z" fill="#455A64"/>
<path d="M196.043 383.541H202.314V387.638H196.043V383.541Z" fill="#455A64"/>
<path d="M187.915 383.269H194.187V387.366H187.915V383.269Z" fill="#455A64"/>
<path d="M179.779 382.998H186.05V387.094H179.779V382.998Z" fill="#455A64"/>
<path d="M171.642 382.734H177.914V386.831H171.642V382.734Z" fill="#455A64"/>
<path d="M163.515 382.463H169.786V386.56H163.515V382.463Z" fill="#455A64"/>
<path d="M155.378 382.191H161.649V386.288H155.378V382.191Z" fill="#455A64"/>
<path d="M147.241 381.92H153.513V386.016H147.241V381.92Z" fill="#455A64"/>
<path d="M145.703 390.534H220.115V385.547L145.703 383.476V390.534Z" fill="#37474F"/>
<path d="M73.0824 370.886H195.921L176.386 279.432H53.5466L73.0824 370.886Z" fill="#455A64"/>
<path d="M68.536 370.886H191.375L171.839 279.432H49.0002L68.536 370.886Z" fill="#37474F"/>
<path d="M109.576 319.863C109.952 321.943 111.031 323.832 112.631 325.213C114.231 326.595 116.256 327.387 118.369 327.456C119.324 327.487 120.274 327.301 121.147 326.912C122.019 326.523 122.793 325.941 123.408 325.21C124.023 324.479 124.465 323.618 124.7 322.692C124.934 321.766 124.956 320.798 124.762 319.863C124.388 317.781 123.311 315.89 121.711 314.506C120.11 313.123 118.084 312.33 115.969 312.26C115.013 312.229 114.063 312.415 113.189 312.804C112.316 313.194 111.542 313.777 110.926 314.509C110.311 315.241 109.869 316.103 109.635 317.03C109.402 317.958 109.381 318.926 109.576 319.863Z" fill="#263238"/>
<path d="M103.276 394.771H163.693V390.075L103.276 388.125V394.771Z" fill="#455A64"/>
<path d="M86.8533 394.761H119.297L138.833 343.513H106.389L86.8533 394.761Z" fill="#455A64"/>
<path d="M81.5095 394.761H113.953L133.489 343.513H101.045L81.5095 394.761Z" fill="#263238"/>
<path d="M222.413 396.018H284.704C290.019 396.018 282.332 380.879 262.928 375.076C243.523 369.273 216.301 390.337 222.413 396.018Z" fill="#37474F"/>
<path d="M246.86 396.018C246.814 394.293 246.53 392.584 246.017 390.937C245.513 389.275 244.811 387.679 243.926 386.184C243.029 384.687 241.914 383.331 240.617 382.163C239.326 381.008 237.841 380.091 236.23 379.454C236.896 379.997 237.655 380.391 238.264 380.982L239.202 381.797L240.083 382.735C241.24 383.938 242.253 385.271 243.101 386.709C243.963 388.144 244.703 389.65 245.314 391.209C245.936 392.776 246.452 394.382 246.86 396.018Z" fill="#263238"/>
<path d="M239.483 381.609C235.778 382.782 232.272 384.511 229.087 386.737C227.474 387.853 226.012 389.174 224.737 390.665C223.41 392.14 222.595 394.004 222.413 395.98C222.932 394.146 223.925 392.481 225.29 391.152C226.619 389.8 228.072 388.575 229.631 387.496C231.168 386.381 232.799 385.378 234.449 384.394C236.099 383.409 237.767 382.519 239.483 381.609Z" fill="#263238"/>
<path d="M491.787 394.343H347.364L376.152 226.831H484.157L491.787 394.343Z" fill="#DBDBDB"/>
<path d="M491.787 394.343H479.118L472.018 226.831H484.157L491.787 394.343Z" fill="#A6A6A6"/>
<path d="M366.297 259.67C349.954 296.17 310.463 356.749 292.79 341.736C266.357 319.295 248.46 269.655 241.396 249.579C237.428 238.335 294.71 219.52 298.218 229.728C303.211 244.234 311.04 274.553 315.573 278.85C317.928 281.099 336.696 254.76 350.896 242.268C371.395 224.265 371.513 248.013 366.297 259.67Z" fill="#AD6359"/>
<path d="M227.09 232.683C232.189 244.151 251.816 263.544 258.339 266.405C264.862 269.266 299.314 238.147 298.595 230.823C297.877 223.499 277.319 185.139 265.934 179.252C254.548 173.365 221.804 220.791 227.09 232.683Z" fill="#AD6359"/>
<path d="M295.899 222.769C295.899 222.769 295.075 206.45 299.196 192.651C302.657 181.053 309.098 164.228 302.94 162.132C290.271 157.834 274.211 199.81 274.211 199.81C274.211 199.81 270.09 219.473 282.252 224.842C289.882 228.209 295.899 222.769 295.899 222.769Z" fill="#AD6359"/>
<path d="M281.617 191.814C280.793 198.42 273.481 193.663 273.481 193.663C273.481 193.663 282.347 203.082 278.862 209.523C275.471 215.751 266.852 209.688 266.228 209.264C266.699 209.77 274.611 218.601 270.431 224.747C266.087 231.128 258.48 223.569 257.986 223.075C258.28 223.675 261.977 231.811 257.739 235.767C250.462 242.538 240.43 222.003 232.707 219.707C232.707 219.707 227.314 232.341 227.09 232.659C227.09 232.659 217.141 213.302 220.815 203.059C221.33 201.562 222.339 200.286 223.677 199.44C225.015 198.595 226.601 198.231 228.174 198.408C228.174 198.408 224.276 192.521 227.408 187.575C229.033 185.044 234.473 185.374 234.473 185.374C234.473 185.374 231.553 180.534 234.614 176.319C237.051 172.94 242.173 173.8 242.173 173.8C242.173 173.8 241.525 167.842 245.128 165.204C252.452 159.882 283.395 177.673 281.617 191.814Z" fill="#AD6359"/>
<path d="M243.056 173.835C242.95 173.776 243.056 173.623 243.115 173.659C254.724 177.026 266.439 184.255 273.904 193.875C274.152 194.193 273.751 194.723 273.41 194.428C263.767 186.01 254.642 179.334 243.056 173.835Z" fill="#263238"/>
<path d="M234.402 185.221C234.272 185.162 234.402 184.951 234.508 184.986C246.459 188.518 259.422 197.066 266.734 209.135C266.981 209.547 266.793 210.171 266.463 209.724C261 202.094 244.857 190.131 234.402 185.221Z" fill="#263238"/>
<path d="M258.21 224.076C250.757 212.773 240.431 204.99 228.668 198.526C228.527 198.444 228.668 198.244 228.798 198.279C235.415 199.869 242.48 204.767 247.637 209.052C252.517 212.93 256.294 218.021 258.587 223.817C258.693 224.076 258.363 224.335 258.21 224.076Z" fill="#263238"/>
<path d="M273.716 193.651C274.01 194.028 273.127 194.04 273.41 194.428C274.587 196.053 280.886 206.474 278.002 209.735C275.647 212.337 270.595 211.018 268.829 209.735L264.414 206.544L267.452 211.124C268.819 213.131 269.853 215.346 270.513 217.683C270.879 218.747 271.014 219.876 270.911 220.997C270.807 222.117 270.467 223.203 269.913 224.182C269.393 225.089 268.576 225.79 267.6 226.165C266.625 226.54 265.549 226.568 264.555 226.242C262.34 225.48 260.358 224.163 258.798 222.416L254.323 217.706L257.008 223.593C257.758 225.222 258.3 226.939 258.621 228.703C258.981 230.362 258.846 232.09 258.233 233.672C257.929 234.369 257.438 234.968 256.814 235.402C256.191 235.836 255.459 236.089 254.7 236.133C252.981 235.958 251.347 235.297 249.991 234.225C247.018 231.954 244.227 229.454 241.643 226.749C240.289 225.43 238.935 224.1 237.51 222.828C236.172 221.489 234.567 220.446 232.8 219.767C234.48 220.617 235.976 221.79 237.204 223.217C238.511 224.571 239.759 225.983 241.007 227.408C243.459 230.349 246.179 233.057 249.131 235.497C250.714 236.84 252.653 237.695 254.712 237.958C255.847 237.969 256.962 237.651 257.92 237.043C258.879 236.435 259.642 235.563 260.116 234.532C260.941 232.589 261.166 230.445 260.764 228.374C260.448 226.404 259.874 224.484 259.057 222.663L257.267 223.841C259.081 225.934 261.411 227.517 264.025 228.433C265.49 228.901 267.073 228.843 268.5 228.268C269.879 227.663 271.044 226.658 271.844 225.383C272.545 224.141 272.974 222.764 273.104 221.343C273.234 219.922 273.061 218.49 272.597 217.141C271.845 214.582 270.671 212.166 269.124 209.994L267.746 211.336C270.101 212.867 275.564 214.963 279.673 211.395C284.218 205.873 275.447 195.441 273.716 193.651Z" fill="#263238"/>
<path d="M273.481 193.664C274.753 194.171 276.095 194.485 277.46 194.594C278.009 194.651 278.562 194.559 279.063 194.329C279.564 194.099 279.995 193.739 280.31 193.287C280.864 192.197 281.089 190.97 280.957 189.755C280.887 188.412 280.745 187.011 280.533 185.563C281.43 186.746 282.064 188.107 282.394 189.554C282.62 190.336 282.69 191.154 282.599 191.962C282.508 192.77 282.258 193.553 281.864 194.264C281.349 195.003 280.622 195.57 279.78 195.889C278.969 196.154 278.1 196.187 277.272 195.983C275.795 195.629 274.468 194.817 273.481 193.664Z" fill="#263238"/>
<path d="M301.704 230.823L242.079 272.351C242.079 272.351 277.696 346.14 299.702 345.94C321.708 345.739 353.499 290.471 364.46 266.581C375.422 242.691 368.887 222.451 346.705 244.21C324.522 265.969 316.574 274.941 315.856 274.647C314.514 274.105 301.704 230.823 301.704 230.823Z" fill="#FFC727"/>
<path d="M242.078 272.351C242.078 272.351 266.804 323.522 287.751 340.524C291.954 343.938 295.993 345.975 299.702 345.928C321.708 345.74 353.498 290.46 364.519 266.582C371.336 251.793 371.395 238.406 365.202 235.521C361.375 233.743 355.194 235.933 346.751 244.246C324.38 266.158 316.633 274.965 315.903 274.671C314.514 274.105 301.691 230.835 301.691 230.835L242.078 272.351Z" fill="#FFC727"/>
<path d="M278.979 331.81C279.709 332.658 280.451 333.482 281.192 334.283C287.902 338.507 295.43 341.264 303.281 342.372C305.446 342.611 307.626 342.698 309.804 342.631L311.158 341.783C308.559 341.94 305.951 341.873 303.363 341.583C300.265 341.244 297.218 340.541 294.285 339.487L292.06 338.757L289.905 337.85C289.187 337.544 288.445 337.285 287.751 336.932L285.667 335.872C283.348 334.671 281.114 333.314 278.979 331.81ZM324.216 266.805C331.019 269.899 337.225 274.168 342.548 279.415C346.001 282.816 349.193 286.473 352.097 290.353C351.956 290.612 351.803 290.883 351.638 291.142C348.699 287.196 345.459 283.484 341.948 280.039C337.487 275.656 332.405 271.955 326.865 269.053L324.781 267.994C324.398 267.8 324.005 267.627 323.603 267.476L324.216 266.805ZM272.715 270.561C278.369 267.793 284.286 265.596 290.376 264.002C291.012 263.849 291.648 263.696 292.296 263.567C292.708 263.472 293.131 263.378 293.544 263.308C298.69 262.229 303.974 261.959 309.203 262.507C309.969 262.613 310.722 262.731 311.488 262.872C311.57 263.143 311.664 263.425 311.747 263.684C310.875 263.531 309.992 263.402 309.109 263.296C304.255 262.783 299.352 262.985 294.556 263.896L293.273 264.132C292.366 264.32 291.46 264.52 290.553 264.744C284.514 266.3 278.645 268.454 273.033 271.173C264.626 275.297 256.472 279.916 248.613 285.008C248.495 284.807 248.389 284.607 248.295 284.419C256.152 279.318 264.307 274.69 272.715 270.561ZM266.533 255.325C276.079 255.719 285.381 258.461 293.614 263.308L294.627 263.896C296.706 265.142 298.715 266.502 300.643 267.97C310.734 275.647 318.788 285.514 326.453 295.439C330.291 300.42 334.059 305.436 338.038 310.287C338.321 310.64 338.615 310.982 338.91 311.335L338.462 311.982C338.121 311.582 337.779 311.182 337.45 310.805C333.447 305.942 329.667 300.926 325.817 295.958C318.152 286.067 310.11 276.271 300.125 268.7C297.961 267.049 295.696 265.535 293.343 264.167C293.026 263.967 292.696 263.779 292.366 263.602C289.624 262.063 286.766 260.74 283.818 259.646L281.616 258.845C280.886 258.586 280.121 258.409 279.367 258.186L277.119 257.562L274.764 257.103C271.724 256.417 268.613 256.093 265.497 256.137H265.356L266.533 255.325ZM339.71 251.215C343.824 253.044 348.123 254.421 352.533 255.325L354.829 255.772C355.594 255.913 356.371 255.96 357.183 256.066L359.538 256.337L361.893 256.431C364.043 256.581 366.202 256.541 368.345 256.314L368.134 257.091C358.181 257.817 348.206 256.019 339.134 251.863C339.263 251.639 339.487 251.427 339.71 251.215ZM356.689 236.592C360.859 239.424 365.182 242.022 369.641 244.375C369.641 244.692 369.641 245.01 369.641 245.34C364.884 242.852 360.283 240.076 355.865 237.027C356.147 236.874 356.418 236.721 356.689 236.592Z" fill="white"/>
<path d="M256.173 279.275C257.75 277.968 259.34 276.696 260.941 275.424C264.191 272.858 267.44 270.303 270.69 267.759C277.166 262.708 283.783 257.834 290.447 253.042C294.227 250.31 297.948 247.437 301.845 244.882C301.863 244.868 301.885 244.858 301.907 244.852C301.929 244.846 301.953 244.845 301.976 244.848C301.999 244.852 302.021 244.859 302.041 244.871C302.061 244.883 302.078 244.899 302.092 244.917C302.106 244.936 302.116 244.957 302.122 244.979C302.128 245.002 302.129 245.025 302.126 245.048C302.122 245.071 302.115 245.093 302.103 245.113C302.091 245.133 302.075 245.151 302.057 245.165C298.96 247.896 295.64 250.392 292.425 252.994C289.211 255.597 286.02 258.21 282.759 260.754C276.275 265.793 269.713 270.734 263.072 275.577C261.224 276.943 259.399 278.38 257.479 279.663C256.502 280.322 255.572 281.053 254.583 281.688C253.594 282.324 252.534 282.866 251.569 283.584C251.547 283.597 251.521 283.601 251.496 283.596C251.471 283.591 251.449 283.577 251.433 283.557C251.417 283.537 251.409 283.512 251.41 283.487C251.412 283.462 251.422 283.438 251.439 283.419C253.052 282.065 254.559 280.593 256.173 279.275Z" fill="#263238"/>
<path d="M315.397 273.328C317.672 279.479 319.545 285.772 321.001 292.167C321.778 295.322 322.391 298.513 322.991 301.692C323.627 304.851 324.051 308.049 324.263 311.264C324.263 311.382 324.086 311.382 324.063 311.264C323.073 308.191 322.343 304.989 321.637 301.845C320.931 298.701 320.13 295.534 319.423 292.426C317.999 286.091 316.327 279.815 315.091 273.446C315.083 273.425 315.079 273.404 315.08 273.382C315.08 273.361 315.085 273.34 315.094 273.32C315.102 273.3 315.115 273.283 315.131 273.268C315.146 273.253 315.165 273.241 315.185 273.234C315.205 273.226 315.226 273.222 315.248 273.223C315.269 273.223 315.291 273.228 315.31 273.237C315.33 273.246 315.348 273.258 315.363 273.274C315.377 273.289 315.389 273.308 315.397 273.328Z" fill="#263238"/>
<path opacity="0.1" d="M287.751 340.523C291.954 343.938 295.993 345.975 299.702 345.928C321.708 345.739 353.498 290.459 364.519 266.581C371.336 251.793 371.395 238.405 365.202 235.521L287.751 340.523Z" fill="black"/>
<path d="M321.884 394.344H465.024C466.602 391.447 443.147 266.075 394.873 230.764C384.158 222.934 365.155 227.974 359.88 235.592C333.317 273.87 321.884 394.344 321.884 394.344Z" fill="#FFC727"/>
<path d="M329.325 338.687C332.899 337.421 336.401 335.963 339.816 334.318C344.608 332.023 349.236 329.479 353.839 326.795L354.511 326.394C359.22 323.604 363.93 320.649 368.546 317.67L369.205 317.246L372.337 315.221C382.934 308.427 393.366 301.433 404.681 295.993C410.273 293.197 416.212 291.154 422.342 289.918C425.418 289.369 428.549 289.195 431.667 289.4C432.444 289.4 433.21 289.565 434.022 289.67C434.552 289.776 435.082 289.847 435.623 289.953C435.541 289.765 435.47 289.588 435.376 289.4C434.952 289.317 434.517 289.247 434.093 289.152C433.316 289.058 432.527 288.941 431.738 288.882C428.589 288.67 425.426 288.84 422.319 289.388C416.124 290.613 410.121 292.661 404.469 295.475C393.095 300.915 382.592 307.909 372.019 314.679L368.91 316.669L368.239 317.093C363.53 320.119 358.82 323.121 353.934 325.959L353.263 326.359C348.788 328.961 344.232 331.434 339.546 333.659C336.272 335.225 332.92 336.62 329.502 337.839L329.325 338.687ZM342.065 278.909L342.548 279.368C351.626 288.21 358.408 298.996 364.801 309.781C366.151 312.081 367.509 314.377 368.875 316.669C368.981 316.869 369.087 317.057 369.205 317.246C370.936 320.166 372.678 323.074 374.492 325.935C376.081 328.455 377.741 330.939 379.507 333.341C379.672 333.565 379.825 333.789 379.99 334.001C381.777 336.415 383.704 338.722 385.759 340.912C387.902 343.186 390.269 345.237 392.824 347.035L393.778 347.706C394.096 347.93 394.449 348.106 394.779 348.306L396.792 349.484C398.18 350.184 399.611 350.794 401.078 351.309C407.017 353.281 413.235 354.287 419.493 354.288C425.729 354.263 431.943 353.556 438.025 352.18C443.913 350.932 449.623 349.26 455.381 347.588C455.381 347.776 455.475 347.965 455.534 348.141C449.788 349.825 444.018 351.521 438.155 352.781C432 354.184 425.711 354.911 419.399 354.947C413.07 354.95 406.781 353.941 400.772 351.956C399.271 351.441 397.808 350.823 396.392 350.108L394.331 348.93C393.983 348.745 393.645 348.54 393.319 348.318L392.341 347.635C389.747 345.819 387.345 343.744 385.171 341.442C382.979 339.096 380.927 336.623 379.025 334.036C378.848 333.812 378.695 333.6 378.542 333.377C376.87 331.092 375.292 328.749 373.832 326.371C372.007 323.51 370.3 320.601 368.534 317.693L368.192 317.116L364.107 310.217C357.701 299.443 350.919 288.752 341.936 280.016L341.783 279.874C341.889 279.533 341.983 279.215 342.065 278.909ZM335.271 306.873C336.178 308.05 337.096 309.157 338.027 310.287C341.925 315.188 346.282 319.706 351.037 323.781C351.979 324.522 352.921 325.264 353.898 325.959L354.511 326.394C355.873 327.356 357.302 328.222 358.785 328.985L359.809 329.538C360.15 329.727 360.527 329.856 360.88 330.021L363.023 330.939C364.484 331.467 365.979 331.896 367.498 332.223C371.147 333.004 374.869 333.399 378.601 333.4H379.507C381.721 333.4 383.934 333.223 386.136 332.988C392.35 332.206 398.458 330.741 404.351 328.62C410.238 326.583 416.043 324.075 421.812 321.555C427.555 318.957 433.453 316.72 439.474 314.856C441.252 314.349 443.006 313.902 444.89 313.572L445.066 314.079C443.23 314.42 441.405 314.856 439.627 315.374C433.641 317.244 427.778 319.485 422.071 322.085C416.302 324.569 410.533 327.089 404.587 329.15C398.643 331.288 392.484 332.772 386.219 333.577C384.146 333.812 382.074 333.965 380.002 334.001C379.696 334.001 379.401 334.001 379.095 334.001C375.142 334.065 371.193 333.693 367.321 332.894C365.773 332.552 364.247 332.115 362.753 331.587L360.563 330.645C360.198 330.48 359.833 330.351 359.479 330.162L358.431 329.597C356.824 328.778 355.281 327.837 353.816 326.783L353.204 326.347C352.309 325.7 351.426 325.017 350.554 324.322C345.751 320.231 341.351 315.689 337.414 310.758C336.629 309.793 335.844 308.815 335.06 307.826C335.13 307.52 335.201 307.191 335.271 306.873ZM350.06 254.772C350.884 254.972 351.708 255.16 352.533 255.325L354.828 255.772C355.594 255.914 356.371 255.961 357.183 256.067L359.538 256.338L361.893 256.432C365.002 256.633 368.124 256.467 371.195 255.937C376.012 255.105 380.678 253.561 385.041 251.357L386.219 250.78C387.043 250.356 387.855 249.909 388.656 249.45C394.046 246.285 399.103 242.585 403.751 238.405L404.269 238.923C399.577 243.148 394.478 246.894 389.044 250.109C388.479 250.439 387.867 250.757 387.325 251.063L386.148 251.651C381.492 254.094 376.489 255.806 371.312 256.726C364.137 257.733 356.835 257.333 349.813 255.549C349.86 255.29 349.966 255.031 350.06 254.772ZM358.443 237.758C364.696 241.952 371.369 245.484 378.353 248.296C380.886 249.283 383.478 250.112 386.113 250.78L387.219 251.063C390.28 251.774 393.389 252.258 396.521 252.511L398.876 252.664C399.653 252.723 400.43 252.664 401.231 252.664H403.586L405.941 252.476C408.777 252.312 411.588 251.842 414.324 251.074C414.489 251.298 414.653 251.522 414.807 251.757C405.403 254.119 395.557 254.082 386.172 251.651L384.994 251.357C382.645 250.735 380.334 249.98 378.071 249.096C371.05 246.265 364.342 242.714 358.055 238.5L358.443 237.758ZM323.226 382.028C324.404 382.028 325.675 382.134 326.9 382.169H326.994L327.712 382.228C333.746 382.859 339.611 384.604 345.009 387.373C348.871 389.391 352.561 391.722 356.041 394.344H355.299C351.979 391.885 348.467 389.696 344.797 387.797C339.352 385.017 333.432 383.288 327.347 382.699H326.912H326.629C325.452 382.699 324.345 382.569 323.215 382.581C323.191 382.369 323.203 382.204 323.226 382.028ZM322.614 387.444C323.894 385.819 325.216 384.222 326.582 382.652C326.712 382.487 326.853 382.334 326.994 382.181L327.477 381.616C331.591 376.821 336.322 372.592 341.547 369.041C344.199 367.311 347.054 365.915 350.048 364.884C350.79 364.637 351.567 364.425 352.321 364.213C353.074 364.001 353.863 363.837 354.675 363.731C356.23 363.436 357.819 363.413 359.385 363.26C365.715 363.028 372.03 364.032 377.977 366.215C383.868 368.455 389.495 371.337 394.755 374.81C404.174 380.874 412.758 388.009 421.93 394.344H421.541C412.416 388.115 403.88 381.109 394.555 375.175C389.314 371.727 383.707 368.872 377.835 366.662C371.948 364.507 365.697 363.519 359.432 363.754C357.89 363.919 356.312 363.943 354.781 364.237C354.004 364.343 353.263 364.567 352.497 364.72C351.732 364.873 350.99 365.132 350.26 365.379C347.31 366.4 344.498 367.785 341.889 369.5C336.709 373.028 332.024 377.234 327.96 382.004C327.889 382.087 327.818 382.157 327.759 382.24L327.347 382.699C325.699 384.618 324.086 386.573 322.532 388.586C322.52 388.209 322.567 387.844 322.638 387.444H322.614Z" fill="white"/>
<path d="M413.877 246.129C443.018 279.839 482.297 339.381 466.248 352.545C439.862 374.186 362.8 386.69 345.115 388.786C337.485 389.704 322.202 339.829 327.301 333.376C332.399 326.924 413.877 322.368 414.43 317.363C414.748 314.526 402.373 289.847 394.414 259.575C385.265 224.676 405.67 236.627 413.877 246.129Z" fill="#AD6359"/>
<path d="M340.653 329.267C340.653 329.267 317.269 329.09 301.974 329.691C293.438 330.02 278.862 331.904 272.704 335.025C263.496 339.675 227.962 365.049 233.919 373.797C239.324 381.709 267.087 356.042 267.087 356.042C267.087 356.042 236.78 379.472 245.034 387.832C253.288 396.192 280.804 363.012 280.804 363.012C280.804 363.012 250.191 387.738 260.07 395.038C267.535 400.513 294.145 371.878 294.145 371.878C294.145 371.878 267.994 393.342 275.424 399.312C283.666 405.906 309.863 381.015 309.863 381.015C331.292 393.001 346.363 389.94 356.96 386.49C359.445 385.607 340.653 329.267 340.653 329.267Z" fill="#AD6359"/>
<path d="M277.049 347.271C273.387 349.896 269.666 352.522 266.252 355.513C262.837 358.503 259.528 361.506 256.397 364.755C248.731 372.715 245.176 378.884 245.446 378.531C251.616 370.066 263.673 359.363 267.088 356.419C270.502 353.476 273.764 350.379 277.166 347.447C277.249 347.318 277.131 347.212 277.049 347.271Z" fill="#263238"/>
<path d="M287.881 359.41C283.359 362.942 278.732 366.309 274.364 370.065C269.996 373.821 264.085 379.238 259.999 383.264C259.693 383.571 259.999 384.159 260.329 383.865C264.568 380.003 270.867 374.728 275.153 370.913C279.439 367.098 283.571 363.13 287.975 359.492C288.046 359.48 287.951 359.351 287.881 359.41Z" fill="#263238"/>
<path d="M299.089 368.146C291.895 373.221 285.643 379.614 279.662 386.031C279.356 386.349 279.662 386.396 280.039 386.09C286.385 380.027 291.33 375.223 299.266 368.429C299.36 368.288 299.207 368.04 299.089 368.146Z" fill="#263238"/>
<path d="M343.938 328.525C333.271 328.455 301.939 328.372 291.295 329.197C281.876 329.915 274.117 331.94 266.216 337.168C249.261 348.377 238.335 361.54 235.603 365.426C233.955 367.781 231.565 371.584 233.743 374.221C236.416 377.424 246.247 374.292 256.62 364.908C256.997 364.566 256.762 364.355 256.373 364.672C241.808 376.447 236.015 375.104 234.496 373.091C233.507 371.784 234.496 369.559 235.344 367.793C236.762 365.293 238.496 362.986 240.501 360.928C247.192 353.771 254.593 347.313 262.59 341.654C271.158 335.258 281.365 331.424 292.025 330.598C302.928 329.703 333.094 329.985 343.985 328.938C344.209 328.867 344.174 328.537 343.938 328.525Z" fill="#263238"/>
<path d="M243.304 383.123C243.904 380.215 246 377.554 247.66 375.152C249.677 372.129 251.993 369.317 254.572 366.757C254.678 366.651 254.878 366.757 254.772 366.922C252.575 369.49 250.535 372.187 248.661 374.999C247.665 376.546 246.761 378.15 245.953 379.803C245.188 381.392 244.281 383.229 244.681 385.042C245.435 388.504 249.838 388.422 252.44 387.491C254.126 386.857 255.75 386.069 257.291 385.137C259.391 383.799 261.383 382.299 263.249 380.651C263.402 380.509 263.826 380.568 263.661 380.721C259.776 384.418 252.417 392.107 246.412 389.293C245.26 388.784 244.32 387.89 243.753 386.765C243.186 385.639 243.027 384.352 243.304 383.123Z" fill="#263238"/>
<path d="M340.3 326.241L368.311 389.822C368.311 389.822 466.202 367.722 471.877 349.142C477.553 330.562 446.881 280.851 419.199 249.815C391.977 219.319 387.951 240.007 394.721 263.59C401.491 287.174 412.594 314.361 411.358 316.398C410.121 318.435 340.3 326.241 340.3 326.241Z" fill="#FFC727"/>
<path d="M405.058 295.192C405.129 295.369 405.188 295.557 405.258 295.734C410.696 293.059 416.459 291.104 422.402 289.917C425.478 289.369 428.609 289.195 431.727 289.399C432.504 289.399 433.269 289.564 434.082 289.67C434.894 289.776 435.612 289.906 436.366 290.118C437.897 290.447 439.345 291.036 440.84 291.495C446.61 293.69 451.902 296.976 456.429 301.174L455.687 299.89C451.37 296.078 446.4 293.074 441.017 291.024C439.51 290.553 438.038 289.953 436.484 289.623C435.718 289.411 434.929 289.317 434.129 289.152C433.328 288.987 432.563 288.94 431.774 288.881C428.625 288.67 425.462 288.84 422.355 289.388C416.361 290.562 410.547 292.514 405.058 295.192ZM353.251 326.359L353.923 325.958L356.607 324.369L358.232 324.18C357.055 324.922 355.771 325.676 354.535 326.394L353.864 326.794C350.331 328.855 346.799 330.833 343.173 332.681L342.89 332.034C346.375 330.232 349.825 328.337 353.251 326.359ZM372.361 322.461C373.068 323.639 373.786 324.816 374.516 325.935C376.105 328.455 377.765 330.939 379.532 333.341C379.696 333.565 379.849 333.788 380.014 334C381.802 336.414 383.728 338.722 385.784 340.912C387.926 343.185 390.293 345.236 392.848 347.034L393.802 347.705C394.12 347.929 394.473 348.106 394.803 348.306L396.816 349.483C398.204 350.184 399.636 350.793 401.102 351.308C407.041 353.281 413.259 354.287 419.517 354.287C425.745 354.261 431.951 353.554 438.026 352.18C444.16 350.873 450.177 349.095 456.217 347.34C461.575 345.786 466.967 344.22 472.478 343.196C472.478 343.384 472.478 343.573 472.478 343.749C467.026 344.774 461.692 346.351 456.359 347.894C450.33 349.66 444.29 351.426 438.132 352.78C431.978 354.184 425.688 354.911 419.376 354.947C413.047 354.95 406.758 353.94 400.749 351.956C399.248 351.44 397.785 350.823 396.369 350.107L394.308 348.93C393.96 348.744 393.622 348.54 393.296 348.318L392.318 347.635C389.724 345.819 387.322 343.744 385.148 341.442C382.956 339.095 380.904 336.622 379.002 334.036C378.825 333.812 378.672 333.6 378.519 333.376C376.847 331.092 375.269 328.749 373.809 326.37C373.009 325.122 372.232 323.851 371.454 322.591L372.361 322.461ZM352.439 324.816C352.922 325.193 353.416 325.57 353.923 325.923L354.535 326.359C355.898 327.32 357.326 328.186 358.809 328.949L359.833 329.502C360.175 329.691 360.551 329.82 360.905 329.985L363.048 330.904C364.509 331.431 366.003 331.86 367.522 332.187C371.171 332.968 374.893 333.363 378.625 333.364H379.532C381.745 333.364 383.959 333.188 386.16 332.952C392.374 332.17 398.483 330.705 404.375 328.584C410.262 326.547 416.067 324.039 421.836 321.519C427.579 318.922 433.477 316.684 439.498 314.82C445.538 313.089 451.979 312.147 458.231 313.372C460.22 313.772 462.145 314.441 463.953 315.362C464.071 315.597 464.188 315.844 464.294 316.08C462.36 315.048 460.285 314.302 458.136 313.866C451.99 312.689 445.632 313.607 439.651 315.338C433.665 317.208 427.802 319.45 422.095 322.049C416.326 324.534 410.557 327.053 404.611 329.114C398.661 331.266 392.494 332.762 386.219 333.576C384.147 333.812 382.075 333.965 380.003 334C379.696 334 379.402 334 379.096 334C375.142 334.064 371.194 333.693 367.322 332.893C365.774 332.551 364.248 332.115 362.753 331.586L360.563 330.645C360.198 330.48 359.833 330.35 359.48 330.162L358.432 329.597C356.824 328.777 355.281 327.836 353.817 326.783L353.204 326.347C352.592 325.899 352.027 325.429 351.368 324.958L352.439 324.816ZM403.704 238.346C404.21 237.899 404.705 237.463 405.199 237.004L405.835 237.416L404.187 238.888C400.354 242.32 396.26 245.45 391.942 248.248C391.942 247.954 391.942 247.66 391.942 247.377C396.074 244.677 399.998 241.67 403.681 238.381L403.704 238.346ZM396.545 252.475L398.9 252.628C399.677 252.687 400.454 252.628 401.255 252.628H403.61L405.965 252.44C409.078 252.254 412.16 251.709 415.149 250.815C416.456 250.427 417.751 249.979 419.022 249.461L419.305 249.779L419.576 250.085C418.203 250.66 416.8 251.16 415.372 251.58C407.915 253.571 400.127 254.004 392.495 252.852C392.495 252.558 392.413 252.275 392.366 251.981C393.672 252.24 395.097 252.405 396.522 252.511L396.545 252.475ZM359.386 363.224C365.718 363.004 372.033 364.02 377.977 366.215C383.869 368.455 389.496 371.337 394.756 374.81C397.699 376.717 400.572 378.719 403.41 380.779L402.951 380.909C400.195 378.919 397.405 377 394.544 375.175C389.303 371.727 383.696 368.871 377.824 366.662C371.937 364.507 365.686 363.519 359.421 363.754C358.609 363.836 357.796 363.883 356.984 363.954L356.76 363.459C357.596 363.389 358.491 363.342 359.362 363.259L359.386 363.224Z" fill="white"/>
<path d="M379.543 379.307C378.59 377.494 377.671 375.681 376.753 373.856C374.908 370.159 373.072 366.454 371.243 362.741C367.616 355.37 364.178 347.906 360.87 340.37C358.974 336.108 356.913 331.893 355.206 327.548C355.186 327.504 355.184 327.454 355.2 327.409C355.217 327.364 355.251 327.327 355.294 327.306C355.338 327.286 355.388 327.284 355.433 327.301C355.479 327.317 355.516 327.351 355.536 327.395C357.573 330.986 359.339 334.742 361.223 338.427C363.107 342.113 365.026 345.763 366.839 349.483C370.45 356.854 373.951 364.284 377.342 371.772C378.295 373.868 379.332 375.94 380.191 378.083C380.639 379.178 381.157 380.238 381.592 381.344C382.028 382.451 382.358 383.581 382.77 384.677C382.775 384.688 382.778 384.701 382.779 384.713C382.779 384.726 382.777 384.739 382.773 384.751C382.769 384.763 382.762 384.774 382.753 384.784C382.745 384.793 382.734 384.801 382.723 384.806C382.711 384.811 382.698 384.814 382.686 384.815C382.673 384.816 382.66 384.814 382.648 384.809C382.636 384.805 382.625 384.798 382.616 384.79C382.606 384.781 382.598 384.771 382.593 384.759C381.639 382.934 380.521 381.168 379.543 379.307Z" fill="#263238"/>
<path d="M366.203 385.453L368.169 389.904L368.228 390.045H368.416C377.683 388.326 386.89 386.266 396.039 383.97C405.187 381.674 414.265 379.072 423.249 376.175C432.265 373.326 441.107 369.952 449.729 366.073C454.056 364.127 458.235 361.868 462.234 359.314C464.229 358.013 466.115 356.553 467.874 354.946C469.687 353.391 471.076 351.402 471.912 349.165C470.871 351.266 469.35 353.093 467.473 354.499C465.615 355.927 463.642 357.199 461.574 358.302C457.485 360.575 453.262 362.6 448.929 364.366C440.275 367.957 431.385 371.018 422.448 373.891C413.512 376.764 404.493 379.437 395.45 382.003C386.407 384.57 377.33 387.113 368.24 389.551L368.475 389.669L366.203 385.453Z" fill="#263238"/>
<path d="M341.418 328.714L340.441 326.183L340.335 326.359C350.155 325.712 359.963 324.923 369.771 323.898C379.579 322.874 389.328 321.756 399.077 320.296C401.514 319.919 403.952 319.518 406.389 319.047C407.566 318.8 408.826 318.565 410.086 318.212C410.404 318.117 410.71 318.023 411.051 317.894C411.247 317.83 411.437 317.747 411.617 317.646C411.754 317.573 411.884 317.486 412.005 317.387C412.132 317.281 412.24 317.153 412.323 317.011C412.371 316.919 412.414 316.824 412.453 316.728C412.459 316.681 412.459 316.633 412.453 316.587C412.5 316.138 412.476 315.685 412.382 315.244C412.323 314.926 412.264 314.585 412.182 314.291C410.934 309.404 409.356 304.789 407.755 300.162C404.552 290.848 401.067 281.652 397.393 272.516C400.231 281.935 403.139 291.354 406.036 300.774C407.425 305.484 408.956 310.193 410.027 314.903C410.098 315.197 410.133 315.468 410.192 315.751C410.251 316.033 410.192 316.363 410.251 316.245C410.31 316.127 410.251 316.245 410.251 316.245C410.264 316.183 410.288 316.123 410.321 316.069C410.321 315.951 410.533 315.833 410.486 315.857C410.439 315.88 410.545 315.857 410.486 315.857L410.192 315.974L409.415 316.222C408.237 316.528 407.06 316.751 405.883 316.987C403.528 317.423 401.067 317.799 398.653 318.164C393.802 318.894 388.943 319.581 384.077 320.225L369.465 322.191C359.727 323.486 349.99 324.876 340.253 326.3H340.076L340.147 326.453L341.418 328.714Z" fill="#263238"/>
<path d="M396.345 278.544C397.036 280.206 397.908 281.785 398.947 283.254C399.923 284.757 401.113 286.11 402.479 287.269C401.584 285.703 400.63 284.22 399.618 282.748C398.635 281.266 397.541 279.861 396.345 278.544Z" fill="#263238"/>
<path d="M367.816 256.797C376.129 259.152 391.106 246.989 397.252 236.851C397.676 236.156 396.004 207.521 396.263 201.811C396.263 200.634 360.069 208.875 360.069 208.875C360.069 208.875 363.048 221.003 362.53 230.952C362.494 231.8 359.798 254.513 367.816 256.797Z" fill="#AD6359"/>
<path d="M396.816 219.743C379.873 231.706 363.366 227.114 362.671 226.902C362.393 220.832 361.553 214.802 360.163 208.887C360.163 208.887 396.428 200.645 396.369 201.823C396.157 204.495 396.451 212.219 396.816 219.743Z" fill="#263238"/>
<path d="M360.245 185.292C359.315 193.746 352.545 199.939 345.139 199.115C337.733 198.291 332.47 190.791 333.365 182.349C334.26 173.906 341.053 167.701 348.471 168.526C355.889 169.35 361.176 176.85 360.245 185.292Z" fill="#455A64"/>
<path d="M364.531 186.305C363.495 195.724 355.971 202.589 347.729 201.682C339.487 200.776 333.6 192.428 334.672 183.02C335.743 173.612 343.22 166.736 351.474 167.643C359.727 168.549 365.567 176.909 364.531 186.305Z" fill="#C7C7C7"/>
<path d="M401.278 158.788C405.234 171.48 398.747 208.24 389.763 216.482C376.729 228.433 355.276 229.692 345.103 214.009C335.236 198.797 344.538 151.052 354.593 143.552C369.393 132.484 395.438 140.055 401.278 158.788Z" fill="#AD6359"/>
<path d="M370.736 181.865C370.736 181.783 370.901 182.018 370.877 182.124C370.336 184.573 370.112 187.482 372.184 188.73C372.255 188.73 372.184 188.895 372.184 188.859C369.488 187.953 369.818 184.102 370.736 181.865Z" fill="#263238"/>
<path d="M373.432 179.711C377.459 180.17 376.246 188.2 372.514 187.776C368.782 187.352 370.053 179.334 373.432 179.711Z" fill="#263238"/>
<path d="M356.442 179.934C356.442 179.84 356.23 180.028 356.218 180.134C355.924 182.631 355.159 185.433 352.792 185.927C352.721 185.927 352.698 186.069 352.792 186.069C355.606 186.092 356.56 182.348 356.442 179.934Z" fill="#263238"/>
<path d="M354.617 176.979C350.661 176.073 349.142 184.044 352.804 184.892C356.466 185.739 357.961 177.768 354.617 176.979Z" fill="#263238"/>
<path d="M377.153 176.52C376.143 176.054 375.161 175.532 374.21 174.954C373.097 174.548 372.15 173.787 371.513 172.788C371.376 172.434 371.359 172.045 371.465 171.681C371.572 171.317 371.796 170.998 372.102 170.775C372.772 170.423 373.524 170.257 374.28 170.295C375.036 170.332 375.768 170.571 376.4 170.987C377.819 171.626 378.948 172.773 379.567 174.201C379.691 174.534 379.714 174.897 379.635 175.243C379.556 175.59 379.377 175.906 379.121 176.152C378.864 176.398 378.542 176.565 378.192 176.63C377.842 176.695 377.481 176.657 377.153 176.52Z" fill="#263238"/>
<path d="M352.074 172.493C353.186 172.438 354.295 172.324 355.395 172.152C356.576 172.196 357.74 171.848 358.703 171.162C358.968 170.888 359.133 170.532 359.174 170.153C359.214 169.773 359.127 169.391 358.927 169.067C358.434 168.491 357.797 168.056 357.082 167.806C356.366 167.556 355.597 167.499 354.853 167.642C353.299 167.706 351.825 168.349 350.72 169.443C350.483 169.705 350.327 170.03 350.271 170.379C350.215 170.728 350.262 171.086 350.405 171.409C350.549 171.731 350.783 172.006 351.079 172.198C351.375 172.391 351.721 172.493 352.074 172.493Z" fill="#263238"/>
<path d="M369.37 205.167C368.687 205.661 367.969 206.344 367.015 206.344C366.093 206.189 365.215 205.839 364.437 205.32C364.423 205.303 364.403 205.292 364.38 205.29C364.358 205.287 364.336 205.294 364.319 205.308C364.302 205.322 364.291 205.343 364.289 205.365C364.287 205.387 364.293 205.409 364.307 205.426C364.587 205.971 365.01 206.429 365.531 206.751C366.051 207.072 366.65 207.245 367.263 207.251C367.789 207.198 368.287 206.989 368.694 206.651C369.101 206.314 369.398 205.862 369.547 205.355C369.653 205.238 369.476 205.096 369.37 205.167Z" fill="#263238"/>
<path d="M367.886 197.337C367.106 198.224 366.152 198.94 365.082 199.44C364.012 199.941 362.85 200.215 361.67 200.245C360.635 200.286 359.601 200.179 358.597 199.927C358.403 199.892 358.214 199.836 358.031 199.762C357.852 199.716 357.675 199.661 357.502 199.597C357.372 199.554 357.261 199.469 357.185 199.357C357.108 199.244 357.071 199.109 357.078 198.973C357.085 198.888 357.105 198.805 357.137 198.726V198.514C357.384 196.595 358.008 193.71 358.008 193.71C357.254 193.957 353.439 195.017 353.651 194.028C355.394 185.786 357.337 176.696 360.81 168.914C360.834 168.862 360.875 168.821 360.926 168.798C360.977 168.774 361.035 168.77 361.09 168.786C361.144 168.801 361.191 168.836 361.221 168.883C361.252 168.93 361.265 168.987 361.258 169.043C359.892 176.991 357.137 184.644 355.629 192.592C356.987 192.194 358.395 191.991 359.809 191.991C360.068 192.109 358.502 197.537 358.467 198.408C358.46 198.439 358.46 198.471 358.467 198.502C361.623 199.397 364.189 198.797 367.639 197.113C367.898 196.995 368.063 197.16 367.886 197.337Z" fill="#263238"/>
<path d="M359.88 199.126C360.717 200.65 361.934 201.932 363.412 202.847C364.237 203.317 365.187 203.523 366.132 203.436C368.193 203.212 368.487 201.399 368.393 199.786C368.315 198.928 368.137 198.083 367.863 197.266C365.468 198.72 362.671 199.372 359.88 199.126Z" fill="#263238"/>
<path d="M363.424 202.883C364.249 203.353 365.199 203.558 366.144 203.471C368.205 203.248 368.499 201.434 368.405 199.821C366.203 199.68 363.919 200.81 363.424 202.883Z" fill="#FF99BA"/>
<path opacity="0.2" d="M395.25 171.846C396.699 175.496 399.677 184.068 401.373 184.668C402.986 172.753 403.045 161.944 400.09 155.303C398.867 152.561 397.151 150.066 395.027 147.944C394.779 151.135 393.708 168.031 395.25 171.846Z" fill="#263238"/>
<path d="M363.4 154.808C364.408 156.555 365.848 158.015 367.582 159.045C369.316 160.076 371.286 160.644 373.302 160.695C375.355 160.749 377.388 160.277 379.207 159.325C381.027 158.373 382.573 156.973 383.699 155.256C383.705 155.245 383.714 155.235 383.723 155.228C383.733 155.22 383.745 155.214 383.757 155.211C383.769 155.208 383.781 155.207 383.793 155.208C383.806 155.21 383.818 155.214 383.829 155.22C383.839 155.226 383.849 155.235 383.857 155.244C383.864 155.254 383.87 155.266 383.873 155.278C383.876 155.29 383.877 155.302 383.876 155.315C383.874 155.327 383.87 155.339 383.864 155.35C382.84 157.266 381.311 158.866 379.443 159.976C377.576 161.087 375.44 161.665 373.267 161.649C371.139 161.529 369.079 160.851 367.296 159.683C365.512 158.516 364.067 156.899 363.106 154.996C363.081 154.957 363.073 154.91 363.082 154.865C363.092 154.82 363.12 154.78 363.159 154.755C363.198 154.73 363.245 154.722 363.291 154.732C363.336 154.742 363.375 154.769 363.4 154.808Z" fill="#263238"/>
<path d="M338.84 135.864C340.536 132.735 343.284 130.307 346.599 129.011C351.191 127.198 355.794 128.41 360.351 129.717C360.376 129.717 360.4 129.727 360.418 129.745C360.435 129.763 360.445 129.787 360.445 129.812C360.445 129.837 360.435 129.861 360.418 129.878C360.4 129.896 360.376 129.906 360.351 129.906C356.477 128.811 352.474 127.928 348.518 129.129C345.244 130.108 342.407 132.188 340.488 135.016C338.616 137.944 337.861 141.449 338.36 144.889C338.859 148.328 340.58 151.473 343.208 153.749C344.757 155.019 346.549 155.96 348.474 156.513C350.4 157.066 352.418 157.219 354.405 156.963C354.558 156.963 354.629 157.175 354.464 157.199C351.759 157.657 348.98 157.353 346.439 156.32C343.898 155.286 341.695 153.565 340.078 151.349C338.461 149.132 337.494 146.509 337.286 143.774C337.077 141.038 337.636 138.299 338.898 135.864H338.84Z" fill="#263238"/>
<path d="M402.35 166.123C402.35 166.123 410.863 155.185 406.742 147.285C404.387 142.799 394.249 141.562 394.249 141.562C394.249 141.562 391.894 136.37 383.876 133.002C375.858 129.635 365.037 131.613 365.037 131.613C365.037 131.613 357.843 125.632 349.601 128.599C338.11 132.743 336.65 148.886 346.257 155.833C353.016 160.719 364.178 155.939 364.178 155.939C365.12 156.233 373.95 163.91 382.946 156.41C382.946 156.41 388.068 162.862 394.179 160.036C394.757 161.763 395.85 163.272 397.31 164.361C398.771 165.449 400.53 166.064 402.35 166.123Z" fill="#263238"/>
<path d="M393.614 188.754C393.614 188.754 402.079 176.979 407.425 180.029C412.771 183.078 406.248 200.186 399.937 202.4C399.144 202.749 398.289 202.934 397.424 202.944C396.558 202.954 395.699 202.789 394.898 202.459C394.098 202.129 393.372 201.641 392.765 201.024C392.158 200.407 391.682 199.673 391.365 198.868L393.614 188.754Z" fill="#AD6359"/>
<path d="M405.446 184.903C405.552 184.903 405.564 185.032 405.446 185.068C400.984 186.81 398.594 190.884 396.898 195.123C398.241 193.498 400.042 192.627 402.22 194.228C402.338 194.31 402.22 194.487 402.102 194.464C401.327 194.216 400.494 194.214 399.717 194.456C398.939 194.698 398.256 195.173 397.758 195.818C396.92 196.913 396.206 198.098 395.627 199.35C395.415 199.738 394.708 199.515 394.861 199.067V198.961C394.861 193.239 399.371 185.386 405.446 184.903Z" fill="#263238"/>
<path d="M400.666 180.512C400.666 180.512 405.246 162.262 401.679 151.076C397.711 138.642 382.746 126.468 365.061 131.637C365.061 131.637 384.688 134.168 394.226 150.57C398.606 158.105 394.402 179.864 394.402 179.864L400.666 180.512Z" fill="#C7C7C7"/>
<path d="M381.662 186.657C379.873 196.077 385.089 204.955 393.331 206.532C401.573 208.11 409.72 201.823 411.522 192.403C413.323 182.984 408.095 174.106 399.853 172.528C391.611 170.951 383.464 177.262 381.662 186.657Z" fill="#C7C7C7"/>
<path d="M386.113 186.963C384.5 195.406 389.198 203.447 396.604 204.825C404.01 206.203 411.334 200.527 412.947 192.097C414.56 183.667 409.874 175.613 402.468 174.235C395.062 172.858 387.738 178.51 386.113 186.963Z" fill="#455A64"/>
</svg>
