<svg width="456" height="400" viewBox="0 0 456 400" fill="none" xmlns="http://www.w3.org/2000/svg">
<path d="M56 392.577L106.003 392.294L156 392.188L256 392L356 392.188L405.997 392.294L456 392.577L405.997 392.871L356 392.977L256 393.166L156 392.977L106.003 392.871L56 392.577Z" fill="#263238"/>
<path d="M103.708 13.7641L88.2485 14.0938L80.4068 14.2233C77.7929 14.2233 75.1555 14.2233 72.5298 14.2939H72V13.7641V0.588713V0H72.6005L88.1896 0.0824194C93.382 0.0824194 98.5745 0.211936 103.779 0.270807H104.097V0.588713C104.097 2.82582 103.991 5.05115 103.944 7.25294L103.708 13.7641ZM103.708 13.7641L103.531 7.11165C103.531 4.90986 103.402 2.7434 103.378 0.588713L103.708 0.906618C98.5038 0.977264 93.3114 1.095 88.119 1.10678L72.5298 1.17743L73.1186 0.588713L73.0479 13.7641L72.5298 13.3049C75.0966 13.3049 77.6516 13.3049 80.2302 13.3049L87.9777 13.4344L103.708 13.7641Z" fill="#EBEBEB"/>
<path d="M95.9604 123.5H232.224V37.0532H95.9604V123.5Z" fill="#EBEBEB"/>
<path d="M257.716 123.5H232.225V96.9487L257.716 123.5Z" fill="#EBEBEB"/>
<path d="M216.446 51.9946H111.726V53.643H216.446V51.9946Z" fill="white"/>
<path d="M165.852 60.8726H111.726V62.521H165.852V60.8726Z" fill="white"/>
<path d="M196.407 78.6167H111.726V80.2651H196.407V78.6167Z" fill="white"/>
<path d="M216.446 87.4824H111.726V89.1308H216.446V87.4824Z" fill="white"/>
<path d="M216.446 96.3486H111.726V97.997H216.446V96.3486Z" fill="white"/>
<path d="M148.933 105.227H111.726V106.875H148.933V105.227Z" fill="white"/>
<path d="M369.054 94.3253C368.347 101.098 365.772 107.542 361.617 112.937C357.461 118.331 351.888 122.465 345.52 124.877C339.151 127.289 332.238 127.884 325.551 126.595C318.864 125.307 312.667 122.185 307.651 117.579L289.26 120.276L298.467 104.381C296.383 99.2103 295.503 93.6337 295.893 88.0729C296.283 82.5121 297.933 77.1129 300.718 72.284C303.503 67.4551 307.35 63.3231 311.968 60.2008C316.585 57.0785 321.853 55.0477 327.372 54.2622C332.891 53.4767 338.516 53.957 343.822 55.6669C349.128 57.3767 353.975 60.2712 357.996 64.1313C362.018 67.9914 365.109 72.7158 367.035 77.947C368.961 83.1782 369.671 88.779 369.113 94.3253H369.054Z" fill="white"/>
<path d="M369.054 94.325C368.342 101.102 365.776 107.551 361.636 112.964C359.603 115.667 357.174 118.049 354.43 120.028C351.722 122.081 348.737 123.742 345.564 124.962C342.389 126.203 339.056 126.996 335.662 127.316C333.967 127.471 332.263 127.503 330.564 127.411C328.857 127.37 327.156 127.193 325.477 126.881C318.696 125.66 312.388 122.574 307.263 117.968L307.698 118.097L289.33 120.923L288 121.123L288.671 119.946L297.843 104.015V104.651C295.687 99.382 294.77 93.6879 295.164 88.0083C295.558 82.3287 297.252 76.8157 300.116 71.895C302.975 66.9927 306.908 62.8021 311.619 59.638C316.327 56.5207 321.679 54.5094 327.274 53.7549C332.869 53.0005 338.563 53.5224 343.928 55.2815C349.227 57.0923 354.055 60.0652 358.057 63.9827C362.064 67.8798 365.136 72.635 367.041 77.8905C368.946 83.146 369.634 88.7651 369.054 94.325ZM369.054 94.325C369.641 88.7899 368.95 83.1938 367.033 77.9681C365.117 72.7423 362.026 68.0264 357.999 64.1837C353.972 60.3411 349.116 57.4743 343.807 55.8043C338.497 54.1343 332.875 53.7057 327.373 54.5515C321.923 55.3703 316.731 57.4242 312.196 60.5564C307.705 63.7071 303.952 67.797 301.199 72.5426C298.49 77.3053 296.896 82.6203 296.537 88.0879C296.178 93.5555 297.063 99.0333 299.127 104.109L299.256 104.439L299.08 104.733L289.825 120.605L289.166 119.628L307.569 117.049H307.828L308.004 117.226C312.936 121.829 319.051 124.968 325.666 126.292C327.308 126.622 328.973 126.822 330.646 126.893C332.32 127.01 334 127.01 335.674 126.893C339.031 126.631 342.335 125.906 345.494 124.738C348.67 123.594 351.658 121.983 354.36 119.957C357.121 117.991 359.56 115.608 361.589 112.893C365.741 107.51 368.324 101.084 369.054 94.325Z" fill="#263238"/>
<path d="M348.543 96.0673C351.001 96.0673 352.994 94.0747 352.994 91.6167C352.994 89.1586 351.001 87.166 348.543 87.166C346.085 87.166 344.093 89.1586 344.093 91.6167C344.093 94.0747 346.085 96.0673 348.543 96.0673Z" fill="#263238"/>
<path d="M332.589 96.0673C335.047 96.0673 337.04 94.0747 337.04 91.6167C337.04 89.1586 335.047 87.166 332.589 87.166C330.131 87.166 328.138 89.1586 328.138 91.6167C328.138 94.0747 330.131 96.0673 332.589 96.0673Z" fill="#263238"/>
<path d="M316.647 96.0673C319.105 96.0673 321.098 94.0747 321.098 91.6167C321.098 89.1586 319.105 87.166 316.647 87.166C314.189 87.166 312.196 89.1586 312.196 91.6167C312.196 94.0747 314.189 96.0673 316.647 96.0673Z" fill="#263238"/>
<path d="M264.028 382.653H257.757V386.75H264.028V382.653Z" fill="#455A64"/>
<path d="M272.165 382.381H265.894V386.477H272.165V382.381Z" fill="#455A64"/>
<path d="M280.302 382.109H274.03V386.206H280.302V382.109Z" fill="#455A64"/>
<path d="M288.43 381.837H282.158V385.934H288.43V381.837Z" fill="#455A64"/>
<path d="M296.566 381.566H290.295V385.662H296.566V381.566Z" fill="#455A64"/>
<path d="M304.702 381.303H298.431V385.399H304.702V381.303Z" fill="#455A64"/>
<path d="M312.83 381.032H306.559V385.128H312.83V381.032Z" fill="#455A64"/>
<path d="M320.967 380.76H314.695V384.856H320.967V380.76Z" fill="#455A64"/>
<path d="M329.095 380.488H322.823V384.585H329.095V380.488Z" fill="#455A64"/>
<path d="M330.631 389.103H256.219V384.116L330.631 382.044V389.103Z" fill="#37474F"/>
<path d="M403.263 369.454H280.424L299.96 278H422.799L403.263 369.454Z" fill="#455A64"/>
<path d="M407.809 369.454H284.96L304.496 278H427.345L407.809 369.454Z" fill="#37474F"/>
<path d="M366.769 318.431C366.392 320.513 365.313 322.403 363.711 323.785C362.109 325.167 360.081 325.957 357.967 326.024C357.012 326.054 356.064 325.867 355.192 325.477C354.321 325.088 353.549 324.506 352.934 323.775C352.32 323.044 351.879 322.184 351.645 321.258C351.411 320.333 351.39 319.366 351.583 318.431C351.955 316.348 353.032 314.457 354.633 313.073C356.233 311.689 358.261 310.896 360.376 310.829C361.332 310.797 362.282 310.983 363.156 311.373C364.03 311.762 364.803 312.345 365.419 313.077C366.035 313.809 366.476 314.671 366.71 315.599C366.944 316.526 366.964 317.495 366.769 318.431Z" fill="#263238"/>
<path d="M373.068 393.34H312.652V388.643L373.068 386.693V393.34Z" fill="#455A64"/>
<path d="M389.491 393.33H357.047L337.512 342.081H369.956L389.491 393.33Z" fill="#455A64"/>
<path d="M394.826 393.33H362.391L342.855 342.081H375.29L394.826 393.33Z" fill="#263238"/>
<path d="M253.904 394.586H191.641C186.326 394.586 194.012 379.447 213.417 373.644C232.821 367.842 260.044 388.906 253.904 394.586Z" fill="#37474F"/>
<path d="M229.531 394.586C229.573 392.861 229.857 391.151 230.375 389.505C230.875 387.842 231.577 386.245 232.465 384.753C233.356 383.251 234.472 381.894 235.774 380.731C237.066 379.577 238.551 378.66 240.162 378.022C239.496 378.566 238.737 378.959 238.127 379.55L237.19 380.366L236.309 381.303C235.157 382.509 234.148 383.842 233.3 385.278C232.438 386.713 231.698 388.218 231.087 389.777C230.462 391.344 229.942 392.95 229.531 394.586Z" fill="#263238"/>
<path d="M236.862 380.178C240.567 381.35 244.072 383.079 247.258 385.305C248.87 386.419 250.329 387.74 251.598 389.233C252.929 390.719 253.739 392.598 253.904 394.586C253.388 392.753 252.399 391.088 251.036 389.758C249.707 388.405 248.254 387.181 246.695 386.102C245.149 384.987 243.527 383.984 241.877 382.999C240.227 382.015 238.568 381.087 236.862 380.178Z" fill="#263238"/>
<path d="M4.78711 394.331H149.21L120.41 226.819H12.4168L4.78711 394.331Z" fill="#DBDBDB"/>
<path d="M4.78711 394.331H17.4444L24.5561 226.819H12.4168L4.78711 394.331Z" fill="#A6A6A6"/>
<path d="M90.3866 153.759C76.9757 167.099 73.1255 189.082 73.1255 189.082C73.1255 189.082 60.268 211.206 63.8592 223.227C64.8091 226.636 66.5716 229.763 68.9956 232.341C71.4195 234.919 74.4326 236.87 77.7764 238.027L76.5047 231.387C76.5047 231.387 80.8141 239.923 95.214 243.361C109.614 246.799 128.665 242.372 138.579 237.356C144.455 234.415 149.468 230.001 153.132 224.546L149.423 234.201C149.423 234.201 163.399 233.706 171.7 218.835C180 203.964 156.158 182.594 154.132 177.99C152.107 173.387 149.54 139.842 114.253 145.623C114.3 145.541 99.6647 144.575 90.3866 153.759Z" fill="#263238"/>
<path d="M72.7247 237.074C69.0512 234.331 65.4247 231.187 63.3995 227.302C61.1912 223.274 60.4071 218.619 61.1742 214.091C62.1514 208.663 65.0126 203.871 67.7913 199.196C70.57 194.522 73.9139 189.777 76.7044 184.867C76.8575 184.596 76.4454 184.373 76.257 184.585C73.1217 188.267 70.197 192.123 67.497 196.135C64.7347 199.804 62.4111 203.783 60.5737 207.992C58.8563 211.867 58.2922 216.155 58.9489 220.343C59.6434 223.747 61.1546 226.931 63.3524 229.621C65.9545 232.859 69.2395 234.931 72.5363 237.369C72.7247 237.522 72.9249 237.227 72.7247 237.074Z" fill="#263238"/>
<path d="M174.726 203.459C170.487 191.108 159.419 183.266 152.625 172.493C148.975 166.664 146.138 160.212 141.381 155.149C141.251 155.008 141.016 155.231 141.134 155.373C145.043 159.929 147.303 165.416 150.129 170.679C153.14 175.859 156.658 180.726 160.632 185.209C167.626 193.592 175.997 203.518 174.396 215.257C173.654 220.673 170.451 226.678 164.894 228.361C164.682 228.432 164.812 228.785 165.024 228.691C167.215 227.811 169.205 226.494 170.871 224.82C172.537 223.146 173.844 221.15 174.714 218.954C176.586 213.959 176.591 208.456 174.726 203.459Z" fill="#263238"/>
<path d="M175.232 206.78C175.615 202.102 174.537 197.421 172.147 193.381C169.71 189.401 165.883 186.528 162.057 183.961C157.641 181.03 152.991 178.239 150.188 173.588C150.071 173.388 149.788 173.588 149.894 173.788C154.345 181.465 162.846 185.045 168.533 191.509C175.067 198.891 175.079 209.641 170.581 218.083C167.723 223.229 163.688 227.627 158.807 230.917C158.725 230.917 158.807 231.094 158.901 231.035C167.226 225.572 174.561 217.165 175.232 206.78Z" fill="#263238"/>
<path d="M121.871 263.048C157.606 282.664 200.382 307.284 226.592 301.491C238.213 298.925 290.396 230.516 292.61 222.604C294.506 215.81 247.255 188.458 241.981 193.816C233.079 202.799 209.013 253.382 205.48 254.229C201.948 255.077 171.947 248.99 140.722 243.35C110.674 237.957 97.0631 249.437 121.871 263.048Z" fill="#EB9481"/>
<path d="M287.535 231.128C291.609 225.995 308.234 200.821 311.283 192.78C314.333 184.738 321.468 160.989 315.557 157.999C309.647 155.008 307.033 161.778 307.033 161.778C307.033 161.778 308.458 151.264 302.229 148.826C296 146.389 292.233 157.068 292.233 157.068C292.233 157.068 292.904 146.165 286.51 144.117C280.117 142.068 278.139 153.536 278.139 153.536C278.139 153.536 279.222 143.599 273.264 144.117C266.106 144.811 266.2 163.368 262.149 171.986C261.231 173.941 240.708 210.347 240.708 210.347L287.535 231.128Z" fill="#EB9481"/>
<path d="M278.28 152.606C278.28 166.252 275.925 172.234 268.86 183.608C268.719 183.82 269.013 184.079 269.19 183.867C277.197 173.364 281.223 166.3 278.986 152.571C278.833 151.9 278.28 151.958 278.28 152.606Z" fill="#263238"/>
<path d="M292.161 155.997C290.984 170.126 288.464 176.672 281.859 189.141C281.764 189.318 282.059 189.494 282.165 189.318C289.665 177.638 293.527 170.479 292.868 156.173C292.903 155.526 292.22 155.349 292.161 155.997Z" fill="#263238"/>
<path d="M306.631 162.402C304.477 176.036 302.051 183.289 294.092 194.569C294.071 194.594 294.055 194.624 294.046 194.655C294.036 194.687 294.033 194.72 294.036 194.753C294.04 194.785 294.049 194.817 294.065 194.846C294.081 194.875 294.102 194.901 294.127 194.922C294.153 194.943 294.182 194.959 294.214 194.968C294.245 194.978 294.278 194.981 294.311 194.977C294.344 194.974 294.376 194.965 294.405 194.949C294.434 194.933 294.46 194.912 294.48 194.887C303.723 184.172 306.82 175.153 307.044 162.507C307.032 161.66 306.773 161.542 306.631 162.402Z" fill="#263238"/>
<path d="M230.595 214.468C230.595 214.468 229.594 197.407 230.818 189.813C232.043 182.218 246.984 155.585 252.872 158.481C260.537 162.237 254.932 179.31 251.094 187.317C251.094 187.317 268.826 195.959 267.46 209.087C266.094 222.215 230.595 214.468 230.595 214.468Z" fill="#EB9481"/>
<path d="M254.685 160.2C259.206 168.666 253.507 178.851 250.352 186.892C250.3 187.009 250.278 187.136 250.286 187.262C250.294 187.389 250.333 187.512 250.399 187.621C250.464 187.73 250.556 187.821 250.664 187.887C250.773 187.952 250.896 187.991 251.023 187.999C258.217 192.12 267.165 200.032 267.931 208.745C267.931 208.798 267.952 208.849 267.989 208.887C268.027 208.924 268.078 208.946 268.131 208.946C268.184 208.946 268.235 208.924 268.272 208.887C268.31 208.849 268.331 208.798 268.331 208.745C268.779 199.326 260.619 190.801 252.459 186.786C255.803 178.544 261.09 168.124 254.814 160.153C254.732 160.118 254.661 160.153 254.685 160.2Z" fill="#263238"/>
<path d="M196.978 251.439L153.967 287.492C153.967 287.492 127.71 273.833 108.318 258.138C88.9261 242.443 110.402 234.814 143.7 240.406C176.998 245.999 196.978 251.439 196.978 251.439Z" fill="#FFC727"/>
<path d="M146.031 258.68C144.813 257.017 143.402 255.503 141.828 254.171C143.57 257.914 146.086 261.245 149.21 263.943C148.366 262.068 147.299 260.3 146.031 258.68ZM108.354 258.162L108.872 258.563C109.213 258.198 109.555 257.809 109.873 257.385C109.331 257.632 108.825 257.891 108.33 258.209L108.354 258.162ZM180.353 258.398C178.319 258.099 176.256 258.036 174.207 258.209C176.129 258.935 178.128 259.436 180.165 259.705C182.198 260.013 184.262 260.08 186.311 259.905C184.382 259.173 182.375 258.667 180.33 258.398H180.353ZM165.953 244.457C165.927 245.243 165.954 246.03 166.036 246.812C166.323 246.105 166.567 245.382 166.766 244.645L165.953 244.457Z" fill="white"/>
<path d="M144.337 279.792C153.085 271.385 162.434 263.578 171.912 255.972C174.597 253.829 177.328 251.734 180.154 249.72C180.236 249.661 180.342 249.72 180.26 249.826C175.809 253.935 171.182 257.856 166.578 261.8C161.975 265.745 157.312 269.689 152.591 273.516C149.918 275.682 147.257 277.849 144.549 279.956C144.384 280.039 144.231 279.897 144.337 279.792Z" fill="#263238"/>
<path d="M172.241 272.174L153.955 287.48C153.955 287.48 127.699 273.834 108.307 258.139C101.419 252.57 99.6879 248.025 101.796 244.716L172.241 272.174Z" fill="#263238"/>
<path d="M163.387 394.19H26.3228C26.3228 394.19 56.0998 279.191 83.6634 246.812C84.2756 246.07 84.9114 245.363 85.5473 244.704C85.6768 244.551 85.7945 244.445 85.924 244.316C88.0578 242.036 90.5421 240.112 93.283 238.617C93.7657 238.358 94.2484 238.11 94.7547 237.899C105.352 233.012 116.584 237.063 124.673 243.986C127.24 246.176 156.299 284.018 158.818 298.395C161.044 311.123 152.449 324.793 152.449 324.793L163.387 394.19Z" fill="#FFC727"/>
<path d="M131.914 319.871C126.078 320.44 120.293 321.444 114.606 322.873C111.78 323.627 109.025 324.498 106.258 325.428C104.881 325.899 103.503 326.323 102.114 326.735C100.667 327.206 99.1687 327.498 97.6514 327.606C97.6233 327.606 97.5963 327.617 97.5764 327.637C97.5566 327.657 97.5454 327.684 97.5454 327.712C97.5454 327.74 97.5566 327.767 97.5764 327.787C97.5963 327.807 97.6233 327.818 97.6514 327.818C99.0888 327.879 100.529 327.84 101.961 327.7C103.339 327.528 104.705 327.26 106.046 326.9C108.919 326.158 111.745 325.299 114.606 324.545C120.376 323.014 126.133 321.484 131.997 320.365C132.062 320.354 132.121 320.318 132.16 320.264C132.198 320.209 132.214 320.142 132.203 320.077C132.192 320.011 132.155 319.953 132.101 319.914C132.047 319.875 131.98 319.86 131.914 319.871Z" fill="#263238"/>
<path d="M146.396 324.922C141.579 324.459 136.74 324.267 131.902 324.345C129.547 324.404 127.086 324.592 124.673 324.84C123.495 324.969 122.318 325.111 121.234 325.264C120.151 325.417 118.738 325.77 117.478 325.923C117.349 325.923 117.349 326.147 117.478 326.135C118.656 326.029 119.892 326.135 121.093 326.076L124.708 325.946C127.063 325.876 129.524 325.817 131.937 325.711C136.765 325.511 141.58 325.358 146.408 325.311C146.667 325.322 146.643 324.946 146.396 324.922Z" fill="#263238"/>
<path d="M70.641 273.845C69.9934 273.021 69.334 272.209 68.6158 271.491L68.1095 272.55C68.5805 273.28 69.0868 273.999 69.6048 274.693C70.8246 276.345 72.2355 277.847 73.8082 279.167C72.9488 277.284 71.8868 275.499 70.641 273.845ZM86.548 243.68C86.3082 245.519 86.2687 247.378 86.4302 249.226C87.1617 247.295 87.6559 245.282 87.902 243.232C87.902 242.926 87.9844 242.608 88.0198 242.302C87.5252 242.738 87.0307 243.197 86.548 243.68ZM128.146 281.993C127.413 283.922 126.907 285.929 126.639 287.975C126.343 290.013 126.276 292.079 126.439 294.133C127.178 292.208 127.677 290.199 127.923 288.151C128.246 286.115 128.321 284.047 128.146 281.993ZM101.949 348.306C101.223 350.227 100.725 352.227 100.465 354.264C100.167 356.302 100.103 358.368 100.277 360.422C101.676 356.545 102.246 352.417 101.949 348.306ZM57.4185 298.242C56.6995 300.177 56.2019 302.188 55.9349 304.235C55.6352 306.269 55.572 308.332 55.7465 310.381C56.4671 308.451 56.961 306.444 57.2183 304.4C57.5269 302.362 57.5941 300.295 57.4185 298.242ZM94.2719 289.835C92.2372 289.536 90.1749 289.473 88.1257 289.647C90.0477 290.372 92.0468 290.874 94.0835 291.142C96.1172 291.45 98.1802 291.518 100.23 291.342C98.3142 290.596 96.319 290.075 94.2837 289.788L94.2719 289.835ZM143.582 346.351C141.544 346.053 139.478 345.989 137.425 346.163C141.301 347.562 145.429 348.132 149.54 347.835C147.622 347.108 145.627 346.602 143.594 346.328L143.582 346.351ZM51.5313 340.923C49.5316 340.634 47.5063 340.562 45.4912 340.711H45.3734H45.4794C47.3814 341.413 49.3561 341.899 51.3665 342.16C53.4012 342.458 55.4635 342.522 57.5127 342.348C55.5807 341.644 53.5735 341.165 51.5313 340.923ZM103.244 389.539C101.209 389.241 99.1469 389.177 97.0977 389.351C100.978 390.753 105.111 391.319 109.225 391.011C107.278 390.292 105.256 389.799 103.197 389.539H103.244ZM47.6223 383.582C45.5837 383.283 43.5174 383.22 41.4644 383.393C43.3876 384.11 45.3865 384.603 47.4221 384.865C49.4592 385.181 51.5275 385.245 53.5801 385.053C51.6417 384.333 49.6268 383.84 47.5752 383.582H47.6223ZM104.586 260.564C102.928 261.798 101.415 263.216 100.077 264.791C101.955 263.936 103.732 262.874 105.375 261.624C107.03 260.395 108.533 258.972 109.849 257.385C107.983 258.248 106.218 259.314 104.586 260.564ZM119.257 323.592C117.602 324.808 116.1 326.219 114.783 327.795C116.656 326.946 118.422 325.879 120.046 324.616C121.703 323.403 123.206 321.991 124.52 320.413C122.648 321.274 120.882 322.349 119.257 323.615V323.592ZM67.8151 362.117C66.151 363.331 64.6441 364.747 63.3291 366.332C65.1951 365.469 66.9602 364.403 68.5922 363.153C70.2474 361.925 71.76 360.515 73.1018 358.95C71.2115 359.785 69.4351 360.857 67.8151 362.141V362.117ZM153.249 306.696C152.03 305.032 150.62 303.519 149.046 302.186C150.787 305.929 153.304 309.26 156.428 311.959C155.582 310.091 154.515 308.332 153.249 306.719V306.696ZM135.717 378.012C134.489 376.357 133.079 374.844 131.514 373.503C132.339 375.393 133.404 377.17 134.681 378.789C135.898 380.448 137.309 381.954 138.885 383.275C138.026 381.41 136.964 379.645 135.717 378.012ZM84.0989 321.92C82.8769 320.259 81.4663 318.746 79.8955 317.41C80.7304 319.298 81.7984 321.074 83.0746 322.697C84.2875 324.358 85.6992 325.865 87.278 327.183C86.4206 325.314 85.3541 323.548 84.0989 321.92Z" fill="white"/>
<path d="M80.8611 247.706C54.4985 268.959 -13.015 353.18 2.20907 372.643C17.4332 392.106 118.621 383.24 147.998 374.032C156.734 371.301 132.903 315.856 123.46 313.301C115.595 311.17 71.9833 324.062 71.1356 321.543C70.1818 318.693 81.909 302.928 96.8152 268.771C114.006 229.374 92.5058 238.322 80.8611 247.706Z" fill="#EB9481"/>
<path d="M171.087 308.674C191.233 311.029 196.049 314.691 214.099 307.626C225.944 302.999 233.985 308.568 225.32 318.565C211.191 334.919 184.534 337.403 175.055 335.567L171.087 308.674Z" fill="#EB9481"/>
<path d="M114.583 314.008C114.583 314.008 139.579 307.544 161.291 307.897C176.315 308.144 208.93 312.324 231.065 351.308C236.317 360.551 237.247 377.459 223.176 365.438C213.192 356.925 209.436 348.506 202.725 344.609C202.725 344.609 201.347 366.238 191.88 371.148C183.601 375.429 175.027 379.116 166.224 382.181C165.292 380.699 164.458 379.157 163.728 377.565C163.728 377.565 154.45 381.309 140.18 376.117L114.583 314.008Z" fill="#EB9481"/>
<path d="M175.597 310.428C181.484 315.703 193.635 327.077 200.323 339.864C207.811 354.064 218.408 383.429 207.87 388.857C200.146 392.836 195.107 381.969 195.107 381.969C195.107 381.969 196.932 395.038 189.22 397.098C182.155 398.982 178.753 390.34 178.753 390.34C178.753 390.34 178.494 398.453 171.335 398.959C162.716 399.548 164.671 382.475 155.416 375.516C153.332 373.95 175.597 310.428 175.597 310.428Z" fill="#EB9481"/>
<path d="M184.051 345.338C188.76 351.225 195.955 367.238 195.342 381.756C195.342 382.086 195.071 382.251 195.024 381.944C192.816 369.373 189.087 357.116 183.921 345.444C183.907 345.427 183.901 345.405 183.903 345.383C183.905 345.361 183.916 345.341 183.933 345.327C183.95 345.312 183.972 345.306 183.994 345.308C184.016 345.31 184.037 345.321 184.051 345.338Z" fill="#263238"/>
<path d="M169.933 353.251C173.466 358.726 180.165 375.622 179.035 390.281C179.035 390.611 178.74 390.752 178.705 390.446C177.149 377.77 174.159 365.311 169.792 353.31C169.792 353.293 169.796 353.277 169.805 353.263C169.815 353.25 169.827 353.239 169.843 353.232C169.858 353.226 169.875 353.224 169.891 353.228C169.907 353.231 169.922 353.239 169.933 353.251Z" fill="#263238"/>
<path d="M202.759 344.514C208.646 348.046 211.931 352.203 216.311 357.301C218.452 359.854 220.732 362.287 223.14 364.589C225.354 366.65 228.616 369.746 231.936 368.275C233.784 367.45 234.291 365.237 234.444 363.4C234.589 361.335 234.288 359.263 233.561 357.325C233.561 357.23 233.702 357.16 233.737 357.266C234.46 358.975 234.936 360.779 235.15 362.623C235.43 364.356 235.18 366.133 234.432 367.721C232.595 370.971 228.356 370.359 225.696 368.651C224.121 367.561 222.658 366.319 221.327 364.943C220.02 363.659 218.772 362.317 217.559 360.951C215.075 358.125 212.756 355.17 210.307 352.332C207.907 349.626 205.334 347.078 202.606 344.703C202.5 344.608 202.642 344.444 202.759 344.514Z" fill="#263238"/>
<path d="M210.248 370.254C209.553 366.215 204.561 348.86 202.583 344.633C202.57 344.611 202.567 344.585 202.574 344.561C202.58 344.536 202.596 344.516 202.618 344.503C202.64 344.491 202.666 344.487 202.69 344.494C202.714 344.501 202.735 344.517 202.748 344.539C206.48 350.508 211.19 365.002 212.014 369.465C212.838 373.927 213.627 379.449 212.485 383.841C210.766 390.458 206.056 390.576 204.349 390.482C202.332 390.334 200.426 389.504 198.944 388.127C197.257 386.367 195.944 384.285 195.083 382.004C195.083 381.898 195.188 381.804 195.247 381.91C196.872 385.113 200.016 388.68 203.737 389.139C204.56 389.267 205.402 389.229 206.21 389.026C207.019 388.824 207.779 388.462 208.446 387.962C209.844 386.624 210.709 384.826 210.884 382.899C211.397 378.679 211.182 374.401 210.248 370.254Z" fill="#263238"/>
<path d="M179.035 390.281C179.753 391.305 180.942 394.543 183.803 395.909C184.798 396.476 185.916 396.792 187.061 396.831C188.205 396.87 189.342 396.63 190.373 396.132C192.34 394.912 193.755 392.973 194.318 390.728C194.794 387.855 195.05 384.95 195.083 382.039C195.083 381.897 195.26 381.886 195.272 382.039C195.638 385.197 195.527 388.392 194.942 391.517C194.665 392.741 194.147 393.898 193.417 394.919C192.687 395.94 191.76 396.805 190.691 397.463C189.559 398.081 188.278 398.374 186.99 398.31C185.702 398.246 184.456 397.826 183.391 397.098C182.32 396.356 179.211 393 178.682 390.363C178.693 390.281 179 390.234 179.035 390.281Z" fill="#263238"/>
<path d="M156.322 374.48C157.173 375.423 157.912 376.462 158.524 377.576C159.219 378.754 159.878 379.872 160.502 381.05C161.742 383.429 162.733 385.931 163.457 388.515C164.211 391.105 164.8 393.931 166.577 396.062C167.41 397.115 168.552 397.88 169.844 398.248C171.135 398.616 172.509 398.568 173.772 398.111C175.108 397.58 176.219 396.602 176.915 395.344C177.722 393.987 178.262 392.488 178.505 390.928C178.5 390.914 178.498 390.899 178.5 390.884C178.502 390.869 178.507 390.854 178.516 390.842C178.524 390.829 178.536 390.819 178.549 390.812C178.563 390.805 178.578 390.801 178.593 390.801C178.608 390.801 178.623 390.805 178.637 390.812C178.65 390.819 178.662 390.829 178.67 390.842C178.679 390.854 178.685 390.869 178.687 390.884C178.688 390.899 178.687 390.914 178.681 390.928C178.581 392.343 178.336 393.743 177.951 395.108C177.506 396.335 176.747 397.423 175.75 398.264C174.704 399.062 173.459 399.557 172.15 399.694C170.841 399.832 169.52 399.605 168.332 399.041C165.694 397.863 164.211 395.202 163.292 392.565C162.268 389.633 161.585 386.607 160.42 383.711C159.819 382.18 159.242 380.649 158.512 379.178C157.782 377.706 156.77 376.175 156.157 374.597C156.087 374.503 156.228 374.374 156.322 374.48Z" fill="#263238"/>
<path d="M147.127 378.13C150.849 378.668 154.614 378.854 158.371 378.684C158.489 378.684 158.56 379.025 158.442 379.049C156.579 379.398 154.684 379.544 152.79 379.484C150.87 379.404 148.973 379.034 147.162 378.389C147.009 378.307 147.009 378.107 147.127 378.13Z" fill="#263238"/>
<path d="M31.5148 334.154C37.8089 331.116 44.3133 328.535 50.9776 326.43C57.5723 324.368 64.3096 322.794 71.1351 321.72C75.0324 321.072 78.9415 320.613 82.9094 320.13C83.0271 320.13 83.0507 320.295 82.9094 320.307C76.0511 321.417 69.262 322.919 62.5753 324.805C55.9189 326.618 49.3018 328.553 42.7239 330.609C39.0032 331.787 35.3296 333.106 31.6443 334.389C31.5148 334.483 31.397 334.236 31.5148 334.154Z" fill="#263238"/>
<path d="M25.7812 298.843L81.5794 304.906C81.5794 304.906 95.8145 279.003 103.221 255.137C110.627 231.27 89.5977 235.909 65.0248 259.046C40.452 282.182 25.7812 298.843 25.7812 298.843Z" fill="#FFC727"/>
<path d="M25.7812 298.843L81.5794 304.906C81.5794 304.906 95.8145 279.003 103.221 255.137C110.627 231.27 89.5977 235.909 65.0248 259.046C40.452 282.182 25.7812 298.843 25.7812 298.843Z" fill="#FFC727"/>
<path d="M86.6427 242.902C86.6485 242.961 86.6485 243.02 86.6427 243.079C86.3439 245.117 86.2807 247.184 86.4543 249.237C87.1858 247.306 87.68 245.294 87.9261 243.244C87.9261 242.89 88.0203 242.549 88.0556 242.196L86.6427 242.902ZM57.419 298.241C56.9079 299.526 56.5139 300.854 56.2416 302.209L57.419 302.327C57.5484 300.968 57.5484 299.6 57.419 298.241ZM38.0621 285.678L37.5205 286.243C38.1328 286.243 38.6979 286.243 39.3691 286.137C38.9216 285.961 38.4978 285.808 38.0621 285.678ZM88.138 289.599C88.4677 289.728 88.8092 289.858 89.1506 289.964C89.2116 289.81 89.2824 289.661 89.3626 289.517C88.9622 289.528 88.5501 289.552 88.138 289.599ZM70.6415 273.845C69.4131 272.19 68.0032 270.677 66.4381 269.335C67.266 271.228 68.3302 273.008 69.6054 274.634C70.8251 276.286 72.2361 277.788 73.8088 279.108C72.9456 277.245 71.8837 275.48 70.6415 273.845Z" fill="white"/>
<path d="M79.319 304.387C79.6251 304.387 81.6738 304.387 81.6738 304.387C81.9211 303.669 86.725 292.613 87.9024 290.258C90.3279 285.419 93.036 280.709 95.6734 275.988C95.7558 275.835 95.9913 275.988 95.9089 276.094C94.0486 280.215 92.2589 284.336 90.3632 288.48C90.8342 287.927 91.3052 287.374 91.7644 286.809C92.6945 285.631 93.5423 284.454 94.4253 283.206C94.5078 283.1 94.6726 283.206 94.6137 283.335C93.7711 285.038 92.706 286.622 91.4465 288.045C90.9117 288.67 90.3333 289.256 89.7156 289.799C89.5626 290.141 89.4095 290.494 89.2447 290.824C88.0672 293.178 82.2625 305.047 82.0506 305.035L79.3661 304.705C79.1659 304.752 79.1659 304.376 79.319 304.387Z" fill="#263238"/>
<path d="M36.2955 289.364C48.3994 290.176 60.4681 291.836 72.466 293.72C75.8727 294.262 79.2558 294.878 82.6154 295.569C82.7096 295.569 82.7096 295.734 82.6154 295.722C76.587 295.192 70.5704 294.415 64.5537 293.673C58.5371 292.931 52.4733 292.131 46.4567 291.177C43.0657 290.659 39.663 290.141 36.2837 289.564C36.1425 289.576 36.1424 289.352 36.2955 289.364Z" fill="#263238"/>
<path d="M100.43 239.488C100.642 241.937 109.755 258.963 120.67 260.011C124.202 260.34 126.922 241.019 126.922 241.019L127.44 239.641L134.775 220.308L113.464 201.881L110.367 199.409C110.367 199.409 108.707 204.825 106.717 211.595C106.623 211.913 106.517 212.231 106.423 212.561C106.329 212.89 106.187 213.302 106.081 213.656C105.775 214.668 105.457 215.692 105.175 216.729C104.951 217.518 104.727 218.283 104.515 219.083C104.303 219.884 104.091 220.732 103.856 221.556C102.307 227.448 101.162 233.44 100.43 239.488Z" fill="#EB9481"/>
<path d="M106.717 211.595C107.931 217.493 110.413 223.056 113.991 227.899C117.57 232.742 122.159 236.749 127.44 239.641L134.775 220.308L113.464 201.881L110.367 199.409C110.367 199.409 108.707 204.825 106.717 211.595Z" fill="#263238"/>
<path d="M141.227 190.613C143.099 198.855 150.517 204.283 157.794 202.646C165.07 201.01 169.438 192.944 167.566 184.655C165.694 176.366 158.276 170.974 151 172.622C143.723 174.271 139.355 182.312 141.227 190.613Z" fill="#455A64"/>
<path d="M137.072 192.097C139.168 201.316 147.41 207.309 155.51 205.484C163.611 203.659 168.462 194.699 166.378 185.468C164.294 176.237 156.04 170.256 147.951 172.081C139.862 173.906 134.988 182.854 137.072 192.097Z" fill="#C7C7C7"/>
<path d="M160.879 180.299C170.769 215.21 150.977 225.041 143.441 227.208C136.6 229.139 113.076 234.838 99.6293 201.128C86.1831 167.418 99.2879 151.782 114.689 146.543C130.089 141.303 150.989 145.377 160.879 180.299Z" fill="#EB9481"/>
<path d="M148.728 175.907C147.899 175.989 147.066 176.025 146.232 176.013C145.356 176.18 144.449 176.052 143.654 175.648C143.427 175.473 143.265 175.228 143.193 174.951C143.12 174.674 143.141 174.381 143.253 174.117C143.554 173.632 143.979 173.237 144.484 172.972C144.989 172.706 145.556 172.582 146.126 172.61C147.286 172.481 148.453 172.788 149.399 173.47C149.604 173.641 149.755 173.867 149.834 174.121C149.913 174.376 149.918 174.647 149.847 174.904C149.777 175.161 149.633 175.392 149.435 175.57C149.237 175.748 148.991 175.865 148.728 175.907Z" fill="#263238"/>
<path d="M125.709 184.031C126.509 183.784 127.295 183.493 128.063 183.16C128.935 182.968 129.72 182.496 130.3 181.818C130.438 181.567 130.489 181.278 130.447 180.995C130.404 180.712 130.27 180.451 130.065 180.252C129.598 179.923 129.052 179.725 128.483 179.677C127.914 179.63 127.342 179.734 126.827 179.981C125.71 180.317 124.758 181.055 124.154 182.053C124.03 182.289 123.977 182.555 124.001 182.82C124.025 183.085 124.126 183.337 124.29 183.546C124.454 183.756 124.676 183.913 124.927 183.999C125.179 184.085 125.45 184.096 125.709 184.031Z" fill="#263238"/>
<path d="M132.774 190.189C132.774 190.095 132.621 190.354 132.656 190.448C133.41 192.803 133.834 195.629 131.95 197.03C131.891 197.03 131.95 197.183 132.009 197.16C134.505 196.041 133.845 192.273 132.774 190.189Z" fill="#263238"/>
<path d="M129.924 188.305C126.015 189.106 127.899 196.853 131.526 196.112C135.152 195.37 133.198 187.634 129.924 188.305Z" fill="#263238"/>
<path d="M128.5 189.082C127.934 189.695 127.452 190.625 126.663 190.907C125.874 191.19 124.826 190.59 124.025 189.954C123.943 189.895 123.884 189.954 123.908 190.083C124.249 191.567 125.191 192.956 126.839 192.791C128.488 192.626 129.065 191.072 129.065 189.483C129.076 189.188 128.735 188.847 128.5 189.082Z" fill="#263238"/>
<path d="M146.538 185.939C146.538 185.845 146.762 186.009 146.774 186.104C147.268 188.529 148.234 191.225 150.6 191.508C150.671 191.508 150.694 191.638 150.6 191.649C147.869 191.897 146.621 188.305 146.538 185.939Z" fill="#263238"/>
<path d="M148.08 182.925C151.872 181.747 153.968 189.4 150.435 190.519C146.903 191.637 144.913 183.925 148.08 182.925Z" fill="#263238"/>
<path d="M149.847 182.983C150.565 183.219 151.365 183.796 152.107 183.643C152.849 183.49 153.355 182.465 153.673 181.512C153.673 181.417 153.791 181.512 153.814 181.512C154.262 182.972 154.203 184.632 152.861 185.303C151.518 185.974 150.353 184.914 149.599 183.549C149.458 183.36 149.552 182.854 149.847 182.983Z" fill="#263238"/>
<path d="M138.213 209.547C138.896 210.006 139.626 210.724 140.568 210.571C141.469 210.376 142.319 209.995 143.064 209.453C143.078 209.435 143.098 209.424 143.121 209.422C143.143 209.42 143.165 209.427 143.182 209.441C143.199 209.455 143.21 209.475 143.212 209.497C143.214 209.519 143.208 209.541 143.194 209.559C142.939 210.103 142.542 210.568 142.044 210.906C141.547 211.244 140.968 211.441 140.368 211.478C139.842 211.451 139.337 211.268 138.917 210.951C138.497 210.634 138.182 210.198 138.013 209.7C137.931 209.57 138.107 209.488 138.213 209.547Z" fill="#263238"/>
<path d="M146.114 197.583C146.114 197.583 147.515 201.033 147.951 202.717C147.951 202.882 142.158 205.707 138.414 202.246C138.375 202.219 138.348 202.178 138.339 202.132C138.33 202.085 138.34 202.037 138.367 201.998C138.393 201.959 138.434 201.933 138.481 201.924C138.527 201.915 138.575 201.925 138.614 201.951C141.139 202.871 143.894 202.95 146.467 202.175C146.467 201.681 143.854 196.347 144.113 196.288C145.451 196.068 146.814 196.028 148.163 196.17C145.431 188.905 141.569 182.135 138.967 174.847C138.944 174.793 138.942 174.733 138.961 174.677C138.981 174.622 139.02 174.576 139.071 174.548C139.123 174.52 139.183 174.512 139.24 174.526C139.297 174.54 139.347 174.575 139.379 174.623C143.936 181.441 147.256 189.741 150.259 197.171C150.659 198.078 146.903 197.701 146.114 197.583Z" fill="#263238"/>
<path d="M146.456 202.988C145.83 204.551 144.817 205.928 143.512 206.991C142.779 207.541 141.896 207.853 140.981 207.886C138.967 207.886 138.437 206.226 138.367 204.66C138.338 203.831 138.405 203.001 138.567 202.188C141.043 203.292 143.808 203.572 146.456 202.988Z" fill="#263238"/>
<path d="M143.512 206.991C142.779 207.541 141.895 207.853 140.98 207.886C138.967 207.886 138.437 206.226 138.366 204.66C140.427 204.295 142.782 205.095 143.512 206.991Z" fill="#FF99BA"/>
<path d="M101.313 199.961C108.071 200.397 108.849 184.938 108.849 184.938C108.849 184.938 137.107 178.356 138.119 154.949C138.119 154.949 143.924 169.478 159.313 175.271C159.313 175.271 156.758 149.838 136.247 146.118C136.247 146.118 110.603 138.512 97.7101 159.281C84.8173 180.051 96.7799 199.667 101.313 199.961Z" fill="#263238"/>
<path d="M138.119 153.217C138.677 156.789 138.465 160.438 137.495 163.92C136.58 167.459 134.936 170.768 132.668 173.634C132.112 174.354 131.51 175.039 130.866 175.683L129.924 176.683C129.595 176.989 129.241 177.272 128.888 177.566C128.182 178.132 127.499 178.744 126.769 179.274C126.039 179.804 125.238 180.239 124.414 180.71C124.025 180.934 123.649 181.181 123.237 181.393L122.059 181.958L119.598 183.077C117.903 183.666 116.184 184.16 114.477 184.631C116.066 183.819 117.714 183.171 119.28 182.359L121.576 181.063L122.754 180.416C123.119 180.18 123.46 179.91 123.814 179.65C124.52 179.132 125.226 178.626 125.945 178.132C126.663 177.637 127.24 176.954 127.887 176.424L128.865 175.565L129.736 174.599C130.335 173.981 130.897 173.329 131.42 172.645C133.559 169.915 135.22 166.841 136.33 163.555C136.898 161.905 137.331 160.212 137.625 158.492C137.938 156.751 138.103 154.986 138.119 153.217Z" fill="#263238"/>
<path d="M106.353 199.596C106.353 199.596 96.4389 189.953 91.9293 193.709C87.4198 197.465 96.3564 212.466 102.703 213.525C103.507 213.719 104.342 213.747 105.158 213.61C105.973 213.472 106.752 213.171 107.449 212.725C108.145 212.278 108.744 211.695 109.209 211.011C109.674 210.327 109.996 209.557 110.156 208.745L106.353 199.596Z" fill="#EB9481"/>
<path d="M94.6015 197.937C94.5796 197.937 94.5586 197.946 94.5432 197.961C94.5277 197.977 94.519 197.998 94.519 198.02C94.519 198.041 94.5277 198.062 94.5432 198.078C94.5586 198.093 94.5796 198.102 94.6015 198.102C99.0875 198.985 102.007 202.423 104.315 206.12C102.785 204.825 100.936 204.307 99.1581 206.12C99.0639 206.226 99.1581 206.367 99.3112 206.32C99.9988 205.95 100.784 205.801 101.56 205.894C102.335 205.986 103.063 206.316 103.644 206.838C104.611 207.715 105.479 208.694 106.234 209.758C106.493 210.1 107.129 209.758 106.906 209.37L106.847 209.276C105.928 204.048 100.383 197.384 94.6015 197.937Z" fill="#263238"/>
<path d="M99.5706 194.686C99.5706 194.686 93.1419 177.555 95.3672 166.369C97.8398 153.912 113.276 139.7 130.925 145.022C130.925 145.022 109.932 148.166 102.514 165.039C99.0996 172.81 105.552 193.379 105.552 193.379L99.5706 194.686Z" fill="#C7C7C7"/>
<path d="M109.485 219.103C117.277 216.677 121.35 207.507 118.583 198.623C115.816 189.738 107.256 184.503 99.4642 186.93C91.6724 189.357 87.5992 198.526 90.3664 207.411C93.1336 216.295 101.693 221.53 109.485 219.103Z" fill="#C7C7C7"/>
<path d="M114.336 199.338C116.82 207.321 113.158 215.563 106.094 217.741C99.0291 219.92 91.3994 215.222 88.9032 207.239C86.4071 199.256 90.0807 191.014 97.1452 188.824C104.21 186.634 111.851 191.402 114.336 199.338Z" fill="#455A64"/>
<path d="M127.358 239.758L120.882 256.101L100.513 235.555L94.8022 242.195C94.8022 242.195 114.818 274.904 114.889 273.421L121.553 259.292L131.302 269.029L130.419 244.515L127.358 239.758Z" fill="#EBEBEB"/>
<path d="M131.596 256.902C131.302 252.864 131.137 248.766 130.666 244.74C130.666 244.598 130.419 244.539 130.383 244.74C129.594 248.649 130.76 264.132 130.76 267.841C130.36 267.417 121.729 259.269 121.647 259.398C120.199 261.636 115.312 271.903 114.983 272.833C111.815 267.64 98.4162 247.165 94.6838 242.22C94.6615 242.197 94.6324 242.183 94.6009 242.179C94.5695 242.175 94.5377 242.182 94.5105 242.198C94.4833 242.214 94.4624 242.239 94.4511 242.269C94.4399 242.298 94.4389 242.331 94.4483 242.361C97.2388 247.848 114.547 274.87 114.794 274.799C117.369 269.956 119.696 264.985 121.765 259.905C123.225 261.683 131.938 270.878 131.961 270.278C132.07 265.816 131.949 261.352 131.596 256.902Z" fill="#263238"/>
</svg>
