<svg xmlns="http://www.w3.org/2000/svg" viewBox="0 0 291.52 62.14"><defs><style>.cls-1{fill:#1d3c58;}.cls-2{fill:#fdb839;}.cls-3{fill:#ff6e41;}</style></defs><g id="Layer_2" data-name="Layer 2"><g id="Creative_Business_PowerPoint_Presentation_Slide_Template_Design" data-name="Creative Business PowerPoint Presentation Slide Template Design"><g id="Image_01" data-name="Image 01"><path class="cls-1" d="M29.49,42.34c-.27,3,.44,6.54-.78,10.06a14.77,14.77,0,0,1-14.79,9.73c-6-.2-11.46-4.92-13.28-10.65-2.77-8.75,4.28-19.09,14.48-18.82,4.19.11,8.39.06,12.59,0,1.38,0,1.84.46,1.8,1.81"/><path class="cls-2" d="M14.13,29.47C6.7,29.72.77,22.72.08,16.22-.68,9.09,4.26,2.54,11.19.51,19.32-1.88,29.8,4.72,29.51,14.75c-.12,4.27-.06,8.55,0,12.82,0,1.46-.48,2-1.94,1.92"/><path class="cls-3" d="M34.29,29.47c-1.26,0-1.74-.46-1.73-1.72,0-4.76-.13-9.53.07-14.28.29-7,6.42-13,13.46-13.44A14.91,14.91,0,0,1,61.56,11.69C63.64,21.14,55.94,30,46.9,29.48"/><path class="cls-3" d="M287.21,51.74h-1.57c-.27,0-.37.1-.37.37,0,1,0,2,0,3A3.09,3.09,0,0,0,288.15,58a3.18,3.18,0,0,0,3.3-2.48,3.13,3.13,0,0,0-3.13-3.79c-.37,0-.74,0-1.11,0Z"/><path class="cls-1" d="M75.84,58.84a23.82,23.82,0,0,1-11-2.37,16.7,16.7,0,0,1-7.11-6.73,20.53,20.53,0,0,1-2.47-10.3,20.55,20.55,0,0,1,2.37-10,17.35,17.35,0,0,1,6.5-6.77A19.59,19.59,0,0,1,80.65,21.5a14.89,14.89,0,0,1,5.44,3.84,16.64,16.64,0,0,1,3.43,6.05,25.07,25.07,0,0,1,1.17,7.9,2.88,2.88,0,0,1-.78,2.22,3.61,3.61,0,0,1-2.47.71H65.8V35.9H81.5l-1.13,1a12.11,12.11,0,0,0-.71-4.51,5.54,5.54,0,0,0-2.09-2.63,6.11,6.11,0,0,0-3.42-.91,6.58,6.58,0,0,0-3.79,1.09,6.92,6.92,0,0,0-2.44,3.2,14.32,14.32,0,0,0-.85,5.27v.67c0,3.56.75,6.11,2.23,7.64S73.08,49,76.2,49a18.52,18.52,0,0,0,3.57-.41,22.3,22.3,0,0,0,3.85-1.17,4.36,4.36,0,0,1,3.18-.26,4,4,0,0,1,2.09,1.65,5.39,5.39,0,0,1,.81,2.63,5.6,5.6,0,0,1-.64,2.86,4.72,4.72,0,0,1-2.33,2.15,23.24,23.24,0,0,1-5.27,1.8A26.63,26.63,0,0,1,75.84,58.84Z"/><path class="cls-1" d="M102.36,58.69A6,6,0,0,1,97.76,57a7.06,7.06,0,0,1-1.63-5V27a7.06,7.06,0,0,1,1.59-5,5.86,5.86,0,0,1,4.56-1.73,5.76,5.76,0,0,1,4.53,1.73,7.14,7.14,0,0,1,1.56,5v3.53l-.78-3.08a12.28,12.28,0,0,1,4.84-5.41,13.67,13.67,0,0,1,7.18-1.88,12.68,12.68,0,0,1,6.86,1.69,10.23,10.23,0,0,1,4,5.26,25.93,25.93,0,0,1,1.34,9V51.92a7.06,7.06,0,0,1-1.63,5,7.15,7.15,0,0,1-9.33,0,7.06,7.06,0,0,1-1.63-5V36.66c0-2.26-.36-3.86-1.09-4.82a3.82,3.82,0,0,0-3.22-1.43,5.72,5.72,0,0,0-4.52,1.92,7.46,7.46,0,0,0-1.7,5.15V51.92Q108.72,58.7,102.36,58.69Z"/><path class="cls-1" d="M157.22,58.84a19.25,19.25,0,0,1-8.73-1.73,11.1,11.1,0,0,1-5.13-5.22,20.11,20.11,0,0,1-1.69-8.77V30.86h-2.41a4.66,4.66,0,0,1-3.5-1.27,5.13,5.13,0,0,1-1.24-3.69,5,5,0,0,1,1.24-3.65,4.76,4.76,0,0,1,3.5-1.24h2.41V16.35a7.1,7.1,0,0,1,1.62-5,7.15,7.15,0,0,1,9.33,0,7.06,7.06,0,0,1,1.63,5V21h5.8a4.87,4.87,0,0,1,3.57,1.24,5,5,0,0,1,1.24,3.65,5.13,5.13,0,0,1-1.24,3.69,4.76,4.76,0,0,1-3.57,1.27h-5.8V42.67a5.8,5.8,0,0,0,1.24,4.1,5.14,5.14,0,0,0,3.92,1.32,8,8,0,0,0,1.91-.23,7.15,7.15,0,0,1,1.7-.22,2.15,2.15,0,0,1,1.84.71c.47.53.7,1.72.7,3.57a10.07,10.07,0,0,1-.63,3.8,4,4,0,0,1-2.27,2.22,14.11,14.11,0,0,1-2.68.64A19.48,19.48,0,0,1,157.22,58.84Z"/><path class="cls-1" d="M186.35,58.84a20.85,20.85,0,0,1-10.11-2.33,16.4,16.4,0,0,1-6.72-6.69,21.06,21.06,0,0,1-2.4-10.31,23,23,0,0,1,1.34-8.08,16.75,16.75,0,0,1,3.89-6.09,16.94,16.94,0,0,1,6.08-3.84,22.53,22.53,0,0,1,7.92-1.31,20.88,20.88,0,0,1,10.11,2.33,16.27,16.27,0,0,1,6.68,6.65,21.23,21.23,0,0,1,2.37,10.34,23.08,23.08,0,0,1-1.34,8.05,16.86,16.86,0,0,1-3.86,6.13,16.52,16.52,0,0,1-6.08,3.84A22.82,22.82,0,0,1,186.35,58.84Zm0-9.85a5.91,5.91,0,0,0,3.39-1,6.48,6.48,0,0,0,2.3-3.09,15,15,0,0,0,.81-5.38q0-5-1.83-7.25A5.82,5.82,0,0,0,186.35,30,6,6,0,0,0,183,31a6.43,6.43,0,0,0-2.34,3,14.72,14.72,0,0,0-.85,5.45c0,3.31.62,5.72,1.84,7.22A5.84,5.84,0,0,0,186.35,49Z"/><path class="cls-1" d="M224.32,58.84a14.19,14.19,0,0,1-7.43-1.76,10.81,10.81,0,0,1-4.35-5.31,23.89,23.89,0,0,1-1.44-9V27a7,7,0,0,1,1.62-5,7.28,7.28,0,0,1,9.33,0,6.92,6.92,0,0,1,1.63,5V43.2a6.5,6.5,0,0,0,1.06,4.06,4,4,0,0,0,3.32,1.35,5.21,5.21,0,0,0,4.18-2,7.86,7.86,0,0,0,1.62-5.19V27a6.92,6.92,0,0,1,1.63-5,7.28,7.28,0,0,1,9.33,0,7,7,0,0,1,1.63,5V51.92q0,6.78-6.08,6.77a6,6,0,0,1-4.6-1.73,7.1,7.1,0,0,1-1.62-5V47.56l1.13,3.69a12.8,12.8,0,0,1-4.35,5.64A11.26,11.26,0,0,1,224.32,58.84Z"/><path class="cls-1" d="M272,58.84a19.28,19.28,0,0,1-8.73-1.73,11.15,11.15,0,0,1-5.13-5.22,20.11,20.11,0,0,1-1.69-8.77V30.86h-2.41a4.66,4.66,0,0,1-3.5-1.27,5.12,5.12,0,0,1-1.23-3.69,5,5,0,0,1,1.23-3.65,4.76,4.76,0,0,1,3.5-1.24h2.41V16.35a7.1,7.1,0,0,1,1.62-5,7.17,7.17,0,0,1,9.34,0,7.1,7.1,0,0,1,1.62,5V21h5.8a4.84,4.84,0,0,1,3.57,1.24,5,5,0,0,1,1.24,3.65,5.08,5.08,0,0,1-1.24,3.69,4.73,4.73,0,0,1-3.57,1.27h-5.8V42.67a5.8,5.8,0,0,0,1.24,4.1,5.14,5.14,0,0,0,3.92,1.32,8,8,0,0,0,1.91-.23,7.15,7.15,0,0,1,1.7-.22,2.14,2.14,0,0,1,1.84.71c.47.53.71,1.72.71,3.57a10.05,10.05,0,0,1-.64,3.8,4,4,0,0,1-2.26,2.22,14.24,14.24,0,0,1-2.69.64A19.48,19.48,0,0,1,272,58.84Z"/></g></g></g></svg>