<svg width="392" height="325" viewBox="0 0 392 325" fill="none" xmlns="http://www.w3.org/2000/svg">
<path d="M39.9728 244.139L27.3777 244.386L20.9704 244.496C18.8376 244.496 16.6866 244.496 14.563 244.542H14.1511V244.139V233.402V232.944H14.6179L27.3137 233.008C31.5425 233.008 35.7714 233.109 40.0094 233.155H40.2565V233.402C40.2565 235.233 40.1833 237.063 40.1375 238.821L39.9728 244.139ZM39.9728 244.139L39.8446 238.72C39.8446 236.889 39.7348 235.159 39.7256 233.402L39.9728 233.658C35.7348 233.704 31.5059 233.795 27.2771 233.805L14.5813 233.86L15.039 233.402L14.9841 244.139L14.5813 243.727C16.6683 243.727 18.7553 243.727 20.8605 243.782L27.1672 243.883L39.9728 244.139Z" fill="#EBEBEB"/>
<path d="M25.8034 257.667L13.2175 257.924L6.81011 258.024C4.67737 258.07 2.53548 258.024 0.402747 258.07H0V257.658V246.931V246.473H0.457669L13.1534 246.528C17.3914 246.528 21.6203 246.629 25.8491 246.674H26.1054V246.921C26.1054 248.752 26.023 250.583 25.9864 252.349L25.8034 257.667ZM25.8034 257.667L25.6752 252.249C25.6752 250.464 25.5745 248.688 25.5562 246.931L25.8034 247.187C21.5745 247.233 17.3456 247.333 13.1076 247.333L0.411902 247.388L0.869571 246.931L0.823805 257.667L0.411902 257.256C2.50802 257.256 4.59499 257.256 6.69112 257.31L13.0069 257.411L25.8034 257.667Z" fill="#EBEBEB"/>
<path d="M229.795 11.2313L217.2 11.4876L210.793 11.5974C208.66 11.5974 206.509 11.5974 204.386 11.5974H203.974V11.1855L203.928 0.457791V0.00012207H204.395L217.091 0.0641954C221.319 0.0641954 225.548 0.164882 229.786 0.210649H230.033V0.457791C230.033 2.28847 229.96 4.11914 229.914 5.87659L229.795 11.2313ZM229.795 11.2313L229.667 5.81251C229.621 3.98184 229.557 2.26101 229.548 0.503559L229.795 0.750698C225.557 0.805618 221.329 0.897152 217.1 0.906306L204.404 0.961227L204.862 0.503559L204.807 11.2313L204.404 10.8286C206.491 10.8286 208.578 10.8286 210.683 10.8743L216.99 10.9842L229.795 11.2313Z" fill="#EBEBEB"/>
<path d="M215.626 24.7691L203.04 25.0254L196.633 25.1261C194.5 25.1261 192.358 25.1261 190.226 25.1261H189.823V24.7142V13.9773V13.5197H190.28L202.976 13.5837C207.214 13.5837 211.443 13.6844 215.672 13.7302H215.928V13.9773C215.928 15.808 215.846 17.6387 215.8 19.3961L215.626 24.7691ZM215.626 24.7691L215.498 19.387C215.498 17.5563 215.397 15.8263 215.379 14.0689L215.626 14.3252C211.397 14.3252 207.168 14.4716 202.93 14.4716L190.235 14.5265L190.692 14.0689L190.647 24.8058L190.235 24.3939C192.331 24.3939 194.418 24.3939 196.514 24.4488L202.83 24.5495L215.626 24.7691Z" fill="#EBEBEB"/>
<path d="M391.691 303.407L379.105 303.663L372.698 303.764C370.565 303.81 368.423 303.764 366.29 303.81H365.888V303.398L365.833 292.67V292.203H366.29L378.986 292.258C383.224 292.258 387.453 292.359 391.682 292.405H391.938V292.652C391.938 294.482 391.856 296.313 391.819 298.071L391.691 303.407ZM391.691 303.407L391.563 297.988C391.563 296.203 391.462 294.437 391.444 292.679L391.691 292.926C387.462 292.972 383.233 293.073 378.995 293.073L366.3 293.128L366.757 292.679L366.711 303.407L366.3 302.995C368.396 302.995 370.483 302.995 372.579 303.05L378.895 303.151L391.691 303.407Z" fill="#EBEBEB"/>
<path d="M377.531 316.936L364.936 317.192L358.529 317.293C356.387 317.338 354.245 317.293 352.121 317.348H351.709V316.936L351.664 306.208V305.75H352.13L364.826 305.805C369.055 305.805 373.284 305.906 377.522 305.952H377.769V306.199C377.769 308.029 377.687 309.86 377.65 311.618L377.531 316.936ZM377.531 316.936L377.403 311.517C377.357 309.732 377.293 307.965 377.275 306.208L377.531 306.455C373.293 306.501 369.064 306.602 364.835 306.602L352.14 306.666L352.588 306.208L352.542 316.936L352.14 316.524C354.227 316.524 356.313 316.524 358.419 316.579L364.725 316.679L377.531 316.936Z" fill="#EBEBEB"/>
<path d="M311.791 228.523L299.205 228.779L292.798 228.88C290.665 228.926 288.524 228.88 286.391 228.926H285.988V228.514L285.933 217.777V217.319H286.391L299.086 217.384C303.325 217.384 307.553 217.484 311.782 217.53H312.039V217.777C312.039 219.608 311.956 221.438 311.92 223.196L311.791 228.523ZM311.791 228.523L311.663 223.104C311.663 221.319 311.563 219.544 311.544 217.786L311.791 218.043C307.563 218.088 303.334 218.189 299.096 218.189L286.4 218.244L286.858 217.786L286.812 228.523L286.4 228.111C288.496 228.111 290.583 228.111 292.679 228.166L298.995 228.267L311.791 228.523Z" fill="#EBEBEB"/>
<path d="M356.387 56.2842L343.792 56.5405L337.384 56.6412C335.251 56.6412 333.11 56.6412 330.977 56.6961H330.574V56.2842L330.528 45.5564V45.0988H330.986L343.691 45.1537C347.92 45.1537 352.149 45.2635 356.387 45.3093H356.634V45.5564C356.634 47.3871 356.551 49.2178 356.515 50.9752L356.387 56.2842ZM356.387 56.2842L356.249 50.8654C356.249 49.0347 356.149 47.3139 356.13 45.5564L356.387 45.8036C352.149 45.8036 347.92 45.95 343.691 45.9592L330.986 46.0141L331.444 45.5564L331.398 56.2842L330.986 55.8814C333.082 55.8814 335.169 55.8814 337.274 55.8814L343.581 55.9821L356.387 56.2842Z" fill="#EBEBEB"/>
<path d="M370.547 69.8129L357.961 70.0692L351.554 70.179C349.421 70.179 347.279 70.179 345.146 70.2248H344.744V69.8129L344.698 59.0851V58.6274H345.155L357.851 58.6915C362.08 58.6915 366.318 58.7922 370.547 58.838H370.803V59.0851C370.803 60.9158 370.721 62.7465 370.675 64.5039L370.547 69.8129ZM370.547 69.8129L370.419 64.3941C370.419 62.5634 370.318 60.8426 370.3 59.0851L370.547 59.3322C366.318 59.3872 362.08 59.4787 357.851 59.4879L345.155 59.5428L345.613 59.0851L345.567 69.8129L345.155 69.4101C347.252 69.4101 349.339 69.4101 351.435 69.4101L357.75 69.5199L370.547 69.8129Z" fill="#EBEBEB"/>
<path d="M349.137 186.18L361.732 185.932L368.14 185.823C370.281 185.823 372.423 185.823 374.547 185.777H374.959V186.189L375.005 196.926V197.383H374.538L361.842 197.319C357.613 197.319 353.384 197.219 349.146 197.173H348.899V196.962C348.899 195.132 348.982 193.301 349.018 191.543L349.137 186.18ZM349.137 186.18L349.265 191.598C349.311 193.429 349.375 195.159 349.393 196.917L349.137 196.66C353.375 196.66 357.604 196.523 361.833 196.514L374.529 196.459L374.08 196.917L374.126 186.18L374.529 186.592C372.442 186.592 370.355 186.592 368.249 186.537L361.943 186.436L349.137 186.18Z" fill="#EBEBEB"/>
<path d="M335.013 172.651L347.599 172.395L354.007 172.294C356.139 172.248 358.281 172.294 360.414 172.248H360.817V172.66L360.872 183.388V183.855H360.414L347.718 183.8C343.48 183.8 339.252 183.699 335.023 183.653H334.766V183.406C334.766 181.576 334.849 179.745 334.885 177.987L335.013 172.651ZM335.013 172.651L335.142 178.07C335.142 179.855 335.242 181.621 335.261 183.379L335.013 183.132C339.242 183.132 343.471 182.985 347.709 182.985L360.405 182.93L359.947 183.379L359.993 172.651L360.405 173.063C358.309 173.063 356.222 173.063 354.126 173.008L347.81 172.907L335.013 172.651Z" fill="#EBEBEB"/>
<path d="M66.426 35.4969L53.8401 35.7532L47.4328 35.8539C45.3 35.8997 43.1582 35.8539 41.0254 35.9088H40.6227V35.4969L40.5677 24.7692V24.3115H41.0254L53.7211 24.3664C57.9592 24.3664 62.188 24.4671 66.4169 24.5129H66.6732V24.76C66.6732 26.5907 66.5908 28.4214 66.545 30.1788L66.426 35.4969ZM66.426 35.4969L66.2979 30.0781C66.2979 28.2475 66.1972 26.5266 66.1789 24.7692L66.426 25.0163C62.1972 25.0621 57.9683 25.1628 53.7303 25.1628L41.0346 25.2269L41.4922 24.7692V35.4969L41.0803 35.085C43.1765 35.085 45.2634 35.085 47.3595 35.14L53.6754 35.2406L66.426 35.4969Z" fill="#EBEBEB"/>
<path d="M38.7097 120.321L26.1147 120.578L19.7073 120.678C17.5746 120.724 15.4327 120.678 13.2999 120.733H12.9064V120.321L12.8148 109.594V109.136H13.2725L25.9682 109.191C30.2062 109.191 34.4351 109.301 38.6731 109.346H38.9202V109.594C38.9202 111.424 38.8379 113.255 38.8012 115.012L38.7097 120.321ZM38.7097 120.321L38.5724 114.902C38.5724 113.118 38.4717 111.351 38.4534 109.594L38.7097 109.841C34.4717 109.886 30.2428 109.987 26.0048 109.996L13.3091 110.051L13.7668 109.594V120.321L13.3549 119.919C15.451 119.919 17.538 119.919 19.6341 119.919L25.9499 120.019L38.7097 120.321Z" fill="#EBEBEB"/>
<path d="M368.588 79.2775L367.801 87.8084H360.597V79.2775H368.588Z" fill="#DBDBDB"/>
<path d="M59.4797 159.488C69.8186 152.478 72.5168 138.413 65.5063 128.074C58.4958 117.735 44.4314 115.037 34.0925 122.048C23.7536 129.058 21.0554 143.123 28.0659 153.461C35.0764 163.8 49.1408 166.498 59.4797 159.488Z" fill="#EBEBEB"/>
<path d="M58.6732 140.449C57.1995 148.001 50.4352 154.088 50.4352 154.088C50.4352 154.088 41.5106 152.257 36.4031 146.546C32.1376 141.749 32.2383 135.278 36.22 132.816C41.9134 129.237 46.4626 139.617 46.4626 139.617C46.4626 139.617 45.0988 128.367 51.8356 128.541C56.5222 128.642 59.8998 134.161 58.6732 140.449Z" fill="white"/>
<path d="M359.875 121.265C361.677 114.134 357.357 106.892 350.226 105.09C343.094 103.288 335.852 107.609 334.051 114.74C332.249 121.871 336.569 129.113 343.7 130.915C350.832 132.717 358.074 128.396 359.875 121.265Z" fill="#EBEBEB"/>
<path d="M352.533 122.216C349.082 125.145 343.728 125.456 343.728 125.456C343.728 125.456 340.286 121.346 340.066 116.825C339.865 113.053 342.29 110.115 345.036 110.417C348.972 110.866 347.252 117.31 347.252 117.31C347.252 117.31 350.757 111.635 353.787 114.198C355.892 115.992 355.416 119.772 352.533 122.216Z" fill="white"/>
<path d="M112.687 68.7603C111.081 71.2825 108.717 73.2314 105.934 74.3276C103.152 75.4238 100.094 75.611 97.199 74.8623C94.3037 74.1137 91.7198 72.4676 89.8176 70.1602C87.9154 67.8527 86.7926 65.0022 86.61 62.0173C86.4275 59.0324 87.1946 56.0664 88.8014 53.5443C90.4083 51.0222 92.7724 49.0736 95.5548 47.9777C98.3372 46.8819 101.395 46.695 104.29 47.444C107.185 48.1929 109.769 49.8392 111.671 52.1469C113.579 54.451 114.706 57.3018 114.889 60.2879C115.071 63.274 114.3 66.2408 112.687 68.7603Z" fill="#EBEBEB"/>
<path d="M103.918 57.8311C104.29 58.5988 104.425 59.4593 104.307 60.3038C104.189 61.1484 103.823 61.939 103.256 62.5757C102.689 63.2125 101.946 63.6667 101.12 63.881C100.295 64.0953 99.4248 64.06 98.6195 63.7796C97.8142 63.4992 97.1101 62.9863 96.5963 62.3058C96.0825 61.6252 95.7821 60.8076 95.733 59.9563C95.6839 59.105 95.8883 58.2583 96.3205 57.5232C96.7526 56.7881 97.3931 56.1976 98.1608 55.8265C99.1901 55.329 100.375 55.2607 101.455 55.6366C102.534 56.0125 103.421 56.8019 103.918 57.8311Z" fill="white"/>
<path d="M111.909 67.1584L112.687 68.7603C111.274 70.9776 109.27 72.757 106.901 73.8985C104.533 75.04 101.892 75.4986 99.2775 75.2225L98.5086 73.6299C97.6492 71.8528 97.531 69.8072 98.1799 67.943C98.8287 66.0788 100.192 64.5487 101.969 63.6893C103.746 62.8299 105.791 62.7116 107.655 63.3605C109.52 64.0094 111.05 65.3722 111.909 67.1493V67.1584Z" fill="white"/>
<path d="M323.553 249.475H354.272L371.856 161.832L343.727 148.907L323.553 249.475Z" fill="#DBDBDB"/>
<path d="M235.635 249.475H323.553L343.727 148.907H255.809L235.635 249.475Z" fill="#EBEBEB"/>
<path d="M339.325 299.05H386.4V202.454H339.325V299.05Z" fill="#DBDBDB"/>
<path d="M213.036 299.05H225.896L245.063 202.454H213.036V299.05Z" fill="#DBDBDB"/>
<path d="M313.457 299.05H339.325V202.454H313.457V299.05Z" fill="#EBEBEB"/>
<path d="M187.177 299.05H213.045V202.454H187.177V299.05Z" fill="#EBEBEB"/>
<path d="M213.036 299.05H313.457V249.484H213.036V299.05Z" fill="#EBEBEB"/>
<path d="M213.036 249.686H313.457V228.056H213.036V249.686Z" fill="#EBEBEB"/>
<path d="M332.981 202.454L323.224 202.28L313.457 202.152H313.164V202.454L313.045 213.759V225.063C313.045 232.596 312.99 240.13 313.045 247.672C313.1 255.214 313.045 262.739 313.174 270.281C313.302 277.823 313.338 285.347 313.503 292.89C313.662 285.347 313.772 277.811 313.833 270.281C313.924 262.739 313.933 255.205 313.961 247.672C313.988 240.139 313.961 232.596 313.961 225.063L313.915 213.759L313.75 202.454L313.457 202.747L323.224 202.628L332.981 202.454Z" fill="#DBDBDB"/>
<path d="M213.036 202.454C212.834 210.015 212.743 217.585 212.66 225.146L212.551 247.837L212.66 270.528L212.798 281.878L213.036 293.219L213.274 281.878L213.411 270.528L213.521 247.837L213.411 225.146C213.338 217.585 213.274 210.015 213.036 202.454Z" fill="#DBDBDB"/>
<path d="M213.036 249.475C221.402 249.676 229.777 249.777 238.143 249.85L263.251 249.969L288.35 249.85L300.908 249.713L313.457 249.475L300.908 249.237L288.331 249.136L263.233 249.027L238.125 249.146C229.75 249.182 221.402 249.274 213.036 249.475Z" fill="#DBDBDB"/>
<path d="M213.036 228.084C221.402 228.285 229.777 228.386 238.143 228.459L263.251 228.569L288.35 228.459L300.908 228.322L313.457 228.084L300.908 227.846L288.331 227.672L263.233 227.562L238.125 227.672C229.75 227.754 221.402 227.846 213.036 228.084Z" fill="#DBDBDB"/>
<path d="M368.515 299.05L369.146 306.876L370.638 324.954H377.449L378.941 306.876L379.572 299.05H368.515Z" fill="#C7C7C7"/>
<path d="M379.572 299.05H368.515L369.146 306.876H378.941L379.572 299.05Z" fill="#A6A6A6"/>
<path d="M320.862 299.05L321.494 306.876L322.986 324.954H329.796L331.288 306.876L331.92 299.05H320.862Z" fill="#C7C7C7"/>
<path d="M331.92 299.05H320.862L321.494 306.876H331.288L331.92 299.05Z" fill="#A6A6A6"/>
<path d="M241.823 299.05L242.455 306.876L243.947 324.954H250.757L252.249 306.876L252.88 299.05H241.823Z" fill="#C7C7C7"/>
<path d="M252.88 299.05H241.823L242.455 306.876H252.249L252.88 299.05Z" fill="#A6A6A6"/>
<path d="M194.161 299.05L194.793 306.876L196.285 324.954H203.095L204.587 306.876L205.219 299.05H194.161Z" fill="#C7C7C7"/>
<path d="M194.161 299.05L194.793 306.876H204.587L205.219 299.05H194.161Z" fill="#A6A6A6"/>
</svg>
