<svg width="429" height="334" viewBox="0 0 429 334" fill="none" xmlns="http://www.w3.org/2000/svg">
<path d="M268.068 22.1328L298.014 22.1328V12.5035L268.068 12.5035V22.1328Z" fill="#EBEBEB"/>
<path d="M284.767 0.361419C289.758 0.275367 302.342 0.0516316 307.168 0H314.713H315.076V0.395841V10.0251V10.4554H314.682L299.701 10.3952C295.971 10.3952 288.457 10.2747 284.72 10.2144H284.61V10.0251L284.783 0.395841L284.767 0.361419ZM284.767 0.361419L284.949 9.99071L284.767 9.79279C288.505 9.74116 296.011 9.6551 299.748 9.62068L314.729 9.56044L314.335 9.99071L314.374 0.361419L314.729 0.757264H307.309C302.579 0.705633 289.695 0.490501 284.783 0.404448L284.767 0.361419Z" fill="#EBEBEB"/>
<path d="M251.352 0.361419C256.343 0.275367 268.935 0.0516316 273.752 0H281.306H281.661V0.395841V10.0251V10.4554H281.266L266.286 10.3952C262.556 10.3952 255.034 10.2747 251.305 10.2144H251.124V10.0251L251.297 0.395841L251.352 0.361419ZM251.352 0.361419L251.534 9.99071L251.352 9.79279C255.09 9.74116 262.596 9.6551 266.333 9.62068L281.314 9.56044L280.92 9.99071V0.361419L281.282 0.757264H273.855C269.124 0.705633 256.241 0.490501 251.329 0.404448L251.352 0.361419Z" fill="#EBEBEB"/>
<path d="M13.237 0.361419C18.22 0.275367 30.8118 0.0516316 35.6293 0H43.1827H43.5454V0.395841V10.0251V10.4554H43.1512L28.1704 10.3952C24.441 10.3952 16.927 10.2747 13.1896 10.2144H13.0083V10.0251L13.1896 0.395841L13.237 0.361419ZM13.237 0.361419L13.3789 9.99071L13.2054 9.79279C16.9427 9.74116 24.441 9.6551 28.1862 9.62068L43.167 9.56044L42.7727 9.99071V0.361419L43.1354 0.757264H35.7081C30.9773 0.705633 18.0939 0.490501 13.1896 0.404448L13.237 0.361419Z" fill="#EBEBEB"/>
<path d="M29.9441 229.15H59.8899V219.52H29.9441V229.15Z" fill="#EBEBEB"/>
<path d="M13.237 207.387C18.22 207.301 30.8118 207.077 35.6293 207.025H43.1827H43.5454V207.421V217.051V217.481H43.1512L28.1704 217.421C24.441 217.421 16.927 217.3 13.1896 217.24H13.0083V217.051L13.1896 207.421L13.237 207.387ZM13.237 207.387L13.3789 217.016L13.2054 216.818C16.9427 216.767 24.441 216.68 28.1862 216.646L43.167 216.586L42.7727 217.016V207.387L43.1354 207.783L35.7081 207.74C30.9773 207.688 18.0939 207.473 13.1896 207.387H13.237Z" fill="#EBEBEB"/>
<path d="M284.767 219.512C289.758 219.426 302.342 219.211 307.168 219.159H314.713H315.076V219.555V229.184V229.623H314.682L299.701 229.563C295.971 229.563 288.457 229.442 284.72 229.391H284.61V229.193L284.783 219.564L284.767 219.512ZM284.767 219.512L284.949 229.141L284.767 228.952C288.505 228.892 296.011 228.806 299.748 228.771L314.729 228.72L314.335 229.141L314.374 219.512L314.729 219.908H307.309C302.579 219.856 289.695 219.632 284.783 219.546L284.767 219.512Z" fill="#EBEBEB"/>
<path d="M78.5608 100.346H108.507V90.7169H78.5608V100.346Z" fill="#EBEBEB"/>
<path d="M213.782 145.962H183.836V155.592H213.782V145.962Z" fill="#EBEBEB"/>
<path d="M197.09 167.734C192.099 167.82 179.515 168.044 174.69 168.096H167.144H166.782V167.7V158.07V157.64H167.129L182.109 157.7C185.831 157.7 193.353 157.821 197.09 157.881H197.272V158.07L197.09 167.734ZM197.09 167.734L196.909 158.105L197.09 158.303C193.353 158.354 185.847 158.44 182.109 158.475L167.129 158.535L167.515 158.105V167.734L167.129 167.355H174.548C179.279 167.407 192.162 167.622 197.074 167.708L197.09 167.734Z" fill="#EBEBEB"/>
<path d="M207.624 56.356H92.8242V61.7342H207.624V56.356Z" fill="#EBEBEB"/>
<path d="M109.516 82.9114H105.045L103.248 61.7339H109.516V82.9114Z" fill="#EBEBEB"/>
<path d="M190.933 82.9114H195.403L197.193 61.7339H190.933V82.9114Z" fill="#EBEBEB"/>
<path d="M103.248 61.7339H109.508V69.0312H103.863L103.248 61.7339Z" fill="#DBDBDB"/>
<path d="M197.193 61.7339L196.578 69.0312H190.933V61.7339H197.193Z" fill="#DBDBDB"/>
<path d="M125.987 27.6053C121.453 34.3088 116.722 42.0966 115.571 50.5039C115.571 50.633 115.745 50.676 115.768 50.5469C116.29 48.254 116.962 46.0051 117.779 43.8176C120.759 42.9571 123.685 42.1826 125.254 38.947C126.823 35.7115 126.649 31.297 126.342 27.6742C126.326 27.4848 126.081 27.4762 125.987 27.6053Z" fill="#EBEBEB"/>
<path d="M119.34 42.0103C120.558 41.2488 121.721 40.3857 122.817 39.4287C122.817 39.4287 122.896 39.4287 122.865 39.4287C121.799 40.4302 120.632 41.2963 119.387 42.0103C119.332 42.1308 119.277 42.0447 119.34 42.0103Z" fill="#A6A6A6"/>
<path d="M115.09 50.4262C115.096 50.4454 115.107 50.4623 115.122 50.4742C115.137 50.4862 115.155 50.4926 115.173 50.4926C115.192 50.4926 115.21 50.4862 115.224 50.4742C115.239 50.4623 115.25 50.4454 115.256 50.4262C115.256 47.6553 115.256 44.8758 115.295 42.0963C115.942 40.6592 117.337 39.8675 118.307 38.723C119.007 37.885 119.616 36.9609 120.121 35.9693C121.281 33.6004 121.985 30.9967 122.186 28.3193C122.455 25.3591 121.398 15.5835 120.278 15.9191C119.687 16.0998 117.771 20.9359 117.259 22.5365C116.433 25.1792 115.829 27.8981 115.453 30.6599C114.639 37.2117 114.517 43.844 115.09 50.4262V50.4262Z" fill="#EBEBEB"/>
<path d="M115.09 38.4825C115.329 34.9616 115.844 31.4695 116.628 28.0443C117.214 24.4033 118.324 20.8863 119.916 17.6233C119.916 17.5631 120.026 17.6233 120.002 17.6749C118.85 20.2158 117.959 22.8883 117.345 25.6434C117.456 25.4455 117.598 25.2562 117.716 25.0755C117.834 24.8948 117.874 25.0755 117.826 25.1443C117.678 25.4522 117.498 25.7409 117.29 26.0048C116.699 28.5864 116.273 31.2971 115.902 33.9647L115.989 33.8614C115.989 33.8614 116.036 33.8614 115.989 33.8614C115.942 33.8614 115.895 34.0422 115.847 34.1282C115.666 35.4792 115.492 36.8389 115.319 38.1727C117.588 36.1889 119.364 33.6146 120.483 30.6861C120.483 30.6861 120.483 30.6861 120.483 30.6861C119.537 33.8046 117.71 36.5159 115.264 38.4308L115.122 39.5151C115.122 39.5839 115.004 39.5667 115.004 39.5151C115.004 39.1967 115.004 38.8697 115.004 38.5513C115.003 38.5396 115.005 38.5279 115.009 38.5173C115.014 38.5066 115.021 38.4974 115.029 38.4905C115.038 38.4836 115.048 38.4793 115.059 38.4779C115.07 38.4765 115.08 38.478 115.09 38.4825V38.4825Z" fill="#A6A6A6"/>
<path d="M116.092 33.4059C117.824 30.7316 119.336 27.8951 120.61 24.9297C120.61 24.9297 120.673 24.9297 120.665 24.9297C119.656 28.0417 118.139 30.9282 116.186 33.4489C116.139 33.5263 116.06 33.4575 116.092 33.4059Z" fill="#A6A6A6"/>
<path d="M113.829 43.3271C113.798 45.1654 113.6 46.9959 113.237 48.7914C113.237 48.9894 113.293 49.1787 113.316 49.3852C113.832 47.4028 114.131 45.3605 114.207 43.3013C114.225 43.2736 114.235 43.2405 114.235 43.2066C114.235 43.1727 114.225 43.1396 114.207 43.112V43.112C114.281 40.3503 114.093 37.5877 113.647 34.8681C112.859 29.7738 111.148 24.8946 107.892 21.0997C107.865 21.075 107.833 21.0574 107.799 21.0482C107.765 21.0391 107.729 21.0386 107.695 21.047C107.66 21.0553 107.628 21.0721 107.601 21.0962C107.574 21.1203 107.552 21.1509 107.537 21.1857C106.22 24.8258 106.677 29.1714 107.797 32.8029C108.403 34.7534 109.266 36.5971 110.36 38.2758C111.503 39.9969 112.922 41.4598 113.829 43.3271Z" fill="#EBEBEB"/>
<path d="M108.286 22.7868C111.507 28.3157 113.405 34.6388 113.805 41.1762C113.805 41.2881 113.64 41.3225 113.624 41.1762C113.545 40.5997 113.466 40.0231 113.379 39.4552C112.038 38.1631 110.861 36.6814 109.879 35.0493C109.879 35.0493 109.879 34.989 109.926 35.0493C110.984 36.4676 112.119 37.8153 113.324 39.0852C113.104 37.6567 112.835 36.254 112.536 34.8686L112.291 34.5588C112.236 34.4899 112.291 34.3867 112.386 34.4555L112.457 34.5502C112.035 32.6556 111.508 30.7905 110.88 28.9654C110.024 28.0172 109.273 26.9631 108.641 25.8244H108.688C109.145 26.5301 109.587 27.2357 110.107 27.8897C110.32 28.1565 110.549 28.3974 110.762 28.647C110.048 26.6702 109.205 24.752 108.239 22.9073C108.12 22.7868 108.239 22.7007 108.286 22.7868Z" fill="#A6A6A6"/>
<path d="M108.909 29.5164C109.902 30.9793 111.038 32.3733 111.968 33.8878C111.968 33.8878 111.968 33.9739 111.905 33.9481C110.723 32.6284 109.696 31.1544 108.846 29.5594C108.783 29.5164 108.877 29.4733 108.909 29.5164Z" fill="#A6A6A6"/>
<path d="M112.11 34.2313H112.149L112.102 34.2817L112.063 34.2313C112.063 34.2313 112.079 34.1976 112.11 34.2313Z" fill="#A6A6A6"/>
<path d="M102.979 31.8996C103.342 34.9503 104.469 37.8327 106.236 40.2295C106.961 41.1701 107.858 41.9351 108.869 42.4755C110.013 43.0951 111.235 43.8007 112.394 44.3084C112.953 45.872 113.371 47.4918 113.639 49.1446C113.679 48.9983 113.718 48.852 113.75 48.7143C112.961 41.5978 108.775 35.5224 103.382 31.6157C103.339 31.5844 103.29 31.5675 103.238 31.5669C103.187 31.5663 103.137 31.5822 103.094 31.6125C103.052 31.6427 103.018 31.6861 102.997 31.7372C102.977 31.7882 102.971 31.8447 102.979 31.8996Z" fill="#EBEBEB"/>
<path d="M120.381 56.3554H109.28L109.824 48.4041L110.036 45.814H119.53L119.742 48.4041L120.381 56.3554Z" fill="#DBDBDB"/>
<path d="M119.742 48.4041H109.823L110.036 45.814H119.529L119.742 48.4041Z" fill="#C7C7C7"/>
<path d="M120.278 43.689H109.271V46.348H120.278V43.689Z" fill="#DBDBDB"/>
<path d="M156.469 56.3299V20.1792H148.127V56.3299H156.469Z" fill="#C7C7C7"/>
<path d="M156.469 22.2188V18.2432H148.127V22.2188H156.469Z" fill="#DBDBDB"/>
<path d="M156.469 28.7762V27.3047H148.127V28.7762H156.469Z" fill="#DBDBDB"/>
<path d="M156.469 51.5884V47.6128H148.127V51.5884H156.469Z" fill="#DBDBDB"/>
<path d="M162.296 56.3302V14.1558H156.469V56.3302H162.296Z" fill="#DBDBDB"/>
<path d="M161.105 34.3435V18.1226H157.604V34.3435H161.105Z" fill="#EBEBEB"/>
<path d="M203.807 51.7692L176.326 22.1196L172.229 26.6421L199.711 56.2917L203.807 51.7692Z" fill="#C7C7C7"/>
<path d="M196.552 45.7006L185.982 34.2969L183.521 37.0141L194.091 48.4177L196.552 45.7006Z" fill="#DBDBDB"/>
<path d="M172.191 56.3387V24.3013H162.288V56.3387H172.191Z" fill="#A6A6A6"/>
<path d="M172.191 52.9392V49.9531H162.288V52.9392H172.191Z" fill="#C7C7C7"/>
<path d="M172.199 48.0001V46.8384H162.296V48.0001H172.199Z" fill="#C7C7C7"/>
<path d="M137.3 56.3567L148.178 28.6958L141.897 25.7531L131.018 53.414L137.3 56.3567Z" fill="#A6A6A6"/>
<path d="M138.451 53.4241L139.465 50.8462L133.183 47.9035L132.17 50.4814L138.451 53.4241Z" fill="#C7C7C7"/>
<path d="M144.903 36.9634L145.918 34.3857L139.636 31.4418L138.622 34.0195L144.903 36.9634Z" fill="#C7C7C7"/>
<path d="M143.817 39.7131L144.209 38.7168L137.928 35.7729L137.536 36.7692L143.817 39.7131Z" fill="#C7C7C7"/>
<path d="M229 333.588C293.064 333.107 364.936 333.099 429 333.588C364.936 334.077 293.064 334.069 229 333.588V333.588Z" fill="#263238"/>
<path d="M280.135 333.312C282.122 333.998 339.191 334.431 341.375 333.067C342.203 332.555 342.755 324.252 343.133 314.192C343.212 312.023 343.283 309.784 343.346 307.506L345.972 277.063L307.826 276.661L306.249 307.088L306.367 313.79C306.367 313.79 284.44 323.393 282.209 325.143C279.977 326.894 278.148 332.634 280.135 333.312Z" fill="#AD6359"/>
<path d="M280.135 333.312C282.122 333.998 339.191 334.432 341.375 333.068C342.384 332.445 342.952 320.31 343.346 307.506L306.225 307.111L306.343 313.813C306.343 313.813 284.416 323.417 282.185 325.167C279.954 326.918 278.148 332.634 280.135 333.312Z" fill="white"/>
<path d="M280.135 333.312C282.122 333.998 339.191 334.432 341.375 333.067C342.202 332.555 342.754 324.252 343.133 314.192L306.383 313.813C306.383 313.813 284.455 323.417 282.224 325.167C279.993 326.917 278.148 332.634 280.135 333.312Z" fill="#263238"/>
<path d="M280.971 331.041C290.543 330.876 329.146 331.12 338.615 331.688C338.686 331.688 338.686 331.743 338.615 331.751C329.154 332.121 290.519 331.554 280.971 331.191C280.766 331.183 280.774 331.041 280.971 331.041Z" fill="#FFC727"/>
<path d="M302.622 314.736C306.454 314.736 310.885 316.092 313.235 319.246C313.329 319.364 313.156 319.49 313.037 319.435C309.704 317.651 306.188 316.232 302.551 315.201C302.494 315.186 302.445 315.151 302.413 315.102C302.381 315.053 302.368 314.994 302.377 314.936C302.385 314.879 302.415 314.826 302.461 314.789C302.506 314.752 302.563 314.733 302.622 314.736V314.736Z" fill="#FFC727"/>
<path d="M299.657 315.863C303.489 315.863 307.92 317.227 310.27 320.373C310.364 320.492 310.191 320.626 310.073 320.563C306.74 318.786 303.227 317.369 299.594 316.336C299.542 316.317 299.498 316.281 299.469 316.233C299.44 316.186 299.428 316.13 299.436 316.075C299.443 316.019 299.469 315.968 299.509 315.93C299.55 315.892 299.602 315.868 299.657 315.863Z" fill="#FFC727"/>
<path d="M296.693 316.991C300.524 316.991 304.956 318.355 307.305 321.501C307.4 321.627 307.226 321.753 307.108 321.69C303.775 319.913 300.262 318.496 296.629 317.464C296.577 317.445 296.533 317.408 296.504 317.361C296.475 317.313 296.464 317.257 296.471 317.202C296.478 317.147 296.504 317.096 296.545 317.057C296.585 317.019 296.637 316.995 296.693 316.991V316.991Z" fill="#FFC727"/>
<path d="M398.128 137.616C398.128 137.616 352.784 215.91 351.924 221.264C350.6 229.495 345.909 305.913 345.909 305.913L304.861 304.975C304.861 304.975 309.166 240.731 315.245 216.99C319.621 199.888 355.22 141.873 355.22 141.873L398.128 137.616Z" fill="#37474F"/>
<path d="M307.629 297.129C313.897 297.129 336.108 297.129 344.442 298.036C344.505 298.036 344.497 298.154 344.442 298.162C341.572 298.572 313.897 297.594 307.629 297.31C307.609 297.305 307.592 297.293 307.58 297.276C307.568 297.26 307.561 297.24 307.561 297.22C307.561 297.199 307.568 297.18 307.58 297.163C307.592 297.147 307.609 297.135 307.629 297.129V297.129Z" fill="#263238"/>
<path d="M339.262 293.976C340.988 269.983 342.692 241.811 345.073 217.96C351.317 204.777 358.879 192.264 365.92 179.499C370.816 170.826 380.829 153.48 385.852 144.877L366.456 179.798C360.022 191.452 353.462 203.058 347.359 214.869C346.689 216.359 345.703 217.684 345.617 219.356C343.527 242.749 341.375 270.535 339.262 293.976V293.976Z" fill="#263238"/>
<path d="M363.538 333.99C365.643 333.99 421.238 315.627 422.886 313.648C422.958 313.526 422.996 313.387 422.996 313.245C423.107 311.385 419.787 304.62 417.217 295.899C417.051 295.339 415.821 292.706 414.11 289.158C409.379 279.405 401.022 262.681 401.022 262.681L364.729 274.382L380.001 300.859L382.233 307.166C382.233 307.166 364.492 323.235 362.923 325.601C361.354 327.966 361.441 333.974 363.538 333.99Z" fill="#AD6359"/>
<path d="M363.538 333.99C365.644 333.99 421.238 315.627 422.886 313.648C422.958 313.526 422.996 313.387 422.996 313.246C423.107 311.385 419.787 304.62 417.217 295.9C417.051 295.34 415.821 292.706 414.11 289.158L379.978 300.891L382.209 307.198C382.209 307.198 364.469 323.267 362.9 325.632C361.331 327.998 361.441 333.974 363.538 333.99Z" fill="white"/>
<path d="M363.546 333.982C365.644 333.982 421.238 315.627 422.886 313.64C423.509 312.891 421.577 305.337 417.217 295.868L382.209 307.174C382.209 307.174 364.469 323.243 362.9 325.609C361.331 327.974 361.441 333.966 363.546 333.982Z" fill="#263238"/>
<path d="M363.617 331.562C372.637 328.368 409.348 316.36 418.486 313.892C418.557 313.892 418.573 313.892 418.486 313.947C409.671 317.275 372.85 329.023 363.664 331.711C363.467 331.767 363.428 331.632 363.617 331.562Z" fill="#FFC727"/>
<path d="M378.976 309.232C382.595 307.994 387.24 307.9 390.472 310.139C390.598 310.226 390.472 310.399 390.346 310.383C386.618 309.753 382.833 309.523 379.055 309.697C378.996 309.703 378.936 309.686 378.889 309.65C378.841 309.613 378.81 309.56 378.8 309.501C378.79 309.442 378.802 309.382 378.835 309.332C378.868 309.282 378.918 309.246 378.976 309.232V309.232Z" fill="#FFC727"/>
<path d="M376.556 311.243C380.175 310.005 384.819 309.91 388.052 312.15C388.178 312.236 388.052 312.418 387.926 312.394C384.197 311.764 380.412 311.534 376.635 311.708C376.575 311.714 376.516 311.697 376.468 311.66C376.421 311.624 376.389 311.571 376.379 311.512C376.369 311.453 376.382 311.393 376.415 311.343C376.447 311.293 376.498 311.257 376.556 311.243V311.243Z" fill="#FFC727"/>
<path d="M374.072 313.254C377.691 312.016 382.335 311.921 385.568 314.16C385.694 314.247 385.568 314.428 385.442 314.405C381.727 313.776 377.954 313.549 374.191 313.727C374.13 313.737 374.067 313.725 374.015 313.691C373.963 313.657 373.926 313.605 373.911 313.545C373.896 313.485 373.904 313.422 373.934 313.368C373.964 313.314 374.014 313.273 374.072 313.254V313.254Z" fill="#FFC727"/>
<path d="M374.001 299.093L413.156 285.026C413.156 285.026 383.077 219.3 383.069 213.907C383.069 209.121 407.747 165.85 408.851 157.926C410.665 144.964 403.718 133.902 397.237 127.176L355.22 141.857C355.22 141.857 359.084 149.04 365.62 153.33C365.62 153.33 341.517 199.849 341.73 214.648C341.942 229.448 374.001 299.093 374.001 299.093Z" fill="#37474F"/>
<path d="M372.416 290.585C378.306 288.496 376.587 289.008 382.501 286.99C385.395 286.004 404.42 279.523 407.282 279.105C407.345 279.105 407.377 279.2 407.282 279.231C404.72 280.572 385.584 286.722 382.674 287.652C376.721 289.56 378.409 288.945 372.424 290.806C372.395 290.807 372.367 290.796 372.345 290.776C372.324 290.756 372.311 290.729 372.31 290.7C372.309 290.67 372.32 290.642 372.34 290.62C372.36 290.599 372.387 290.586 372.416 290.585Z" fill="#263238"/>
<path d="M358.957 152.029C363.146 153.296 367.219 154.918 371.131 156.878C371.151 156.881 371.17 156.888 371.186 156.9C371.203 156.911 371.216 156.926 371.226 156.943C371.236 156.961 371.242 156.98 371.244 157C371.245 157.02 371.242 157.04 371.235 157.058C371.228 157.077 371.217 157.094 371.202 157.108C371.188 157.121 371.17 157.132 371.151 157.138C371.132 157.144 371.112 157.146 371.092 157.143C371.072 157.14 371.053 157.133 371.037 157.122C366.937 155.632 362.766 154.213 358.752 152.502C358.699 152.469 358.658 152.418 358.639 152.358C358.62 152.298 358.624 152.233 358.649 152.176C358.674 152.118 358.719 152.071 358.775 152.044C358.832 152.017 358.897 152.012 358.957 152.029V152.029Z" fill="#263238"/>
<path d="M363.94 150.665C364.297 151.393 364.6 152.147 364.847 152.92C365.106 153.512 365.248 154.15 365.265 154.796C365.265 154.914 365.092 154.93 365.021 154.851C364.62 154.306 364.311 153.698 364.106 153.054C363.798 152.36 363.483 151.666 363.199 150.964C362.978 150.491 363.696 150.215 363.94 150.665Z" fill="#263238"/>
<path d="M363.672 146.785C363.46 146.139 363.247 145.5 363.026 144.854C362.805 144.207 362.521 143.537 362.34 142.859C362.34 142.749 362.143 142.812 362.174 142.922C362.387 143.569 362.505 144.247 362.663 144.909C362.821 145.571 362.986 146.234 363.16 146.896C363.483 148.126 363.893 149.348 364.335 150.546C363.661 150.535 362.999 150.373 362.395 150.073C361.796 149.635 361.35 149.02 361.118 148.315C360.802 147.59 360.519 146.849 360.195 146.131C359.796 145.345 359.469 144.524 359.218 143.679C359.218 143.576 359.02 143.632 359.052 143.742C359.493 145.526 360.111 147.261 360.897 148.922C361.236 149.577 361.496 150.247 362.174 150.539C362.919 150.794 363.707 150.899 364.492 150.846C364.587 150.846 364.721 150.846 364.69 150.704C364.406 149.395 364.082 148.063 363.672 146.785Z" fill="#263238"/>
<path d="M364.887 154.851C363.436 157.887 361.733 160.82 360.156 163.8C358.579 166.781 357.191 169.667 355.788 172.631C352.939 178.634 350.347 184.747 348.014 190.971C346.862 194.046 345.774 197.152 344.781 200.283C343.71 203.406 342.864 206.602 342.25 209.847C341.706 213.111 341.509 214.617 342.005 217.897C342.731 222.691 349.575 244.082 353.233 250.815C353.351 251.036 353.73 250.815 353.627 250.602C350.978 244.373 342.053 220.585 342.723 213.876C343.26 210.015 344.111 206.204 345.27 202.482C346.224 199.329 347.28 196.175 348.424 193.06C350.655 186.926 353.217 180.934 355.835 174.926C357.302 171.575 358.863 168.271 360.345 164.936C361.827 161.601 363.302 158.147 365.013 154.883C365.084 154.851 364.926 154.765 364.887 154.851Z" fill="#263238"/>
<path d="M395.629 146.675C394.84 146.588 393.736 146.927 390.37 146.904C389.439 146.883 388.511 146.791 387.594 146.628C386.663 146.541 385.764 146.238 384.969 145.745C383.69 144.673 382.621 143.374 381.815 141.913C380.818 140.412 380.023 138.787 379.45 137.08C379.45 136.977 379.268 137.04 379.292 137.143C379.528 138.112 379.686 139.082 380.009 140.036C380.32 140.933 380.702 141.803 381.153 142.638C381.941 144.215 382.903 145.871 384.417 146.872C385.931 147.874 388.115 148 389.936 148.016C391 148.016 395.148 147.653 395.668 147.03C395.802 146.92 395.779 146.691 395.629 146.675Z" fill="#263238"/>
<path d="M403.364 276.929C398.16 265.481 386.861 234.739 381.436 224.181C380.143 221.65 378.622 219.111 377.857 216.36C377.029 213.371 377.794 210.572 378.905 207.773C380.983 202.648 383.353 197.647 386.002 192.792C388.619 187.904 391.403 183.118 394.154 178.3C396.906 173.483 399.752 168.752 401.913 163.69C403.979 158.857 404.98 153.771 403.986 148.544C402.993 143.316 400.43 138.609 397.718 134.139C397.009 132.964 396.275 131.773 395.558 130.622C395.503 130.528 395.369 130.622 395.424 130.717C398.428 135.377 401.329 140.297 402.922 145.65C403.737 148.294 404.11 151.054 404.026 153.819C403.842 156.611 403.211 159.355 402.157 161.948C400.21 167.025 397.363 171.764 394.683 176.471C392.002 181.178 389.163 186.075 386.49 190.94C383.782 195.817 381.332 200.833 379.15 205.968C378.196 208.262 377.139 210.651 377.029 213.174C376.903 215.926 378.054 218.496 379.26 220.901C384.527 231.396 402.354 275.778 403.088 277.063C403.182 277.26 403.403 277.103 403.364 276.929Z" fill="#263238"/>
<path d="M338.497 84.0159C330.849 103.278 325.613 118.077 327.301 123.266C331.306 135.581 338.339 132.656 339.348 132.041C346.445 127.823 349.914 98.9257 349.685 84.1184C349.488 70.8802 342.573 73.7344 338.497 84.0159Z" fill="#FFC727"/>
<path opacity="0.1" d="M335.288 132.703C336.677 132.927 338.102 132.695 339.349 132.041C346.445 127.823 349.914 98.9257 349.685 84.1184C349.606 78.7805 348.44 76.0603 346.8 75.3901L335.288 132.703Z" fill="black"/>
<path d="M403.285 132.38C403.206 132.562 348.534 152.376 347.848 152.005C346.902 151.485 338.986 94.4 343.496 79.8371C344.623 76.1944 351.514 71.6134 355.677 73.5294C367.749 78.9855 372.125 85.5455 376.509 90.6232C379.765 94.3921 384.441 101.11 388.966 108.088C396.449 119.552 403.537 131.726 403.285 132.38Z" fill="#FFC727"/>
<path d="M357.081 86.4364C355.969 97.743 356.49 110.989 356.064 126.348C355.583 143.49 356.482 160.481 356.45 164.195C356.411 168.925 380.104 158.675 379.647 155.474C379.355 153.408 377.534 137.576 375.846 123.147C374.159 108.718 369.491 94.0136 366.747 84.5126C363.578 73.4741 357.893 78.1024 357.081 86.4364Z" fill="#AD6359"/>
<path d="M356.261 156.578C356.261 156.578 356.143 158.258 356.261 166.465C356.356 172.142 360.203 185.909 375.184 191.476C380.916 193.612 384.914 190.529 379.355 187.249C375.413 184.947 372.535 183.686 371.47 182.574C371.47 182.574 378.354 181.604 380.207 178.024C381.826 174.898 383.22 171.66 384.377 168.334C383.816 167.984 383.234 167.668 382.635 167.388C382.635 167.388 383.423 159.756 379.662 155.451L356.261 156.578Z" fill="#AD6359"/>
<path d="M357.231 171.866C359.225 174.082 363.538 178.687 368.356 181.233C373.725 184.064 384.819 188.069 386.869 184.088C388.367 181.17 384.267 179.27 384.267 179.27C384.267 179.27 389.203 179.956 389.983 177.023C390.693 174.35 387.429 173.081 387.429 173.081C387.429 173.081 390.496 172.986 390.685 170.282C390.914 167.017 384.448 167.759 381.831 164.266C381.239 163.461 357.231 171.866 357.231 171.866Z" fill="#AD6359"/>
<path d="M370.398 175.068C374.445 177.86 379.248 179.35 384.165 179.341C384.291 179.341 384.346 179.239 384.235 179.215C379.48 178.384 374.844 176.975 370.43 175.021C370.43 175.021 370.374 175.052 370.398 175.068Z" fill="#263238"/>
<path d="M373.402 169.737C375.468 171.07 381.839 173.601 387.389 173.175C387.515 173.175 387.571 173.065 387.452 173.049C382.664 172.462 377.959 171.332 373.426 169.682C373.426 169.682 373.402 169.722 373.402 169.737Z" fill="#263238"/>
<path d="M354.416 156.657L381.854 153.432C381.854 153.432 378.7 127.334 377.36 118.448C376.02 109.562 369.192 89.1724 366.322 81.9107C363.452 74.649 358.382 76.8172 356.86 85.1513C355.338 93.4853 355.725 121.334 355.543 122.209C355.362 123.084 354.416 156.657 354.416 156.657Z" fill="#FFC727"/>
<path d="M367.812 149.766C365.99 149.963 364.169 150.12 362.348 150.286C361.473 150.357 360.597 150.444 359.722 150.491C358.847 150.538 357.814 150.672 356.868 150.657C356.858 150.652 356.849 150.645 356.843 150.636C356.837 150.627 356.833 150.616 356.833 150.605C356.833 150.594 356.837 150.584 356.843 150.574C356.849 150.565 356.858 150.558 356.868 150.554C357.79 150.333 358.76 150.254 359.691 150.105C360.621 149.955 361.433 149.86 362.3 149.742C364.114 149.505 365.927 149.269 367.749 149.08C371.391 148.693 375.034 148.409 378.693 148.165C378.711 148.165 378.729 148.173 378.743 148.186C378.756 148.199 378.764 148.217 378.764 148.236C378.764 148.255 378.756 148.273 378.743 148.286C378.729 148.299 378.711 148.307 378.693 148.307C375.074 148.851 371.454 149.332 367.812 149.766Z" fill="#263238"/>
<path d="M381.72 152.328C381.216 146.186 378.204 119.741 376.58 112.464C374.67 105.247 372.367 98.1404 369.681 91.1753C371.486 97.5224 374.411 106.337 375.988 112.629C377.684 119.899 381.72 152.328 381.72 152.328Z" fill="#263238"/>
<path d="M372.613 99.7613C372.696 97.9221 372.491 96.0813 372.006 94.3052C371.927 96.1443 372.132 97.9846 372.613 99.7613V99.7613Z" fill="#263238"/>
<path d="M354.566 151.485C355.197 145.469 355.922 128.619 355.875 121.31C355.875 114.119 355.875 98.7286 355.93 97.6562C355.591 104.161 355.291 114.947 355.252 121.373C355.212 128.69 354.566 151.485 354.566 151.485Z" fill="#263238"/>
<path d="M354.905 100.101C355.294 101.742 355.579 103.406 355.756 105.084C355.051 103.523 354.758 101.807 354.905 100.101Z" fill="#263238"/>
<path d="M348.676 88.1556C348.676 88.1556 355.662 78.1106 361.291 77.2433L366.811 80.5312C366.811 80.5312 368.459 80.7441 368.75 79.6718C369.476 77.0146 368.585 71.0933 362.805 68.2391C357.507 65.6293 348.14 68.1602 342.132 71.0381C336.368 73.7977 333.703 78.0081 336.321 81.6193C338.938 85.2304 348.676 88.1556 348.676 88.1556Z" fill="#FFC727"/>
<path opacity="0.1" d="M347.714 86.4127C347.714 86.4127 339.829 82.77 338.512 79.9552C337.196 77.1404 342.597 73.1902 346.2 71.3609C351.774 68.5225 355.867 68.1361 359.777 70.6513C363.688 73.1665 347.714 86.4127 347.714 86.4127Z" fill="black"/>
<path d="M349.11 86.3185C351.373 85.5301 354.4 79.6482 354.865 75.4535C354.865 75.1697 353.517 72.8437 351.98 69.9343C351.049 68.1681 350.064 66.1891 349.283 64.3047L338.71 72.0631C340.35 74.1336 341.73 76.3977 342.818 78.8045C342.922 79.0589 343.002 79.323 343.054 79.593C343.048 79.6374 343.048 79.6825 343.054 79.727C343.441 81.2724 345.577 87.4933 349.11 86.3185Z" fill="#AD6359"/>
<path d="M344.308 79.2775C343.905 79.4544 343.488 79.5994 343.062 79.7111C343.068 79.6667 343.068 79.6215 343.062 79.5771C343.01 79.3069 342.931 79.0427 342.826 78.7886C341.732 76.3876 340.35 74.1291 338.71 72.063L348.542 64.9038C349.291 68.1207 350.6 76.5178 344.308 79.2775Z" fill="#263238"/>
<path d="M345.869 49.1976C348.628 53.0374 350.544 66.1653 348.439 69.9499C345.38 75.4692 338.284 78.2603 333.096 74.1051C328.065 70.084 325.858 52.927 328.412 49.2765C332.173 43.8597 341.8 43.497 345.869 49.1976Z" fill="#AD6359"/>
<path d="M328.31 59.7548C328.539 59.5426 328.781 59.3451 329.035 59.1634C329.256 58.9173 329.553 58.7533 329.879 58.6983C329.985 58.6974 330.088 58.733 330.171 58.799C330.255 58.8649 330.313 58.9574 330.336 59.0609C330.357 59.2717 330.32 59.484 330.23 59.6755C330.139 59.8671 329.999 60.0307 329.824 60.149C329.507 60.446 329.091 60.6146 328.657 60.6221C328.558 60.6178 328.463 60.5851 328.383 60.5281C328.302 60.471 328.24 60.392 328.203 60.3004C328.167 60.2089 328.157 60.1087 328.176 60.0119C328.195 59.9151 328.241 59.8259 328.31 59.7548V59.7548Z" fill="#263238"/>
<path d="M337.519 57.9889C337.219 57.901 336.914 57.8325 336.605 57.7839C336.293 57.6775 335.954 57.6775 335.643 57.7839C335.548 57.8335 335.473 57.9131 335.429 58.0101C335.384 58.1072 335.374 58.2162 335.398 58.32C335.476 58.5169 335.606 58.689 335.774 58.8181C335.942 58.9471 336.142 59.0284 336.352 59.0533C336.768 59.1779 337.216 59.1413 337.606 58.9508C337.702 58.9065 337.782 58.8336 337.835 58.742C337.888 58.6504 337.912 58.5446 337.902 58.4392C337.893 58.3338 337.851 58.2339 337.782 58.1533C337.714 58.0726 337.622 58.0152 337.519 57.9889V57.9889Z" fill="#263238"/>
<path d="M340.082 68.2701C339.956 68.5461 339.861 68.9088 339.561 69.0586C339.241 69.1759 338.9 69.2268 338.56 69.2084C338.56 69.2084 338.513 69.2478 338.56 69.2636C338.752 69.3774 338.971 69.4374 339.195 69.4374C339.418 69.4374 339.637 69.3774 339.829 69.2636C339.986 69.1488 340.105 68.99 340.171 68.8075C340.237 68.625 340.247 68.4269 340.2 68.2386C340.168 68.2228 340.097 68.2307 340.082 68.2701Z" fill="#263238"/>
<path d="M337.677 67.0559C336.513 67.0888 335.368 67.357 334.31 67.8444C334.208 67.8444 333.955 67.8444 333.916 67.7419L333.53 65.8496C333.309 66.0309 332.189 66.8982 332.126 66.5356C331.484 63.4783 331.157 60.3635 331.148 57.2396C331.154 57.2219 331.165 57.2065 331.18 57.1956C331.195 57.1846 331.213 57.1787 331.231 57.1787C331.25 57.1787 331.268 57.1846 331.283 57.1956C331.297 57.2065 331.308 57.2219 331.314 57.2396C331.921 60.0623 332.032 62.9717 332.591 65.8181C332.988 65.4942 333.429 65.2287 333.9 65.0296C334.003 65.0296 334.208 67.0481 334.31 67.3398C335.366 66.7798 336.584 66.6042 337.756 66.8431C338.205 66.9456 338.276 67.0481 337.677 67.0559Z" fill="#263238"/>
<path d="M336.384 68.6808C335.934 68.6808 334.736 67.3167 335.375 66.9698C335.916 66.7462 336.506 66.6622 337.089 66.7256C337.671 66.789 338.229 66.9976 338.71 67.3325C339.546 68.0421 337.298 68.1209 337.023 68.3575C336.747 68.594 336.707 68.6729 336.384 68.6808Z" fill="#263238"/>
<path d="M337.015 68.3258C336.972 68.3677 336.928 68.4072 336.881 68.4441C336.824 68.2791 336.803 68.1042 336.818 67.9305C336.833 67.7568 336.884 67.5882 336.968 67.4353C337.052 67.2824 337.166 67.1488 337.305 67.0428C337.443 66.9368 337.602 66.8609 337.772 66.8198C338.115 66.9028 338.436 67.0618 338.71 67.285C339.498 68.0025 337.291 68.0735 337.015 68.3258Z" fill="#FF9ABB"/>
<path d="M336.155 60.9062C336.155 60.9062 336.234 60.9457 336.242 60.9772C336.344 61.8997 336.62 62.9326 337.488 63.1139V63.1691C336.463 63.1691 336.108 61.813 336.155 60.9062Z" fill="#263238"/>
<path d="M336.273 61.9074C336.352 62.148 336.493 62.3632 336.683 62.5303C336.793 62.6175 336.92 62.6813 337.056 62.7179C337.191 62.7545 337.333 62.7631 337.472 62.7431C337.611 62.718 337.743 62.6607 337.857 62.5758C337.97 62.491 338.063 62.3809 338.126 62.2543C338.236 62.0283 338.293 61.7802 338.292 61.5289C338.287 61.3811 338.273 61.2338 338.252 61.0874C338.207 60.7823 338.094 60.4913 337.921 60.2358C337.968 60.4535 337.992 60.6755 337.992 60.8981C337.991 61.1011 337.978 61.3039 337.953 61.5053C337.89 61.9074 337.716 62.2937 337.401 62.2937C337.086 62.2937 336.794 62.1281 336.612 61.7576C336.424 61.3717 336.276 60.9675 336.171 60.5512C336.098 61.0051 336.133 61.4697 336.273 61.9074V61.9074Z" fill="#263238"/>
<path d="M330.88 61.7183C330.88 61.7183 330.817 61.7735 330.825 61.8129C331.038 62.7117 331.125 63.7762 330.368 64.2413C330.368 64.2413 330.368 64.3044 330.368 64.2886C331.353 63.9496 331.219 62.5383 330.88 61.7183Z" fill="#263238"/>
<path d="M331.101 62.6962C331.11 62.9492 331.05 63.1999 330.928 63.4216C330.852 63.5397 330.754 63.6416 330.639 63.7215C330.524 63.8013 330.394 63.8575 330.257 63.8868C330.117 63.9093 329.973 63.8997 329.836 63.8587C329.7 63.8178 329.574 63.7465 329.469 63.6502C329.29 63.475 329.158 63.2583 329.083 63.0195C329.032 62.8808 328.993 62.7385 328.964 62.5937C328.893 62.293 328.893 61.9798 328.964 61.6791C328.996 61.8991 329.049 62.1156 329.122 62.3256C329.189 62.5156 329.271 62.7002 329.366 62.8775C329.556 63.2402 329.847 63.5241 330.155 63.4452C330.462 63.3664 330.675 63.0825 330.731 62.6568C330.774 62.2295 330.774 61.7989 330.731 61.3716C330.957 61.7775 331.084 62.2315 331.101 62.6962Z" fill="#263238"/>
<path d="M327.403 54.7167C327.577 53.4946 327.821 52.2409 328.42 51.8388C329.02 51.4367 329.895 53.4157 331.424 53.1082C333.49 52.6982 334.074 49.9544 336.944 49.3315C340.507 48.543 343.015 50.6403 344.694 56.4276C346.184 61.5605 349.33 61.4344 349.33 61.4344C349.33 61.4344 348.652 49.2921 344.418 46.3984C340.184 43.5047 332.402 43.7807 328.46 48.7244C326.97 50.5299 327.403 54.7167 327.403 54.7167Z" fill="#263238"/>
<path d="M346.642 60.1331C346.642 60.1331 348.179 55.221 350.324 55.6468C352.468 56.0725 352.192 62.5773 350.324 64.0518C350.094 64.2579 349.826 64.4154 349.534 64.5146C349.242 64.6139 348.933 64.653 348.626 64.6294C348.318 64.6058 348.019 64.5201 347.746 64.3774C347.472 64.2348 347.231 64.0381 347.036 63.7995L346.642 60.1331Z" fill="#AD6359"/>
<path d="M350.198 57.5078V57.563C348.889 58.6511 348.534 60.2911 348.439 61.9153C348.478 61.7366 348.555 61.5684 348.665 61.4226C348.775 61.2768 348.916 61.1569 349.078 61.0713C349.239 60.9856 349.417 60.9364 349.6 60.9269C349.783 60.9174 349.965 60.948 350.134 61.0165C350.182 61.0165 350.134 61.1032 350.134 61.1111C349.844 61.1092 349.561 61.1979 349.324 61.3646C349.086 61.5314 348.907 61.7679 348.81 62.0415C348.644 62.4999 348.533 62.9762 348.479 63.4607C348.479 63.6184 348.187 63.6184 348.187 63.4607C347.556 61.5053 348.171 58.3515 350.198 57.5078Z" fill="#263238"/>
<path d="M331.251 46.3669C332.588 45.0998 334.105 44.0371 335.753 43.2131C337.606 42.3221 343.874 40.7452 345.751 41.4784C347.627 42.2117 349.937 47.8413 350.253 48.6692C350.568 49.4971 351.901 54.7167 350.474 56.5538C349.046 58.3909 345.971 49.8125 342.1 47.8808C338.229 45.949 331.251 46.3669 331.251 46.3669Z" fill="#FF6E41"/>
<path opacity="0.1" d="M331.243 46.3748C331.243 46.3748 338.229 46.02 342.1 47.9518C345.971 49.8835 349.039 58.4304 350.474 56.6248C351.104 55.8364 351.262 54.8745 351.112 53.4079C349.882 51.0425 347.548 47.4393 344.529 45.4287C341.706 43.5443 337.882 43.3945 334.113 44.1987C333.096 44.8406 332.136 45.5686 331.243 46.3748V46.3748Z" fill="black"/>
<path d="M351.688 61.8521C350.749 59.605 346.342 54.2198 342.699 51.5075C339.057 48.7952 331.148 49.1421 330.155 49.5442C327.789 50.5061 327.6 51.8623 327.143 51.7677C326.686 51.6731 328.199 48.0698 328.72 47.4311C329.595 46.5464 330.656 45.8677 331.826 45.4442C332.899 45.1131 339.711 43.5677 343.023 45.5704C346.334 47.5731 352.358 54.2986 352.413 56.5142C352.413 57.0504 351.885 57.5786 351.909 58.3277C351.948 59.3133 352.106 60.4171 352.043 61.1346C352.027 61.7181 351.767 62.0492 351.688 61.8521Z" fill="#FF6E41"/>
<path d="M341.603 50.1121C342.051 49.5782 342.455 49.0086 342.81 48.409C343.176 47.807 343.47 47.1639 343.685 46.493C343.685 46.4826 343.689 46.4726 343.696 46.4652C343.704 46.4578 343.714 46.4536 343.724 46.4536C343.735 46.4536 343.745 46.4578 343.752 46.4652C343.76 46.4726 343.764 46.4826 343.764 46.493C343.641 47.2085 343.407 47.9003 343.07 48.543C342.72 49.1734 342.255 49.7324 341.698 50.1909C341.635 50.2619 341.556 50.1673 341.603 50.1121Z" fill="#263238"/>
<path d="M350.939 59.5422C350.939 59.3609 351.01 59.1717 351.033 58.9903C351.057 58.7755 351.057 58.5586 351.033 58.3438C350.95 57.9474 350.912 57.5425 350.923 57.1374C350.979 56.8117 351.074 56.494 351.207 56.1913C351.38 55.8563 351.428 55.4703 351.341 55.1032C351.341 55.0559 351.404 55.0244 351.42 55.1032C351.535 55.7876 351.475 56.4901 351.246 57.1453C351.236 57.5807 351.265 58.0161 351.333 58.4463C351.365 58.8566 351.263 59.2663 351.041 59.6132C351.03 59.6189 351.017 59.6215 351.004 59.6206C350.992 59.6197 350.979 59.6155 350.969 59.6082C350.958 59.6009 350.95 59.591 350.945 59.5794C350.94 59.5677 350.937 59.5549 350.939 59.5422V59.5422Z" fill="#263238"/>
<path d="M349.307 57.3186C349.455 56.9954 349.584 56.6637 349.693 56.3251C349.784 55.9852 349.855 55.6403 349.906 55.2923C349.953 54.9532 349.969 54.6063 350.008 54.2673C350.048 53.9282 350.158 53.4788 350.182 53.0609C350.182 53.0505 350.186 53.0404 350.193 53.033C350.201 53.0256 350.211 53.0215 350.221 53.0215C350.232 53.0215 350.242 53.0256 350.249 53.033C350.257 53.0404 350.261 53.0505 350.261 53.0609C350.261 53.4867 350.261 53.9124 350.261 54.3303C350.242 54.6954 350.2 55.0589 350.135 55.4184C350.082 55.7634 349.992 56.1018 349.866 56.4276C349.76 56.7635 349.582 57.0726 349.346 57.3344C349.346 57.3344 349.299 57.3423 349.307 57.3186Z" fill="#263238"/>
<path d="M347.722 55.3476C348.071 54.776 348.336 54.1574 348.51 53.5105C348.668 52.8797 348.794 52.241 348.912 51.6024C348.912 51.5551 348.991 51.5551 348.991 51.6024C349.003 52.2814 348.932 52.9593 348.778 53.6208C348.701 53.9402 348.587 54.2497 348.439 54.5433C348.259 54.85 348.044 55.1356 347.801 55.3949C347.801 55.3949 347.69 55.3949 347.722 55.3476Z" fill="#263238"/>
<path d="M346.082 53.4947C346.27 53.262 346.409 52.9939 346.492 52.7062C346.602 52.383 346.705 52.0518 346.799 51.7207C346.894 51.3895 346.996 51.0899 347.083 50.7745C347.197 50.4592 347.243 50.1232 347.217 49.7889C347.217 49.7785 347.221 49.7685 347.229 49.7611C347.236 49.7537 347.246 49.7495 347.257 49.7495C347.267 49.7495 347.277 49.7537 347.284 49.7611C347.292 49.7685 347.296 49.7785 347.296 49.7889C347.359 50.1144 347.359 50.449 347.296 50.7745C347.254 51.1404 347.18 51.5018 347.075 51.8547C346.972 52.2007 346.848 52.5403 346.705 52.8718C346.596 53.1861 346.395 53.4606 346.129 53.6603C346.107 53.6666 346.084 53.6639 346.064 53.6528C346.044 53.6417 346.029 53.6231 346.023 53.6011C346.016 53.5792 346.019 53.5556 346.03 53.5357C346.041 53.5157 346.06 53.501 346.082 53.4947Z" fill="#263238"/>
<path d="M344.513 50.9794C344.655 50.7034 344.797 50.4196 344.915 50.1279C345.033 49.8361 345.144 49.5444 345.246 49.2448C345.349 48.9452 345.467 48.6219 345.554 48.3065C345.554 48.2961 345.558 48.286 345.565 48.2786C345.572 48.2712 345.583 48.2671 345.593 48.2671C345.603 48.2671 345.613 48.2712 345.621 48.2786C345.628 48.286 345.632 48.2961 345.632 48.3065C345.609 48.6354 345.561 48.9622 345.49 49.2842C345.326 49.9142 345.082 50.5209 344.765 51.0898C344.629 51.387 344.436 51.6548 344.197 51.8782C344.188 51.8848 344.178 51.8885 344.167 51.8889C344.156 51.8892 344.145 51.8862 344.135 51.8803C344.126 51.8743 344.118 51.8656 344.114 51.8554C344.11 51.8452 344.109 51.8339 344.111 51.8231C344.214 51.5282 344.349 51.2454 344.513 50.9794V50.9794Z" fill="#263238"/>
<path d="M339.404 49.3949C339.526 49.035 339.668 48.6823 339.829 48.3383C339.998 47.9858 340.188 47.6436 340.397 47.3133C340.792 46.6645 341.257 46.0616 341.785 45.5156C341.785 45.5156 341.872 45.5156 341.848 45.5156C341.059 46.8166 340.271 48.0781 339.483 49.387L339.404 49.3949Z" fill="#263238"/>
<path d="M337.346 47.8886C337.485 47.5326 337.665 47.194 337.882 46.8794C338.342 46.2381 338.871 45.6486 339.459 45.1211C339.459 45.1211 339.553 45.1211 339.522 45.1763C339.057 45.7755 338.576 46.359 338.15 46.9819C337.934 47.2892 337.734 47.6077 337.551 47.9359C337.377 48.2671 337.275 48.6219 337.109 48.9609H337.054C337.081 48.588 337.18 48.2238 337.346 47.8886Z" fill="#263238"/>
<path d="M335.13 47.6206C335.252 47.2762 335.411 46.9458 335.603 46.635C335.961 46.0374 336.417 45.5042 336.952 45.0581C336.991 45.0581 337.038 45.0581 337.007 45.1212C336.556 45.6537 336.155 46.2264 335.808 46.8321C335.627 47.1318 335.469 47.4393 335.304 47.7389C335.166 48.06 335.011 48.3732 334.838 48.6771C334.838 48.6771 334.791 48.6771 334.791 48.6771C334.87 48.3149 334.984 47.9611 335.13 47.6206V47.6206Z" fill="#263238"/>
<path d="M333.356 46.9425C333.53 46.6586 333.727 46.3984 333.916 46.154C334.091 45.8811 334.309 45.6387 334.563 45.4365C334.602 45.4365 334.641 45.4365 334.618 45.4917C334.271 46.0279 333.94 46.564 333.601 47.0686C333.326 47.5883 333.107 48.1353 332.946 48.7008C332.946 48.7008 332.899 48.7008 332.899 48.7008C332.87 48.0819 333.03 47.4689 333.356 46.9425V46.9425Z" fill="#263238"/>
<path d="M331.503 47.1478C331.811 46.584 332.223 46.0837 332.717 45.6733C332.757 45.6733 332.804 45.6733 332.773 45.7364C332.353 46.1868 332.002 46.697 331.732 47.2503C331.45 47.8045 331.233 48.3891 331.085 48.9928C331.085 48.9928 331.022 48.9928 331.022 48.9928C331.038 48.3488 331.202 47.7173 331.503 47.1478V47.1478Z" fill="#263238"/>
<path d="M329.579 48.9373C329.597 48.7959 329.626 48.6561 329.666 48.5194C329.735 48.2458 329.835 47.9811 329.966 47.731C330.239 47.2183 330.564 46.7349 330.935 46.2881C330.935 46.2881 331.03 46.2881 330.998 46.3354C330.649 46.7816 330.355 47.2687 330.123 47.7862C330.006 48.0409 329.908 48.3046 329.832 48.5746C329.793 48.7041 329.761 48.8358 329.737 48.9689C329.723 49.1024 329.696 49.2344 329.658 49.3631C329.658 49.3735 329.654 49.3836 329.647 49.391C329.639 49.3984 329.629 49.4025 329.619 49.4025C329.608 49.4025 329.598 49.3984 329.591 49.391C329.583 49.3836 329.579 49.3735 329.579 49.3631C329.556 49.2221 329.556 49.0783 329.579 48.9373Z" fill="#263238"/>
<path d="M328.239 49.5286C328.307 49.3018 328.391 49.0805 328.491 48.8662C328.585 48.6516 328.693 48.4435 328.815 48.2434C328.941 48.0384 329.075 47.8412 329.185 47.6284C329.191 47.619 329.201 47.6124 329.212 47.6102C329.223 47.608 329.235 47.6103 329.244 47.6165C329.254 47.6228 329.26 47.6326 329.262 47.6437C329.265 47.6547 329.262 47.6663 329.256 47.6757C329.126 47.8802 329.015 48.0967 328.925 48.3222L328.657 48.9451C328.57 49.158 328.476 49.363 328.389 49.5759C328.315 49.7938 328.228 50.0071 328.129 50.2145C328.129 50.2145 328.058 50.2145 328.066 50.2145C328.094 49.9794 328.152 49.7489 328.239 49.5286V49.5286Z" fill="#263238"/>
<path d="M347.714 86.4128C347.714 86.4128 352.374 73.4347 360.755 70.6436L361.268 77.243C361.268 77.243 356.135 78.2364 348.652 88.1553L347.714 86.4128Z" fill="#FFC727"/>
<path d="M363.602 76.9121C362.013 77.0881 360.481 77.6016 359.107 78.4181C357.723 79.1938 356.432 80.1249 355.26 81.1935C354.071 82.2507 352.954 83.386 351.916 84.5918L350.403 86.4447L348.983 88.3606L348.818 88.5814L348.581 88.5104C346.818 87.9924 345.093 87.3549 343.417 86.6023C342.572 86.2351 341.751 85.8164 340.957 85.3487C340.159 84.9002 339.409 84.3718 338.718 83.7718C340.252 84.738 341.889 85.5313 343.598 86.1372C344.442 86.4604 345.309 86.7522 346.169 87.0202C347.028 87.2883 347.903 87.5643 348.771 87.8087L348.376 87.9585L349.796 85.9795C350.292 85.3408 350.805 84.71 351.325 84.0872C351.846 83.4643 352.421 82.8808 352.989 82.3052C353.556 81.7297 354.164 81.1777 354.81 80.6731C356.056 79.6193 357.431 78.729 358.902 78.0239C359.265 77.8425 359.651 77.7006 360.03 77.5429C360.408 77.3852 360.818 77.2827 361.197 77.1881C361.977 76.9634 362.79 76.8701 363.602 76.9121Z" fill="#263238"/>
<path d="M366.787 80.531C365.8 80.1061 364.844 79.6134 363.925 79.0566C363 78.5115 362.112 77.9057 361.268 77.2432C362.254 77.6683 363.211 78.1609 364.13 78.7176C365.055 79.2618 365.943 79.8677 366.787 80.531V80.531Z" fill="#263238"/>
<path d="M351.057 84.2212C352.305 86.706 353.337 89.2938 354.14 91.956C354.716 93.8089 355.914 100.7 353.777 101.055C351.641 101.41 353.777 96.127 353.352 92.4291C352.926 88.7312 351.254 86.421 350.521 84.3395L351.057 84.2212Z" fill="#FFC727"/>
<g opacity="0.1">
<path opacity="0.1" d="M351.057 84.2207C352.305 86.7055 353.337 89.2933 354.14 91.9555C354.716 93.8084 355.914 100.7 353.777 101.054C351.641 101.409 353.777 96.1265 353.352 92.4286C352.926 88.7307 351.254 86.4205 350.521 84.339L351.057 84.2207Z" fill="black"/>
</g>
<path d="M344.489 85.4668C343.751 87.8819 343.223 90.3564 342.912 92.8626C342.691 94.6051 342.691 100.952 344.663 100.929C346.634 100.905 343.874 96.521 343.693 93.1543C343.512 89.7876 344.631 87.4616 344.962 85.4904L344.489 85.4668Z" fill="#FFC727"/>
<g opacity="0.1">
<path opacity="0.1" d="M344.489 85.4668C343.751 87.8819 343.223 90.3564 342.912 92.8626C342.691 94.6051 342.691 100.952 344.663 100.929C346.634 100.905 343.874 96.521 343.693 93.1543C343.512 89.7876 344.631 87.4616 344.962 85.4904L344.489 85.4668Z" fill="black"/>
</g>
<path d="M339.12 128.761C340.807 122.706 339.459 107.907 334.491 87.4066C333.703 84.0557 312.604 85.4985 313.093 89.1491C313.708 93.7537 319.984 118.701 320.394 119.962C323.855 130.638 338 132.775 339.12 128.761Z" fill="#AD6359"/>
<path d="M314.362 92.7916C314.362 92.7916 310.814 84.7492 310.254 79.9475C309.805 74.9408 310.579 69.8998 312.509 65.2585C314.567 60.2439 323.027 49.5365 326.536 51.4367C329.69 53.1477 320.512 63.6579 320.512 63.6579C320.512 63.6579 328.121 51.3973 331.55 54.1963C334.98 56.9954 323.626 68.5542 323.626 68.5542C323.626 68.5542 331.724 56.136 334.823 59.55C337.188 62.1362 327.458 73.214 327.458 73.214C327.458 73.214 334.491 62.5856 337.015 65.1402C339.806 67.9629 331.495 78.749 331.495 78.749C336.817 86.3183 336.226 92.0977 335.359 96.1662C335.154 97.1281 314.362 92.7916 314.362 92.7916Z" fill="#AD6359"/>
<path d="M317.611 67.7262C318.454 66.2518 319.29 64.7616 320.26 63.366C321.23 61.9704 322.255 60.6143 323.343 59.3212C324.733 57.5965 326.321 56.0405 328.073 54.6851C325.14 57.3185 321.592 62.2543 320.622 63.6499C319.653 65.0454 318.612 66.378 317.642 67.7656C317.634 67.8051 317.587 67.7656 317.611 67.7262Z" fill="#263238"/>
<path d="M322.57 71.3221C323.729 69.485 324.809 67.6242 326.047 65.8028C327.285 63.9815 328.602 62.4519 329.95 60.7646C330.06 60.6384 330.092 60.7646 329.997 60.875C328.712 62.6096 327.632 64.3127 326.402 66.063C325.172 67.8134 323.808 69.5244 322.617 71.3142C322.594 71.3773 322.554 71.3457 322.57 71.3221Z" fill="#263238"/>
<path d="M326.284 75.1697C327.986 72.3136 329.981 69.6421 332.236 67.1984C332.339 67.0722 332.371 67.1984 332.236 67.3403C330.21 69.9501 328.602 71.9922 326.347 75.2249C326.347 75.2801 326.244 75.217 326.284 75.1697Z" fill="#263238"/>
<path d="M331.503 78.7254C333.614 75.9165 335.385 72.8676 336.778 69.6423C337.188 68.4675 337.622 67.1665 337.259 65.9523C337.227 65.767 337.151 65.5923 337.036 65.4434C336.921 65.2946 336.772 65.1761 336.601 65.0983C336.43 65.0205 336.242 64.9858 336.054 64.9973C335.867 65.0087 335.685 65.0659 335.524 65.1638C333.877 66.0154 332.426 67.6869 330.873 68.7829L332.039 67.135C333.104 65.4713 335.982 61.4502 334.61 59.613C333.159 58.2963 331.566 59.8653 330.439 60.8746L329.075 62.0494C330.407 60.1334 332.134 57.9888 332.118 55.5603C331.882 53.1319 329.367 53.6365 327.916 54.7719C328.623 54.1329 329.52 53.7425 330.47 53.6602C334.145 54.1963 331.732 58.9902 330.47 60.843L330.147 60.5513C331.409 59.2898 333.246 57.6813 334.973 59.2346C336.778 61.324 333.735 65.629 332.497 67.4819L332.103 67.0798C333.069 66.1599 334.147 65.3652 335.312 64.7144C335.539 64.5938 335.791 64.5243 336.048 64.5107C336.305 64.497 336.563 64.5397 336.802 64.6355C337.212 64.9089 337.532 65.297 337.723 65.7513C337.914 66.2056 337.966 66.7061 337.874 67.1902C337.086 71.5977 334.145 75.2561 331.503 78.7254V78.7254Z" fill="#263238"/>
<path d="M312.312 96.9233L339.624 95.4883C339.624 95.4883 343.969 124.031 341.154 129.786C337.882 136.449 323.453 133.902 319.274 119.647L312.312 96.9233Z" fill="#FFC727"/>
<path d="M315.379 103.294C326.93 103.869 337.062 102.655 339.207 102.608C339.309 102.608 339.293 102.442 339.207 102.45C337.101 102.608 325.093 102.45 315.379 103.12C315.253 103.128 315.269 103.286 315.379 103.294Z" fill="#263238"/>
<path d="M342.061 122.745C341.816 119.181 341.595 115.649 341.312 112.061C341.028 108.474 340.649 104.965 340.216 101.425C339.971 99.4697 339.624 97.6641 339.333 95.7166C338.3 95.6378 337.693 95.7166 336.439 95.6535C336.281 95.6535 336.289 95.2751 336.439 95.2751C337.811 95.2751 339.837 94.9833 339.853 95.078C340.476 98.5945 340.878 102.403 341.264 105.951C341.651 109.499 341.927 113.11 342.053 116.698C342.132 118.716 342.14 120.727 342.092 122.745C342.116 122.777 342.061 122.777 342.061 122.745Z" fill="#263238"/>
<path d="M27.9173 8.32275H27.2561V122.744H27.9173V8.32275Z" fill="#DBDBDB"/>
<path d="M28.9226 8.32249C28.9226 8.58405 28.845 8.83974 28.6997 9.05722C28.5544 9.27471 28.3478 9.44421 28.1062 9.54431C27.8645 9.6444 27.5986 9.67059 27.3421 9.61956C27.0855 9.56854 26.8499 9.44258 26.6649 9.25763C26.48 9.07267 26.354 8.83703 26.303 8.58049C26.252 8.32395 26.2782 8.05805 26.3783 7.81639C26.4784 7.57474 26.6479 7.3682 26.8653 7.22288C27.0828 7.07756 27.3385 7 27.6001 7C27.9508 7 28.2872 7.13933 28.5352 7.38735C28.7832 7.63536 28.9226 7.97174 28.9226 8.32249Z" fill="#A6A6A6"/>
<path d="M45.4669 125.647L27.8712 90.5946L9.87218 124.973L9.29028 124.669L27.8845 89.1465L46.0621 125.35L45.4669 125.647Z" fill="#DBDBDB"/>
<path d="M29.4383 89.8736C29.4383 90.1848 29.346 90.4891 29.1731 90.7479C29.0001 91.0067 28.7544 91.2084 28.4668 91.3275C28.1792 91.4466 27.8628 91.4778 27.5575 91.4171C27.2522 91.3564 26.9718 91.2065 26.7517 90.9864C26.5316 90.7663 26.3817 90.4859 26.321 90.1806C26.2603 89.8753 26.2915 89.5589 26.4106 89.2713C26.5297 88.9837 26.7314 88.738 26.9902 88.565C27.249 88.3921 27.5533 88.2998 27.8645 88.2998C28.2819 88.2998 28.6822 88.4656 28.9774 88.7607C29.2725 89.0559 29.4383 89.4562 29.4383 89.8736V89.8736Z" fill="#A6A6A6"/>
<path d="M45.6985 124.82L45.0703 134.752L43.5693 158.392H11.7635L10.2691 134.752L9.63428 124.82H45.6985Z" fill="#FFC727"/>
<path opacity="0.1" d="M45.6985 124.82L45.0703 134.752H10.2691L9.63428 124.82H45.6985Z" fill="black"/>
<path d="M47.8806 121.64H7.45215V129.35H47.8806V121.64Z" fill="#FFC727"/>
<path d="M0.965193 127.28C-0.244884 125.574 4.41027 123.974 6.91639 125.35C6.95606 125.35 2.66459 129.674 0.965193 127.28Z" fill="#455A64"/>
<path d="M6.83045 125.462C6.12386 125.881 5.3718 126.218 4.58883 126.467C3.81257 126.743 2.99868 126.899 2.17529 126.93L4.48965 126.163C5.2633 125.918 6.03035 125.667 6.83045 125.462Z" fill="#263238"/>
<path d="M0.667576 138.508C-1.31616 137.847 1.48091 133.787 4.3507 133.423C4.3507 133.423 3.45803 139.434 0.667576 138.508Z" fill="#455A64"/>
<path d="M4.31102 133.602C3.99032 134.358 3.58433 135.074 3.10095 135.738C2.635 136.419 2.06874 137.025 1.42139 137.536L2.84306 135.553C3.32577 134.872 3.79525 134.21 4.31102 133.602Z" fill="#263238"/>
<path d="M10.368 140.102C9.9514 142.145 5.58058 139.851 4.87305 137.047C4.87305 137.047 10.9234 137.219 10.368 140.102Z" fill="#455A64"/>
<path d="M5.03198 137.054C5.82024 137.288 6.58072 137.607 7.30005 138.006C8.03149 138.384 8.70053 138.873 9.28378 139.454L7.14135 138.284C6.43382 137.893 5.71968 137.503 5.03198 137.054Z" fill="#263238"/>
<path d="M13.7403 147.56C13.3237 149.604 8.95289 147.309 8.24536 144.505C8.27842 144.505 14.3222 144.677 13.7403 147.56Z" fill="#455A64"/>
<path d="M8.4043 144.512C9.19276 144.743 9.95338 145.06 10.6724 145.458C11.4026 145.841 12.0713 146.331 12.6561 146.913L10.5137 145.742C9.80613 145.352 9.09199 144.962 8.4043 144.512Z" fill="#263238"/>
<path d="M17.3245 156.699C16.9079 158.742 12.5371 156.448 11.8296 153.644C11.8296 153.644 17.913 153.816 17.3245 156.699Z" fill="#455A64"/>
<path d="M11.988 153.65C12.7676 153.885 13.5193 154.205 14.2297 154.603C14.9633 154.991 15.6325 155.491 16.2134 156.084L14.0776 154.913C13.3899 154.49 12.6823 154.1 11.988 153.65Z" fill="#263238"/>
<path d="M13.7933 167.213C11.9286 168.158 11.016 163.305 12.775 161.01C12.775 161.01 16.4184 165.884 13.7933 167.213Z" fill="#455A64"/>
<path d="M12.8674 161.143C13.1729 161.903 13.3946 162.695 13.5287 163.503C13.6839 164.314 13.7174 165.143 13.6279 165.963L13.2113 163.556C13.079 162.756 12.9402 161.963 12.8674 161.143Z" fill="#263238"/>
<path d="M0.727094 166.975C-0.211872 165.11 4.63504 164.198 6.92956 165.957C6.95601 165.957 2.06281 169.593 0.727094 166.975Z" fill="#455A64"/>
<path d="M6.80411 166.049C6.04129 166.354 5.24756 166.576 4.43686 166.71C3.62865 166.865 2.80175 166.899 1.98364 166.809L4.38396 166.393C5.18406 166.26 5.98416 166.122 6.80411 166.049Z" fill="#263238"/>
<path d="M7.12153 135.433C5.35601 136.544 4.00707 131.796 5.54777 129.35C5.54777 129.35 9.6012 133.873 7.12153 135.433Z" fill="#455A64"/>
<path d="M5.63354 129.469C6.01035 130.198 6.30317 130.968 6.50639 131.763C6.73726 132.555 6.84432 133.378 6.82379 134.203L6.20222 131.849C6.01707 131.062 5.80547 130.295 5.63354 129.469Z" fill="#263238"/>
<path d="M9.70681 129.886C7.93468 130.997 6.58574 126.249 8.12644 123.802C8.12644 123.802 12.1997 128.312 9.70681 129.886Z" fill="#455A64"/>
<path d="M8.23218 123.921C8.60933 124.651 8.90429 125.42 9.11163 126.215C9.33926 127.008 9.44626 127.831 9.42903 128.655L8.80085 126.328C8.59586 125.514 8.38426 124.734 8.23218 123.921Z" fill="#263238"/>
<path d="M11.8757 126.328C10.0375 126.864 10.0375 122.361 12.0146 120.569C12.0146 120.575 14.4678 125.588 11.8757 126.328Z" fill="#455A64"/>
<path d="M12.0808 120.708C12.2268 121.445 12.2911 122.197 12.2725 122.949C12.2764 123.707 12.1626 124.461 11.9353 125.184L11.9816 122.949C11.9948 122.202 12.008 121.461 12.0808 120.708Z" fill="#263238"/>
<path d="M3.79512 119.392C4.0001 117.315 8.58252 119.134 9.581 121.851C9.60084 121.851 3.51739 122.321 3.79512 119.392Z" fill="#455A64"/>
<path d="M9.42259 121.858C8.61387 121.714 7.82412 121.479 7.06855 121.157C6.31308 120.85 5.60684 120.433 4.97241 119.92L7.22064 120.859C7.9414 121.177 8.68861 121.481 9.42259 121.858Z" fill="#263238"/>
<path d="M5.50773 146.364C3.524 146.926 3.524 141.993 5.72594 140.082C5.72594 140.082 8.34447 145.577 5.50773 146.364Z" fill="#455A64"/>
<path d="M5.79212 140.214C5.94514 141.02 6.00944 141.841 5.98388 142.661C5.97691 143.485 5.84538 144.303 5.59375 145.088L5.65987 142.654C5.68632 141.854 5.70616 141.048 5.79212 140.214Z" fill="#263238"/>
<path d="M9.35636 154.516C7.37263 155.078 7.37263 150.146 9.57458 148.241C9.60103 148.241 12.1865 153.73 9.35636 154.516Z" fill="#455A64"/>
<path d="M9.63392 148.38C9.79015 149.188 9.85447 150.011 9.82568 150.834C9.8182 151.658 9.68669 152.476 9.43555 153.26L9.50167 150.82C9.52812 150.014 9.54796 149.2 9.63392 148.38Z" fill="#263238"/>
<path d="M9.006 161.665C7.02227 161.149 9.49532 156.904 12.3122 156.335C12.3321 156.335 11.856 162.399 9.006 161.665Z" fill="#455A64"/>
<path d="M12.3187 156.494C12.0462 157.276 11.6892 158.025 11.2541 158.729C10.8384 159.441 10.3166 160.085 9.70679 160.64L10.983 158.557C11.4128 157.85 11.8294 157.162 12.3187 156.494Z" fill="#263238"/>
<path d="M3.77551 163.014C3.94082 160.931 8.5563 162.67 9.60107 165.368C9.60107 165.341 3.54407 165.943 3.77551 163.014Z" fill="#455A64"/>
<path d="M9.4423 165.381C8.6316 165.247 7.83786 165.025 7.07505 164.72C6.30562 164.429 5.58361 164.026 4.93262 163.523L7.19407 164.422C7.94789 164.72 8.70171 165.017 9.4423 165.381Z" fill="#263238"/>
<path d="M10.798 116.264C11.9552 114.525 15.1424 118.294 14.7654 121.164C14.739 121.164 9.17132 118.717 10.798 116.264Z" fill="#455A64"/>
<path d="M14.5999 121.097C13.9556 120.586 13.3701 120.005 12.8542 119.365C12.3093 118.74 11.8633 118.035 11.5317 117.275L13.0791 119.16C13.6147 119.795 14.1238 120.416 14.5999 121.097Z" fill="#263238"/>
<path d="M15.5522 121.64C14.0049 120.853 11.9418 120.086 10.4276 121.276C9.946 121.642 9.50289 122.057 9.10511 122.512C6.14935 126.136 3.93418 131.175 4.85992 135.883C6.84366 142.965 11.4195 149.187 12.6692 156.514C13.5487 162.286 11.6377 167.094 4.92605 165.771C11.479 166.75 13.1387 162.273 12.1997 156.613C10.8045 149.339 6.18902 143.196 4.31109 136.055C3.3589 131.062 5.72615 126.037 8.90013 122.321C9.33222 121.869 9.80602 121.46 10.3152 121.097C11.922 119.927 14.0644 120.76 15.6051 121.666L15.5522 121.64Z" fill="#455A64"/>
<path d="M32.8504 115.53C34.4374 114.167 36.4806 118.664 35.3168 121.309C35.3168 121.309 30.622 117.447 32.8504 115.53Z" fill="#455A64"/>
<path d="M35.1911 121.21C34.7111 120.543 34.3075 119.825 33.9877 119.068C33.6482 118.319 33.4252 117.523 33.3264 116.707L34.2918 118.942C34.6026 119.716 34.9266 120.43 35.1911 121.21Z" fill="#263238"/>
<path d="M24.2012 117.996C24.4525 115.927 28.9886 117.864 29.9143 120.602C29.9143 120.602 23.8441 120.919 24.2012 117.996Z" fill="#455A64"/>
<path d="M29.7557 120.608C28.9642 120.435 28.1929 120.181 27.4545 119.848C26.6986 119.522 25.9946 119.088 25.365 118.558L27.5868 119.55C28.2943 119.887 29.0349 120.218 29.7557 120.608Z" fill="#263238"/>
<path d="M17.8068 126.903C16.6298 125.178 21.3114 123.597 23.8175 125.065C23.8175 125.065 19.4798 129.324 17.8068 126.903Z" fill="#455A64"/>
<path d="M23.7053 125.178C22.9917 125.584 22.2355 125.91 21.4504 126.15C20.6698 126.413 19.8538 126.555 19.0303 126.573L21.3578 125.846C22.1646 125.608 22.9052 125.363 23.7053 125.178Z" fill="#263238"/>
<path d="M16.2134 137.622C14.3619 136.656 17.7739 133.092 20.6636 133.191C20.6437 133.191 18.7989 138.984 16.2134 137.622Z" fill="#455A64"/>
<path d="M20.5975 133.337C20.1568 134.032 19.6401 134.675 19.0569 135.255C18.4888 135.853 17.8333 136.361 17.1128 136.763L18.832 135.03C19.4007 134.455 19.9694 133.88 20.5975 133.337Z" fill="#263238"/>
<path d="M17.2649 147.124C15.1952 146.84 17.212 142.336 19.9694 141.457C19.9694 141.457 20.181 147.534 17.2649 147.124Z" fill="#455A64"/>
<path d="M19.9761 141.616C19.791 142.416 19.5205 143.195 19.1694 143.937C18.8344 144.689 18.3886 145.387 17.8469 146.007L18.8586 143.798C19.2223 143.064 19.5662 142.33 19.9761 141.616Z" fill="#263238"/>
<path d="M20.5246 153.208C18.5408 153.757 18.5937 148.824 20.7758 146.926C20.7758 146.926 23.3613 152.428 20.5246 153.208Z" fill="#455A64"/>
<path d="M20.8423 147.071C20.9886 147.878 21.0463 148.698 21.0142 149.517C21.005 150.342 20.8712 151.16 20.6174 151.944L20.6968 149.511C20.7232 148.697 20.7497 147.891 20.8423 147.071Z" fill="#263238"/>
<path d="M29.2135 158.372C28.063 160.118 24.8691 156.388 25.2461 153.485C25.2659 153.485 30.8336 155.919 29.2135 158.372Z" fill="#455A64"/>
<path d="M25.4045 153.551C26.0487 154.06 26.6342 154.639 27.1502 155.277C27.6934 155.903 28.1392 156.608 28.4727 157.367L26.9254 155.482C26.3964 154.854 25.8806 154.232 25.4045 153.551Z" fill="#263238"/>
<path d="M29.5836 125.845C27.547 125.402 29.8878 121.058 32.6981 120.383C32.6981 120.377 32.46 126.46 29.5836 125.845Z" fill="#455A64"/>
<path d="M32.6915 120.542C32.4514 121.327 32.1254 122.083 31.7194 122.797C31.3303 123.528 30.8332 124.197 30.2449 124.781L31.4351 122.651C31.8385 121.937 32.2352 121.23 32.6915 120.542Z" fill="#263238"/>
<path d="M26.8263 129.052C24.8822 129.806 24.4458 124.893 26.4229 122.784C26.4229 122.784 29.5638 127.988 26.8263 129.052Z" fill="#455A64"/>
<path d="M26.5025 122.916C26.7338 123.705 26.8779 124.516 26.9323 125.336C27.0041 126.157 26.9529 126.984 26.7802 127.789L26.6083 125.363C26.5554 124.549 26.4958 123.743 26.5025 122.916Z" fill="#263238"/>
<path d="M23.6724 134.977C21.9598 136.174 20.3662 131.505 21.7879 128.979C21.7879 128.973 26.0794 133.291 23.6724 134.977Z" fill="#455A64"/>
<path d="M21.8933 129.092C22.307 129.802 22.6397 130.556 22.8852 131.34C23.1544 132.12 23.3038 132.936 23.3282 133.76L22.581 131.439C22.3363 130.666 22.0851 129.899 21.8933 129.092Z" fill="#263238"/>
<path d="M24.1882 141.576C23.1236 143.368 19.7579 139.758 20.0158 136.881C20.0158 136.908 25.6958 139.05 24.1882 141.576Z" fill="#455A64"/>
<path d="M20.1812 136.908C20.8501 137.386 21.4624 137.938 22.0062 138.555C22.5741 139.152 23.0449 139.835 23.4014 140.578L21.7681 138.766C21.2127 138.191 20.6639 137.569 20.1812 136.908Z" fill="#263238"/>
<path d="M25.6032 147.336C25.028 149.32 20.8555 146.708 20.3728 143.851C20.3728 143.851 26.4232 144.506 25.6032 147.336Z" fill="#455A64"/>
<path d="M20.5312 143.871C21.2977 144.164 22.0295 144.541 22.7134 144.995C23.4111 145.435 24.0395 145.976 24.5781 146.602L22.5414 145.279C21.8604 144.843 21.1859 144.373 20.5312 143.871Z" fill="#263238"/>
<path d="M28.4334 151.403C28.6979 153.479 23.8047 152.725 22.2507 150.292C22.2507 150.292 28.0565 148.486 28.4334 151.403Z" fill="#455A64"/>
<path d="M22.396 150.245C23.2173 150.211 24.04 150.266 24.8492 150.411C25.6643 150.535 26.4558 150.783 27.1966 151.145L24.8095 150.728C23.9962 150.583 23.1961 150.45 22.396 150.245Z" fill="#263238"/>
<path d="M34.576 150.133C36.3614 151.211 32.7311 154.557 29.8547 154.286C29.8547 154.266 32.0831 148.592 34.576 150.133Z" fill="#455A64"/>
<path d="M29.9143 154.1C30.3944 153.433 30.9491 152.823 31.5674 152.282C32.1689 151.719 32.8536 151.253 33.5974 150.9L31.779 152.52C31.1707 153.075 30.5689 153.618 29.9143 154.1Z" fill="#263238"/>
<path d="M35.8922 121.825C32.1429 118.83 27.0646 121.428 24.4791 124.721C21.7548 128.186 20.7894 132.656 20.5116 136.994C20.1347 142.284 20.7497 152.454 27.0381 153.961C28.1022 154.232 29.2162 154.238 30.2832 153.98C31.3503 153.722 32.3382 153.207 33.1612 152.48C31.9425 153.674 30.3202 154.368 28.6149 154.425C26.9095 154.481 25.245 153.896 23.9501 152.784C19.9165 148.691 19.6256 142.376 19.8504 136.954C20.1612 132.531 21.1729 127.895 24.0625 124.391C26.8067 121.084 32.176 118.512 35.8657 121.812L35.8922 121.825Z" fill="#455A64"/>
<path d="M40.825 127.446C39.2513 129.211 36.2757 124.477 37.1816 121.323C37.1816 121.323 43.0468 124.953 40.825 127.446Z" fill="#455A64"/>
<path d="M37.3269 121.415C37.9684 122.092 38.5338 122.837 39.0131 123.637C39.515 124.425 39.8919 125.286 40.1306 126.189L38.6957 123.829C38.2262 123.022 37.7501 122.255 37.3269 121.415Z" fill="#263238"/>
<path d="M43.9856 128.312C41.7969 129.224 41.1687 123.683 43.3244 121.217C43.3244 121.23 47.0406 127.042 43.9856 128.312Z" fill="#455A64"/>
<path d="M43.417 121.382C43.707 122.268 43.8934 123.184 43.9724 124.113C44.0815 125.04 44.0481 125.979 43.8733 126.897L43.6087 124.146C43.5294 123.227 43.4368 122.314 43.417 121.382Z" fill="#263238"/>
<path d="M43.3841 134.547C41.1028 133.886 44.0453 129.158 47.2986 128.596C47.292 128.596 46.5911 135.46 43.3841 134.547Z" fill="#455A64"/>
<path d="M47.2918 128.775C46.9657 129.646 46.542 130.478 46.0288 131.255C45.5394 132.052 44.9281 132.769 44.217 133.377L45.7247 131.056C46.214 130.296 46.7099 129.515 47.2918 128.775Z" fill="#263238"/>
<path d="M40.3555 142.389C38.5569 140.849 43.2451 137.761 46.4125 138.64C46.4125 138.64 42.8814 144.565 40.3555 142.389Z" fill="#455A64"/>
<path d="M46.3199 138.792C45.6585 139.447 44.9241 140.024 44.1312 140.511C43.3489 141.026 42.4927 141.418 41.592 141.675L43.9328 140.207C44.7131 139.718 45.4934 139.228 46.3199 138.792Z" fill="#263238"/>
<path d="M36.7915 150.695C34.9929 149.154 39.6811 146.066 42.8485 146.946C42.8485 146.946 39.3175 152.877 36.7915 150.695Z" fill="#455A64"/>
<path d="M42.756 147.098C42.093 147.753 41.3588 148.332 40.5673 148.823C39.7832 149.334 38.9274 149.724 38.0281 149.981L40.3689 148.513C41.1491 148.023 41.9294 147.534 42.756 147.098Z" fill="#263238"/>
<path d="M32.8636 159.39C31.0716 157.843 35.7599 154.761 38.9272 155.641C38.9272 155.667 35.3896 161.592 32.8636 159.39Z" fill="#455A64"/>
<path d="M38.8346 155.819C38.1674 156.47 37.4313 157.047 36.6393 157.539C35.8586 158.052 35.0048 158.444 34.1067 158.702L36.4475 157.228C37.2278 156.745 38.0345 156.249 38.8346 155.819Z" fill="#263238"/>
<path d="M30.9921 170.307C28.8233 169.368 32.3874 165.057 35.6671 164.931C35.6671 164.931 34.0669 171.636 30.9921 170.307Z" fill="#455A64"/>
<path d="M35.6208 165.103C35.1802 165.924 34.6502 166.693 34.0404 167.398C33.446 168.118 32.746 168.745 31.9641 169.256L33.7627 167.159C34.3644 166.465 34.9595 165.764 35.6208 165.103Z" fill="#263238"/>
<path d="M38.5835 178.778C36.6527 180.147 34.821 174.857 36.4146 171.994C36.4146 171.994 41.3409 176.847 38.5835 178.778Z" fill="#455A64"/>
<path d="M36.54 172.119C37.0099 172.922 37.3913 173.773 37.6774 174.658C37.9871 175.542 38.161 176.467 38.1931 177.402L37.3335 174.757C37.0492 173.898 36.7582 173.025 36.54 172.119Z" fill="#263238"/>
<path d="M44.9578 116.601C46.8556 118.022 42.3855 121.388 39.1653 120.753C39.1653 120.753 42.2864 114.604 44.9578 116.601Z" fill="#455A64"/>
<path d="M39.2512 120.595C39.8701 119.899 40.5642 119.273 41.3209 118.73C42.0652 118.169 42.89 117.723 43.7675 117.408L41.5325 119.054C40.7853 119.563 40.0183 120.106 39.2512 120.595Z" fill="#263238"/>
<path d="M51.7884 127.704C51.1271 129.972 46.4124 126.91 45.9165 123.67C45.9165 123.683 52.7604 124.516 51.7884 127.704Z" fill="#455A64"/>
<path d="M46.095 123.683C46.9601 124.03 47.7831 124.473 48.5482 125.006C49.334 125.514 50.0384 126.138 50.6377 126.857L48.3432 125.31C47.5894 124.787 46.8223 124.278 46.095 123.683Z" fill="#263238"/>
<path d="M50.598 139.844C48.9449 141.543 46.1875 136.676 47.2323 133.562C47.2191 133.562 52.9124 137.457 50.598 139.844Z" fill="#455A64"/>
<path d="M47.3645 133.668C47.9757 134.371 48.5059 135.141 48.9449 135.962C49.4034 136.774 49.7377 137.65 49.9367 138.561L48.6143 136.134C48.1911 135.328 47.748 134.521 47.3645 133.668Z" fill="#263238"/>
<path d="M46.3066 150.066C44.2105 151.157 43.1062 145.669 45.0701 143.044C45.0701 143.044 49.2756 148.519 46.3066 150.066Z" fill="#455A64"/>
<path d="M45.176 143.19C45.537 144.039 45.801 144.926 45.9629 145.835C46.1501 146.75 46.1992 147.689 46.1084 148.619L45.6058 145.901C45.4471 145.022 45.3083 144.116 45.176 143.19Z" fill="#263238"/>
<path d="M42.3259 158.537C40.2298 159.628 39.1255 154.14 41.0894 151.515C41.0894 151.515 45.3081 156.99 42.3259 158.537Z" fill="#455A64"/>
<path d="M41.1953 151.66C41.5563 152.509 41.8203 153.397 41.9822 154.305C42.1704 155.221 42.2172 156.159 42.1211 157.089L41.6251 154.371C41.4598 153.492 41.2945 152.586 41.1953 151.66Z" fill="#263238"/>
<path d="M39.7208 166.3C37.8032 167.689 35.9186 162.419 37.4858 159.536C37.4858 159.536 42.4253 164.343 39.7208 166.3Z" fill="#455A64"/>
<path d="M37.6113 159.662C38.0908 160.461 38.4811 161.31 38.7751 162.194C39.0941 163.074 39.277 163.997 39.3173 164.932L38.4313 162.287C38.1403 161.44 37.8428 160.568 37.6113 159.662Z" fill="#263238"/>
<path d="M41.7707 172.615C41.2483 174.923 36.3485 172.218 35.6145 169.025C35.6145 168.992 42.5047 169.309 41.7707 172.615Z" fill="#455A64"/>
<path d="M35.7861 168.998C36.6757 169.281 37.5316 169.66 38.3385 170.129C39.1575 170.579 39.9042 171.15 40.5537 171.822L38.1534 170.446C37.3731 169.97 36.5598 169.527 35.7861 168.998Z" fill="#263238"/>
<path d="M48.7862 170.592C50.5914 172.126 45.9098 175.22 42.7358 174.354C42.7358 174.354 46.2537 168.423 48.7862 170.592Z" fill="#455A64"/>
<path d="M42.835 174.202C43.4956 173.547 44.2276 172.968 45.0171 172.476C45.7982 171.962 46.6518 171.567 47.5496 171.306L45.2154 172.787C44.4352 173.276 43.6615 173.765 42.835 174.202Z" fill="#263238"/>
<path d="M35.9846 122.36C40.4413 118.684 45.6519 120.231 46.9678 125.977C48.4226 132.18 47.1662 138.819 44.4683 144.492C41.3473 151.62 37.1021 158.504 35.8259 166.26C34.5034 174.387 42.4383 177.164 47.5167 171.359C42.3788 177.621 34.0934 174.665 35.3167 166.201C36.5003 158.325 40.7058 151.396 43.9129 144.234C46.5579 138.653 47.8803 132.18 46.5579 126.063C45.3742 120.456 40.4413 118.955 35.978 122.347L35.9846 122.36Z" fill="#455A64"/>
<path d="M41.8434 53.472L27.8713 24.6616L13.5289 52.9364L12.9404 52.6389L27.8845 23.1738L42.4385 53.1811L41.8434 53.472Z" fill="#DBDBDB"/>
<path d="M27.8776 25.3959C28.692 25.3959 29.3522 24.7357 29.3522 23.9213C29.3522 23.107 28.692 22.4468 27.8776 22.4468C27.0633 22.4468 26.4031 23.107 26.4031 23.9213C26.4031 24.7357 27.0633 25.3959 27.8776 25.3959Z" fill="#A6A6A6"/>
<path d="M42.088 52.7842L41.5854 60.7191L40.3886 79.6042H14.977L13.7867 60.7191L13.2776 52.7842H42.088Z" fill="#FFC727"/>
<path opacity="0.1" d="M42.088 52.7842L41.5854 60.7191H13.7867L13.2776 52.7842H42.088Z" fill="black"/>
<path d="M43.8335 50.2456H11.5383V56.4084H43.8335V50.2456Z" fill="#FFC727"/>
<path d="M46.6309 54.5898C47.5699 53.2673 43.9859 52.011 42.0022 53.0954C42.0022 53.0954 45.3084 56.4479 46.6309 54.5898Z" fill="#455A64"/>
<path d="M42.1079 53.1812C42.658 53.5027 43.2411 53.7642 43.847 53.9614C44.4495 54.1727 45.0802 54.2931 45.7183 54.3185L43.9263 53.7234C43.3246 53.5316 42.7295 53.3332 42.1079 53.1812Z" fill="#263238"/>
<path d="M46.8886 63.2917C48.4226 62.7825 46.2273 59.635 44.032 59.3242C44.032 59.3507 44.7197 64.0124 46.8886 63.2917Z" fill="#455A64"/>
<path d="M44.0518 59.4697C44.3006 60.0548 44.6156 60.6095 44.9907 61.1228C45.3561 61.654 45.8023 62.1248 46.3132 62.5181L45.2155 60.984C44.8254 60.4682 44.4617 59.959 44.0518 59.4697Z" fill="#263238"/>
<path d="M39.3571 64.5284C39.6811 66.1088 43.0666 64.33 43.6088 62.1611C43.6221 62.1876 38.914 62.2934 39.3571 64.5284Z" fill="#455A64"/>
<path d="M43.5032 62.187C42.8903 62.3623 42.3 62.6086 41.7443 62.921C41.1781 63.2144 40.6606 63.5936 40.2102 64.0451L41.8699 63.1392C42.4188 62.8483 42.9676 62.511 43.5032 62.187Z" fill="#263238"/>
<path d="M36.7584 70.3072C37.0824 71.8876 40.4614 70.1088 41.0102 67.9399C41.0102 67.9399 36.3022 68.0722 36.7584 70.3072Z" fill="#455A64"/>
<path d="M40.8909 67.9468C40.278 68.1221 39.6877 68.3684 39.132 68.6808C38.5647 68.9725 38.047 69.3519 37.5979 69.8049L39.251 68.899C39.7998 68.5948 40.3553 68.2906 40.8909 67.9468Z" fill="#263238"/>
<path d="M33.9811 77.3958C34.2985 78.9762 37.6841 77.204 38.2329 75.0285C38.2329 75.0219 33.5248 75.1542 33.9811 77.3958Z" fill="#455A64"/>
<path d="M38.114 75.0288C37.5017 75.2058 36.9116 75.452 36.3551 75.7628C35.7868 76.0528 35.2688 76.4324 34.821 76.8869L36.4742 75.981C37.023 75.6768 37.5784 75.4123 38.114 75.0288Z" fill="#263238"/>
<path d="M36.712 85.5359C38.1601 86.2633 38.8677 82.5074 37.5055 80.7287C37.5055 80.7022 34.682 84.5044 36.712 85.5359Z" fill="#455A64"/>
<path d="M37.4328 80.8276C37.1928 81.4169 37.0198 82.0313 36.9171 82.6593C36.7971 83.2868 36.7726 83.9288 36.8443 84.5637L37.1617 82.7056C37.2675 82.084 37.3733 81.4624 37.4328 80.8276Z" fill="#263238"/>
<path d="M46.8358 85.331C47.5698 83.8828 43.8139 83.1753 42.0352 84.5375C42.0352 84.5573 45.8042 87.3808 46.8358 85.331Z" fill="#455A64"/>
<path d="M42.1343 84.6299C42.7233 84.8708 43.3378 85.0438 43.9659 85.1457C44.5912 85.2657 45.2311 85.2903 45.8637 85.2184L44.0056 84.901C43.384 84.7952 42.7691 84.6696 42.1343 84.6299Z" fill="#263238"/>
<path d="M41.883 60.911C43.2518 61.7706 44.2965 58.0941 43.0997 56.1963C43.0997 56.1963 39.9522 59.7009 41.883 60.911Z" fill="#455A64"/>
<path d="M43.0202 56.2891C42.7341 56.8554 42.5123 57.4521 42.359 58.0678C42.1797 58.6818 42.095 59.3195 42.1077 59.959L42.597 58.1339C42.7425 57.5587 42.9078 56.8974 43.0202 56.2891Z" fill="#263238"/>
<path d="M39.8794 56.6131C41.2548 57.4727 42.2995 53.7896 41.1027 51.8984C41.1027 51.8984 37.9485 55.403 39.8794 56.6131Z" fill="#455A64"/>
<path d="M41.0234 51.9912C40.7374 52.5576 40.5156 53.1543 40.3622 53.77C40.1847 54.3819 40.1022 55.0175 40.1175 55.6545L40.6002 53.8295C40.7391 53.2211 40.9044 52.6194 41.0234 51.9912Z" fill="#263238"/>
<path d="M38.1996 53.8623C39.6279 54.2723 39.6213 50.7677 38.0872 49.3989C38.0872 49.3989 36.1895 53.2804 38.1996 53.8623Z" fill="#455A64"/>
<path d="M38.0344 49.498C37.9245 50.071 37.8735 50.6538 37.8823 51.2371C37.884 51.8224 37.9731 52.4041 38.1468 52.963L38.1138 51.2305C38.1071 50.6552 38.1005 50.0799 38.0344 49.498Z" fill="#263238"/>
<path d="M44.4617 48.4798C44.3031 46.8664 40.7522 48.2815 39.9785 50.3842C39.9785 50.3842 44.6469 50.7479 44.4617 48.4798Z" fill="#455A64"/>
<path d="M40.0977 50.3912C40.725 50.2789 41.3374 50.0947 41.9227 49.8423C42.5171 49.6113 43.0724 49.2901 43.5692 48.8901L41.8301 49.6175C41.2482 49.8622 40.6796 50.1002 40.0977 50.3912Z" fill="#263238"/>
<path d="M43.1327 69.3748C44.6866 69.8112 44.647 65.9892 42.9608 64.5146C42.9608 64.5146 40.9374 68.7995 43.1327 69.3748Z" fill="#455A64"/>
<path d="M42.9144 64.6206C42.7936 65.2456 42.7447 65.8823 42.769 66.5184C42.772 67.158 42.8724 67.7935 43.0665 68.4029L43.0136 66.5118C42.9938 65.8836 42.9806 65.2554 42.9144 64.6206Z" fill="#263238"/>
<path d="M40.157 75.6963C41.711 76.1328 41.6713 72.3042 39.9851 70.8296C40.0182 70.8296 37.9551 75.0814 40.157 75.6963Z" fill="#455A64"/>
<path d="M39.9322 70.9424C39.8145 71.5678 39.7658 72.2041 39.7867 72.8401C39.7914 73.478 39.894 74.1113 40.0909 74.7181L40.0181 72.8335C40.0181 72.2054 40.0181 71.5772 39.9322 70.9424Z" fill="#263238"/>
<path d="M40.4216 81.2378C41.9888 80.8344 40.0447 77.5414 37.8494 77.105C37.8494 77.105 38.213 81.7998 40.4216 81.2378Z" fill="#455A64"/>
<path d="M37.856 77.2236C38.0672 77.8243 38.3421 78.4007 38.6759 78.9429C38.9998 79.4946 39.4056 79.9941 39.8794 80.4241L38.8875 78.8106C38.5569 78.2816 38.2329 77.746 37.856 77.2236Z" fill="#263238"/>
<path d="M44.475 82.2758C44.3494 80.6624 40.772 82.0179 39.9653 84.1008C39.9653 84.1008 44.6469 84.5505 44.475 82.2758Z" fill="#455A64"/>
<path d="M40.0842 84.1144C40.7126 84.0134 41.3272 83.8403 41.9159 83.5986C42.5154 83.3771 43.0774 83.0649 43.5822 82.6729L41.8233 83.3473C41.2414 83.6052 40.6793 83.8366 40.0842 84.1144Z" fill="#263238"/>
<path d="M39.033 46.0532C38.1403 44.7307 35.6672 47.6269 35.978 49.8487C35.978 49.8487 40.2959 47.9575 39.033 46.0532Z" fill="#455A64"/>
<path d="M36.0903 49.7956C36.5779 49.4041 37.0214 48.9607 37.4128 48.4731C37.8278 47.987 38.1667 47.4407 38.4179 46.853L37.2475 48.3012C36.8508 48.7905 36.454 49.2732 36.0903 49.7956Z" fill="#263238"/>
<path d="M35.3496 50.2189C36.5134 49.5048 38.193 48.8435 39.4361 49.756C39.8375 50.0327 40.2097 50.3495 40.547 50.7016C43.0267 53.5912 44.8847 57.486 44.1442 61.3873C42.696 66.9219 39.1187 71.6895 38.021 77.3101C37.2408 81.628 38.5434 85.1392 43.5755 84.3986C38.3847 85.5029 36.8374 81.7536 37.5185 77.2307C38.4707 71.5506 42.0348 66.7236 43.5556 61.2418C44.2962 57.4265 42.4117 53.2011 39.8328 50.4107C38.6294 49.0221 36.7911 49.4386 35.3496 50.2189V50.2189Z" fill="#455A64"/>
<path d="M29.8348 46.9785C29.1736 45.4973 26.2443 47.9373 26.1583 50.1723C26.1319 50.1657 30.7606 49.0615 29.8348 46.9785Z" fill="#455A64"/>
<path d="M26.2776 50.1396C26.8385 49.8374 27.3642 49.4736 27.8447 49.0552C28.3371 48.6504 28.7651 48.1733 29.1143 47.6401L27.686 48.8701C27.2099 49.28 26.7272 49.6834 26.2776 50.1396Z" fill="#263238"/>
<path d="M35.0259 51.6077C35.5549 50.0736 31.7197 49.8885 30.1592 51.4821C30.1592 51.5019 34.2853 53.7832 35.0259 51.6077Z" fill="#455A64"/>
<path d="M30.2715 51.5613C30.8882 51.7168 31.5202 51.8032 32.156 51.8192C32.8 51.8428 33.4439 51.7715 34.067 51.6076L32.1759 51.5415C31.5345 51.5547 30.9063 51.5349 30.2715 51.5613Z" fill="#263238"/>
<path d="M36.4674 59.9922C37.8693 59.1987 35.145 56.5273 32.8967 56.686C32.8967 56.6794 34.4837 61.1163 36.4674 59.9922Z" fill="#455A64"/>
<path d="M32.9429 56.7983C33.3021 57.3218 33.7167 57.8051 34.1794 58.2399C34.6372 58.6849 35.1587 59.0593 35.7267 59.3507L34.3513 58.0283C33.8951 57.6249 33.4388 57.1951 32.9429 56.7983Z" fill="#263238"/>
<path d="M33.9612 68.0131C35.5746 67.9668 34.4042 64.33 32.3544 63.4175C32.3544 63.4175 31.6799 68.0792 33.9612 68.0131Z" fill="#455A64"/>
<path d="M32.3411 63.5098C32.4153 64.1425 32.5572 64.7654 32.7643 65.3679C32.96 65.9754 33.2453 66.5504 33.6107 67.0739L33.0023 65.2885C32.7907 64.7198 32.5923 64.1247 32.3411 63.5098Z" fill="#263238"/>
<path d="M29.9938 74.275C31.5344 74.7775 31.6469 70.9687 29.9938 69.4082C30.0268 69.4082 27.8249 73.574 29.9938 74.275Z" fill="#455A64"/>
<path d="M29.9739 69.5137C29.8267 70.1334 29.7513 70.7679 29.7491 71.4048C29.7257 72.0426 29.7993 72.6803 29.9673 73.296V71.4114C30.0004 70.7833 30.0136 70.1551 29.9739 69.5137Z" fill="#263238"/>
<path d="M25.6561 77.3962C26.8728 78.4675 28.4928 75.0025 27.6398 72.9395C27.6134 72.9461 23.9435 75.9018 25.6561 77.3962Z" fill="#455A64"/>
<path d="M27.5206 73.0249C27.1404 73.5349 26.8208 74.0875 26.5684 74.6714C26.2942 75.2485 26.1092 75.8638 26.0195 76.4964L26.7932 74.7507C27.0445 74.1953 27.3023 73.6266 27.5206 73.0249Z" fill="#263238"/>
<path d="M17.8532 78.0573C18.0648 79.6641 21.5694 78.1234 22.2637 75.9942C22.2637 76.0008 17.5358 75.8024 17.8532 78.0573Z" fill="#455A64"/>
<path d="M22.1645 75.9941C21.543 76.1282 20.9393 76.3346 20.3659 76.6091C19.7791 76.8612 19.2349 77.2024 18.7524 77.6208L20.4651 76.8339C21.0073 76.5694 21.5826 76.3049 22.1645 75.9941Z" fill="#263238"/>
<path d="M28.6184 55.2642C30.1855 55.6543 30.0268 51.8323 28.2944 50.4106C28.2944 50.4106 26.4032 54.722 28.6184 55.2642Z" fill="#455A64"/>
<path d="M28.248 50.5229C28.15 51.1505 28.1212 51.7869 28.162 52.4207C28.1842 53.0591 28.3046 53.6903 28.5191 54.292L28.4133 52.4075C28.3736 51.7793 28.3339 51.1511 28.248 50.5229Z" fill="#263238"/>
<path d="M29.4384 58.438C30.536 59.6283 32.5066 56.3485 31.8453 54.2061C31.8585 54.2061 27.9043 56.7651 29.4384 58.438Z" fill="#455A64"/>
<path d="M31.7594 54.2524C31.3303 54.7224 30.9554 55.2393 30.6419 55.7931C30.3109 56.3395 30.0635 56.9324 29.908 57.552L30.8535 55.9188C31.1643 55.3964 31.4817 54.8542 31.7594 54.2524Z" fill="#263238"/>
<path d="M29.6434 63.6353C30.4303 65.0504 33.1215 62.3128 32.9893 60.0977C32.9893 60.0977 28.5391 61.645 29.6434 63.6353Z" fill="#455A64"/>
<path d="M32.8767 60.1377C32.3479 60.4927 31.86 60.9052 31.422 61.3676C30.971 61.82 30.5899 62.337 30.2913 62.9017L31.6137 61.5395C32.0303 61.0833 32.4667 60.6336 32.8767 60.1377Z" fill="#263238"/>
<path d="M27.0445 68.0589C27.1834 69.6724 30.7475 68.297 31.5476 66.2008C31.5476 66.2008 26.8528 65.7843 27.0445 68.0589Z" fill="#455A64"/>
<path d="M31.422 66.1943C30.7958 66.2985 30.1835 66.4737 29.597 66.7167C28.9995 66.9441 28.4399 67.2607 27.9373 67.6557L29.6895 66.9482C30.2714 66.7101 30.8533 66.4787 31.422 66.1943Z" fill="#263238"/>
<path d="M24.1087 71.5898C23.831 73.1834 27.6331 72.7602 28.9358 70.9286C28.9358 70.9418 24.4988 69.3482 24.1087 71.5898Z" fill="#455A64"/>
<path d="M28.8166 70.9028C28.1823 70.8465 27.5437 70.8598 26.9122 70.9425C26.2784 71.0124 25.6587 71.1774 25.074 71.4318L26.9453 71.1937C27.5669 71.1078 28.195 71.0284 28.8166 70.9028Z" fill="#263238"/>
<path d="M20.7562 73.475C19.8702 74.7975 23.5269 75.9481 25.4445 74.7975C25.4709 74.7909 22.0126 71.564 20.7562 73.475Z" fill="#455A64"/>
<path d="M25.3586 74.7111C24.7983 74.4068 24.2062 74.1651 23.593 73.9904C22.9823 73.8032 22.3473 73.7073 21.7085 73.7061L23.5203 74.2284C24.1485 74.4004 24.7304 74.5789 25.3586 74.7111Z" fill="#263238"/>
<path d="M16.9144 70.4924C15.3075 70.6378 16.6962 74.1953 18.7989 74.9822C18.7989 74.9822 19.1891 70.2874 16.9144 70.4924Z" fill="#455A64"/>
<path d="M18.8056 74.8571C18.697 74.2304 18.5173 73.6181 18.27 73.032C18.0389 72.437 17.7202 71.8798 17.3245 71.3789L18.0386 73.1312C18.2833 73.7065 18.5213 74.2884 18.8056 74.8571Z" fill="#263238"/>
<path d="M25.5832 50.3314C29.2531 49.2404 32.1956 52.8508 32.9891 56.1107C34.1661 61.2816 31.984 66.598 29.2729 70.9292C27.4347 73.6337 24.3996 76.9796 20.7693 76.0009C19.1228 75.5116 17.5425 74.3148 17.0796 72.6088C17.4116 73.3871 17.9274 74.0734 18.5826 74.6089C19.2379 75.1444 20.0132 75.5131 20.8421 75.6835C24.307 76.4572 26.9983 73.1642 28.777 70.5986C31.3294 66.36 33.4983 61.2552 32.5064 56.2297C31.8452 53.0756 29.2002 49.5446 25.5898 50.3314H25.5832Z" fill="#455A64"/>
<path d="M17.3244 53.2012C18.1444 54.8477 21.3316 51.8787 21.2919 49.3594C21.2919 49.3594 16.1673 50.8869 17.3244 53.2012Z" fill="#455A64"/>
<path d="M21.1596 49.4053C20.5414 49.7812 19.967 50.2247 19.447 50.7278C18.9253 51.2214 18.4797 51.7897 18.1245 52.4139L19.6454 50.946C20.181 50.4302 20.6769 49.9409 21.1596 49.4053Z" fill="#263238"/>
<path d="M14.7984 53.2278C16.2531 54.3586 17.8467 50.325 16.7094 48.0503C16.7094 48.0503 12.7551 51.6475 14.7984 53.2278Z" fill="#455A64"/>
<path d="M16.6103 48.1426C16.2168 48.7478 15.8929 49.3955 15.6449 50.0734C15.3744 50.7453 15.2072 51.4542 15.1489 52.1762L15.9094 50.1924C16.154 49.5047 16.4053 48.8369 16.6103 48.1426Z" fill="#263238"/>
<path d="M13.9716 58.0015C15.8099 58.0015 14.5535 53.829 12.2458 52.7578C12.2458 52.7578 11.3861 58.0345 13.9716 58.0015Z" fill="#455A64"/>
<path d="M12.2461 52.8901C12.3165 53.6095 12.465 54.319 12.6891 55.0061C12.8959 55.7103 13.208 56.3791 13.6149 56.9898L12.9536 54.9466C12.7156 54.2523 12.504 53.5911 12.2461 52.8901Z" fill="#263238"/>
<path d="M14.6595 64.4816C16.3126 63.6881 13.423 60.4546 10.8772 60.4546C10.8772 60.4546 12.3253 65.5991 14.6595 64.4816Z" fill="#455A64"/>
<path d="M10.9233 60.5874C11.2961 61.2118 11.7399 61.7909 12.2458 62.3132C12.7254 62.8558 13.2851 63.3219 13.9056 63.6952L12.4508 62.1215C11.935 61.5991 11.4523 61.0767 10.9233 60.5874Z" fill="#263238"/>
<path d="M15.6448 71.4446C17.298 70.6577 14.4083 67.4176 11.8691 67.4176C11.8691 67.3846 13.3107 72.5291 15.6448 71.4446Z" fill="#455A64"/>
<path d="M11.9087 67.5166C12.2834 68.1417 12.727 68.7228 13.2312 69.2491C13.7107 69.7916 14.2704 70.2577 14.8909 70.6311L13.4362 69.0573C12.9072 68.5349 12.4377 68.0125 11.9087 67.5166Z" fill="#263238"/>
<path d="M16.815 78.7182C18.4747 77.9247 15.5785 74.6912 13.0393 74.6846C13.0393 74.6978 14.4874 79.8489 16.815 78.7182Z" fill="#455A64"/>
<path d="M13.0793 74.8306C13.4437 75.454 13.8761 76.0351 14.3688 76.563C14.8522 77.1042 15.4138 77.5701 16.0351 77.945L14.5804 76.3713C14.091 75.8489 13.6083 75.3265 13.0793 74.8306Z" fill="#263238"/>
<path d="M16.0151 87.2555C17.8335 86.991 16.0151 83.0434 13.6082 82.2896C13.6082 82.2896 13.4561 87.6324 16.0151 87.2555Z" fill="#455A64"/>
<path d="M13.6016 82.4277C13.7681 83.1305 14.0098 83.8133 14.3223 84.4644C14.6241 85.1225 15.0206 85.733 15.4993 86.2762L14.5802 84.3387C14.2694 83.6973 13.9652 83.0559 13.6016 82.4277Z" fill="#263238"/>
<path d="M8.62253 92.0624C9.79293 93.4708 12.2329 89.8869 11.618 87.4336C11.618 87.4204 6.95619 90.0654 8.62253 92.0624Z" fill="#455A64"/>
<path d="M11.4986 87.4932C10.9841 87.9963 10.5272 88.5551 10.1365 89.1595C9.72369 89.7687 9.40701 90.4378 9.19751 91.1432L10.3745 89.2984C10.758 88.7165 11.1548 88.128 11.4986 87.4932Z" fill="#263238"/>
<path d="M16.425 44.2609C14.719 44.9222 17.3838 48.3606 19.9164 48.5326C19.9164 48.5326 18.8584 43.3021 16.425 44.2609Z" fill="#455A64"/>
<path d="M19.8899 48.4005C19.5664 47.7545 19.1716 47.1467 18.7129 46.5887C18.2717 46.014 17.7455 45.5101 17.1523 45.0942L18.4748 46.7606C18.9443 47.316 19.3873 47.8715 19.8899 48.4005Z" fill="#263238"/>
<path d="M9.06534 51.1844C9.12485 53.0161 13.251 51.6737 14.2759 49.3528C14.2759 49.3528 8.98599 48.5989 9.06534 51.1844Z" fill="#455A64"/>
<path d="M14.1437 49.3325C13.4244 49.4155 12.7167 49.5796 12.0343 49.8218C11.3458 50.0416 10.6947 50.3649 10.1035 50.7806L12.1269 50.1194C12.8014 49.8483 13.4759 49.6235 14.1437 49.3325Z" fill="#263238"/>
<path d="M7.51813 60.5079C8.41081 62.1147 11.4856 59.0267 11.3071 56.4941C11.3071 56.4941 6.25515 58.22 7.51813 60.5079Z" fill="#455A64"/>
<path d="M11.1748 56.5405C10.5762 56.9434 10.024 57.4114 9.52832 57.9358C9.0273 58.4498 8.60605 59.036 8.27856 59.6748L9.75975 58.1275C10.2226 57.6117 10.7186 57.096 11.1748 56.5405Z" fill="#263238"/>
<path d="M8.64878 69.018C9.97126 70.2612 11.955 66.3731 10.9962 64.019C10.9962 64.019 6.75101 67.2657 8.64878 69.018Z" fill="#455A64"/>
<path d="M10.8838 64.105C10.4406 64.6732 10.0635 65.2899 9.75963 65.9432C9.43735 66.5917 9.21444 67.2849 9.09839 67.9997L10.0241 66.0623C10.3151 65.4209 10.6259 64.7794 10.8838 64.105Z" fill="#263238"/>
<path d="M9.9185 76.1596C11.241 77.4028 13.2247 73.5147 12.2593 71.1606C12.2461 71.1606 8.01411 74.4074 9.9185 76.1596Z" fill="#455A64"/>
<path d="M12.1535 71.2466C11.7083 71.8146 11.3289 72.4313 11.0228 73.0848C10.7003 73.7332 10.4774 74.4265 10.3616 75.1413L11.2873 73.2039C11.5849 72.5625 11.889 71.9211 12.1535 71.2466Z" fill="#263238"/>
<path d="M10.295 82.4944C11.4522 83.9227 13.9253 80.3586 13.3368 77.8657C13.3368 77.8856 8.66839 80.4842 10.295 82.4944Z" fill="#455A64"/>
<path d="M13.218 77.958C12.6959 78.4546 12.2322 79.0092 11.836 79.6111C11.4189 80.2039 11.0955 80.8574 10.8772 81.5486L12.0674 79.7698C12.4642 79.1747 12.8609 78.5862 13.218 77.958Z" fill="#263238"/>
<path d="M7.49818 86.7788C7.41883 88.6104 11.6309 87.5789 12.8278 85.3373C12.8278 85.3307 7.6172 84.1933 7.49818 86.7788Z" fill="#455A64"/>
<path d="M12.6891 85.3306C11.9695 85.3587 11.2553 85.4674 10.5599 85.6546C9.86211 85.8294 9.19375 86.1056 8.57617 86.4745L10.6525 85.9323C11.3203 85.7273 12.008 85.5488 12.6891 85.3306Z" fill="#263238"/>
<path d="M2.64476 83.8698C0.991648 84.6567 3.86806 87.9034 6.40723 87.91C6.40723 87.91 4.97234 82.7589 2.64476 83.8698Z" fill="#455A64"/>
<path d="M6.37406 87.7773C5.99772 87.1533 5.55426 86.5724 5.05157 86.0449C4.57066 85.5018 4.01123 85.0338 3.39185 84.6562L4.84658 86.2366C5.36235 86.759 5.83845 87.3145 6.37406 87.7773Z" fill="#263238"/>
<path d="M21.9728 50.3905C19.3278 46.9984 15.3604 47.0843 13.3766 51.0518C11.7235 54.2522 11.2011 57.9948 11.2937 61.559C11.8756 68.793 14.5999 76.0005 13.6874 83.3403C12.9071 89.9065 6.03682 90.5214 3.47119 84.7223C6.07649 90.0123 12.6096 89.5825 13.1849 83.2676C13.9056 75.941 11.2011 68.8525 10.692 61.5854C10.6258 57.2543 11.5582 50.5955 15.5786 48.1754C17.926 46.9124 20.6569 48.3605 22.0059 50.3905H21.9728Z" fill="#455A64"/>
<path d="M277.036 33.5309C277.041 37.302 278.092 40.9978 280.073 44.2071C282.053 47.4164 284.885 50.0134 288.253 51.709C291.622 53.4047 295.395 54.1326 299.152 53.8117C302.91 53.4908 306.504 52.1337 309.537 49.8914L319.518 52.4382L315.363 43.1422C317.019 40.0385 317.842 36.559 317.754 33.0425C317.665 29.526 316.668 26.0923 314.859 23.0756C313.05 20.059 310.49 17.5621 307.43 15.8281C304.369 14.0941 300.912 13.182 297.394 13.1807C291.998 13.1869 286.825 15.3327 283.009 19.1475C279.192 22.9624 277.044 28.1349 277.036 33.5309V33.5309Z" fill="white"/>
<path d="M277.036 33.531C277.375 50.5381 296.007 59.4714 309.631 49.6235L319.637 52.1072L319.235 52.5802L315.056 43.3L314.977 43.1345L315.064 42.961C316.5 40.2732 317.306 37.2943 317.423 34.2492C317.539 31.2041 316.963 28.1723 315.736 25.3826C314.51 22.5928 312.666 20.1181 310.344 18.1451C308.021 16.1721 305.281 14.7523 302.33 13.9929C289.715 10.5473 276.981 20.4977 277.044 33.531H277.036ZM277.036 33.531C277.091 16.1848 297.331 6.676 310.735 17.7618C318.139 23.7462 320.417 35.0212 315.726 43.3631V43.032L319.85 52.3437L320.141 52.9981L319.448 52.8168L309.537 50.1676C296.819 59.8262 277.21 50.751 277.076 33.531H277.036Z" fill="#263238"/>
<path d="M294.698 21.2388H299.468L299.145 38.8136H295.021L294.698 21.2388Z" fill="#FFC727"/>
<path d="M299.145 41.0132H295.021V45.1368H299.145V41.0132Z" fill="#FFC727"/>
</svg>
