<svg width="44" height="44" viewBox="0 0 44 44" fill="none" xmlns="http://www.w3.org/2000/svg">
<path d="M3.54025 25.3787C1.58499 15.2727 8.1925 5.49509 18.2985 3.53983C28.4046 1.58457 38.1822 8.19207 40.1374 18.2981C42.0927 28.4041 35.4852 38.1817 25.3792 40.137C15.2731 42.0923 5.49552 35.4848 3.54025 25.3787Z" fill="#EBEBEB"/>
<path opacity="0.5" d="M26.5725 39.8647C29.4019 39.1235 32.017 37.7269 34.2066 35.7877C36.3961 33.8485 38.0985 31.4212 39.1761 28.7022C40.2538 25.9832 40.6763 23.0487 40.4097 20.136C40.143 17.2234 39.1947 14.4144 37.6413 11.9363C36.0878 9.45809 33.973 7.38028 31.4678 5.8709C28.9625 4.36151 26.1372 3.4629 23.2204 3.24776C20.3035 3.03262 17.3769 3.50697 14.6773 4.63246C11.9778 5.75795 9.58095 7.50299 7.68076 9.72643C10.3225 6.86856 13.9058 5.05853 17.7738 4.62808C21.6418 4.19764 25.5353 5.17563 28.7407 7.38279C31.9462 9.58995 34.2488 12.8784 35.2265 16.6454C36.2043 20.4125 35.7916 24.4057 34.0642 27.8932C32.3368 31.3807 29.4104 34.1288 25.8214 35.6338C22.2323 37.1388 18.221 37.3 14.5228 36.0877C10.8246 34.8753 7.68721 32.3708 5.68565 29.0331C3.6841 25.6954 2.95249 21.7481 3.62493 17.9148C2.95582 21.029 3.09571 24.2626 4.03127 27.3073C4.96683 30.3521 6.66684 33.1063 8.96918 35.3074C11.2715 37.5085 14.0994 39.083 17.1831 39.8808C20.2668 40.6786 23.5034 40.6731 26.5843 39.8647H26.5725Z" fill="#DBDBDB"/>
<path d="M9.75857 21.1913C9.89094 21.6922 10.1688 22.1427 10.557 22.4858C10.9453 22.8289 11.4265 23.0492 11.9399 23.119C12.4533 23.1888 12.9759 23.1048 13.4416 22.8777C13.9073 22.6506 14.2953 22.2906 14.5565 21.8432C14.8178 21.3957 14.9405 20.8809 14.9093 20.3637C14.8781 19.8465 14.6943 19.3502 14.3811 18.9374C14.068 18.5246 13.6395 18.2139 13.1499 18.0445C12.6602 17.8751 12.1313 17.8546 11.63 17.9856C11.296 18.0721 10.9824 18.2238 10.7073 18.432C10.4321 18.6402 10.2009 18.9009 10.027 19.1988C9.85303 19.4968 9.73975 19.8263 9.69369 20.1682C9.64762 20.5102 9.66967 20.8579 9.75857 21.1913Z" fill="#C7C7C7"/>
<path d="M26.9793 16.6747C27.1116 17.1756 27.3895 17.6261 27.7777 17.9692C28.166 18.3123 28.6472 18.5326 29.1606 18.6024C29.674 18.6721 30.1966 18.5882 30.6623 18.3611C31.128 18.134 31.516 17.774 31.7772 17.3266C32.0385 16.8791 32.1612 16.3643 32.13 15.8471C32.0988 15.3299 31.915 14.8336 31.6018 14.4208C31.2887 14.008 30.8602 13.6973 30.3706 13.5279C29.8809 13.3584 29.352 13.338 28.8507 13.469C28.5167 13.5555 28.2031 13.7072 27.928 13.9154C27.6528 14.1236 27.4216 14.3843 27.2477 14.6822C27.0737 14.9802 26.9605 15.3097 26.9144 15.6516C26.8683 15.9936 26.8904 16.3413 26.9793 16.6747Z" fill="#C7C7C7"/>
<path d="M25.2089 15.9609C25.2124 17.0924 24.8907 18.201 24.2821 19.1548C23.6413 20.0204 22.7148 20.6311 21.6667 20.8787C20.6414 21.202 19.5334 21.1411 18.5496 20.7075C17.5393 20.1956 16.6804 19.4283 16.0582 18.4818C16.4118 19.6586 17.1848 20.6648 18.2308 21.3097C18.7702 21.6351 19.3751 21.8367 20.0019 21.9C20.6336 21.9494 21.269 21.8874 21.8793 21.717C22.4855 21.5453 23.0597 21.2761 23.5795 20.92C24.0999 20.5483 24.5298 20.064 24.837 19.5031C25.4185 18.4162 25.552 17.145 25.2089 15.9609Z" fill="#C7C7C7"/>
</svg>
