<svg width="337" height="200" viewBox="0 0 337 200" fill="none" xmlns="http://www.w3.org/2000/svg">
<path d="M294.196 128.491C312.924 114.287 316.591 87.591 302.388 68.8631C288.184 50.1353 261.488 46.4677 242.76 60.6713C224.032 74.8749 220.365 101.571 234.568 120.299C248.772 139.027 275.468 142.694 294.196 128.491Z" fill="#FFC727"/>
<path opacity="0.1" d="M248.781 132.306C242.854 129.218 237.737 124.778 233.845 119.346C229.953 113.913 227.394 107.641 226.377 101.036C225.359 94.4307 225.911 87.6789 227.988 81.3268C230.065 74.9748 233.608 69.2009 238.331 64.4727C243.054 59.7445 248.824 56.1947 255.173 54.1107C261.523 52.0268 268.274 51.4671 274.88 52.4772C281.487 53.4872 287.762 56.0385 293.199 59.9246C298.636 63.8107 303.081 68.9223 306.176 74.8457C301.748 67.1379 294.691 61.2841 286.297 58.3574C277.904 55.4306 268.737 55.6271 260.476 58.9106C252.216 62.1942 245.416 68.3449 241.322 76.2353C237.229 84.1257 236.116 93.2272 238.189 101.871C240.261 110.515 245.38 118.123 252.606 123.3C259.832 128.476 268.682 130.875 277.533 130.056C286.384 129.237 294.644 125.256 300.798 118.841C306.952 112.427 310.588 104.01 311.039 95.1321C310.943 102.403 308.987 109.528 305.356 115.828C301.726 122.129 296.542 127.395 290.3 131.124C284.058 134.853 276.964 136.922 269.696 137.132C262.427 137.343 255.226 135.689 248.778 132.327L248.781 132.306Z" fill="black"/>
<path d="M249.042 74.9333C249.326 74.1163 249.771 73.3642 250.349 72.7213C250.928 72.0784 251.63 71.5575 252.412 71.1893C253.233 70.7886 254.133 70.5738 255.046 70.56C255.988 70.5567 256.917 70.7819 257.752 71.2164C258.588 71.6509 259.305 72.2817 259.843 73.0546C260.36 73.8092 260.699 74.6718 260.833 75.5768C260.98 76.4299 260.955 77.304 260.758 78.1471C260.562 78.9903 260.198 79.7855 259.689 80.4856C260.099 78.9636 260.081 77.3578 259.636 75.8455C259.45 75.1558 259.122 74.5122 258.675 73.9553C258.227 73.3984 257.669 72.9402 257.036 72.6097C256.403 72.2792 255.708 72.0834 254.995 72.0349C254.282 71.9863 253.567 72.086 252.895 72.3276C251.393 72.8212 250.059 73.7235 249.042 74.9333Z" fill="#263238"/>
<path d="M285.078 93.7387C285.363 92.9218 285.807 92.1699 286.386 91.5271C286.965 90.8842 287.666 90.3632 288.448 89.9947C289.271 89.5896 290.173 89.3748 291.09 89.3664C292.027 89.3651 292.951 89.5902 293.782 90.0226C294.609 90.4597 295.32 91.0857 295.859 91.8498C296.375 92.6084 296.716 93.4729 296.855 94.3801C296.997 95.2337 296.968 96.1069 296.77 96.9493C296.573 97.7918 296.21 98.5866 295.703 99.288C296.113 97.7666 296.097 96.162 295.658 94.6489C295.471 93.9588 295.143 93.315 294.695 92.7579C294.246 92.2009 293.688 91.7426 293.054 91.4121C292.42 91.0815 291.724 90.8858 291.011 90.8372C290.298 90.7887 289.582 90.8883 288.909 91.1299C287.416 91.6304 286.091 92.5331 285.078 93.7387Z" fill="#263238"/>
<path d="M265.205 81.3244C264.726 83.4259 264.868 85.6214 265.614 87.6435C266.459 89.5222 267.941 91.0417 269.797 91.9333C271.587 92.9482 273.685 93.2757 275.699 92.8542C277.786 92.3005 279.69 91.2043 281.216 89.6768C280.074 91.7079 278.233 93.2553 276.036 94.0313C274.888 94.417 273.67 94.5478 272.467 94.4146C271.28 94.2492 270.131 93.8802 269.07 93.3239C268.014 92.7625 267.055 92.0332 266.232 91.1645C265.421 90.2678 264.815 89.2049 264.457 88.0499C263.827 85.7957 264.095 83.3852 265.205 81.3244Z" fill="#263238"/>
<path d="M36.6671 160.101C54.7254 161.663 70.6305 148.29 72.1921 130.232C73.7537 112.173 60.3806 96.2682 42.3223 94.7065C24.264 93.1449 8.35887 106.518 6.79723 124.576C5.23558 142.635 18.6088 158.54 36.6671 160.101Z" fill="#FFC727"/>
<path opacity="0.1" d="M44.5809 159.832C39.4933 160.629 34.2895 160.217 29.3903 158.63C24.4912 157.044 20.0342 154.326 16.3797 150.698C12.7252 147.07 9.97582 142.633 8.35379 137.745C6.73176 132.858 6.28264 127.657 7.04273 122.564C7.80283 117.47 9.7508 112.627 12.7292 108.426C15.7075 104.225 19.6327 100.784 24.1873 98.3809C28.7418 95.9778 33.798 94.6802 38.9469 94.593C44.0959 94.5057 49.1931 95.6314 53.8265 97.8789C47.5487 95.1223 40.4878 94.7207 33.938 96.7476C27.3882 98.7746 21.7883 103.094 18.165 108.915C14.5417 114.736 13.1377 121.667 14.2103 128.439C15.2829 135.211 18.7603 141.369 24.0051 145.785C29.2498 150.201 35.9105 152.579 42.7661 152.483C49.6217 152.386 56.2129 149.822 61.3314 145.261C66.45 140.699 69.7529 134.445 70.6347 127.646C71.5166 120.847 69.9182 113.957 66.1327 108.241C69.4024 112.795 71.4514 118.111 72.0844 123.682C72.7175 129.252 71.9135 134.892 69.7492 140.064C67.5848 145.236 64.1322 149.768 59.7202 153.227C55.3082 156.687 50.0838 158.959 44.5449 159.827L44.5809 159.832Z" fill="black"/>
<path d="M18.7619 125.925C18.5415 125.288 18.4551 124.612 18.5083 123.939C18.5615 123.267 18.7532 122.613 19.0711 122.018C19.394 121.376 19.8602 120.817 20.4336 120.384C21.0264 119.945 21.7159 119.654 22.4443 119.537C23.1749 119.426 23.9215 119.496 24.619 119.74C25.2969 119.982 25.9108 120.375 26.414 120.89C26.8956 121.362 27.274 121.929 27.5255 122.555C27.7769 123.181 27.8958 123.852 27.8747 124.527C27.3967 123.424 26.637 122.466 25.6718 121.75C24.8105 121.106 23.7299 120.828 22.6649 120.977C22.14 121.063 21.6371 121.251 21.1853 121.532C20.7334 121.812 20.3415 122.18 20.032 122.612C19.3236 123.585 18.8854 124.728 18.7619 125.925Z" fill="#263238"/>
<path d="M58.5637 117.855C58.7042 118.757 58.574 119.681 58.1895 120.509C57.805 121.338 57.1835 122.034 56.4035 122.509C55.6236 122.984 54.7203 123.218 53.8077 123.18C52.8951 123.142 52.0143 122.834 51.2766 122.296C50.5389 121.757 49.9774 121.012 49.6631 120.154C49.3487 119.297 49.2957 118.365 49.5107 117.478C49.7257 116.59 50.1991 115.786 50.871 115.167C51.5428 114.549 52.3831 114.143 53.2854 114.002C53.885 113.908 54.4973 113.933 55.0871 114.076C55.6769 114.219 56.2329 114.476 56.723 114.834C57.2132 115.192 57.6281 115.643 57.944 116.161C58.2598 116.679 58.4704 117.255 58.5637 117.855Z" fill="#263238"/>
<path d="M31.377 123.297C31.377 123.297 33.062 126.37 38.0812 126.604C38.0812 126.604 36.0785 135.837 30.5363 132.836C24.9941 129.836 31.377 123.297 31.377 123.297Z" fill="#DD6A57"/>
<path d="M29.9536 120.297C30.7259 122.135 32.0178 123.709 33.6709 124.824C35.3198 125.784 37.2574 126.123 39.1342 125.78C41.0365 125.59 42.8011 124.703 44.0874 123.289C45.3491 121.746 46.1784 119.897 46.4904 117.929C46.7195 120.075 46.1623 122.231 44.9224 123.998C44.2586 124.907 43.4033 125.659 42.417 126.202C41.4343 126.727 40.3675 127.078 39.2645 127.237C38.1698 127.387 37.0578 127.356 35.9732 127.144C34.8799 126.911 33.8517 126.439 32.962 125.762C31.2909 124.397 30.2128 122.439 29.9536 120.297Z" fill="#263238"/>
<path d="M32.0073 130.52C32.1805 129.64 32.4853 128.791 32.9113 128.001C33.3118 127.196 33.8343 126.458 34.4601 125.813C34.2904 126.697 33.9851 127.549 33.5551 128.339C33.156 129.142 32.6338 129.878 32.0073 130.52Z" fill="#263238"/>
<path d="M141.42 163.599C168.153 167.271 192.801 148.577 196.474 121.845C200.146 95.1123 181.452 70.4641 154.72 66.7915C127.987 63.1188 103.339 81.8126 99.6664 108.545C95.9938 135.278 114.688 159.926 141.42 163.599Z" fill="#FFC727"/>
<path opacity="0.1" d="M141.413 163.598C133.817 162.554 126.574 159.738 120.269 155.376C113.963 151.015 108.773 145.23 105.117 138.491C101.461 131.752 99.4424 124.247 99.2244 116.583C99.0064 108.919 100.595 101.312 103.862 94.3758C107.129 87.4397 111.982 81.3698 118.029 76.6569C124.077 71.944 131.148 68.7204 138.672 67.2468C146.196 65.7732 153.961 66.0909 161.34 68.1744C168.718 70.2578 175.503 74.0485 181.145 79.2397C173.368 72.6207 163.466 69.0264 153.254 69.1158C143.043 69.2052 133.205 72.9722 125.546 79.7264C117.886 86.4805 112.917 95.7691 111.551 105.889C110.184 116.01 112.511 126.284 118.105 134.827C123.698 143.371 132.184 149.613 142.006 152.408C151.829 155.203 162.329 154.364 171.583 150.044C180.837 145.725 188.224 138.216 192.39 128.892C196.556 119.568 197.222 109.055 194.265 99.2801C196.986 107.176 197.637 115.638 196.156 123.857C194.676 132.076 191.113 139.778 185.809 146.229C180.504 152.679 173.634 157.662 165.856 160.702C158.077 163.742 149.65 164.737 141.377 163.593L141.413 163.598Z" fill="black"/>
<path d="M125.331 109.266C129.096 109.784 132.567 107.151 133.084 103.386C133.602 99.621 130.969 96.1496 127.204 95.6323C123.439 95.1151 119.968 97.7479 119.45 101.513C118.933 105.278 121.566 108.749 125.331 109.266Z" fill="#263238"/>
<path d="M171.558 115.617C175.323 116.135 178.795 113.502 179.312 109.737C179.829 105.972 177.196 102.501 173.431 101.983C169.666 101.466 166.195 104.099 165.678 107.864C165.161 111.629 167.793 115.1 171.558 115.617Z" fill="#263238"/>
<path d="M159.938 104.968C159.563 107.691 158.123 110.155 155.932 111.816C153.742 113.477 150.982 114.2 148.258 113.826C145.535 113.452 143.071 112.011 141.41 109.821C139.749 107.63 139.026 104.87 139.4 102.146L159.938 104.968Z" fill="#263238"/>
<path d="M156.784 111.091C155.657 112.156 154.306 112.954 152.83 113.427C151.354 113.9 149.79 114.036 148.254 113.826C146.719 113.615 145.25 113.062 143.956 112.208C142.662 111.354 141.577 110.221 140.779 108.892C143.27 107.288 146.253 106.627 149.188 107.031C152.123 107.434 154.818 108.874 156.784 111.091Z" fill="#DD6A57"/>
</svg>
