<svg width="127" height="126" viewBox="0 0 127 126" fill="none" xmlns="http://www.w3.org/2000/svg">
<path d="M60.3068 85.8343C59.7426 91.8786 61.2016 99.1009 58.7115 106.207C56.5034 112.294 52.3682 117.507 46.9252 121.064C41.4822 124.622 35.0244 126.334 28.5192 125.943C16.2244 125.537 5.17458 115.979 1.40053 104.353C-4.26054 86.6259 10.1159 65.7315 30.9509 66.2143C39.5106 66.4267 48.0898 66.3301 56.6494 66.2143C59.4702 66.2143 60.5402 67.1412 60.3457 69.8834" fill="#1D3C58"/>
<path d="M28.8687 59.7455C13.6947 60.2476 1.63328 46.054 0.154787 32.884C-1.38207 18.4394 8.69503 5.15344 22.838 1.02089C39.4516 -3.80684 60.8508 9.57565 60.2672 29.9873C60.0143 38.6386 60.1505 47.3672 60.2672 55.9606C60.2672 58.9152 59.2945 59.9772 56.3764 59.8227" fill="#FDB839"/>
<path d="M70.1112 59.745C67.5238 59.745 66.5511 58.8181 66.5706 56.269C66.6678 46.6136 66.2982 36.9581 66.7067 27.3026C67.3098 13.0898 79.8381 0.92388 94.195 0.054887C101.438 -0.378458 108.599 1.76505 114.392 6.10064C120.186 10.4362 124.234 16.6799 125.808 23.7108C130.048 42.8673 114.33 60.7879 95.8486 59.7644" fill="#FF6E41"/>
</svg>
